<svg xmlns="http://www.w3.org/2000/svg" xmlns:xlink="http://www.w3.org/1999/xlink" width="500" zoomAndPan="magnify" viewBox="0 0 375 374.999991" height="500" preserveAspectRatio="xMidYMid meet" version="1.0"><defs><clipPath id="7772b86b96"><path d="M 133 2.484375 L 248 2.484375 L 248 125 L 133 125 Z M 133 2.484375 " clip-rule="nonzero"/></clipPath><clipPath id="6f36c6fec6"><path d="M 87.128906 165 L 134 165 L 134 297 L 87.128906 297 Z M 87.128906 165 " clip-rule="nonzero"/></clipPath><clipPath id="7da9579681"><path d="M 138 235 L 269 235 L 269 372.234375 L 138 372.234375 Z M 138 235 " clip-rule="nonzero"/></clipPath></defs><path fill="#ff6929" d="M 223 145.8125 C 225.277344 144.960938 228.582031 144.605469 229.445312 146.878906 C 230.234375 148.945312 228.070312 150.824219 226.371094 152.238281 C 217.980469 159.210938 215.960938 171.589844 218.128906 182.28125 C 218.835938 185.769531 219.851562 189.664062 217.933594 192.660156 C 197.230469 224.972656 176.527344 257.289062 155.824219 289.601562 C 154.820312 291.167969 153.640625 292.863281 151.828125 293.285156 C 150.46875 293.597656 149.0625 293.109375 147.753906 292.628906 C 144.878906 291.570312 141.953125 290.488281 139.515625 288.628906 C 137.082031 286.769531 135.160156 283.988281 135.089844 280.925781 C 134.675781 262.679688 135.730469 244.398438 138.238281 226.320312 C 142.058594 198.8125 149.8125 170.6875 168.203125 149.875 C 169.335938 148.589844 170.867188 147.21875 172.53125 147.625 C 174.367188 148.070312 175.023438 150.34375 175.035156 152.230469 C 175.046875 154.117188 174.820312 156.21875 176.011719 157.679688 C 177.1875 159.125 179.285156 159.34375 181.148438 159.324219 C 195.902344 159.15625 209.179688 150.988281 223 145.8125 Z M 223 145.8125 " fill-opacity="1" fill-rule="nonzero"/><path fill="#ff6929" d="M 180.601562 311.753906 C 176.1875 307.976562 172.226562 303.445312 166.90625 301.109375 C 164.453125 300.03125 161.390625 299.0625 160.734375 296.464844 C 160.199219 294.363281 161.601562 292.304688 162.917969 290.582031 C 186.1875 260.117188 207.820312 228.4375 229.4375 196.777344 C 231.179688 194.226562 232.980469 190.972656 231.546875 188.238281 C 225.984375 177.632812 228.808594 163.441406 237.742188 155.46875 C 246.675781 147.496094 260.796875 146.210938 271.226562 152.089844 C 281.65625 157.96875 287.84375 170.417969 286.644531 182.332031 C 285.535156 193.308594 278.960938 202.859375 272.59375 211.867188 C 248.105469 246.5 223.402344 281.265625 193.472656 311.316406 C 191.894531 312.898438 190.144531 314.554688 187.929688 314.871094 C 185.214844 315.261719 182.679688 313.535156 180.601562 311.753906 Z M 180.601562 311.753906 " fill-opacity="1" fill-rule="nonzero"/><g clip-path="url(#7772b86b96)"><path fill="#ff6929" d="M 139.160156 46.96875 C 139.59375 37.21875 144.726562 28.082031 151.789062 21.347656 C 158.847656 14.617188 167.722656 10.066406 176.828125 6.566406 C 181.21875 4.878906 185.738281 3.402344 190.421875 2.945312 C 194.980469 2.5 199.59375 3.035156 204.070312 4.011719 C 214.160156 6.210938 223.820312 10.746094 231.515625 17.632812 C 239.210938 24.519531 244.863281 33.8125 246.78125 43.960938 C 248.101562 50.964844 247.636719 58.300781 245.441406 65.082031 C 244.050781 69.382812 241.9375 73.503906 238.851562 76.804688 C 236.597656 79.214844 233.882812 81.136719 231.132812 82.957031 C 225.082031 86.960938 218.769531 90.570312 212.25 93.753906 C 206.65625 96.484375 200.882812 98.914062 195.652344 102.289062 C 185.753906 108.683594 177.941406 118.363281 167.050781 122.863281 C 161.382812 125.203125 153.839844 125.523438 150.117188 120.65625 C 149.03125 119.238281 148.40625 117.53125 147.792969 115.855469 C 145.492188 109.539062 143.191406 103.222656 140.886719 96.90625 C 140.503906 95.851562 140.003906 94.671875 138.949219 94.285156 C 134.421875 92.613281 133.109375 86.621094 134.25 81.929688 C 135.390625 77.238281 138.199219 73.082031 139.332031 68.390625 C 141.015625 61.421875 138.84375 54.128906 139.160156 46.96875 M 191.410156 74.773438 C 195.566406 77.40625 200.980469 77.703125 205.617188 76.050781 C 210.253906 74.398438 214.128906 70.949219 216.816406 66.824219 C 219.800781 62.242188 221.417969 56.65625 220.675781 51.238281 C 219.933594 45.820312 216.65625 40.667969 211.75 38.25 C 207.003906 35.910156 201.148438 36.320312 196.460938 38.78125 C 191.769531 41.238281 188.21875 45.5625 186.105469 50.417969 C 184.296875 54.566406 183.476562 59.222656 184.273438 63.675781 C 185.070312 68.132812 187.582031 72.355469 191.410156 74.773438 Z M 191.410156 74.773438 " fill-opacity="1" fill-rule="nonzero"/></g><path fill="#ff6929" d="M 101.21875 322.117188 C 98.898438 316.871094 101.542969 310.871094 104.175781 305.769531 C 105.375 303.441406 106.800781 300.917969 109.273438 300.046875 C 110.867188 299.484375 112.621094 299.726562 114.296875 299.972656 C 120.589844 300.910156 126.882812 301.84375 133.175781 302.777344 C 136.632812 303.292969 140.589844 303.671875 143.222656 301.371094 C 146.375 298.621094 151.101562 298.320312 155.089844 299.574219 C 159.078125 300.828125 162.5 303.40625 165.792969 305.984375 C 171.082031 310.121094 176.625 314.941406 177.847656 321.542969 C 179.175781 328.734375 174.71875 336.003906 168.707031 340.175781 C 162.699219 344.34375 155.371094 346.054688 148.238281 347.679688 C 142.839844 348.910156 137.257812 346.917969 132.230469 344.59375 C 122.976562 340.320312 114.292969 334.808594 106.484375 328.257812 C 104.402344 326.507812 102.320312 324.605469 101.21875 322.117188 Z M 101.21875 322.117188 " fill-opacity="1" fill-rule="nonzero"/><g clip-path="url(#6f36c6fec6)"><path fill="#ff6929" d="M 93.320312 174.042969 C 93.699219 172.429688 94.109375 170.796875 94.960938 169.375 C 97.453125 165.21875 103.363281 164.023438 107.835938 165.894531 C 112.308594 167.765625 115.410156 172.027344 117.132812 176.558594 C 118.851562 181.089844 119.40625 185.964844 120.210938 190.746094 C 122.878906 206.570312 128.488281 222.089844 128.007812 238.128906 C 129.890625 236.753906 132.746094 238.304688 133.570312 240.484375 C 134.398438 242.664062 133.847656 245.089844 133.359375 247.367188 C 131.347656 256.695312 130.457031 266.265625 130.703125 275.804688 C 130.796875 279.351562 130.261719 283.996094 126.792969 284.742188 C 124.199219 285.300781 123.96875 288.824219 122.847656 291.234375 C 120.792969 295.640625 114.988281 296.617188 110.132812 296.390625 C 105.839844 296.1875 101.347656 295.410156 98.015625 292.699219 C 94.761719 290.046875 93.089844 285.941406 91.894531 281.914062 C 88.570312 270.695312 88.003906 258.863281 87.722656 247.164062 C 87.136719 222.65625 87.730469 197.910156 93.320312 174.042969 Z M 93.320312 174.042969 " fill-opacity="1" fill-rule="nonzero"/></g><g clip-path="url(#7da9579681)"><path fill="#ff6929" d="M 265.609375 249.539062 C 256.523438 266.585938 248.828125 284.558594 245.105469 303.511719 C 241.382812 322.46875 241.789062 342.527344 248.535156 360.628906 C 249.289062 362.65625 250.132812 364.710938 250.144531 366.875 C 250.15625 369.035156 249.105469 371.367188 247.089844 372.148438 C 246.152344 372.507812 245.121094 372.503906 244.121094 372.496094 C 210.59375 372.171875 177.070312 371.847656 143.542969 371.523438 C 142.566406 371.515625 141.542969 371.496094 140.683594 371.027344 C 138.867188 370.042969 138.558594 367.613281 138.46875 365.550781 C 138.375 363.40625 138.277344 361.265625 138.183594 359.125 C 138.074219 356.671875 138.941406 353.242188 141.375 353.558594 C 152.726562 355.023438 164.304688 351.320312 173.960938 345.175781 C 183.621094 339.035156 191.585938 330.589844 198.960938 321.835938 C 220.0625 296.789062 237.101562 268.644531 255.421875 241.496094 C 257.625 238.226562 261.078125 234.53125 264.789062 235.851562 C 267.25 236.730469 268.492188 239.636719 268.304688 242.242188 C 268.121094 244.851562 266.835938 247.230469 265.609375 249.539062 Z M 265.609375 249.539062 " fill-opacity="1" fill-rule="nonzero"/></g><path fill="#ff6929" d="M 234.691406 99.171875 C 235.128906 111.339844 241.371094 122.40625 246.683594 133.363281 C 247.5 135.050781 248.304688 137.054688 247.449219 138.722656 C 246.453125 140.679688 243.84375 140.996094 241.652344 141.097656 C 223.140625 141.976562 204.757812 145.546875 187.261719 151.660156 C 185.6875 152.210938 183.957031 152.785156 182.398438 152.183594 C 179.859375 151.207031 179.363281 147.878906 179.351562 145.160156 C 179.316406 137.609375 179.890625 130.058594 181.074219 122.605469 C 181.84375 117.769531 183.441406 112.242188 187.984375 110.414062 C 201.160156 105.109375 214.027344 99.027344 226.488281 92.214844 C 227.875 91.457031 229.40625 90.664062 230.953125 90.980469 C 234.140625 91.632812 234.574219 95.914062 234.691406 99.171875 Z M 234.691406 99.171875 " fill-opacity="1" fill-rule="nonzero"/><path fill="#ff6929" d="M 118.699219 158.351562 C 117.769531 159.859375 116.789062 161.414062 115.304688 162.378906 C 113.800781 163.355469 111.949219 163.613281 110.160156 163.695312 C 106.871094 163.847656 103.558594 163.484375 100.378906 162.628906 C 98.347656 162.082031 96.058594 160.976562 95.746094 158.894531 C 95.621094 158.082031 95.835938 157.265625 96.054688 156.472656 C 99.171875 145.144531 103.261719 134.082031 108.261719 123.445312 C 109.023438 121.824219 109.863281 120.144531 111.328125 119.113281 C 112.792969 118.082031 115.074219 117.984375 116.199219 119.375 C 119.738281 123.753906 123.273438 128.128906 126.8125 132.507812 C 127.960938 133.925781 129.144531 135.421875 129.480469 137.214844 C 129.984375 139.898438 128.492188 142.511719 127.054688 144.835938 C 124.269531 149.339844 121.484375 153.847656 118.699219 158.351562 Z M 118.699219 158.351562 " fill-opacity="1" fill-rule="nonzero"/><path fill="#ff6929" d="M 196.941406 69.628906 C 194.492188 68.761719 192.59375 66.640625 191.679688 64.207031 C 190.769531 61.769531 190.769531 59.058594 191.34375 56.523438 C 192.136719 53.019531 194.011719 49.773438 196.648438 47.335938 C 199.855469 44.375 204.730469 42.667969 208.652344 44.582031 C 212.925781 46.667969 214.421875 52.261719 213.476562 56.925781 C 212.625 61.132812 210.164062 64.992188 206.707031 67.535156 C 203.914062 69.589844 200.207031 70.785156 196.941406 69.628906 Z M 196.941406 69.628906 " fill-opacity="1" fill-rule="nonzero"/><path fill="#ff6929" d="M 143.222656 111.070312 C 142.367188 113.027344 139.90625 113.664062 137.769531 113.699219 C 135.632812 113.734375 133.359375 113.453125 131.484375 114.480469 C 133.230469 115.550781 135.46875 114.941406 137.511719 115.046875 C 141.613281 115.261719 144.949219 118.441406 147.242188 121.847656 C 148.144531 123.191406 148.972656 124.703125 148.886719 126.3125 C 148.800781 127.925781 147.429688 129.5625 145.828125 129.351562 C 145.074219 129.253906 144.492188 130.097656 144.488281 130.855469 C 144.484375 131.613281 144.847656 132.320312 145.046875 133.050781 C 145.585938 135.027344 144.808594 137.292969 143.167969 138.519531 C 141.53125 139.75 139.140625 139.863281 137.394531 138.796875 C 136.378906 138.179688 135.613281 137.230469 134.871094 136.304688 C 130 130.238281 125.132812 124.175781 120.261719 118.109375 C 119.144531 116.714844 118.027344 114.625 119.25 113.320312 C 121.910156 110.488281 124.757812 107.738281 128.214844 105.964844 C 131.671875 104.1875 135.851562 103.488281 139.476562 104.886719 C 141.992188 105.859375 144.304688 108.597656 143.222656 111.070312 Z M 143.222656 111.070312 " fill-opacity="1" fill-rule="nonzero"/></svg>