<svg xmlns="http://www.w3.org/2000/svg" xmlns:xlink="http://www.w3.org/1999/xlink" width="500" zoomAndPan="magnify" viewBox="0 0 375 374.999991" height="500" preserveAspectRatio="xMidYMid meet" version="1.0"><defs><clipPath id="6118ba7060"><path d="M 28 28 L 347 28 L 347 347 L 28 347 Z M 28 28 " clip-rule="nonzero"/></clipPath><clipPath id="cb2211954e"><path d="M 184.421875 -4.734375 L 379.414062 190.257812 L 190.253906 379.417969 L -4.738281 184.425781 Z M 184.421875 -4.734375 " clip-rule="nonzero"/></clipPath><clipPath id="54b06bcfc7"><path d="M 133.796875 322.960938 C 118.339844 307.503906 109.839844 286.085938 110.464844 264.214844 C 88.589844 264.839844 67.175781 256.339844 51.71875 240.878906 C 20.59375 209.757812 20.59375 159.09375 51.71875 127.96875 C 65.882812 113.804688 84.675781 105.511719 104.675781 104.679688 C 105.507812 84.679688 113.796875 65.886719 127.964844 51.722656 C 159.089844 20.597656 209.753906 20.597656 240.875 51.722656 C 256.335938 67.179688 264.832031 88.59375 264.207031 110.46875 C 286.082031 109.84375 307.5 118.34375 322.957031 133.800781 C 354.078125 164.925781 354.078125 215.589844 322.957031 246.714844 C 308.789062 260.878906 290 269.171875 270 270.003906 C 269.125 289.960938 260.875 308.792969 246.710938 322.960938 C 215.585938 354.085938 164.921875 354.085938 133.796875 322.960938 Z M 133.796875 322.960938 " clip-rule="nonzero"/></clipPath><clipPath id="7021c71e7b"><path d="M 0 0 L 319 0 L 319 319 L 0 319 Z M 0 0 " clip-rule="nonzero"/></clipPath><clipPath id="8548cf79e3"><path d="M 156.421875 -32.734375 L 351.414062 162.257812 L 162.253906 351.417969 L -32.738281 156.425781 Z M 156.421875 -32.734375 " clip-rule="nonzero"/></clipPath><clipPath id="cf635d9887"><path d="M 105.796875 294.960938 C 90.339844 279.503906 81.839844 258.085938 82.464844 236.214844 C 60.589844 236.839844 39.175781 228.339844 23.71875 212.878906 C -7.40625 181.757812 -7.40625 131.09375 23.71875 99.96875 C 37.882812 85.804688 56.675781 77.511719 76.675781 76.679688 C 77.507812 56.679688 85.796875 37.886719 99.964844 23.722656 C 131.089844 -7.402344 181.753906 -7.402344 212.875 23.722656 C 228.335938 39.179688 236.832031 60.59375 236.207031 82.46875 C 258.082031 81.84375 279.5 90.34375 294.957031 105.800781 C 326.078125 136.925781 326.078125 187.589844 294.957031 218.714844 C 280.789062 232.878906 262 241.171875 242 242.003906 C 241.125 261.960938 232.875 280.792969 218.710938 294.960938 C 187.585938 326.085938 136.921875 326.085938 105.796875 294.960938 Z M 105.796875 294.960938 " clip-rule="nonzero"/></clipPath><clipPath id="0ff5f647fa"><rect x="0" width="319" y="0" height="319"/></clipPath><clipPath id="1196609031"><path d="M 1 1 L 374 1 L 374 374 L 1 374 Z M 1 1 " clip-rule="nonzero"/></clipPath><clipPath id="99987cf7ee"><path d="M 183.917969 -37.703125 L 412.378906 190.757812 L 190.753906 412.386719 L -37.710938 183.925781 Z M 183.917969 -37.703125 " clip-rule="nonzero"/></clipPath><clipPath id="1e2c1e39f0"><path d="M 124.605469 346.238281 C 106.496094 328.128906 96.535156 303.039062 97.269531 277.410156 C 71.640625 278.140625 46.546875 268.183594 28.4375 250.070312 C -8.027344 213.605469 -8.027344 154.242188 28.4375 117.777344 C 45.035156 101.179688 67.050781 91.464844 90.484375 90.488281 C 91.460938 67.058594 101.171875 45.039062 117.769531 28.441406 C 154.238281 -8.023438 213.597656 -8.023438 250.066406 28.441406 C 268.175781 46.554688 278.132812 71.644531 277.402344 97.273438 C 303.03125 96.542969 328.121094 106.5 346.234375 124.613281 C 382.699219 161.078125 382.699219 220.4375 346.234375 256.90625 C 329.636719 273.503906 307.621094 283.21875 284.1875 284.195312 C 283.164062 307.578125 273.496094 329.640625 256.898438 346.238281 C 220.433594 382.707031 161.070312 382.707031 124.605469 346.238281 Z M 124.605469 346.238281 " clip-rule="nonzero"/></clipPath><clipPath id="023c5ee0b1"><path d="M 0 0 L 373 0 L 373 373 L 0 373 Z M 0 0 " clip-rule="nonzero"/></clipPath><clipPath id="73bfbe219d"><path d="M 182.917969 -38.703125 L 411.378906 189.757812 L 189.753906 411.386719 L -38.710938 182.925781 Z M 182.917969 -38.703125 " clip-rule="nonzero"/></clipPath><clipPath id="c841ac9532"><path d="M 123.605469 345.238281 C 105.496094 327.128906 95.535156 302.039062 96.269531 276.410156 C 70.640625 277.140625 45.546875 267.183594 27.4375 249.070312 C -9.027344 212.605469 -9.027344 153.242188 27.4375 116.777344 C 44.035156 100.179688 66.050781 90.464844 89.484375 89.488281 C 90.460938 66.058594 100.171875 44.039062 116.769531 27.441406 C 153.238281 -9.023438 212.597656 -9.023438 249.066406 27.441406 C 267.175781 45.554688 277.132812 70.644531 276.402344 96.273438 C 302.03125 95.542969 327.121094 105.5 345.234375 123.613281 C 381.699219 160.078125 381.699219 219.4375 345.234375 255.90625 C 328.636719 272.503906 306.621094 282.21875 283.1875 283.195312 C 282.164062 306.578125 272.496094 328.640625 255.898438 345.238281 C 219.433594 381.707031 160.070312 381.707031 123.605469 345.238281 Z M 123.605469 345.238281 " clip-rule="nonzero"/></clipPath><clipPath id="9521ccac75"><rect x="0" width="373" y="0" height="373"/></clipPath><clipPath id="581e1896d1"><path d="M 77.65625 187 L 117 187 L 117 206 L 77.65625 206 Z M 77.65625 187 " clip-rule="nonzero"/></clipPath><clipPath id="1794065cf7"><path d="M 187 258 L 206 258 L 206 297.542969 L 187 297.542969 Z M 187 258 " clip-rule="nonzero"/></clipPath><clipPath id="a792a4bc0b"><path d="M 258 169 L 297.40625 169 L 297.40625 188 L 258 188 Z M 258 169 " clip-rule="nonzero"/></clipPath><clipPath id="0223005bf5"><path d="M 169 77.792969 L 188 77.792969 L 188 117 L 169 117 Z M 169 77.792969 " clip-rule="nonzero"/></clipPath><clipPath id="c207fd2b7a"><path d="M 128.089844 111.925781 L 132.386719 111.925781 L 132.386719 115.574219 L 128.089844 115.574219 Z M 128.089844 111.925781 " clip-rule="nonzero"/></clipPath><clipPath id="490633fcb1"><path d="M 132.375 113.175781 C 130.425781 116.25 128.699219 115.648438 128.25 115.050781 C 127.875 114.375 128.25 112.574219 128.851562 112.125 C 129.375 111.675781 131.773438 112.273438 131.773438 112.273438 " clip-rule="nonzero"/></clipPath><clipPath id="4ab7f1206d"><path d="M 0.0898438 0.925781 L 4.386719 0.925781 L 4.386719 4.574219 L 0.0898438 4.574219 Z M 0.0898438 0.925781 " clip-rule="nonzero"/></clipPath><clipPath id="2fa73e3515"><path d="M 4.375 2.175781 C 2.425781 5.25 0.699219 4.648438 0.25 4.050781 C -0.125 3.375 0.25 1.574219 0.851562 1.125 C 1.375 0.675781 3.773438 1.273438 3.773438 1.273438 " clip-rule="nonzero"/></clipPath><clipPath id="4dece6e74a"><rect x="0" width="5" y="0" height="5"/></clipPath><clipPath id="a306da0798"><path d="M 127 128 L 248 128 L 248 247 L 127 247 Z M 127 128 " clip-rule="nonzero"/></clipPath><clipPath id="2d0eb71c0c"><path d="M 90.160156 66.5625 L 308.625 90.320312 L 284.863281 308.78125 L 66.402344 285.023438 Z M 90.160156 66.5625 " clip-rule="nonzero"/></clipPath><clipPath id="4e8a4496ac"><path d="M 90.160156 66.5625 L 308.625 90.320312 L 284.863281 308.78125 L 66.402344 285.023438 Z M 90.160156 66.5625 " clip-rule="nonzero"/></clipPath><clipPath id="e9d1fd5ab2"><path d="M 90 124 L 129 124 L 129 155 L 90 155 Z M 90 124 " clip-rule="nonzero"/></clipPath><clipPath id="81f618ed98"><path d="M 90.160156 66.5625 L 308.625 90.320312 L 284.863281 308.78125 L 66.402344 285.023438 Z M 90.160156 66.5625 " clip-rule="nonzero"/></clipPath><clipPath id="816dcce6b9"><path d="M 90.160156 66.5625 L 308.625 90.320312 L 284.863281 308.78125 L 66.402344 285.023438 Z M 90.160156 66.5625 " clip-rule="nonzero"/></clipPath><clipPath id="95c7a4d5ab"><path d="M 77 176 L 117 176 L 117 195 L 77 195 Z M 77 176 " clip-rule="nonzero"/></clipPath><clipPath id="0cd3d23b7e"><path d="M 90.160156 66.5625 L 308.625 90.320312 L 284.863281 308.78125 L 66.402344 285.023438 Z M 90.160156 66.5625 " clip-rule="nonzero"/></clipPath><clipPath id="917ae35226"><path d="M 90.160156 66.5625 L 308.625 90.320312 L 284.863281 308.78125 L 66.402344 285.023438 Z M 90.160156 66.5625 " clip-rule="nonzero"/></clipPath><clipPath id="22fd7f6f82"><path d="M 124 246 L 155 246 L 155 285 L 124 285 Z M 124 246 " clip-rule="nonzero"/></clipPath><clipPath id="94bc54f984"><path d="M 90.160156 66.5625 L 308.625 90.320312 L 284.863281 308.78125 L 66.402344 285.023438 Z M 90.160156 66.5625 " clip-rule="nonzero"/></clipPath><clipPath id="c2af6ef2e8"><path d="M 90.160156 66.5625 L 308.625 90.320312 L 284.863281 308.78125 L 66.402344 285.023438 Z M 90.160156 66.5625 " clip-rule="nonzero"/></clipPath><clipPath id="0d11a62fd4"><path d="M 175 258 L 195 258 L 195 298 L 175 298 Z M 175 258 " clip-rule="nonzero"/></clipPath><clipPath id="8326582ea7"><path d="M 90.160156 66.5625 L 308.625 90.320312 L 284.863281 308.78125 L 66.402344 285.023438 Z M 90.160156 66.5625 " clip-rule="nonzero"/></clipPath><clipPath id="1f050d1369"><path d="M 90.160156 66.5625 L 308.625 90.320312 L 284.863281 308.78125 L 66.402344 285.023438 Z M 90.160156 66.5625 " clip-rule="nonzero"/></clipPath><clipPath id="4fbca50852"><path d="M 88 217 L 127 217 L 127 247 L 88 247 Z M 88 217 " clip-rule="nonzero"/></clipPath><clipPath id="711687b380"><path d="M 90.160156 66.5625 L 308.625 90.320312 L 284.863281 308.78125 L 66.402344 285.023438 Z M 90.160156 66.5625 " clip-rule="nonzero"/></clipPath><clipPath id="7c5be7d332"><path d="M 90.160156 66.5625 L 308.625 90.320312 L 284.863281 308.78125 L 66.402344 285.023438 Z M 90.160156 66.5625 " clip-rule="nonzero"/></clipPath><clipPath id="1287a4a2d4"><path d="M 128 88 L 158 88 L 158 127 L 128 127 Z M 128 88 " clip-rule="nonzero"/></clipPath><clipPath id="d63e418227"><path d="M 90.160156 66.5625 L 308.625 90.320312 L 284.863281 308.78125 L 66.402344 285.023438 Z M 90.160156 66.5625 " clip-rule="nonzero"/></clipPath><clipPath id="5651a722e6"><path d="M 90.160156 66.5625 L 308.625 90.320312 L 284.863281 308.78125 L 66.402344 285.023438 Z M 90.160156 66.5625 " clip-rule="nonzero"/></clipPath><clipPath id="1b3a06cb1e"><path d="M 248 128 L 287 128 L 287 158 L 248 158 Z M 248 128 " clip-rule="nonzero"/></clipPath><clipPath id="703ab05baf"><path d="M 90.160156 66.5625 L 308.625 90.320312 L 284.863281 308.78125 L 66.402344 285.023438 Z M 90.160156 66.5625 " clip-rule="nonzero"/></clipPath><clipPath id="a88560fbce"><path d="M 90.160156 66.5625 L 308.625 90.320312 L 284.863281 308.78125 L 66.402344 285.023438 Z M 90.160156 66.5625 " clip-rule="nonzero"/></clipPath><clipPath id="db7e25dec6"><path d="M 217 248 L 247 248 L 247 287 L 217 287 Z M 217 248 " clip-rule="nonzero"/></clipPath><clipPath id="edca41823d"><path d="M 90.160156 66.5625 L 308.625 90.320312 L 284.863281 308.78125 L 66.402344 285.023438 Z M 90.160156 66.5625 " clip-rule="nonzero"/></clipPath><clipPath id="f926f266e4"><path d="M 90.160156 66.5625 L 308.625 90.320312 L 284.863281 308.78125 L 66.402344 285.023438 Z M 90.160156 66.5625 " clip-rule="nonzero"/></clipPath><clipPath id="8758a435cb"><path d="M 246 220 L 285 220 L 285 251 L 246 251 Z M 246 220 " clip-rule="nonzero"/></clipPath><clipPath id="08d02ba9ea"><path d="M 90.160156 66.5625 L 308.625 90.320312 L 284.863281 308.78125 L 66.402344 285.023438 Z M 90.160156 66.5625 " clip-rule="nonzero"/></clipPath><clipPath id="9c240ec911"><path d="M 90.160156 66.5625 L 308.625 90.320312 L 284.863281 308.78125 L 66.402344 285.023438 Z M 90.160156 66.5625 " clip-rule="nonzero"/></clipPath><clipPath id="2cb6064003"><path d="M 258 180 L 298 180 L 298 199 L 258 199 Z M 258 180 " clip-rule="nonzero"/></clipPath><clipPath id="2f9dd6de39"><path d="M 90.160156 66.5625 L 308.625 90.320312 L 284.863281 308.78125 L 66.402344 285.023438 Z M 90.160156 66.5625 " clip-rule="nonzero"/></clipPath><clipPath id="d526ef5ee3"><path d="M 90.160156 66.5625 L 308.625 90.320312 L 284.863281 308.78125 L 66.402344 285.023438 Z M 90.160156 66.5625 " clip-rule="nonzero"/></clipPath><clipPath id="53565ac35f"><path d="M 220 90 L 251 90 L 251 129 L 220 129 Z M 220 90 " clip-rule="nonzero"/></clipPath><clipPath id="dfbe7ebdd5"><path d="M 90.160156 66.5625 L 308.625 90.320312 L 284.863281 308.78125 L 66.402344 285.023438 Z M 90.160156 66.5625 " clip-rule="nonzero"/></clipPath><clipPath id="98b35a68ff"><path d="M 90.160156 66.5625 L 308.625 90.320312 L 284.863281 308.78125 L 66.402344 285.023438 Z M 90.160156 66.5625 " clip-rule="nonzero"/></clipPath><clipPath id="86db0f3c95"><path d="M 180 77 L 199 77 L 199 117 L 180 117 Z M 180 77 " clip-rule="nonzero"/></clipPath><clipPath id="e54e7a12e3"><path d="M 90.160156 66.5625 L 308.625 90.320312 L 284.863281 308.78125 L 66.402344 285.023438 Z M 90.160156 66.5625 " clip-rule="nonzero"/></clipPath><clipPath id="b1e0296492"><path d="M 90.160156 66.5625 L 308.625 90.320312 L 284.863281 308.78125 L 66.402344 285.023438 Z M 90.160156 66.5625 " clip-rule="nonzero"/></clipPath></defs><g clip-path="url(#6118ba7060)"><g clip-path="url(#cb2211954e)"><g clip-path="url(#54b06bcfc7)"><g transform="matrix(1, 0, 0, 1, 28, 28)"><g clip-path="url(#0ff5f647fa)"><g clip-path="url(#7021c71e7b)"><g clip-path="url(#8548cf79e3)"><g clip-path="url(#cf635d9887)"><path fill="#ffffff" d="M 156.421875 -32.734375 L 351.414062 162.257812 L 162.253906 351.417969 L -32.738281 156.425781 Z M 156.421875 -32.734375 " fill-opacity="1" fill-rule="nonzero"/></g></g></g></g></g></g></g></g><g clip-path="url(#1196609031)"><g clip-path="url(#99987cf7ee)"><g clip-path="url(#1e2c1e39f0)"><g transform="matrix(1, 0, 0, 1, 1, 1)"><g clip-path="url(#9521ccac75)"><g clip-path="url(#023c5ee0b1)"><g clip-path="url(#73bfbe219d)"><g clip-path="url(#c841ac9532)"><path fill="#ffd967" d="M 182.917969 -38.703125 L 411.378906 189.757812 L 189.753906 411.386719 L -38.710938 182.925781 Z M 182.917969 -38.703125 " fill-opacity="1" fill-rule="nonzero"/></g></g></g></g></g></g></g></g><path fill="#ffffff" d="M 247.390625 187.625 C 247.390625 169.761719 238.792969 152.34375 224.917969 141.15625 C 186.550781 110.222656 127.652344 138.421875 127.652344 187.625 C 127.652344 205.480469 135.996094 222.96875 149.890625 234.195312 C 187.597656 264.667969 247.390625 235.949219 247.390625 187.625 " fill-opacity="1" fill-rule="nonzero"/><path fill="#ffffff" d="M 88.824219 151.34375 L 116.589844 161.519531 C 118.84375 162.34375 121.253906 161.210938 122.214844 159.019531 C 122.726562 157.84375 123.269531 156.6875 123.847656 155.539062 C 124.921875 153.398438 124.25 150.816406 122.175781 149.613281 L 96.601562 134.769531 C 94.417969 133.503906 91.554688 134.257812 90.378906 136.492188 C 88.84375 139.414062 87.441406 142.40625 86.175781 145.457031 C 85.203125 147.789062 86.457031 150.46875 88.824219 151.34375 " fill-opacity="1" fill-rule="nonzero"/><g clip-path="url(#581e1896d1)"><path fill="#ffffff" d="M 116.742188 195.476562 C 116.601562 194.238281 116.496094 192.988281 116.421875 191.742188 C 116.285156 189.359375 114.433594 187.472656 112.050781 187.445312 L 97.0625 187.292969 L 82.390625 187.445312 C 79.882812 187.46875 77.820312 189.546875 77.917969 192.050781 C 78.054688 195.28125 78.328125 198.507812 78.742188 201.703125 C 79.066406 204.210938 81.488281 205.90625 83.972656 205.476562 L 113.113281 200.453125 C 115.476562 200.046875 117.003906 197.867188 116.742188 195.476562 " fill-opacity="1" fill-rule="nonzero"/></g><path fill="#ffffff" d="M 158.957031 252.757812 C 157.800781 252.25 156.65625 251.714844 155.519531 251.140625 C 153.375 250.0625 150.792969 250.726562 149.585938 252.796875 L 134.707031 278.351562 C 133.4375 280.535156 134.1875 283.394531 136.425781 284.574219 C 139.359375 286.125 142.367188 287.539062 145.414062 288.804688 C 147.75 289.773438 150.429688 288.523438 151.296875 286.148438 L 161.457031 258.378906 C 162.28125 256.125 161.15625 253.71875 158.957031 252.757812 " fill-opacity="1" fill-rule="nonzero"/><g clip-path="url(#1794065cf7)"><path fill="#ffffff" d="M 195.183594 258.25 C 193.929688 258.402344 192.671875 258.519531 191.402344 258.601562 C 189.007812 258.761719 187.121094 260.644531 187.132812 263.039062 L 187.277344 292.609375 C 187.285156 295.136719 189.386719 297.222656 191.910156 297.101562 C 195.230469 296.945312 198.535156 296.640625 201.804688 296.183594 C 204.308594 295.832031 205.984375 293.398438 205.527344 290.910156 L 200.191406 261.824219 C 199.757812 259.46875 197.566406 257.964844 195.183594 258.25 " fill-opacity="1" fill-rule="nonzero"/></g><path fill="#ffffff" d="M 127.894531 226.453125 C 126.609375 224.488281 123.960938 223.945312 121.925781 225.117188 L 96.378906 239.816406 C 94.1875 241.082031 93.414062 243.933594 94.769531 246.070312 C 96.527344 248.847656 98.417969 251.5625 100.429688 254.179688 C 101.964844 256.183594 104.910156 256.441406 106.851562 254.824219 L 129.453125 235.945312 C 131.265625 234.433594 131.667969 231.75 130.269531 229.855469 C 129.441406 228.746094 128.652344 227.605469 127.894531 226.453125 " fill-opacity="1" fill-rule="nonzero"/><path fill="#ffffff" d="M 138.996094 129.46875 C 140.507812 131.273438 143.191406 131.683594 145.085938 130.277344 C 146.199219 129.449219 147.332031 128.65625 148.488281 127.898438 C 150.453125 126.609375 150.988281 123.960938 149.816406 121.929688 L 135.09375 96.394531 C 133.832031 94.207031 130.972656 93.433594 128.847656 94.785156 C 126.0625 96.550781 123.351562 98.445312 120.730469 100.457031 C 118.730469 101.996094 118.476562 104.945312 120.097656 106.878906 L 138.996094 129.46875 " fill-opacity="1" fill-rule="nonzero"/><path fill="#ffffff" d="M 247.0625 148.382812 C 248.359375 150.347656 251.019531 150.886719 253.050781 149.707031 L 278.554688 134.953125 C 280.738281 133.6875 281.511719 130.832031 280.152344 128.695312 C 278.382812 125.917969 276.488281 123.207031 274.472656 120.59375 C 272.933594 118.59375 269.984375 118.339844 268.046875 119.96875 L 245.480469 138.910156 C 243.679688 140.421875 243.277344 143.09375 244.679688 144.980469 C 245.507812 146.09375 246.300781 147.226562 247.0625 148.382812 " fill-opacity="1" fill-rule="nonzero"/><path fill="#ffffff" d="M 235.917969 245.589844 C 234.414062 243.789062 231.738281 243.378906 229.84375 244.777344 C 228.730469 245.597656 227.597656 246.390625 226.4375 247.148438 C 224.464844 248.4375 223.917969 251.09375 225.097656 253.140625 L 239.765625 278.683594 C 241.023438 280.871094 243.875 281.648438 246.011719 280.300781 C 248.800781 278.542969 251.511719 276.65625 254.125 274.65625 C 256.140625 273.121094 256.394531 270.175781 254.78125 268.230469 L 235.917969 245.589844 " fill-opacity="1" fill-rule="nonzero"/><path fill="#ffffff" d="M 286.140625 223.859375 L 258.40625 213.621094 C 256.15625 212.785156 253.742188 213.910156 252.773438 216.105469 C 252.257812 217.273438 251.714844 218.429688 251.136719 219.574219 C 250.054688 221.714844 250.722656 224.296875 252.796875 225.507812 L 278.332031 240.402344 C 280.511719 241.675781 283.378906 240.933594 284.558594 238.699219 C 286.097656 235.785156 287.511719 232.792969 288.785156 229.75 C 289.757812 227.421875 288.515625 224.738281 286.140625 223.859375 " fill-opacity="1" fill-rule="nonzero"/><g clip-path="url(#a792a4bc0b)"><path fill="#ffffff" d="M 296.273438 173.03125 C 295.945312 170.527344 293.523438 168.832031 291.03125 169.269531 L 261.90625 174.359375 C 259.542969 174.773438 258.019531 176.957031 258.292969 179.339844 C 258.4375 180.648438 258.550781 181.960938 258.625 183.285156 C 258.765625 185.644531 260.589844 187.527344 262.953125 187.578125 L 277.988281 187.882812 L 292.703125 187.582031 C 295.195312 187.53125 297.234375 185.457031 297.128906 182.96875 C 296.992188 179.640625 296.707031 176.320312 296.273438 173.03125 " fill-opacity="1" fill-rule="nonzero"/></g><path fill="#ffffff" d="M 240.148438 96.507812 C 241.417969 94.324219 240.65625 91.460938 238.421875 90.289062 C 235.488281 88.75 232.480469 87.34375 229.425781 86.078125 C 227.089844 85.113281 224.410156 86.375 223.542969 88.75 L 213.429688 116.542969 C 212.613281 118.789062 213.746094 121.199219 215.941406 122.15625 C 217.105469 122.660156 218.253906 123.199219 219.390625 123.765625 C 221.535156 124.839844 224.109375 124.171875 225.3125 122.09375 L 240.148438 96.507812 " fill-opacity="1" fill-rule="nonzero"/><g clip-path="url(#0223005bf5)"><path fill="#ffffff" d="M 183.144531 116.503906 C 183.144531 116.503906 187.621094 116.421875 187.613281 111.375 L 187.535156 82.386719 C 187.53125 79.867188 185.441406 77.78125 182.925781 77.886719 C 179.667969 78.023438 176.414062 78.296875 173.195312 78.71875 C 170.6875 79.046875 168.992188 81.46875 169.421875 83.957031 L 174.480469 113.085938 C 174.890625 115.449219 177.070312 116.976562 179.453125 116.710938 L 183.144531 116.503906 " fill-opacity="1" fill-rule="nonzero"/></g><path stroke-linecap="butt" transform="matrix(0.708907, 0.244849, -0.244849, 0.708907, 90.074156, 146.663854)" fill="none" stroke-linejoin="miter" d="M 0.0020235 1.999815 C 14.671269 2.002631 29.343737 1.998824 44.012982 2.00164 " stroke="#ffffff" stroke-width="4" stroke-opacity="1" stroke-miterlimit="4"/><path stroke-linecap="butt" transform="matrix(0.326754, 0.675079, -0.675079, 0.326754, 130.819302, 96.956106)" fill="none" stroke-linejoin="miter" d="M -0.000513531 2.000334 C 14.800696 2.00094 29.601905 2.001547 44.403114 2.002154 " stroke="#ffffff" stroke-width="4" stroke-opacity="1" stroke-miterlimit="4"/><g clip-path="url(#c207fd2b7a)"><g clip-path="url(#490633fcb1)"><g transform="matrix(1, 0, 0, 1, 128, 111)"><g clip-path="url(#4dece6e74a)"><g clip-path="url(#4ab7f1206d)"><g clip-path="url(#2fa73e3515)"><rect x="-210.5" width="540" fill="#ffffff" height="539.999987" y="-193.499998" fill-opacity="1"/></g></g></g></g></g></g><g clip-path="url(#a306da0798)"><g clip-path="url(#2d0eb71c0c)"><g clip-path="url(#4e8a4496ac)"><path fill="#ffffff" d="M 247.027344 194.101562 C 248.957031 176.34375 242.292969 158.097656 229.707031 145.476562 C 194.910156 110.574219 133.308594 132.238281 127.992188 181.152344 C 126.058594 198.902344 132.460938 217.195312 145.0625 229.859375 C 179.253906 264.226562 241.800781 242.140625 247.027344 194.101562 " fill-opacity="1" fill-rule="nonzero"/></g></g></g><g clip-path="url(#e9d1fd5ab2)"><g clip-path="url(#81f618ed98)"><g clip-path="url(#816dcce6b9)"><path fill="#ffffff" d="M 93.3125 140.886719 L 119.816406 154.003906 C 121.964844 155.070312 124.484375 154.203125 125.675781 152.128906 C 126.3125 151.015625 126.976562 149.921875 127.675781 148.847656 C 128.976562 146.832031 128.585938 144.191406 126.65625 142.773438 L 102.835938 125.25 C 100.800781 123.753906 97.875 124.199219 96.460938 126.292969 C 94.621094 129.03125 92.902344 131.855469 91.3125 134.746094 C 90.097656 136.960938 91.050781 139.761719 93.3125 140.886719 " fill-opacity="1" fill-rule="nonzero"/></g></g></g><g clip-path="url(#95c7a4d5ab)"><g clip-path="url(#0cd3d23b7e)"><g clip-path="url(#917ae35226)"><path fill="#ffffff" d="M 116.292969 187.78125 C 116.289062 186.535156 116.320312 185.28125 116.382812 184.03125 C 116.5 181.652344 114.863281 179.570312 112.5 179.289062 L 97.617188 177.519531 L 83.011719 176.082031 C 80.515625 175.832031 78.242188 177.679688 78.070312 180.175781 C 77.855469 183.40625 77.777344 186.640625 77.84375 189.863281 C 77.894531 192.386719 80.117188 194.339844 82.632812 194.179688 L 112.148438 192.335938 C 114.542969 192.1875 116.296875 190.183594 116.292969 187.78125 " fill-opacity="1" fill-rule="nonzero"/></g></g></g><g clip-path="url(#22fd7f6f82)"><g clip-path="url(#94bc54f984)"><g clip-path="url(#c2af6ef2e8)"><path fill="#ffffff" d="M 152.070312 249.289062 C 150.976562 248.660156 149.894531 248.003906 148.824219 247.3125 C 146.8125 246.007812 144.171875 246.390625 142.75 248.316406 L 125.195312 272.109375 C 123.695312 274.144531 124.132812 277.070312 126.226562 278.484375 C 128.980469 280.339844 131.816406 282.070312 134.707031 283.660156 C 136.925781 284.875 139.722656 283.921875 140.84375 281.65625 L 153.945312 255.148438 C 155.007812 252.996094 154.152344 250.484375 152.070312 249.289062 " fill-opacity="1" fill-rule="nonzero"/></g></g></g><g clip-path="url(#0d11a62fd4)"><g clip-path="url(#8326582ea7)"><g clip-path="url(#1f050d1369)"><path fill="#ffffff" d="M 187.492188 258.667969 C 186.226562 258.679688 184.964844 258.664062 183.691406 258.605469 C 181.292969 258.507812 179.214844 260.175781 178.96875 262.558594 L 175.914062 291.96875 C 175.648438 294.480469 177.511719 296.78125 180.035156 296.9375 C 183.351562 297.140625 186.671875 297.191406 189.96875 297.09375 C 192.5 297.015625 194.425781 294.773438 194.238281 292.253906 L 192.082031 262.761719 C 191.90625 260.371094 189.890625 258.640625 187.492188 258.667969 " fill-opacity="1" fill-rule="nonzero"/></g></g></g><g clip-path="url(#4fbca50852)"><g clip-path="url(#711687b380)"><g clip-path="url(#7c5be7d332)"><path fill="#ffffff" d="M 124.03125 219.78125 C 122.96875 217.6875 120.390625 216.863281 118.242188 217.808594 L 91.257812 229.65625 C 88.941406 230.679688 87.863281 233.433594 88.980469 235.699219 C 90.425781 238.652344 92.011719 241.554688 93.730469 244.375 C 95.039062 246.53125 97.941406 247.109375 100.042969 245.710938 L 124.554688 229.382812 C 126.519531 228.078125 127.210938 225.457031 126.023438 223.417969 C 125.320312 222.226562 124.660156 221.007812 124.03125 219.78125 " fill-opacity="1" fill-rule="nonzero"/></g></g></g><g clip-path="url(#1287a4a2d4)"><g clip-path="url(#d63e418227)"><g clip-path="url(#5651a722e6)"><path fill="#ffffff" d="M 145.554688 124.566406 C 146.863281 126.523438 149.488281 127.21875 151.523438 126.027344 C 152.714844 125.324219 153.929688 124.660156 155.164062 124.03125 C 157.253906 122.960938 158.070312 120.386719 157.125 118.238281 L 145.25 91.261719 C 144.234375 88.949219 141.476562 87.871094 139.214844 88.988281 C 136.257812 90.441406 133.355469 92.03125 130.535156 93.75 C 128.378906 95.0625 127.804688 97.96875 129.210938 100.066406 L 145.554688 124.566406 " fill-opacity="1" fill-rule="nonzero"/></g></g></g><g clip-path="url(#1b3a06cb1e)"><g clip-path="url(#703ab05baf)"><g clip-path="url(#a88560fbce)"><path fill="#ffffff" d="M 250.945312 155.050781 C 252.019531 157.144531 254.605469 157.96875 256.753906 157.015625 L 283.699219 145.109375 C 286.011719 144.085938 287.085938 141.332031 285.96875 139.058594 C 284.511719 136.105469 282.914062 133.207031 281.199219 130.390625 C 279.882812 128.234375 276.976562 127.664062 274.875 129.070312 L 250.394531 145.464844 C 248.4375 146.773438 247.753906 149.386719 248.941406 151.414062 C 249.644531 152.609375 250.3125 153.820312 250.945312 155.050781 " fill-opacity="1" fill-rule="nonzero"/></g></g></g><g clip-path="url(#db7e25dec6)"><g clip-path="url(#edca41823d)"><g clip-path="url(#f926f266e4)"><path fill="#ffffff" d="M 229.351562 250.484375 C 228.054688 248.53125 225.4375 247.835938 223.402344 249.019531 C 222.207031 249.71875 220.996094 250.378906 219.757812 251.007812 C 217.660156 252.074219 216.828125 254.660156 217.777344 256.820312 L 229.601562 283.796875 C 230.613281 286.113281 233.367188 287.191406 235.636719 286.082031 C 238.597656 284.636719 241.5 283.054688 244.3125 281.351562 C 246.480469 280.042969 247.054688 277.140625 245.65625 275.03125 L 229.351562 250.484375 " fill-opacity="1" fill-rule="nonzero"/></g></g></g><g clip-path="url(#8758a435cb)"><g clip-path="url(#08d02ba9ea)"><g clip-path="url(#9c240ec911)"><path fill="#ffffff" d="M 281.632812 234.3125 L 255.167969 221.132812 C 253.019531 220.058594 250.496094 220.917969 249.300781 222.996094 C 248.660156 224.101562 247.996094 225.191406 247.296875 226.265625 C 245.992188 228.277344 246.375 230.914062 248.304688 232.34375 L 272.078125 249.914062 C 274.109375 251.414062 277.039062 250.984375 278.453125 248.890625 C 280.300781 246.164062 282.027344 243.34375 283.621094 240.453125 C 284.84375 238.242188 283.894531 235.441406 281.632812 234.3125 " fill-opacity="1" fill-rule="nonzero"/></g></g></g><g clip-path="url(#2cb6064003)"><g clip-path="url(#2f9dd6de39)"><g clip-path="url(#d526ef5ee3)"><path fill="#ffffff" d="M 297.203125 184.875 C 297.144531 182.351562 294.917969 180.40625 292.394531 180.570312 L 262.890625 182.480469 C 260.496094 182.636719 258.746094 184.644531 258.757812 187.042969 C 258.761719 188.359375 258.730469 189.675781 258.664062 191 C 258.546875 193.363281 260.160156 195.429688 262.503906 195.734375 L 277.414062 197.664062 L 292.078125 198.957031 C 294.558594 199.175781 296.8125 197.335938 296.976562 194.851562 C 297.199219 191.527344 297.277344 188.195312 297.203125 184.875 " fill-opacity="1" fill-rule="nonzero"/></g></g></g><g clip-path="url(#53565ac35f)"><g clip-path="url(#dfbe7ebdd5)"><g clip-path="url(#98b35a68ff)"><path fill="#ffffff" d="M 249.675781 102.734375 C 251.175781 100.699219 250.730469 97.769531 248.636719 96.363281 C 245.882812 94.519531 243.046875 92.792969 240.148438 91.207031 C 237.929688 89.996094 235.125 90.957031 234.007812 93.226562 L 220.949219 119.761719 C 219.894531 121.910156 220.757812 124.425781 222.839844 125.617188 C 223.945312 126.242188 225.023438 126.902344 226.09375 127.585938 C 228.109375 128.886719 230.742188 128.5 232.164062 126.566406 L 249.675781 102.734375 " fill-opacity="1" fill-rule="nonzero"/></g></g></g><g clip-path="url(#86db0f3c95)"><g clip-path="url(#e54e7a12e3)"><g clip-path="url(#b1e0296492)"><path fill="#ffffff" d="M 190.847656 116.449219 C 190.847656 116.449219 195.304688 116.851562 195.84375 111.832031 L 198.898438 83.007812 C 199.167969 80.5 197.316406 78.203125 194.804688 78.035156 C 191.550781 77.816406 188.289062 77.742188 185.039062 77.808594 C 182.511719 77.867188 180.566406 80.089844 180.722656 82.609375 L 182.601562 112.117188 C 182.753906 114.511719 184.757812 116.261719 187.15625 116.253906 L 190.847656 116.449219 " fill-opacity="1" fill-rule="nonzero"/></g></g></g></svg>
