<svg xmlns="http://www.w3.org/2000/svg" xmlns:xlink="http://www.w3.org/1999/xlink" width="500" zoomAndPan="magnify" viewBox="0 0 375 374.999991" height="500" preserveAspectRatio="xMidYMid meet" version="1.0"><defs><clipPath id="6f5239b335"><path d="M 28 28 L 347 28 L 347 347 L 28 347 Z M 28 28 " clip-rule="nonzero"/></clipPath><clipPath id="4e6708a4c1"><path d="M 184.421875 -4.734375 L 379.414062 190.257812 L 190.253906 379.417969 L -4.738281 184.425781 Z M 184.421875 -4.734375 " clip-rule="nonzero"/></clipPath><clipPath id="7018875532"><path d="M 133.796875 322.960938 C 118.339844 307.503906 109.839844 286.085938 110.464844 264.214844 C 88.589844 264.839844 67.175781 256.339844 51.71875 240.878906 C 20.59375 209.757812 20.59375 159.09375 51.71875 127.96875 C 65.882812 113.804688 84.675781 105.511719 104.675781 104.679688 C 105.507812 84.679688 113.796875 65.886719 127.964844 51.722656 C 159.089844 20.597656 209.753906 20.597656 240.875 51.722656 C 256.335938 67.179688 264.832031 88.59375 264.207031 110.46875 C 286.082031 109.84375 307.5 118.34375 322.957031 133.800781 C 354.078125 164.925781 354.078125 215.589844 322.957031 246.714844 C 308.789062 260.878906 290 269.171875 270 270.003906 C 269.125 289.960938 260.875 308.792969 246.710938 322.960938 C 215.585938 354.085938 164.921875 354.085938 133.796875 322.960938 Z M 133.796875 322.960938 " clip-rule="nonzero"/></clipPath><clipPath id="0d2a1e28be"><path d="M 0 0 L 319 0 L 319 319 L 0 319 Z M 0 0 " clip-rule="nonzero"/></clipPath><clipPath id="cdd72c79d2"><path d="M 156.421875 -32.734375 L 351.414062 162.257812 L 162.253906 351.417969 L -32.738281 156.425781 Z M 156.421875 -32.734375 " clip-rule="nonzero"/></clipPath><clipPath id="eef3c972ce"><path d="M 105.796875 294.960938 C 90.339844 279.503906 81.839844 258.085938 82.464844 236.214844 C 60.589844 236.839844 39.175781 228.339844 23.71875 212.878906 C -7.40625 181.757812 -7.40625 131.09375 23.71875 99.96875 C 37.882812 85.804688 56.675781 77.511719 76.675781 76.679688 C 77.507812 56.679688 85.796875 37.886719 99.964844 23.722656 C 131.089844 -7.402344 181.753906 -7.402344 212.875 23.722656 C 228.335938 39.179688 236.832031 60.59375 236.207031 82.46875 C 258.082031 81.84375 279.5 90.34375 294.957031 105.800781 C 326.078125 136.925781 326.078125 187.589844 294.957031 218.714844 C 280.789062 232.878906 262 241.171875 242 242.003906 C 241.125 261.960938 232.875 280.792969 218.710938 294.960938 C 187.585938 326.085938 136.921875 326.085938 105.796875 294.960938 Z M 105.796875 294.960938 " clip-rule="nonzero"/></clipPath><clipPath id="b5ad9de8f1"><rect x="0" width="319" y="0" height="319"/></clipPath><clipPath id="8d96e0018a"><path d="M 1 1 L 374 1 L 374 374 L 1 374 Z M 1 1 " clip-rule="nonzero"/></clipPath><clipPath id="6eb454a0e0"><path d="M 183.917969 -37.703125 L 412.378906 190.757812 L 190.753906 412.386719 L -37.710938 183.925781 Z M 183.917969 -37.703125 " clip-rule="nonzero"/></clipPath><clipPath id="72a9734293"><path d="M 124.605469 346.238281 C 106.496094 328.128906 96.535156 303.039062 97.269531 277.410156 C 71.640625 278.140625 46.546875 268.183594 28.4375 250.070312 C -8.027344 213.605469 -8.027344 154.242188 28.4375 117.777344 C 45.035156 101.179688 67.050781 91.464844 90.484375 90.488281 C 91.460938 67.058594 101.171875 45.039062 117.769531 28.441406 C 154.238281 -8.023438 213.597656 -8.023438 250.066406 28.441406 C 268.175781 46.554688 278.132812 71.644531 277.402344 97.273438 C 303.03125 96.542969 328.121094 106.5 346.234375 124.613281 C 382.699219 161.078125 382.699219 220.4375 346.234375 256.90625 C 329.636719 273.503906 307.621094 283.21875 284.1875 284.195312 C 283.164062 307.578125 273.496094 329.640625 256.898438 346.238281 C 220.433594 382.707031 161.070312 382.707031 124.605469 346.238281 Z M 124.605469 346.238281 " clip-rule="nonzero"/></clipPath><clipPath id="6129afed9f"><path d="M 0 0 L 373 0 L 373 373 L 0 373 Z M 0 0 " clip-rule="nonzero"/></clipPath><clipPath id="c7b755226d"><path d="M 182.917969 -38.703125 L 411.378906 189.757812 L 189.753906 411.386719 L -38.710938 182.925781 Z M 182.917969 -38.703125 " clip-rule="nonzero"/></clipPath><clipPath id="04126df62c"><path d="M 123.605469 345.238281 C 105.496094 327.128906 95.535156 302.039062 96.269531 276.410156 C 70.640625 277.140625 45.546875 267.183594 27.4375 249.070312 C -9.027344 212.605469 -9.027344 153.242188 27.4375 116.777344 C 44.035156 100.179688 66.050781 90.464844 89.484375 89.488281 C 90.460938 66.058594 100.171875 44.039062 116.769531 27.441406 C 153.238281 -9.023438 212.597656 -9.023438 249.066406 27.441406 C 267.175781 45.554688 277.132812 70.644531 276.402344 96.273438 C 302.03125 95.542969 327.121094 105.5 345.234375 123.613281 C 381.699219 160.078125 381.699219 219.4375 345.234375 255.90625 C 328.636719 272.503906 306.621094 282.21875 283.1875 283.195312 C 282.164062 306.578125 272.496094 328.640625 255.898438 345.238281 C 219.433594 381.707031 160.070312 381.707031 123.605469 345.238281 Z M 123.605469 345.238281 " clip-rule="nonzero"/></clipPath><clipPath id="830c83494f"><rect x="0" width="373" y="0" height="373"/></clipPath><clipPath id="08b4b04c1c"><path d="M 128.089844 111.925781 L 132.386719 111.925781 L 132.386719 115.574219 L 128.089844 115.574219 Z M 128.089844 111.925781 " clip-rule="nonzero"/></clipPath><clipPath id="10f55acbc5"><path d="M 132.375 113.175781 C 130.425781 116.25 128.699219 115.648438 128.25 115.050781 C 127.875 114.375 128.25 112.574219 128.851562 112.125 C 129.375 111.675781 131.773438 112.273438 131.773438 112.273438 " clip-rule="nonzero"/></clipPath><clipPath id="74a81b4e94"><path d="M 0.0898438 0.925781 L 4.386719 0.925781 L 4.386719 4.574219 L 0.0898438 4.574219 Z M 0.0898438 0.925781 " clip-rule="nonzero"/></clipPath><clipPath id="b5242bec2f"><path d="M 4.375 2.175781 C 2.425781 5.25 0.699219 4.648438 0.25 4.050781 C -0.125 3.375 0.25 1.574219 0.851562 1.125 C 1.375 0.675781 3.773438 1.273438 3.773438 1.273438 " clip-rule="nonzero"/></clipPath><clipPath id="984f3d3d35"><rect x="0" width="5" y="0" height="5"/></clipPath><clipPath id="b58200dd51"><path d="M 127 128 L 248 128 L 248 247 L 127 247 Z M 127 128 " clip-rule="nonzero"/></clipPath><clipPath id="d25631ff42"><path d="M 90.160156 66.5625 L 308.625 90.320312 L 284.863281 308.78125 L 66.402344 285.023438 Z M 90.160156 66.5625 " clip-rule="nonzero"/></clipPath><clipPath id="da5b4f75fd"><path d="M 90.160156 66.5625 L 308.625 90.320312 L 284.863281 308.78125 L 66.402344 285.023438 Z M 90.160156 66.5625 " clip-rule="nonzero"/></clipPath><clipPath id="519bbbd4c6"><path d="M 90 124 L 129 124 L 129 155 L 90 155 Z M 90 124 " clip-rule="nonzero"/></clipPath><clipPath id="ed94ca9b0d"><path d="M 90.160156 66.5625 L 308.625 90.320312 L 284.863281 308.78125 L 66.402344 285.023438 Z M 90.160156 66.5625 " clip-rule="nonzero"/></clipPath><clipPath id="291e79ae3d"><path d="M 90.160156 66.5625 L 308.625 90.320312 L 284.863281 308.78125 L 66.402344 285.023438 Z M 90.160156 66.5625 " clip-rule="nonzero"/></clipPath><clipPath id="02819a9f5e"><path d="M 77 176 L 117 176 L 117 195 L 77 195 Z M 77 176 " clip-rule="nonzero"/></clipPath><clipPath id="fe71a02567"><path d="M 90.160156 66.5625 L 308.625 90.320312 L 284.863281 308.78125 L 66.402344 285.023438 Z M 90.160156 66.5625 " clip-rule="nonzero"/></clipPath><clipPath id="81eff6b76f"><path d="M 90.160156 66.5625 L 308.625 90.320312 L 284.863281 308.78125 L 66.402344 285.023438 Z M 90.160156 66.5625 " clip-rule="nonzero"/></clipPath><clipPath id="edf9f10a76"><path d="M 124 246 L 155 246 L 155 285 L 124 285 Z M 124 246 " clip-rule="nonzero"/></clipPath><clipPath id="1451549455"><path d="M 90.160156 66.5625 L 308.625 90.320312 L 284.863281 308.78125 L 66.402344 285.023438 Z M 90.160156 66.5625 " clip-rule="nonzero"/></clipPath><clipPath id="d7fad0418f"><path d="M 90.160156 66.5625 L 308.625 90.320312 L 284.863281 308.78125 L 66.402344 285.023438 Z M 90.160156 66.5625 " clip-rule="nonzero"/></clipPath><clipPath id="9e46b70867"><path d="M 175 258 L 195 258 L 195 298 L 175 298 Z M 175 258 " clip-rule="nonzero"/></clipPath><clipPath id="ef26609258"><path d="M 90.160156 66.5625 L 308.625 90.320312 L 284.863281 308.78125 L 66.402344 285.023438 Z M 90.160156 66.5625 " clip-rule="nonzero"/></clipPath><clipPath id="044a070b19"><path d="M 90.160156 66.5625 L 308.625 90.320312 L 284.863281 308.78125 L 66.402344 285.023438 Z M 90.160156 66.5625 " clip-rule="nonzero"/></clipPath><clipPath id="ea85c301d6"><path d="M 88 217 L 127 217 L 127 247 L 88 247 Z M 88 217 " clip-rule="nonzero"/></clipPath><clipPath id="01dcff8572"><path d="M 90.160156 66.5625 L 308.625 90.320312 L 284.863281 308.78125 L 66.402344 285.023438 Z M 90.160156 66.5625 " clip-rule="nonzero"/></clipPath><clipPath id="2803673c74"><path d="M 90.160156 66.5625 L 308.625 90.320312 L 284.863281 308.78125 L 66.402344 285.023438 Z M 90.160156 66.5625 " clip-rule="nonzero"/></clipPath><clipPath id="3c1ac0072a"><path d="M 128 88 L 158 88 L 158 127 L 128 127 Z M 128 88 " clip-rule="nonzero"/></clipPath><clipPath id="621be53861"><path d="M 90.160156 66.5625 L 308.625 90.320312 L 284.863281 308.78125 L 66.402344 285.023438 Z M 90.160156 66.5625 " clip-rule="nonzero"/></clipPath><clipPath id="259c460a15"><path d="M 90.160156 66.5625 L 308.625 90.320312 L 284.863281 308.78125 L 66.402344 285.023438 Z M 90.160156 66.5625 " clip-rule="nonzero"/></clipPath><clipPath id="45b0bbb305"><path d="M 248 128 L 287 128 L 287 158 L 248 158 Z M 248 128 " clip-rule="nonzero"/></clipPath><clipPath id="49e41db640"><path d="M 90.160156 66.5625 L 308.625 90.320312 L 284.863281 308.78125 L 66.402344 285.023438 Z M 90.160156 66.5625 " clip-rule="nonzero"/></clipPath><clipPath id="5bdf13a94b"><path d="M 90.160156 66.5625 L 308.625 90.320312 L 284.863281 308.78125 L 66.402344 285.023438 Z M 90.160156 66.5625 " clip-rule="nonzero"/></clipPath><clipPath id="d08f10e284"><path d="M 217 248 L 247 248 L 247 287 L 217 287 Z M 217 248 " clip-rule="nonzero"/></clipPath><clipPath id="d79c603e40"><path d="M 90.160156 66.5625 L 308.625 90.320312 L 284.863281 308.78125 L 66.402344 285.023438 Z M 90.160156 66.5625 " clip-rule="nonzero"/></clipPath><clipPath id="eb2d2a2809"><path d="M 90.160156 66.5625 L 308.625 90.320312 L 284.863281 308.78125 L 66.402344 285.023438 Z M 90.160156 66.5625 " clip-rule="nonzero"/></clipPath><clipPath id="ee92d07cac"><path d="M 246 220 L 285 220 L 285 251 L 246 251 Z M 246 220 " clip-rule="nonzero"/></clipPath><clipPath id="3f4e7674be"><path d="M 90.160156 66.5625 L 308.625 90.320312 L 284.863281 308.78125 L 66.402344 285.023438 Z M 90.160156 66.5625 " clip-rule="nonzero"/></clipPath><clipPath id="f5a86e032d"><path d="M 90.160156 66.5625 L 308.625 90.320312 L 284.863281 308.78125 L 66.402344 285.023438 Z M 90.160156 66.5625 " clip-rule="nonzero"/></clipPath><clipPath id="5ef9a40a7a"><path d="M 258 180 L 298 180 L 298 199 L 258 199 Z M 258 180 " clip-rule="nonzero"/></clipPath><clipPath id="15e01f9cb0"><path d="M 90.160156 66.5625 L 308.625 90.320312 L 284.863281 308.78125 L 66.402344 285.023438 Z M 90.160156 66.5625 " clip-rule="nonzero"/></clipPath><clipPath id="18e2758c0e"><path d="M 90.160156 66.5625 L 308.625 90.320312 L 284.863281 308.78125 L 66.402344 285.023438 Z M 90.160156 66.5625 " clip-rule="nonzero"/></clipPath><clipPath id="5439d37ecb"><path d="M 220 90 L 251 90 L 251 129 L 220 129 Z M 220 90 " clip-rule="nonzero"/></clipPath><clipPath id="88d5affe54"><path d="M 90.160156 66.5625 L 308.625 90.320312 L 284.863281 308.78125 L 66.402344 285.023438 Z M 90.160156 66.5625 " clip-rule="nonzero"/></clipPath><clipPath id="dc784c4759"><path d="M 90.160156 66.5625 L 308.625 90.320312 L 284.863281 308.78125 L 66.402344 285.023438 Z M 90.160156 66.5625 " clip-rule="nonzero"/></clipPath><clipPath id="7e2daec22e"><path d="M 180 77 L 199 77 L 199 117 L 180 117 Z M 180 77 " clip-rule="nonzero"/></clipPath><clipPath id="60db9cdd17"><path d="M 90.160156 66.5625 L 308.625 90.320312 L 284.863281 308.78125 L 66.402344 285.023438 Z M 90.160156 66.5625 " clip-rule="nonzero"/></clipPath><clipPath id="2a4a491902"><path d="M 90.160156 66.5625 L 308.625 90.320312 L 284.863281 308.78125 L 66.402344 285.023438 Z M 90.160156 66.5625 " clip-rule="nonzero"/></clipPath><clipPath id="52c9de3a2a"><path d="M 78.246094 187 L 118 187 L 118 206 L 78.246094 206 Z M 78.246094 187 " clip-rule="nonzero"/></clipPath><clipPath id="c6930414de"><path d="M 187 258 L 207 258 L 207 297.542969 L 187 297.542969 Z M 187 258 " clip-rule="nonzero"/></clipPath><clipPath id="725c855a88"><path d="M 258 169 L 297.996094 169 L 297.996094 188 L 258 188 Z M 258 169 " clip-rule="nonzero"/></clipPath><clipPath id="3f05445494"><path d="M 169 77.792969 L 189 77.792969 L 189 117 L 169 117 Z M 169 77.792969 " clip-rule="nonzero"/></clipPath><clipPath id="0ef89f2485"><path d="M 126.53125 126.53125 L 251 126.53125 L 251 247.742188 L 126.53125 247.742188 Z M 126.53125 126.53125 " clip-rule="nonzero"/></clipPath><clipPath id="f6aca64ec9"><path d="M 188.589844 126.53125 C 154.316406 126.53125 126.53125 153.667969 126.53125 187.136719 C 126.53125 220.609375 154.316406 247.742188 188.589844 247.742188 C 222.859375 247.742188 250.644531 220.609375 250.644531 187.136719 C 250.644531 153.667969 222.859375 126.53125 188.589844 126.53125 Z M 188.589844 126.53125 " clip-rule="nonzero"/></clipPath><clipPath id="8624fef9ae"><path d="M 0.53125 0.53125 L 124.800781 0.53125 L 124.800781 121.742188 L 0.53125 121.742188 Z M 0.53125 0.53125 " clip-rule="nonzero"/></clipPath><clipPath id="2e80141344"><path d="M 62.589844 0.53125 C 28.316406 0.53125 0.53125 27.667969 0.53125 61.136719 C 0.53125 94.609375 28.316406 121.742188 62.589844 121.742188 C 96.859375 121.742188 124.644531 94.609375 124.644531 61.136719 C 124.644531 27.667969 96.859375 0.53125 62.589844 0.53125 Z M 62.589844 0.53125 " clip-rule="nonzero"/></clipPath><clipPath id="323b614466"><rect x="0" width="125" y="0" height="122"/></clipPath></defs><g clip-path="url(#6f5239b335)"><g clip-path="url(#4e6708a4c1)"><g clip-path="url(#7018875532)"><g transform="matrix(1, 0, 0, 1, 28, 28)"><g clip-path="url(#b5ad9de8f1)"><g clip-path="url(#0d2a1e28be)"><g clip-path="url(#cdd72c79d2)"><g clip-path="url(#eef3c972ce)"><path fill="#ffffff" d="M 156.421875 -32.734375 L 351.414062 162.257812 L 162.253906 351.417969 L -32.738281 156.425781 Z M 156.421875 -32.734375 " fill-opacity="1" fill-rule="nonzero"/></g></g></g></g></g></g></g></g><g clip-path="url(#8d96e0018a)"><g clip-path="url(#6eb454a0e0)"><g clip-path="url(#72a9734293)"><g transform="matrix(1, 0, 0, 1, 1, 1)"><g clip-path="url(#830c83494f)"><g clip-path="url(#6129afed9f)"><g clip-path="url(#c7b755226d)"><g clip-path="url(#04126df62c)"><path fill="#ffd967" d="M 182.917969 -38.703125 L 411.378906 189.757812 L 189.753906 411.386719 L -38.710938 182.925781 Z M 182.917969 -38.703125 " fill-opacity="1" fill-rule="nonzero"/></g></g></g></g></g></g></g></g><path stroke-linecap="butt" transform="matrix(0.708907, 0.244849, -0.244849, 0.708907, 90.074156, 146.663854)" fill="none" stroke-linejoin="miter" d="M 0.0020235 1.999815 C 14.671269 2.002631 29.343737 1.998824 44.012982 2.00164 " stroke="#ffffff" stroke-width="4" stroke-opacity="1" stroke-miterlimit="4"/><path stroke-linecap="butt" transform="matrix(0.326754, 0.675079, -0.675079, 0.326754, 130.819302, 96.956106)" fill="none" stroke-linejoin="miter" d="M -0.000513531 2.000334 C 14.800696 2.00094 29.601905 2.001547 44.403114 2.002154 " stroke="#ffffff" stroke-width="4" stroke-opacity="1" stroke-miterlimit="4"/><g clip-path="url(#08b4b04c1c)"><g clip-path="url(#10f55acbc5)"><g transform="matrix(1, 0, 0, 1, 128, 111)"><g clip-path="url(#984f3d3d35)"><g clip-path="url(#74a81b4e94)"><g clip-path="url(#b5242bec2f)"><rect x="-210.5" width="540" fill="#ffffff" height="539.999987" y="-193.499998" fill-opacity="1"/></g></g></g></g></g></g><g clip-path="url(#b58200dd51)"><g clip-path="url(#d25631ff42)"><g clip-path="url(#da5b4f75fd)"><path fill="#ffffff" d="M 247.027344 194.101562 C 248.957031 176.34375 242.292969 158.097656 229.707031 145.476562 C 194.910156 110.574219 133.308594 132.238281 127.992188 181.152344 C 126.058594 198.902344 132.460938 217.195312 145.0625 229.859375 C 179.253906 264.226562 241.800781 242.140625 247.027344 194.101562 " fill-opacity="1" fill-rule="nonzero"/></g></g></g><g clip-path="url(#519bbbd4c6)"><g clip-path="url(#ed94ca9b0d)"><g clip-path="url(#291e79ae3d)"><path fill="#ffffff" d="M 93.3125 140.886719 L 119.816406 154.003906 C 121.964844 155.070312 124.484375 154.203125 125.675781 152.128906 C 126.3125 151.015625 126.976562 149.921875 127.675781 148.847656 C 128.976562 146.832031 128.585938 144.191406 126.65625 142.773438 L 102.835938 125.25 C 100.800781 123.753906 97.875 124.199219 96.460938 126.292969 C 94.621094 129.03125 92.902344 131.855469 91.3125 134.746094 C 90.097656 136.960938 91.050781 139.761719 93.3125 140.886719 " fill-opacity="1" fill-rule="nonzero"/></g></g></g><g clip-path="url(#02819a9f5e)"><g clip-path="url(#fe71a02567)"><g clip-path="url(#81eff6b76f)"><path fill="#ffffff" d="M 116.292969 187.78125 C 116.289062 186.535156 116.320312 185.28125 116.382812 184.03125 C 116.5 181.652344 114.863281 179.570312 112.5 179.289062 L 97.617188 177.519531 L 83.011719 176.082031 C 80.515625 175.832031 78.242188 177.679688 78.070312 180.175781 C 77.855469 183.40625 77.777344 186.640625 77.84375 189.863281 C 77.894531 192.386719 80.117188 194.339844 82.632812 194.179688 L 112.148438 192.335938 C 114.542969 192.1875 116.296875 190.183594 116.292969 187.78125 " fill-opacity="1" fill-rule="nonzero"/></g></g></g><g clip-path="url(#edf9f10a76)"><g clip-path="url(#1451549455)"><g clip-path="url(#d7fad0418f)"><path fill="#ffffff" d="M 152.070312 249.289062 C 150.976562 248.660156 149.894531 248.003906 148.824219 247.3125 C 146.8125 246.007812 144.171875 246.390625 142.75 248.316406 L 125.195312 272.109375 C 123.695312 274.144531 124.132812 277.070312 126.226562 278.484375 C 128.980469 280.339844 131.816406 282.070312 134.707031 283.660156 C 136.925781 284.875 139.722656 283.921875 140.84375 281.65625 L 153.945312 255.148438 C 155.007812 252.996094 154.152344 250.484375 152.070312 249.289062 " fill-opacity="1" fill-rule="nonzero"/></g></g></g><g clip-path="url(#9e46b70867)"><g clip-path="url(#ef26609258)"><g clip-path="url(#044a070b19)"><path fill="#ffffff" d="M 187.492188 258.667969 C 186.226562 258.679688 184.964844 258.664062 183.691406 258.605469 C 181.292969 258.507812 179.214844 260.175781 178.96875 262.558594 L 175.914062 291.96875 C 175.648438 294.480469 177.511719 296.78125 180.035156 296.9375 C 183.351562 297.140625 186.671875 297.191406 189.96875 297.09375 C 192.5 297.015625 194.425781 294.773438 194.238281 292.253906 L 192.082031 262.761719 C 191.90625 260.371094 189.890625 258.640625 187.492188 258.667969 " fill-opacity="1" fill-rule="nonzero"/></g></g></g><g clip-path="url(#ea85c301d6)"><g clip-path="url(#01dcff8572)"><g clip-path="url(#2803673c74)"><path fill="#ffffff" d="M 124.03125 219.78125 C 122.96875 217.6875 120.390625 216.863281 118.242188 217.808594 L 91.257812 229.65625 C 88.941406 230.679688 87.863281 233.433594 88.980469 235.699219 C 90.425781 238.652344 92.011719 241.554688 93.730469 244.375 C 95.039062 246.53125 97.941406 247.109375 100.042969 245.710938 L 124.554688 229.382812 C 126.519531 228.078125 127.210938 225.457031 126.023438 223.417969 C 125.320312 222.226562 124.660156 221.007812 124.03125 219.78125 " fill-opacity="1" fill-rule="nonzero"/></g></g></g><g clip-path="url(#3c1ac0072a)"><g clip-path="url(#621be53861)"><g clip-path="url(#259c460a15)"><path fill="#ffffff" d="M 145.554688 124.566406 C 146.863281 126.523438 149.488281 127.21875 151.523438 126.027344 C 152.714844 125.324219 153.929688 124.660156 155.164062 124.03125 C 157.253906 122.960938 158.070312 120.386719 157.125 118.238281 L 145.25 91.261719 C 144.234375 88.949219 141.476562 87.871094 139.214844 88.988281 C 136.257812 90.441406 133.355469 92.03125 130.535156 93.75 C 128.378906 95.0625 127.804688 97.96875 129.210938 100.066406 L 145.554688 124.566406 " fill-opacity="1" fill-rule="nonzero"/></g></g></g><g clip-path="url(#45b0bbb305)"><g clip-path="url(#49e41db640)"><g clip-path="url(#5bdf13a94b)"><path fill="#ffffff" d="M 250.945312 155.050781 C 252.019531 157.144531 254.605469 157.96875 256.753906 157.015625 L 283.699219 145.109375 C 286.011719 144.085938 287.085938 141.332031 285.96875 139.058594 C 284.511719 136.105469 282.914062 133.207031 281.199219 130.390625 C 279.882812 128.234375 276.976562 127.664062 274.875 129.070312 L 250.394531 145.464844 C 248.4375 146.773438 247.753906 149.386719 248.941406 151.414062 C 249.644531 152.609375 250.3125 153.820312 250.945312 155.050781 " fill-opacity="1" fill-rule="nonzero"/></g></g></g><g clip-path="url(#d08f10e284)"><g clip-path="url(#d79c603e40)"><g clip-path="url(#eb2d2a2809)"><path fill="#ffffff" d="M 229.351562 250.484375 C 228.054688 248.53125 225.4375 247.835938 223.402344 249.019531 C 222.207031 249.71875 220.996094 250.378906 219.757812 251.007812 C 217.660156 252.074219 216.828125 254.660156 217.777344 256.820312 L 229.601562 283.796875 C 230.613281 286.113281 233.367188 287.191406 235.636719 286.082031 C 238.597656 284.636719 241.5 283.054688 244.3125 281.351562 C 246.480469 280.042969 247.054688 277.140625 245.65625 275.03125 L 229.351562 250.484375 " fill-opacity="1" fill-rule="nonzero"/></g></g></g><g clip-path="url(#ee92d07cac)"><g clip-path="url(#3f4e7674be)"><g clip-path="url(#f5a86e032d)"><path fill="#ffffff" d="M 281.632812 234.3125 L 255.167969 221.132812 C 253.019531 220.058594 250.496094 220.917969 249.300781 222.996094 C 248.660156 224.101562 247.996094 225.191406 247.296875 226.265625 C 245.992188 228.277344 246.375 230.914062 248.304688 232.34375 L 272.078125 249.914062 C 274.109375 251.414062 277.039062 250.984375 278.453125 248.890625 C 280.300781 246.164062 282.027344 243.34375 283.621094 240.453125 C 284.84375 238.242188 283.894531 235.441406 281.632812 234.3125 " fill-opacity="1" fill-rule="nonzero"/></g></g></g><g clip-path="url(#5ef9a40a7a)"><g clip-path="url(#15e01f9cb0)"><g clip-path="url(#18e2758c0e)"><path fill="#ffffff" d="M 297.203125 184.875 C 297.144531 182.351562 294.917969 180.40625 292.394531 180.570312 L 262.890625 182.480469 C 260.496094 182.636719 258.746094 184.644531 258.757812 187.042969 C 258.761719 188.359375 258.730469 189.675781 258.664062 191 C 258.546875 193.363281 260.160156 195.429688 262.503906 195.734375 L 277.414062 197.664062 L 292.078125 198.957031 C 294.558594 199.175781 296.8125 197.335938 296.976562 194.851562 C 297.199219 191.527344 297.277344 188.195312 297.203125 184.875 " fill-opacity="1" fill-rule="nonzero"/></g></g></g><g clip-path="url(#5439d37ecb)"><g clip-path="url(#88d5affe54)"><g clip-path="url(#dc784c4759)"><path fill="#ffffff" d="M 249.675781 102.734375 C 251.175781 100.699219 250.730469 97.769531 248.636719 96.363281 C 245.882812 94.519531 243.046875 92.792969 240.148438 91.207031 C 237.929688 89.996094 235.125 90.957031 234.007812 93.226562 L 220.949219 119.761719 C 219.894531 121.910156 220.757812 124.425781 222.839844 125.617188 C 223.945312 126.242188 225.023438 126.902344 226.09375 127.585938 C 228.109375 128.886719 230.742188 128.5 232.164062 126.566406 L 249.675781 102.734375 " fill-opacity="1" fill-rule="nonzero"/></g></g></g><g clip-path="url(#7e2daec22e)"><g clip-path="url(#60db9cdd17)"><g clip-path="url(#2a4a491902)"><path fill="#ffffff" d="M 190.847656 116.449219 C 190.847656 116.449219 195.304688 116.851562 195.84375 111.832031 L 198.898438 83.007812 C 199.167969 80.5 197.316406 78.203125 194.804688 78.035156 C 191.550781 77.816406 188.289062 77.742188 185.039062 77.808594 C 182.511719 77.867188 180.566406 80.089844 180.722656 82.609375 L 182.601562 112.117188 C 182.753906 114.511719 184.757812 116.261719 187.15625 116.253906 L 190.847656 116.449219 " fill-opacity="1" fill-rule="nonzero"/></g></g></g><path fill="#ffffff" d="M 247.980469 187.625 C 247.980469 169.761719 239.382812 152.34375 225.507812 141.15625 C 187.140625 110.222656 128.242188 138.421875 128.242188 187.625 C 128.242188 205.480469 136.585938 222.96875 150.480469 234.195312 C 188.191406 264.667969 247.980469 235.949219 247.980469 187.625 " fill-opacity="1" fill-rule="nonzero"/><path fill="#ffffff" d="M 89.417969 151.34375 L 117.179688 161.519531 C 119.433594 162.34375 121.84375 161.210938 122.804688 159.019531 C 123.316406 157.84375 123.859375 156.6875 124.4375 155.539062 C 125.511719 153.398438 124.839844 150.816406 122.765625 149.613281 L 97.191406 134.769531 C 95.007812 133.503906 92.144531 134.257812 90.96875 136.492188 C 89.433594 139.414062 88.03125 142.40625 86.765625 145.457031 C 85.796875 147.789062 87.046875 150.46875 89.417969 151.34375 " fill-opacity="1" fill-rule="nonzero"/><g clip-path="url(#52c9de3a2a)"><path fill="#ffffff" d="M 117.332031 195.476562 C 117.191406 194.238281 117.085938 192.988281 117.011719 191.742188 C 116.875 189.359375 115.023438 187.472656 112.640625 187.445312 L 97.652344 187.292969 L 82.980469 187.445312 C 80.472656 187.46875 78.410156 189.546875 78.507812 192.050781 C 78.644531 195.28125 78.917969 198.507812 79.332031 201.703125 C 79.65625 204.210938 82.078125 205.90625 84.5625 205.476562 L 113.703125 200.453125 C 116.066406 200.046875 117.59375 197.867188 117.332031 195.476562 " fill-opacity="1" fill-rule="nonzero"/></g><path fill="#ffffff" d="M 159.550781 252.757812 C 158.390625 252.25 157.246094 251.714844 156.109375 251.140625 C 153.964844 250.0625 151.382812 250.726562 150.179688 252.796875 L 135.296875 278.351562 C 134.027344 280.535156 134.777344 283.394531 137.015625 284.574219 C 139.949219 286.125 142.957031 287.539062 146.003906 288.804688 C 148.34375 289.773438 151.019531 288.523438 151.886719 286.148438 L 162.046875 258.378906 C 162.871094 256.125 161.746094 253.71875 159.550781 252.757812 " fill-opacity="1" fill-rule="nonzero"/><g clip-path="url(#c6930414de)"><path fill="#ffffff" d="M 195.777344 258.25 C 194.523438 258.402344 193.261719 258.519531 191.992188 258.601562 C 189.597656 258.761719 187.710938 260.644531 187.722656 263.039062 L 187.867188 292.609375 C 187.875 295.136719 189.976562 297.222656 192.5 297.101562 C 195.820312 296.945312 199.125 296.640625 202.394531 296.183594 C 204.898438 295.832031 206.574219 293.398438 206.117188 290.910156 L 200.78125 261.824219 C 200.347656 259.46875 198.15625 257.964844 195.777344 258.25 " fill-opacity="1" fill-rule="nonzero"/></g><path fill="#ffffff" d="M 128.484375 226.453125 C 127.199219 224.488281 124.550781 223.945312 122.515625 225.117188 L 96.96875 239.816406 C 94.777344 241.082031 94.003906 243.933594 95.359375 246.070312 C 97.117188 248.847656 99.007812 251.5625 101.019531 254.179688 C 102.554688 256.183594 105.5 256.441406 107.441406 254.824219 L 130.042969 235.945312 C 131.855469 234.433594 132.257812 231.75 130.859375 229.855469 C 130.03125 228.746094 129.242188 227.605469 128.484375 226.453125 " fill-opacity="1" fill-rule="nonzero"/><path fill="#ffffff" d="M 139.585938 129.46875 C 141.101562 131.273438 143.78125 131.683594 145.675781 130.277344 C 146.789062 129.449219 147.925781 128.65625 149.082031 127.898438 C 151.042969 126.609375 151.578125 123.960938 150.40625 121.929688 L 135.683594 96.394531 C 134.421875 94.207031 131.566406 93.433594 129.4375 94.785156 C 126.652344 96.550781 123.941406 98.445312 121.320312 100.457031 C 119.320312 101.996094 119.066406 104.945312 120.6875 106.878906 L 139.585938 129.46875 " fill-opacity="1" fill-rule="nonzero"/><path fill="#ffffff" d="M 247.652344 148.382812 C 248.953125 150.347656 251.609375 150.886719 253.640625 149.707031 L 279.144531 134.953125 C 281.328125 133.6875 282.101562 130.832031 280.746094 128.695312 C 278.976562 125.917969 277.078125 123.207031 275.0625 120.59375 C 273.523438 118.59375 270.574219 118.339844 268.636719 119.96875 L 246.070312 138.910156 C 244.269531 140.421875 243.867188 143.09375 245.269531 144.980469 C 246.101562 146.09375 246.890625 147.226562 247.652344 148.382812 " fill-opacity="1" fill-rule="nonzero"/><path fill="#ffffff" d="M 236.507812 245.589844 C 235.003906 243.789062 232.328125 243.378906 230.433594 244.777344 C 229.324219 245.597656 228.1875 246.390625 227.027344 247.148438 C 225.054688 248.4375 224.507812 251.09375 225.6875 253.140625 L 240.355469 278.683594 C 241.613281 280.871094 244.464844 281.648438 246.601562 280.300781 C 249.390625 278.542969 252.101562 276.65625 254.714844 274.65625 C 256.730469 273.121094 256.984375 270.175781 255.371094 268.230469 L 236.507812 245.589844 " fill-opacity="1" fill-rule="nonzero"/><path fill="#ffffff" d="M 286.734375 223.859375 L 258.996094 213.621094 C 256.746094 212.785156 254.332031 213.910156 253.363281 216.105469 C 252.851562 217.273438 252.304688 218.429688 251.726562 219.574219 C 250.648438 221.714844 251.3125 224.296875 253.386719 225.507812 L 278.921875 240.402344 C 281.101562 241.675781 283.96875 240.933594 285.148438 238.699219 C 286.6875 235.785156 288.101562 232.792969 289.375 229.75 C 290.347656 227.421875 289.105469 224.738281 286.734375 223.859375 " fill-opacity="1" fill-rule="nonzero"/><g clip-path="url(#725c855a88)"><path fill="#ffffff" d="M 296.863281 173.03125 C 296.535156 170.527344 294.113281 168.832031 291.621094 169.269531 L 262.496094 174.359375 C 260.132812 174.773438 258.609375 176.957031 258.882812 179.339844 C 259.027344 180.648438 259.140625 181.960938 259.214844 183.285156 C 259.355469 185.644531 261.183594 187.527344 263.542969 187.578125 L 278.578125 187.882812 L 293.292969 187.582031 C 295.785156 187.53125 297.824219 185.457031 297.71875 182.96875 C 297.582031 179.640625 297.296875 176.320312 296.863281 173.03125 " fill-opacity="1" fill-rule="nonzero"/></g><path fill="#ffffff" d="M 240.738281 96.507812 C 242.007812 94.324219 241.246094 91.460938 239.015625 90.289062 C 236.078125 88.75 233.070312 87.34375 230.015625 86.078125 C 227.679688 85.113281 225 86.375 224.132812 88.75 L 214.019531 116.542969 C 213.203125 118.789062 214.335938 121.199219 216.53125 122.15625 C 217.699219 122.660156 218.84375 123.199219 219.980469 123.765625 C 222.125 124.839844 224.703125 124.171875 225.902344 122.09375 L 240.738281 96.507812 " fill-opacity="1" fill-rule="nonzero"/><g clip-path="url(#3f05445494)"><path fill="#ffffff" d="M 183.734375 116.503906 C 183.734375 116.503906 188.210938 116.421875 188.207031 111.375 L 188.125 82.386719 C 188.125 79.867188 186.03125 77.78125 183.515625 77.886719 C 180.257812 78.023438 177.003906 78.296875 173.785156 78.71875 C 171.277344 79.046875 169.585938 81.46875 170.011719 83.957031 L 175.070312 113.085938 C 175.480469 115.449219 177.664062 116.976562 180.042969 116.710938 L 183.734375 116.503906 " fill-opacity="1" fill-rule="nonzero"/></g><g clip-path="url(#0ef89f2485)"><g clip-path="url(#f6aca64ec9)"><g transform="matrix(1, 0, 0, 1, 126, 126)"><g clip-path="url(#323b614466)"><g clip-path="url(#8624fef9ae)"><g clip-path="url(#2e80141344)"><path fill="#00b8db" d="M 0.53125 0.53125 L 124.582031 0.53125 L 124.582031 121.742188 L 0.53125 121.742188 Z M 0.53125 0.53125 " fill-opacity="1" fill-rule="nonzero"/></g></g></g></g></g></g></svg>
