<svg xmlns="http://www.w3.org/2000/svg" xmlns:xlink="http://www.w3.org/1999/xlink" width="500" zoomAndPan="magnify" viewBox="0 0 375 374.999991" height="500" preserveAspectRatio="xMidYMid meet" version="1.0"><defs><clipPath id="054ed76cee"><path d="M 28 28 L 347 28 L 347 347 L 28 347 Z M 28 28 " clip-rule="nonzero"/></clipPath><clipPath id="2c2d313954"><path d="M 184.421875 -4.734375 L 379.414062 190.257812 L 190.253906 379.417969 L -4.738281 184.425781 Z M 184.421875 -4.734375 " clip-rule="nonzero"/></clipPath><clipPath id="a635ebfef6"><path d="M 133.796875 322.960938 C 118.339844 307.503906 109.839844 286.085938 110.464844 264.214844 C 88.589844 264.839844 67.175781 256.339844 51.71875 240.878906 C 20.59375 209.757812 20.59375 159.09375 51.71875 127.96875 C 65.882812 113.804688 84.675781 105.511719 104.675781 104.679688 C 105.507812 84.679688 113.796875 65.886719 127.964844 51.722656 C 159.089844 20.597656 209.753906 20.597656 240.875 51.722656 C 256.335938 67.179688 264.832031 88.59375 264.207031 110.46875 C 286.082031 109.84375 307.5 118.34375 322.957031 133.800781 C 354.078125 164.925781 354.078125 215.589844 322.957031 246.714844 C 308.789062 260.878906 290 269.171875 270 270.003906 C 269.125 289.960938 260.875 308.792969 246.710938 322.960938 C 215.585938 354.085938 164.921875 354.085938 133.796875 322.960938 Z M 133.796875 322.960938 " clip-rule="nonzero"/></clipPath><clipPath id="15881412c9"><path d="M 0 0 L 319 0 L 319 319 L 0 319 Z M 0 0 " clip-rule="nonzero"/></clipPath><clipPath id="10468efe1b"><path d="M 156.421875 -32.734375 L 351.414062 162.257812 L 162.253906 351.417969 L -32.738281 156.425781 Z M 156.421875 -32.734375 " clip-rule="nonzero"/></clipPath><clipPath id="adb0977d5f"><path d="M 105.796875 294.960938 C 90.339844 279.503906 81.839844 258.085938 82.464844 236.214844 C 60.589844 236.839844 39.175781 228.339844 23.71875 212.878906 C -7.40625 181.757812 -7.40625 131.09375 23.71875 99.96875 C 37.882812 85.804688 56.675781 77.511719 76.675781 76.679688 C 77.507812 56.679688 85.796875 37.886719 99.964844 23.722656 C 131.089844 -7.402344 181.753906 -7.402344 212.875 23.722656 C 228.335938 39.179688 236.832031 60.59375 236.207031 82.46875 C 258.082031 81.84375 279.5 90.34375 294.957031 105.800781 C 326.078125 136.925781 326.078125 187.589844 294.957031 218.714844 C 280.789062 232.878906 262 241.171875 242 242.003906 C 241.125 261.960938 232.875 280.792969 218.710938 294.960938 C 187.585938 326.085938 136.921875 326.085938 105.796875 294.960938 Z M 105.796875 294.960938 " clip-rule="nonzero"/></clipPath><clipPath id="5ec13d945b"><rect x="0" width="319" y="0" height="319"/></clipPath><clipPath id="5c0b8394b4"><path d="M 1 1 L 374 1 L 374 374 L 1 374 Z M 1 1 " clip-rule="nonzero"/></clipPath><clipPath id="56eb3e076b"><path d="M 183.917969 -37.703125 L 412.378906 190.757812 L 190.753906 412.386719 L -37.710938 183.925781 Z M 183.917969 -37.703125 " clip-rule="nonzero"/></clipPath><clipPath id="92e745b80f"><path d="M 124.605469 346.238281 C 106.496094 328.128906 96.535156 303.039062 97.269531 277.410156 C 71.640625 278.140625 46.546875 268.183594 28.4375 250.070312 C -8.027344 213.605469 -8.027344 154.242188 28.4375 117.777344 C 45.035156 101.179688 67.050781 91.464844 90.484375 90.488281 C 91.460938 67.058594 101.171875 45.039062 117.769531 28.441406 C 154.238281 -8.023438 213.597656 -8.023438 250.066406 28.441406 C 268.175781 46.554688 278.132812 71.644531 277.402344 97.273438 C 303.03125 96.542969 328.121094 106.5 346.234375 124.613281 C 382.699219 161.078125 382.699219 220.4375 346.234375 256.90625 C 329.636719 273.503906 307.621094 283.21875 284.1875 284.195312 C 283.164062 307.578125 273.496094 329.640625 256.898438 346.238281 C 220.433594 382.707031 161.070312 382.707031 124.605469 346.238281 Z M 124.605469 346.238281 " clip-rule="nonzero"/></clipPath><clipPath id="c95611d4a5"><path d="M 0 0 L 373 0 L 373 373 L 0 373 Z M 0 0 " clip-rule="nonzero"/></clipPath><clipPath id="0aa1800dae"><path d="M 182.917969 -38.703125 L 411.378906 189.757812 L 189.753906 411.386719 L -38.710938 182.925781 Z M 182.917969 -38.703125 " clip-rule="nonzero"/></clipPath><clipPath id="ec21e883e9"><path d="M 123.605469 345.238281 C 105.496094 327.128906 95.535156 302.039062 96.269531 276.410156 C 70.640625 277.140625 45.546875 267.183594 27.4375 249.070312 C -9.027344 212.605469 -9.027344 153.242188 27.4375 116.777344 C 44.035156 100.179688 66.050781 90.464844 89.484375 89.488281 C 90.460938 66.058594 100.171875 44.039062 116.769531 27.441406 C 153.238281 -9.023438 212.597656 -9.023438 249.066406 27.441406 C 267.175781 45.554688 277.132812 70.644531 276.402344 96.273438 C 302.03125 95.542969 327.121094 105.5 345.234375 123.613281 C 381.699219 160.078125 381.699219 219.4375 345.234375 255.90625 C 328.636719 272.503906 306.621094 282.21875 283.1875 283.195312 C 282.164062 306.578125 272.496094 328.640625 255.898438 345.238281 C 219.433594 381.707031 160.070312 381.707031 123.605469 345.238281 Z M 123.605469 345.238281 " clip-rule="nonzero"/></clipPath><clipPath id="2c7aceb4bf"><rect x="0" width="373" y="0" height="373"/></clipPath><clipPath id="91caa6a7df"><path d="M 77.65625 187 L 117 187 L 117 206 L 77.65625 206 Z M 77.65625 187 " clip-rule="nonzero"/></clipPath><clipPath id="21c9b6954a"><path d="M 187 258 L 206 258 L 206 297.542969 L 187 297.542969 Z M 187 258 " clip-rule="nonzero"/></clipPath><clipPath id="c8f3de97cf"><path d="M 258 169 L 297.40625 169 L 297.40625 188 L 258 188 Z M 258 169 " clip-rule="nonzero"/></clipPath><clipPath id="663311c01f"><path d="M 169 77.792969 L 188 77.792969 L 188 117 L 169 117 Z M 169 77.792969 " clip-rule="nonzero"/></clipPath></defs><g clip-path="url(#054ed76cee)"><g clip-path="url(#2c2d313954)"><g clip-path="url(#a635ebfef6)"><g transform="matrix(1, 0, 0, 1, 28, 28)"><g clip-path="url(#5ec13d945b)"><g clip-path="url(#15881412c9)"><g clip-path="url(#10468efe1b)"><g clip-path="url(#adb0977d5f)"><path fill="#ffffff" d="M 156.421875 -32.734375 L 351.414062 162.257812 L 162.253906 351.417969 L -32.738281 156.425781 Z M 156.421875 -32.734375 " fill-opacity="1" fill-rule="nonzero"/></g></g></g></g></g></g></g></g><g clip-path="url(#5c0b8394b4)"><g clip-path="url(#56eb3e076b)"><g clip-path="url(#92e745b80f)"><g transform="matrix(1, 0, 0, 1, 1, 1)"><g clip-path="url(#2c7aceb4bf)"><g clip-path="url(#c95611d4a5)"><g clip-path="url(#0aa1800dae)"><g clip-path="url(#ec21e883e9)"><path fill="#ffd967" d="M 182.917969 -38.703125 L 411.378906 189.757812 L 189.753906 411.386719 L -38.710938 182.925781 Z M 182.917969 -38.703125 " fill-opacity="1" fill-rule="nonzero"/></g></g></g></g></g></g></g></g><path fill="#ffffff" d="M 247.390625 187.625 C 247.390625 169.761719 238.792969 152.34375 224.917969 141.15625 C 186.550781 110.222656 127.652344 138.421875 127.652344 187.625 C 127.652344 205.480469 135.996094 222.96875 149.890625 234.195312 C 187.597656 264.667969 247.390625 235.949219 247.390625 187.625 " fill-opacity="1" fill-rule="nonzero"/><path fill="#ffffff" d="M 88.824219 151.34375 L 116.589844 161.519531 C 118.84375 162.34375 121.253906 161.210938 122.214844 159.019531 C 122.726562 157.84375 123.269531 156.6875 123.847656 155.539062 C 124.921875 153.398438 124.25 150.816406 122.175781 149.613281 L 96.601562 134.769531 C 94.417969 133.503906 91.554688 134.257812 90.378906 136.492188 C 88.84375 139.414062 87.441406 142.40625 86.175781 145.457031 C 85.203125 147.789062 86.457031 150.46875 88.824219 151.34375 " fill-opacity="1" fill-rule="nonzero"/><g clip-path="url(#91caa6a7df)"><path fill="#ffffff" d="M 116.742188 195.476562 C 116.601562 194.238281 116.496094 192.988281 116.421875 191.742188 C 116.285156 189.359375 114.433594 187.472656 112.050781 187.445312 L 97.0625 187.292969 L 82.390625 187.445312 C 79.882812 187.46875 77.820312 189.546875 77.917969 192.050781 C 78.054688 195.28125 78.328125 198.507812 78.742188 201.703125 C 79.066406 204.210938 81.488281 205.90625 83.972656 205.476562 L 113.113281 200.453125 C 115.476562 200.046875 117.003906 197.867188 116.742188 195.476562 " fill-opacity="1" fill-rule="nonzero"/></g><path fill="#ffffff" d="M 158.957031 252.757812 C 157.800781 252.25 156.65625 251.714844 155.519531 251.140625 C 153.375 250.0625 150.792969 250.726562 149.585938 252.796875 L 134.707031 278.351562 C 133.4375 280.535156 134.1875 283.394531 136.425781 284.574219 C 139.359375 286.125 142.367188 287.539062 145.414062 288.804688 C 147.75 289.773438 150.429688 288.523438 151.296875 286.148438 L 161.457031 258.378906 C 162.28125 256.125 161.15625 253.71875 158.957031 252.757812 " fill-opacity="1" fill-rule="nonzero"/><g clip-path="url(#21c9b6954a)"><path fill="#ffffff" d="M 195.183594 258.25 C 193.929688 258.402344 192.671875 258.519531 191.402344 258.601562 C 189.007812 258.761719 187.121094 260.644531 187.132812 263.039062 L 187.277344 292.609375 C 187.285156 295.136719 189.386719 297.222656 191.910156 297.101562 C 195.230469 296.945312 198.535156 296.640625 201.804688 296.183594 C 204.308594 295.832031 205.984375 293.398438 205.527344 290.910156 L 200.191406 261.824219 C 199.757812 259.46875 197.566406 257.964844 195.183594 258.25 " fill-opacity="1" fill-rule="nonzero"/></g><path fill="#ffffff" d="M 127.894531 226.453125 C 126.609375 224.488281 123.960938 223.945312 121.925781 225.117188 L 96.378906 239.816406 C 94.1875 241.082031 93.414062 243.933594 94.769531 246.070312 C 96.527344 248.847656 98.417969 251.5625 100.429688 254.179688 C 101.964844 256.183594 104.910156 256.441406 106.851562 254.824219 L 129.453125 235.945312 C 131.265625 234.433594 131.667969 231.75 130.269531 229.855469 C 129.441406 228.746094 128.652344 227.605469 127.894531 226.453125 " fill-opacity="1" fill-rule="nonzero"/><path fill="#ffffff" d="M 138.996094 129.46875 C 140.507812 131.273438 143.191406 131.683594 145.085938 130.277344 C 146.199219 129.449219 147.332031 128.65625 148.488281 127.898438 C 150.453125 126.609375 150.988281 123.960938 149.816406 121.929688 L 135.09375 96.394531 C 133.832031 94.207031 130.972656 93.433594 128.847656 94.785156 C 126.0625 96.550781 123.351562 98.445312 120.730469 100.457031 C 118.730469 101.996094 118.476562 104.945312 120.097656 106.878906 L 138.996094 129.46875 " fill-opacity="1" fill-rule="nonzero"/><path fill="#ffffff" d="M 247.0625 148.382812 C 248.359375 150.347656 251.019531 150.886719 253.050781 149.707031 L 278.554688 134.953125 C 280.738281 133.6875 281.511719 130.832031 280.152344 128.695312 C 278.382812 125.917969 276.488281 123.207031 274.472656 120.59375 C 272.933594 118.59375 269.984375 118.339844 268.046875 119.96875 L 245.480469 138.910156 C 243.679688 140.421875 243.277344 143.09375 244.679688 144.980469 C 245.507812 146.09375 246.300781 147.226562 247.0625 148.382812 " fill-opacity="1" fill-rule="nonzero"/><path fill="#ffffff" d="M 235.917969 245.589844 C 234.414062 243.789062 231.738281 243.378906 229.84375 244.777344 C 228.730469 245.597656 227.597656 246.390625 226.4375 247.148438 C 224.464844 248.4375 223.917969 251.09375 225.097656 253.140625 L 239.765625 278.683594 C 241.023438 280.871094 243.875 281.648438 246.011719 280.300781 C 248.800781 278.542969 251.511719 276.65625 254.125 274.65625 C 256.140625 273.121094 256.394531 270.175781 254.78125 268.230469 L 235.917969 245.589844 " fill-opacity="1" fill-rule="nonzero"/><path fill="#ffffff" d="M 286.140625 223.859375 L 258.40625 213.621094 C 256.15625 212.785156 253.742188 213.910156 252.773438 216.105469 C 252.257812 217.273438 251.714844 218.429688 251.136719 219.574219 C 250.054688 221.714844 250.722656 224.296875 252.796875 225.507812 L 278.332031 240.402344 C 280.511719 241.675781 283.378906 240.933594 284.558594 238.699219 C 286.097656 235.785156 287.511719 232.792969 288.785156 229.75 C 289.757812 227.421875 288.515625 224.738281 286.140625 223.859375 " fill-opacity="1" fill-rule="nonzero"/><g clip-path="url(#c8f3de97cf)"><path fill="#ffffff" d="M 296.273438 173.03125 C 295.945312 170.527344 293.523438 168.832031 291.03125 169.269531 L 261.90625 174.359375 C 259.542969 174.773438 258.019531 176.957031 258.292969 179.339844 C 258.4375 180.648438 258.550781 181.960938 258.625 183.285156 C 258.765625 185.644531 260.589844 187.527344 262.953125 187.578125 L 277.988281 187.882812 L 292.703125 187.582031 C 295.195312 187.53125 297.234375 185.457031 297.128906 182.96875 C 296.992188 179.640625 296.707031 176.320312 296.273438 173.03125 " fill-opacity="1" fill-rule="nonzero"/></g><path fill="#ffffff" d="M 240.148438 96.507812 C 241.417969 94.324219 240.65625 91.460938 238.421875 90.289062 C 235.488281 88.75 232.480469 87.34375 229.425781 86.078125 C 227.089844 85.113281 224.410156 86.375 223.542969 88.75 L 213.429688 116.542969 C 212.613281 118.789062 213.746094 121.199219 215.941406 122.15625 C 217.105469 122.660156 218.253906 123.199219 219.390625 123.765625 C 221.535156 124.839844 224.109375 124.171875 225.3125 122.09375 L 240.148438 96.507812 " fill-opacity="1" fill-rule="nonzero"/><g clip-path="url(#663311c01f)"><path fill="#ffffff" d="M 183.144531 116.503906 C 183.144531 116.503906 187.621094 116.421875 187.613281 111.375 L 187.535156 82.386719 C 187.53125 79.867188 185.441406 77.78125 182.925781 77.886719 C 179.667969 78.023438 176.414062 78.296875 173.195312 78.71875 C 170.6875 79.046875 168.992188 81.46875 169.421875 83.957031 L 174.480469 113.085938 C 174.890625 115.449219 177.070312 116.976562 179.453125 116.710938 L 183.144531 116.503906 " fill-opacity="1" fill-rule="nonzero"/></g></svg>
