<svg xmlns="http://www.w3.org/2000/svg" xmlns:xlink="http://www.w3.org/1999/xlink" width="500" zoomAndPan="magnify" viewBox="0 0 375 374.999991" height="500" preserveAspectRatio="xMidYMid meet" version="1.0"><defs><clipPath id="dbb6f1f598"><path d="M 28 28 L 347 28 L 347 347 L 28 347 Z M 28 28 " clip-rule="nonzero"/></clipPath><clipPath id="43e5a4b02b"><path d="M 184.421875 -4.734375 L 379.414062 190.257812 L 190.253906 379.417969 L -4.738281 184.425781 Z M 184.421875 -4.734375 " clip-rule="nonzero"/></clipPath><clipPath id="4aabdc3411"><path d="M 133.796875 322.960938 C 118.339844 307.503906 109.839844 286.085938 110.464844 264.214844 C 88.589844 264.839844 67.175781 256.339844 51.71875 240.878906 C 20.59375 209.757812 20.59375 159.09375 51.71875 127.96875 C 65.882812 113.804688 84.675781 105.511719 104.675781 104.679688 C 105.507812 84.679688 113.796875 65.886719 127.964844 51.722656 C 159.089844 20.597656 209.753906 20.597656 240.875 51.722656 C 256.335938 67.179688 264.832031 88.59375 264.207031 110.46875 C 286.082031 109.84375 307.5 118.34375 322.957031 133.800781 C 354.078125 164.925781 354.078125 215.589844 322.957031 246.714844 C 308.789062 260.878906 290 269.171875 270 270.003906 C 269.125 289.960938 260.875 308.792969 246.710938 322.960938 C 215.585938 354.085938 164.921875 354.085938 133.796875 322.960938 Z M 133.796875 322.960938 " clip-rule="nonzero"/></clipPath><clipPath id="1b14dd1854"><path d="M 0 0 L 319 0 L 319 319 L 0 319 Z M 0 0 " clip-rule="nonzero"/></clipPath><clipPath id="f373d24ef7"><path d="M 156.421875 -32.734375 L 351.414062 162.257812 L 162.253906 351.417969 L -32.738281 156.425781 Z M 156.421875 -32.734375 " clip-rule="nonzero"/></clipPath><clipPath id="7dd3b302a1"><path d="M 105.796875 294.960938 C 90.339844 279.503906 81.839844 258.085938 82.464844 236.214844 C 60.589844 236.839844 39.175781 228.339844 23.71875 212.878906 C -7.40625 181.757812 -7.40625 131.09375 23.71875 99.96875 C 37.882812 85.804688 56.675781 77.511719 76.675781 76.679688 C 77.507812 56.679688 85.796875 37.886719 99.964844 23.722656 C 131.089844 -7.402344 181.753906 -7.402344 212.875 23.722656 C 228.335938 39.179688 236.832031 60.59375 236.207031 82.46875 C 258.082031 81.84375 279.5 90.34375 294.957031 105.800781 C 326.078125 136.925781 326.078125 187.589844 294.957031 218.714844 C 280.789062 232.878906 262 241.171875 242 242.003906 C 241.125 261.960938 232.875 280.792969 218.710938 294.960938 C 187.585938 326.085938 136.921875 326.085938 105.796875 294.960938 Z M 105.796875 294.960938 " clip-rule="nonzero"/></clipPath><clipPath id="c94b038e99"><rect x="0" width="319" y="0" height="319"/></clipPath><clipPath id="fd29a741a4"><path d="M 1 1 L 374 1 L 374 374 L 1 374 Z M 1 1 " clip-rule="nonzero"/></clipPath><clipPath id="116e8cdd91"><path d="M 183.917969 -37.703125 L 412.378906 190.757812 L 190.753906 412.386719 L -37.710938 183.925781 Z M 183.917969 -37.703125 " clip-rule="nonzero"/></clipPath><clipPath id="aa873255e4"><path d="M 124.605469 346.238281 C 106.496094 328.128906 96.535156 303.039062 97.269531 277.410156 C 71.640625 278.140625 46.546875 268.183594 28.4375 250.070312 C -8.027344 213.605469 -8.027344 154.242188 28.4375 117.777344 C 45.035156 101.179688 67.050781 91.464844 90.484375 90.488281 C 91.460938 67.058594 101.171875 45.039062 117.769531 28.441406 C 154.238281 -8.023438 213.597656 -8.023438 250.066406 28.441406 C 268.175781 46.554688 278.132812 71.644531 277.402344 97.273438 C 303.03125 96.542969 328.121094 106.5 346.234375 124.613281 C 382.699219 161.078125 382.699219 220.4375 346.234375 256.90625 C 329.636719 273.503906 307.621094 283.21875 284.1875 284.195312 C 283.164062 307.578125 273.496094 329.640625 256.898438 346.238281 C 220.433594 382.707031 161.070312 382.707031 124.605469 346.238281 Z M 124.605469 346.238281 " clip-rule="nonzero"/></clipPath><clipPath id="b3adab9ce0"><path d="M 0 0 L 373 0 L 373 373 L 0 373 Z M 0 0 " clip-rule="nonzero"/></clipPath><clipPath id="eef32d9075"><path d="M 182.917969 -38.703125 L 411.378906 189.757812 L 189.753906 411.386719 L -38.710938 182.925781 Z M 182.917969 -38.703125 " clip-rule="nonzero"/></clipPath><clipPath id="6f5d3ab104"><path d="M 123.605469 345.238281 C 105.496094 327.128906 95.535156 302.039062 96.269531 276.410156 C 70.640625 277.140625 45.546875 267.183594 27.4375 249.070312 C -9.027344 212.605469 -9.027344 153.242188 27.4375 116.777344 C 44.035156 100.179688 66.050781 90.464844 89.484375 89.488281 C 90.460938 66.058594 100.171875 44.039062 116.769531 27.441406 C 153.238281 -9.023438 212.597656 -9.023438 249.066406 27.441406 C 267.175781 45.554688 277.132812 70.644531 276.402344 96.273438 C 302.03125 95.542969 327.121094 105.5 345.234375 123.613281 C 381.699219 160.078125 381.699219 219.4375 345.234375 255.90625 C 328.636719 272.503906 306.621094 282.21875 283.1875 283.195312 C 282.164062 306.578125 272.496094 328.640625 255.898438 345.238281 C 219.433594 381.707031 160.070312 381.707031 123.605469 345.238281 Z M 123.605469 345.238281 " clip-rule="nonzero"/></clipPath><clipPath id="eea43c3327"><rect x="0" width="373" y="0" height="373"/></clipPath><clipPath id="fc1c76d047"><path d="M 71 71 L 303.867188 71 L 303.867188 303.867188 L 71 303.867188 Z M 71 71 " clip-rule="nonzero"/></clipPath><clipPath id="7c1bb27d3b"><path d="M 248.289062 191.574219 C 248.039062 195.191406 247.480469 198.726562 246.628906 202.144531 L 299.105469 219.195312 L 296.488281 227.253906 L 244.011719 210.203125 C 242.664062 213.535156 241.03125 216.726562 239.144531 219.738281 L 283.789062 252.175781 L 278.8125 259.027344 L 234.160156 226.585938 C 231.863281 229.324219 229.332031 231.859375 226.589844 234.15625 L 259.035156 278.804688 L 252.179688 283.785156 L 219.742188 239.140625 C 216.730469 241.027344 213.542969 242.660156 210.207031 244.003906 L 227.257812 296.484375 L 219.203125 299.101562 L 202.148438 246.621094 C 198.726562 247.472656 195.199219 248.039062 191.578125 248.285156 L 191.578125 303.472656 L 183.105469 303.472656 L 183.105469 248.289062 C 179.488281 248.039062 175.953125 247.480469 172.535156 246.628906 L 155.484375 299.105469 L 147.425781 296.488281 L 164.472656 244.011719 C 161.140625 242.664062 157.949219 241.03125 154.9375 239.144531 L 122.5 283.789062 L 115.648438 278.8125 L 148.089844 234.160156 C 145.351562 231.863281 142.816406 229.332031 140.519531 226.589844 L 95.871094 259.035156 L 90.890625 252.179688 L 135.535156 219.742188 C 133.648438 216.730469 132.015625 213.542969 130.671875 210.207031 L 78.195312 227.257812 L 75.578125 219.203125 L 128.058594 202.148438 C 127.207031 198.726562 126.640625 195.199219 126.398438 191.578125 L 71.203125 191.578125 L 71.203125 183.105469 L 126.390625 183.105469 C 126.640625 179.488281 127.203125 175.953125 128.054688 172.535156 L 75.574219 155.480469 L 78.191406 147.421875 L 130.671875 164.472656 C 132.015625 161.140625 133.648438 157.949219 135.535156 154.9375 L 90.890625 122.5 L 95.871094 115.648438 L 140.519531 148.089844 C 142.816406 145.351562 145.351562 142.816406 148.089844 140.519531 L 115.648438 95.871094 L 122.5 90.890625 L 154.9375 135.535156 C 157.949219 133.648438 161.136719 132.015625 164.472656 130.671875 L 147.421875 78.191406 L 155.480469 75.574219 L 172.53125 128.054688 C 175.953125 127.203125 179.484375 126.636719 183.101562 126.390625 L 183.101562 71.203125 L 191.574219 71.203125 L 191.574219 126.390625 C 195.191406 126.640625 198.726562 127.203125 202.144531 128.054688 L 219.195312 75.574219 L 227.253906 78.191406 L 210.203125 130.671875 C 213.535156 132.015625 216.726562 133.648438 219.738281 135.535156 L 252.175781 90.890625 L 259.027344 95.871094 L 226.585938 140.519531 C 229.324219 142.816406 231.859375 145.351562 234.15625 148.089844 L 278.804688 115.648438 L 283.785156 122.5 L 239.140625 154.9375 C 241.027344 157.949219 242.660156 161.136719 244.003906 164.472656 L 296.484375 147.421875 L 299.101562 155.480469 L 246.621094 172.53125 C 247.472656 175.953125 248.039062 179.484375 248.285156 183.101562 L 303.472656 183.101562 L 303.472656 191.574219 Z M 248.289062 191.574219 " clip-rule="nonzero"/></clipPath><clipPath id="7b60cc26c6"><path d="M 0.28125 0.28125 L 232.601562 0.28125 L 232.601562 232.601562 L 0.28125 232.601562 Z M 0.28125 0.28125 " clip-rule="nonzero"/></clipPath><clipPath id="9e8bc794ae"><path d="M 177.289062 120.574219 C 177.039062 124.191406 176.480469 127.726562 175.628906 131.144531 L 228.105469 148.195312 L 225.488281 156.253906 L 173.011719 139.203125 C 171.664062 142.535156 170.03125 145.726562 168.144531 148.738281 L 212.789062 181.175781 L 207.8125 188.027344 L 163.160156 155.585938 C 160.863281 158.324219 158.332031 160.859375 155.589844 163.15625 L 188.035156 207.804688 L 181.179688 212.785156 L 148.742188 168.140625 C 145.730469 170.027344 142.542969 171.660156 139.207031 173.003906 L 156.257812 225.484375 L 148.203125 228.101562 L 131.148438 175.621094 C 127.726562 176.472656 124.199219 177.039062 120.578125 177.285156 L 120.578125 232.472656 L 112.105469 232.472656 L 112.105469 177.289062 C 108.488281 177.039062 104.953125 176.480469 101.535156 175.628906 L 84.484375 228.105469 L 76.425781 225.488281 L 93.472656 173.011719 C 90.140625 171.664062 86.949219 170.03125 83.9375 168.144531 L 51.5 212.789062 L 44.648438 207.8125 L 77.089844 163.160156 C 74.351562 160.863281 71.816406 158.332031 69.519531 155.589844 L 24.871094 188.035156 L 19.890625 181.179688 L 64.535156 148.742188 C 62.648438 145.730469 61.015625 142.542969 59.671875 139.207031 L 7.195312 156.257812 L 4.578125 148.203125 L 57.058594 131.148438 C 56.207031 127.726562 55.640625 124.199219 55.398438 120.578125 L 0.203125 120.578125 L 0.203125 112.105469 L 55.390625 112.105469 C 55.640625 108.488281 56.203125 104.953125 57.054688 101.535156 L 4.574219 84.480469 L 7.191406 76.421875 L 59.671875 93.472656 C 61.015625 90.140625 62.648438 86.949219 64.535156 83.9375 L 19.890625 51.5 L 24.871094 44.648438 L 69.519531 77.089844 C 71.816406 74.351562 74.351562 71.816406 77.089844 69.519531 L 44.648438 24.871094 L 51.5 19.890625 L 83.9375 64.535156 C 86.949219 62.648438 90.136719 61.015625 93.472656 59.671875 L 76.421875 7.191406 L 84.480469 4.574219 L 101.53125 57.054688 C 104.953125 56.203125 108.484375 55.636719 112.101562 55.390625 L 112.101562 0.203125 L 120.574219 0.203125 L 120.574219 55.390625 C 124.191406 55.640625 127.726562 56.203125 131.144531 57.054688 L 148.195312 4.574219 L 156.253906 7.191406 L 139.203125 59.671875 C 142.535156 61.015625 145.726562 62.648438 148.738281 64.535156 L 181.175781 19.890625 L 188.027344 24.871094 L 155.585938 69.519531 C 158.324219 71.816406 160.859375 74.351562 163.15625 77.089844 L 207.804688 44.648438 L 212.785156 51.5 L 168.140625 83.9375 C 170.027344 86.949219 171.660156 90.136719 173.003906 93.472656 L 225.484375 76.421875 L 228.101562 84.480469 L 175.621094 101.53125 C 176.472656 104.953125 177.039062 108.484375 177.285156 112.101562 L 232.472656 112.101562 L 232.472656 120.574219 Z M 177.289062 120.574219 " clip-rule="nonzero"/></clipPath><clipPath id="bb540f829e"><rect x="0" width="233" y="0" height="233"/></clipPath></defs><g clip-path="url(#dbb6f1f598)"><g clip-path="url(#43e5a4b02b)"><g clip-path="url(#4aabdc3411)"><g transform="matrix(1, 0, 0, 1, 28, 28)"><g clip-path="url(#c94b038e99)"><g clip-path="url(#1b14dd1854)"><g clip-path="url(#f373d24ef7)"><g clip-path="url(#7dd3b302a1)"><path fill="#ffffff" d="M 156.421875 -32.734375 L 351.414062 162.257812 L 162.253906 351.417969 L -32.738281 156.425781 Z M 156.421875 -32.734375 " fill-opacity="1" fill-rule="nonzero"/></g></g></g></g></g></g></g></g><g clip-path="url(#fd29a741a4)"><g clip-path="url(#116e8cdd91)"><g clip-path="url(#aa873255e4)"><g transform="matrix(1, 0, 0, 1, 1, 1)"><g clip-path="url(#eea43c3327)"><g clip-path="url(#b3adab9ce0)"><g clip-path="url(#eef32d9075)"><g clip-path="url(#6f5d3ab104)"><path fill="#ffd967" d="M 182.917969 -38.703125 L 411.378906 189.757812 L 189.753906 411.386719 L -38.710938 182.925781 Z M 182.917969 -38.703125 " fill-opacity="1" fill-rule="nonzero"/></g></g></g></g></g></g></g></g><g clip-path="url(#fc1c76d047)"><g clip-path="url(#7c1bb27d3b)"><g transform="matrix(1, 0, 0, 1, 71, 71)"><g clip-path="url(#bb540f829e)"><g clip-path="url(#7b60cc26c6)"><g clip-path="url(#9e8bc794ae)"><path fill="#ffffff" d="M 0.28125 0.28125 L 232.398438 0.28125 L 232.398438 232.398438 L 0.28125 232.398438 Z M 0.28125 0.28125 " fill-opacity="1" fill-rule="nonzero"/></g></g></g></g></g></g></svg>
