<svg xmlns="http://www.w3.org/2000/svg" xmlns:xlink="http://www.w3.org/1999/xlink" width="200" zoomAndPan="magnify" viewBox="0 0 150 149.999998" height="200" preserveAspectRatio="xMidYMid meet" version="1.0"><defs><clipPath id="77053ac120"><path d="M 5.484375 4.066406 L 117 4.066406 L 117 145.816406 L 5.484375 145.816406 Z M 5.484375 4.066406 " clip-rule="nonzero"/></clipPath><clipPath id="c2bc7c8a94"><path d="M 85 49 L 144.234375 49 L 144.234375 131 L 85 131 Z M 85 49 " clip-rule="nonzero"/></clipPath></defs><path fill="#002d72" d="M 75.757812 54.546875 L 23.050781 54.546875 C 22.777344 54.546875 22.515625 54.597656 22.265625 54.703125 C 22.011719 54.808594 21.789062 54.957031 21.597656 55.148438 C 21.402344 55.34375 21.253906 55.566406 21.148438 55.816406 C 21.046875 56.070312 20.992188 56.332031 20.992188 56.605469 C 20.992188 56.878906 21.046875 57.140625 21.148438 57.394531 C 21.253906 57.644531 21.402344 57.867188 21.597656 58.0625 C 21.789062 58.253906 22.011719 58.402344 22.265625 58.507812 C 22.515625 58.613281 22.777344 58.664062 23.050781 58.664062 L 75.757812 58.664062 C 76.03125 58.664062 76.292969 58.613281 76.546875 58.507812 C 76.800781 58.402344 77.023438 58.253906 77.214844 58.0625 C 77.40625 57.867188 77.554688 57.644531 77.660156 57.394531 C 77.765625 57.140625 77.816406 56.878906 77.816406 56.605469 C 77.816406 56.332031 77.765625 56.070312 77.660156 55.816406 C 77.554688 55.566406 77.40625 55.34375 77.214844 55.148438 C 77.023438 54.957031 76.800781 54.808594 76.546875 54.703125 C 76.292969 54.597656 76.03125 54.546875 75.757812 54.546875 Z M 75.757812 54.546875 " fill-opacity="1" fill-rule="nonzero"/><path fill="#002d72" d="M 75.757812 69.007812 L 23.050781 69.007812 C 22.777344 69.007812 22.515625 69.0625 22.265625 69.164062 C 22.011719 69.269531 21.789062 69.417969 21.597656 69.613281 C 21.402344 69.804688 21.253906 70.027344 21.148438 70.277344 C 21.046875 70.53125 20.992188 70.792969 20.992188 71.066406 C 20.992188 71.339844 21.046875 71.601562 21.148438 71.855469 C 21.253906 72.105469 21.402344 72.328125 21.597656 72.523438 C 21.789062 72.714844 22.011719 72.863281 22.265625 72.96875 C 22.515625 73.074219 22.777344 73.125 23.050781 73.125 L 75.757812 73.125 C 76.03125 73.125 76.292969 73.074219 76.546875 72.96875 C 76.800781 72.863281 77.023438 72.714844 77.214844 72.523438 C 77.40625 72.328125 77.554688 72.105469 77.660156 71.855469 C 77.765625 71.601562 77.816406 71.339844 77.816406 71.066406 C 77.816406 70.792969 77.765625 70.53125 77.660156 70.277344 C 77.554688 70.027344 77.40625 69.804688 77.214844 69.613281 C 77.023438 69.417969 76.800781 69.269531 76.546875 69.164062 C 76.292969 69.0625 76.03125 69.007812 75.757812 69.007812 Z M 75.757812 69.007812 " fill-opacity="1" fill-rule="nonzero"/><path fill="#002d72" d="M 75.757812 83.488281 L 23.050781 83.488281 C 22.777344 83.488281 22.515625 83.539062 22.261719 83.640625 C 22.007812 83.746094 21.78125 83.894531 21.589844 84.085938 C 21.394531 84.28125 21.246094 84.503906 21.140625 84.757812 C 21.035156 85.007812 20.980469 85.273438 20.980469 85.546875 C 20.980469 85.820312 21.035156 86.085938 21.140625 86.335938 C 21.246094 86.589844 21.394531 86.8125 21.589844 87.007812 C 21.78125 87.199219 22.007812 87.347656 22.261719 87.453125 C 22.515625 87.554688 22.777344 87.605469 23.050781 87.605469 L 75.757812 87.605469 C 76.03125 87.605469 76.296875 87.554688 76.550781 87.453125 C 76.804688 87.347656 77.027344 87.199219 77.222656 87.007812 C 77.417969 86.8125 77.566406 86.589844 77.671875 86.335938 C 77.777344 86.085938 77.828125 85.820312 77.828125 85.546875 C 77.828125 85.273438 77.777344 85.007812 77.671875 84.757812 C 77.566406 84.503906 77.417969 84.28125 77.222656 84.085938 C 77.027344 83.894531 76.804688 83.746094 76.550781 83.640625 C 76.296875 83.539062 76.03125 83.488281 75.757812 83.488281 Z M 75.757812 83.488281 " fill-opacity="1" fill-rule="nonzero"/><path fill="#002d72" d="M 77.820312 100.003906 C 77.820312 99.734375 77.769531 99.46875 77.664062 99.21875 C 77.558594 98.964844 77.410156 98.742188 77.21875 98.550781 C 77.023438 98.355469 76.800781 98.207031 76.550781 98.105469 C 76.296875 98 76.035156 97.949219 75.761719 97.949219 L 23.050781 97.949219 C 22.777344 97.949219 22.515625 98 22.261719 98.105469 C 22.011719 98.207031 21.789062 98.359375 21.59375 98.550781 C 21.402344 98.742188 21.253906 98.964844 21.148438 99.21875 C 21.042969 99.472656 20.992188 99.734375 20.992188 100.007812 C 20.992188 100.28125 21.042969 100.542969 21.148438 100.796875 C 21.253906 101.046875 21.402344 101.269531 21.59375 101.464844 C 21.789062 101.65625 22.011719 101.804688 22.261719 101.910156 C 22.515625 102.015625 22.777344 102.066406 23.050781 102.066406 L 75.757812 102.066406 C 76.03125 102.066406 76.296875 102.015625 76.546875 101.910156 C 76.800781 101.804688 77.023438 101.65625 77.21875 101.464844 C 77.410156 101.269531 77.558594 101.046875 77.664062 100.792969 C 77.769531 100.542969 77.820312 100.277344 77.820312 100.003906 Z M 77.820312 100.003906 " fill-opacity="1" fill-rule="nonzero"/><path fill="#002d72" d="M 23.050781 119.148438 C 22.777344 119.148438 22.515625 119.203125 22.265625 119.304688 C 22.011719 119.410156 21.789062 119.558594 21.597656 119.75 C 21.402344 119.945312 21.253906 120.167969 21.148438 120.417969 C 21.046875 120.671875 20.992188 120.933594 20.992188 121.207031 C 20.992188 121.480469 21.046875 121.742188 21.148438 121.996094 C 21.253906 122.246094 21.402344 122.46875 21.597656 122.664062 C 21.789062 122.855469 22.011719 123.003906 22.265625 123.109375 C 22.515625 123.214844 22.777344 123.265625 23.050781 123.265625 L 49.472656 123.265625 C 49.746094 123.265625 50.007812 123.214844 50.257812 123.109375 C 50.511719 123.003906 50.734375 122.855469 50.925781 122.664062 C 51.121094 122.46875 51.269531 122.246094 51.375 121.996094 C 51.476562 121.742188 51.53125 121.480469 51.53125 121.207031 C 51.53125 120.933594 51.476562 120.671875 51.375 120.417969 C 51.269531 120.167969 51.121094 119.945312 50.925781 119.75 C 50.734375 119.558594 50.511719 119.410156 50.257812 119.304688 C 50.007812 119.203125 49.746094 119.148438 49.472656 119.148438 Z M 23.050781 119.148438 " fill-opacity="1" fill-rule="nonzero"/><path fill="#002d72" d="M 99.488281 30.207031 L 99.488281 23.527344 C 99.488281 23.222656 99.457031 22.925781 99.398438 22.628906 C 99.335938 22.332031 99.25 22.046875 99.132812 21.765625 C 99.015625 21.488281 98.875 21.222656 98.707031 20.972656 C 98.539062 20.722656 98.347656 20.488281 98.132812 20.277344 C 97.921875 20.0625 97.6875 19.871094 97.4375 19.703125 C 97.1875 19.535156 96.921875 19.394531 96.644531 19.277344 C 96.363281 19.160156 96.078125 19.074219 95.78125 19.011719 C 95.484375 18.953125 95.1875 18.921875 94.882812 18.921875 L 52.601562 18.921875 C 52.296875 18.921875 52 18.953125 51.703125 19.011719 C 51.40625 19.074219 51.121094 19.160156 50.839844 19.277344 C 50.5625 19.394531 50.296875 19.535156 50.046875 19.703125 C 49.792969 19.871094 49.5625 20.0625 49.347656 20.277344 C 49.136719 20.488281 48.945312 20.722656 48.777344 20.972656 C 48.609375 21.222656 48.464844 21.488281 48.351562 21.765625 C 48.234375 22.046875 48.148438 22.332031 48.085938 22.628906 C 48.027344 22.925781 47.996094 23.222656 47.996094 23.527344 L 47.996094 30.207031 C 47.996094 30.507812 48.027344 30.808594 48.085938 31.105469 C 48.148438 31.398438 48.234375 31.6875 48.351562 31.964844 C 48.464844 32.246094 48.609375 32.511719 48.777344 32.761719 C 48.945312 33.011719 49.136719 33.242188 49.347656 33.457031 C 49.5625 33.671875 49.792969 33.863281 50.046875 34.03125 C 50.296875 34.199219 50.5625 34.339844 50.839844 34.457031 C 51.121094 34.570312 51.40625 34.660156 51.703125 34.71875 C 52 34.777344 52.296875 34.808594 52.601562 34.8125 L 56.167969 34.8125 C 56.441406 34.8125 56.703125 34.757812 56.957031 34.652344 C 57.207031 34.550781 57.429688 34.402344 57.625 34.207031 C 57.816406 34.015625 57.964844 33.792969 58.070312 33.539062 C 58.175781 33.289062 58.226562 33.027344 58.226562 32.753906 C 58.226562 32.480469 58.175781 32.21875 58.070312 31.964844 C 57.964844 31.710938 57.816406 31.488281 57.625 31.296875 C 57.429688 31.105469 57.207031 30.957031 56.957031 30.851562 C 56.703125 30.746094 56.441406 30.695312 56.167969 30.695312 L 52.601562 30.695312 C 52.460938 30.695312 52.34375 30.644531 52.246094 30.546875 C 52.148438 30.453125 52.101562 30.332031 52.101562 30.195312 L 52.101562 23.527344 C 52.101562 23.386719 52.148438 23.269531 52.246094 23.171875 C 52.34375 23.078125 52.460938 23.027344 52.601562 23.027344 L 94.871094 23.027344 C 95.007812 23.027344 95.125 23.078125 95.222656 23.171875 C 95.320312 23.269531 95.367188 23.386719 95.367188 23.527344 L 95.367188 30.207031 C 95.367188 30.34375 95.320312 30.460938 95.222656 30.558594 C 95.125 30.65625 95.007812 30.707031 94.871094 30.707031 L 65.796875 30.707031 C 65.523438 30.707031 65.261719 30.757812 65.007812 30.863281 C 64.757812 30.964844 64.535156 31.113281 64.339844 31.308594 C 64.148438 31.5 64 31.722656 63.894531 31.976562 C 63.789062 32.226562 63.738281 32.492188 63.738281 32.761719 C 63.738281 33.035156 63.789062 33.300781 63.894531 33.550781 C 64 33.804688 64.148438 34.027344 64.339844 34.21875 C 64.535156 34.410156 64.757812 34.558594 65.007812 34.664062 C 65.261719 34.769531 65.523438 34.820312 65.796875 34.820312 L 94.875 34.820312 C 95.175781 34.820312 95.476562 34.792969 95.773438 34.730469 C 96.070312 34.671875 96.359375 34.585938 96.636719 34.46875 C 96.917969 34.351562 97.183594 34.210938 97.4375 34.042969 C 97.6875 33.875 97.921875 33.683594 98.132812 33.46875 C 98.347656 33.253906 98.539062 33.019531 98.707031 32.769531 C 98.875 32.519531 99.019531 32.25 99.136719 31.972656 C 99.25 31.691406 99.339844 31.402344 99.398438 31.105469 C 99.457031 30.808594 99.488281 30.511719 99.488281 30.207031 Z M 99.488281 30.207031 " fill-opacity="1" fill-rule="nonzero"/><g clip-path="url(#77053ac120)"><path fill="#002d72" d="M 114.878906 130.261719 C 114.609375 130.261719 114.34375 130.316406 114.09375 130.417969 C 113.839844 130.523438 113.617188 130.671875 113.425781 130.867188 C 113.230469 131.058594 113.082031 131.28125 112.980469 131.535156 C 112.875 131.785156 112.824219 132.046875 112.824219 132.320312 L 112.824219 135.09375 C 112.820312 135.492188 112.78125 135.886719 112.703125 136.277344 C 112.625 136.667969 112.511719 137.046875 112.359375 137.414062 C 112.207031 137.785156 112.019531 138.132812 111.796875 138.464844 C 111.574219 138.796875 111.324219 139.101562 111.042969 139.382812 C 110.761719 139.664062 110.453125 139.917969 110.125 140.136719 C 109.792969 140.359375 109.441406 140.546875 109.074219 140.699219 C 108.707031 140.851562 108.328125 140.96875 107.9375 141.046875 C 107.546875 141.125 107.152344 141.164062 106.753906 141.164062 L 15.671875 141.164062 C 15.273438 141.164062 14.878906 141.125 14.488281 141.046875 C 14.097656 140.96875 13.71875 140.851562 13.351562 140.699219 C 12.984375 140.546875 12.632812 140.359375 12.300781 140.136719 C 11.972656 139.917969 11.664062 139.664062 11.382812 139.382812 C 11.101562 139.101562 10.851562 138.796875 10.628906 138.464844 C 10.40625 138.132812 10.21875 137.785156 10.066406 137.414062 C 9.914062 137.046875 9.800781 136.667969 9.722656 136.277344 C 9.644531 135.886719 9.605469 135.492188 9.601562 135.09375 L 9.601562 36.128906 C 9.605469 35.6875 9.652344 35.253906 9.75 34.820312 L 28.492188 34.820312 C 28.957031 34.820312 29.417969 34.777344 29.875 34.683594 C 30.332031 34.59375 30.773438 34.460938 31.207031 34.28125 C 31.636719 34.101562 32.042969 33.882812 32.429688 33.625 C 32.820312 33.367188 33.175781 33.074219 33.507812 32.746094 C 33.835938 32.417969 34.128906 32.058594 34.390625 31.671875 C 34.648438 31.285156 34.867188 30.875 35.046875 30.445312 C 35.226562 30.015625 35.359375 29.574219 35.453125 29.117188 C 35.546875 28.660156 35.589844 28.199219 35.59375 27.734375 L 35.59375 8.976562 C 36.023438 8.882812 36.460938 8.832031 36.902344 8.832031 L 106.753906 8.832031 C 107.152344 8.832031 107.546875 8.871094 107.9375 8.949219 C 108.328125 9.027344 108.707031 9.144531 109.074219 9.296875 C 109.441406 9.449219 109.792969 9.636719 110.125 9.859375 C 110.457031 10.078125 110.761719 10.332031 111.042969 10.613281 C 111.324219 10.894531 111.578125 11.199219 111.796875 11.53125 C 112.019531 11.863281 112.207031 12.214844 112.359375 12.582031 C 112.511719 12.949219 112.625 13.328125 112.703125 13.71875 C 112.78125 14.109375 112.820312 14.503906 112.824219 14.902344 L 112.824219 42.3125 C 112.824219 42.585938 112.875 42.847656 112.980469 43.101562 C 113.082031 43.351562 113.230469 43.574219 113.425781 43.765625 C 113.617188 43.960938 113.839844 44.109375 114.09375 44.214844 C 114.34375 44.316406 114.609375 44.371094 114.878906 44.371094 C 115.152344 44.371094 115.414062 44.316406 115.667969 44.214844 C 115.921875 44.109375 116.144531 43.960938 116.335938 43.765625 C 116.527344 43.574219 116.675781 43.351562 116.78125 43.101562 C 116.886719 42.847656 116.9375 42.585938 116.9375 42.3125 L 116.9375 14.902344 C 116.9375 14.234375 116.871094 13.574219 116.742188 12.917969 C 116.609375 12.261719 116.417969 11.625 116.160156 11.007812 C 115.90625 10.390625 115.589844 9.800781 115.21875 9.246094 C 114.847656 8.691406 114.425781 8.175781 113.953125 7.703125 C 113.480469 7.230469 112.964844 6.808594 112.410156 6.4375 C 111.855469 6.066406 111.265625 5.75 110.648438 5.496094 C 110.03125 5.238281 109.394531 5.042969 108.738281 4.914062 C 108.085938 4.78125 107.421875 4.714844 106.753906 4.714844 L 36.898438 4.714844 C 35.546875 4.710938 34.246094 4.96875 32.996094 5.484375 C 31.75 6 30.648438 6.738281 29.695312 7.695312 L 8.480469 28.929688 C 7.523438 29.882812 6.785156 30.984375 6.269531 32.230469 C 5.753906 33.480469 5.496094 34.78125 5.5 36.132812 L 5.5 135.09375 C 5.5 135.761719 5.566406 136.425781 5.699219 137.082031 C 5.828125 137.738281 6.023438 138.375 6.277344 138.992188 C 6.535156 139.609375 6.847656 140.195312 7.21875 140.753906 C 7.59375 141.308594 8.015625 141.824219 8.488281 142.296875 C 8.960938 142.769531 9.476562 143.191406 10.03125 143.5625 C 10.585938 143.933594 11.171875 144.246094 11.792969 144.503906 C 12.410156 144.761719 13.046875 144.953125 13.703125 145.085938 C 14.355469 145.214844 15.019531 145.28125 15.6875 145.28125 L 106.753906 145.28125 C 107.421875 145.28125 108.085938 145.214844 108.742188 145.085938 C 109.394531 144.953125 110.03125 144.761719 110.652344 144.503906 C 111.269531 144.246094 111.855469 143.933594 112.410156 143.5625 C 112.96875 143.191406 113.480469 142.769531 113.953125 142.296875 C 114.425781 141.824219 114.847656 141.308594 115.222656 140.753906 C 115.59375 140.195312 115.90625 139.609375 116.164062 138.992188 C 116.417969 138.375 116.613281 137.738281 116.742188 137.082031 C 116.875 136.425781 116.941406 135.761719 116.941406 135.09375 L 116.941406 132.320312 C 116.941406 132.046875 116.890625 131.785156 116.785156 131.535156 C 116.679688 131.28125 116.53125 131.058594 116.339844 130.867188 C 116.144531 130.671875 115.921875 130.523438 115.671875 130.417969 C 115.417969 130.316406 115.15625 130.261719 114.882812 130.261719 Z M 31.472656 11.757812 L 31.472656 27.734375 C 31.472656 28.128906 31.398438 28.507812 31.246094 28.875 C 31.097656 29.238281 30.878906 29.5625 30.601562 29.839844 C 30.320312 30.121094 30 30.335938 29.636719 30.488281 C 29.269531 30.636719 28.890625 30.714844 28.496094 30.714844 L 12.515625 30.714844 Z M 31.472656 11.757812 " fill-opacity="1" fill-rule="nonzero"/></g><g clip-path="url(#c2bc7c8a94)"><path fill="#ff6910" d="M 143.082031 78.292969 C 143.257812 78.035156 143.421875 77.769531 143.566406 77.492188 C 143.710938 77.214844 143.839844 76.929688 143.953125 76.636719 C 144.066406 76.34375 144.164062 76.046875 144.242188 75.742188 C 144.324219 75.441406 144.382812 75.132812 144.429688 74.824219 C 144.472656 74.515625 144.5 74.203125 144.507812 73.890625 C 144.515625 73.574219 144.507812 73.261719 144.480469 72.953125 C 144.453125 72.640625 144.410156 72.328125 144.347656 72.023438 C 144.285156 71.714844 144.203125 71.414062 144.109375 71.117188 C 144.011719 70.816406 143.898438 70.527344 143.769531 70.242188 C 143.636719 69.957031 143.492188 69.679688 143.332031 69.410156 C 143.167969 69.144531 142.992188 68.882812 142.800781 68.636719 C 142.609375 68.386719 142.40625 68.152344 142.1875 67.925781 C 141.96875 67.703125 141.738281 67.492188 141.496094 67.292969 C 141.253906 67.09375 141 66.910156 140.738281 66.738281 C 140.476562 66.570312 140.203125 66.414062 139.921875 66.277344 C 139.640625 66.136719 139.351562 66.015625 139.058594 65.910156 C 138.667969 65.773438 138.308594 65.578125 137.976562 65.332031 C 137.644531 65.085938 137.359375 64.792969 137.113281 64.460938 C 136.871094 64.125 136.683594 63.761719 136.550781 63.371094 C 136.417969 62.976562 136.34375 62.574219 136.335938 62.164062 C 136.324219 61.847656 136.296875 61.539062 136.253906 61.226562 C 136.207031 60.917969 136.144531 60.613281 136.066406 60.308594 C 135.984375 60.007812 135.886719 59.707031 135.773438 59.417969 C 135.660156 59.125 135.527344 58.839844 135.382812 58.5625 C 135.238281 58.285156 135.074219 58.019531 134.898438 57.761719 C 134.71875 57.503906 134.53125 57.253906 134.324219 57.019531 C 134.117188 56.78125 133.902344 56.558594 133.671875 56.347656 C 133.441406 56.132812 133.199219 55.9375 132.945312 55.753906 C 132.691406 55.566406 132.425781 55.398438 132.15625 55.246094 C 131.882812 55.089844 131.601562 54.953125 131.3125 54.832031 C 131.023438 54.707031 130.730469 54.601562 130.429688 54.515625 C 130.128906 54.425781 129.824219 54.355469 129.515625 54.300781 C 129.207031 54.25 128.898438 54.210938 128.582031 54.195312 C 128.269531 54.175781 127.957031 54.175781 127.644531 54.191406 C 127.332031 54.210938 127.023438 54.246094 126.714844 54.296875 C 126.40625 54.351562 126.101562 54.421875 125.800781 54.507812 C 125.402344 54.625 124.996094 54.683594 124.585938 54.675781 C 124.171875 54.671875 123.765625 54.605469 123.375 54.476562 C 122.980469 54.347656 122.617188 54.164062 122.277344 53.925781 C 121.941406 53.6875 121.644531 53.40625 121.394531 53.078125 C 121.203125 52.828125 120.996094 52.59375 120.777344 52.367188 C 120.558594 52.144531 120.328125 51.933594 120.085938 51.734375 C 119.84375 51.539062 119.589844 51.355469 119.328125 51.183594 C 119.0625 51.015625 118.789062 50.863281 118.507812 50.726562 C 118.226562 50.585938 117.941406 50.464844 117.644531 50.359375 C 117.347656 50.253906 117.050781 50.167969 116.742188 50.097656 C 116.4375 50.027344 116.128906 49.972656 115.820312 49.9375 C 115.507812 49.902344 115.195312 49.882812 114.882812 49.882812 C 114.570312 49.882812 114.257812 49.902344 113.945312 49.9375 C 113.636719 49.972656 113.328125 50.027344 113.023438 50.097656 C 112.71875 50.167969 112.417969 50.253906 112.121094 50.359375 C 111.828125 50.464844 111.539062 50.585938 111.257812 50.726562 C 110.976562 50.863281 110.703125 51.015625 110.441406 51.183594 C 110.175781 51.355469 109.921875 51.539062 109.679688 51.734375 C 109.4375 51.933594 109.207031 52.144531 108.988281 52.367188 C 108.769531 52.59375 108.566406 52.828125 108.371094 53.078125 C 108.121094 53.40625 107.828125 53.6875 107.488281 53.925781 C 107.152344 54.164062 106.785156 54.347656 106.390625 54.476562 C 106 54.605469 105.59375 54.671875 105.183594 54.675781 C 104.769531 54.683594 104.363281 54.625 103.964844 54.507812 C 103.664062 54.421875 103.359375 54.351562 103.050781 54.296875 C 102.742188 54.246094 102.433594 54.210938 102.121094 54.191406 C 101.808594 54.175781 101.496094 54.175781 101.183594 54.195312 C 100.871094 54.210938 100.558594 54.25 100.25 54.300781 C 99.941406 54.355469 99.636719 54.425781 99.335938 54.515625 C 99.035156 54.601562 98.742188 54.707031 98.453125 54.832031 C 98.164062 54.953125 97.882812 55.089844 97.613281 55.246094 C 97.339844 55.398438 97.074219 55.566406 96.820312 55.753906 C 96.570312 55.9375 96.328125 56.132812 96.097656 56.347656 C 95.863281 56.558594 95.648438 56.78125 95.441406 57.019531 C 95.238281 57.253906 95.046875 57.503906 94.867188 57.761719 C 94.691406 58.019531 94.53125 58.285156 94.382812 58.5625 C 94.238281 58.839844 94.105469 59.125 93.992188 59.417969 C 93.878906 59.707031 93.78125 60.007812 93.703125 60.308594 C 93.621094 60.613281 93.558594 60.917969 93.515625 61.226562 C 93.46875 61.539062 93.441406 61.847656 93.433594 62.164062 C 93.421875 62.574219 93.347656 62.976562 93.214844 63.371094 C 93.082031 63.761719 92.894531 64.125 92.652344 64.460938 C 92.410156 64.792969 92.121094 65.085938 91.789062 65.332031 C 91.457031 65.578125 91.097656 65.773438 90.707031 65.910156 C 90.414062 66.015625 90.125 66.136719 89.84375 66.277344 C 89.5625 66.414062 89.292969 66.570312 89.027344 66.738281 C 88.765625 66.910156 88.511719 67.09375 88.269531 67.292969 C 88.027344 67.492188 87.796875 67.703125 87.578125 67.925781 C 87.359375 68.152344 87.15625 68.386719 86.964844 68.636719 C 86.773438 68.882812 86.597656 69.144531 86.4375 69.410156 C 86.273438 69.679688 86.128906 69.957031 86 70.242188 C 85.867188 70.527344 85.753906 70.816406 85.65625 71.117188 C 85.5625 71.414062 85.480469 71.714844 85.417969 72.023438 C 85.355469 72.328125 85.3125 72.640625 85.285156 72.953125 C 85.257812 73.261719 85.25 73.578125 85.257812 73.890625 C 85.265625 74.203125 85.292969 74.515625 85.335938 74.824219 C 85.382812 75.132812 85.445312 75.441406 85.523438 75.742188 C 85.601562 76.046875 85.699219 76.34375 85.8125 76.636719 C 85.925781 76.929688 86.054688 77.214844 86.199219 77.492188 C 86.347656 77.769531 86.507812 78.035156 86.683594 78.292969 C 86.917969 78.636719 87.097656 79.003906 87.21875 79.398438 C 87.339844 79.792969 87.402344 80.199219 87.402344 80.613281 C 87.402344 81.023438 87.339844 81.429688 87.21875 81.824219 C 87.097656 82.21875 86.917969 82.585938 86.683594 82.929688 C 86.507812 83.1875 86.347656 83.457031 86.199219 83.734375 C 86.054688 84.011719 85.925781 84.292969 85.8125 84.585938 C 85.699219 84.878906 85.601562 85.175781 85.523438 85.480469 C 85.445312 85.78125 85.382812 86.089844 85.335938 86.398438 C 85.292969 86.710938 85.265625 87.019531 85.257812 87.332031 C 85.25 87.648438 85.257812 87.960938 85.285156 88.273438 C 85.3125 88.582031 85.355469 88.894531 85.417969 89.199219 C 85.480469 89.507812 85.5625 89.808594 85.65625 90.109375 C 85.753906 90.40625 85.867188 90.695312 86 90.980469 C 86.128906 91.265625 86.273438 91.542969 86.4375 91.8125 C 86.597656 92.082031 86.773438 92.339844 86.964844 92.585938 C 87.15625 92.835938 87.359375 93.070312 87.578125 93.296875 C 87.796875 93.519531 88.027344 93.734375 88.269531 93.929688 C 88.511719 94.128906 88.765625 94.3125 89.027344 94.484375 C 89.292969 94.652344 89.5625 94.808594 89.84375 94.945312 C 90.125 95.085938 90.414062 95.207031 90.707031 95.3125 C 91.097656 95.449219 91.457031 95.644531 91.789062 95.890625 C 92.121094 96.136719 92.410156 96.429688 92.652344 96.761719 C 92.894531 97.097656 93.082031 97.460938 93.214844 97.851562 C 93.347656 98.246094 93.421875 98.648438 93.433594 99.058594 C 93.445312 99.542969 93.503906 100.019531 93.601562 100.492188 C 93.699219 100.964844 93.839844 101.425781 94.019531 101.875 C 94.199219 102.324219 94.417969 102.753906 94.671875 103.164062 C 94.925781 103.570312 95.214844 103.957031 95.539062 104.316406 C 95.863281 104.675781 96.214844 105.003906 96.59375 105.300781 C 96.972656 105.597656 97.378906 105.859375 97.804688 106.085938 C 98.230469 106.3125 98.675781 106.5 99.132812 106.648438 C 99.59375 106.796875 100.0625 106.902344 100.542969 106.96875 L 100.542969 125.714844 C 100.542969 126.503906 100.742188 127.242188 101.144531 127.925781 C 101.542969 128.609375 102.089844 129.140625 102.78125 129.527344 C 103.472656 129.914062 104.214844 130.097656 105.003906 130.082031 C 105.796875 130.066406 106.527344 129.847656 107.203125 129.433594 L 114.753906 124.785156 C 114.84375 124.710938 114.933594 124.710938 115.023438 124.785156 L 122.574219 129.433594 C 123.25 129.847656 123.980469 130.066406 124.773438 130.082031 C 125.5625 130.097656 126.304688 129.914062 126.996094 129.527344 C 127.6875 129.140625 128.234375 128.609375 128.632812 127.925781 C 129.035156 127.242188 129.234375 126.503906 129.234375 125.714844 L 129.234375 106.96875 C 129.714844 106.902344 130.183594 106.796875 130.644531 106.648438 C 131.101562 106.5 131.546875 106.3125 131.972656 106.085938 C 132.398438 105.859375 132.800781 105.597656 133.183594 105.300781 C 133.5625 105.003906 133.914062 104.675781 134.238281 104.316406 C 134.5625 103.957031 134.851562 103.570312 135.105469 103.164062 C 135.359375 102.753906 135.578125 102.324219 135.757812 101.875 C 135.9375 101.425781 136.078125 100.964844 136.175781 100.492188 C 136.273438 100.019531 136.332031 99.542969 136.34375 99.058594 C 136.355469 98.648438 136.425781 98.246094 136.558594 97.851562 C 136.695312 97.460938 136.882812 97.097656 137.125 96.761719 C 137.367188 96.429688 137.65625 96.136719 137.988281 95.890625 C 138.316406 95.644531 138.679688 95.449219 139.070312 95.3125 C 139.363281 95.207031 139.652344 95.085938 139.933594 94.945312 C 140.214844 94.808594 140.484375 94.652344 140.75 94.484375 C 141.011719 94.3125 141.265625 94.128906 141.507812 93.929688 C 141.75 93.734375 141.980469 93.519531 142.199219 93.296875 C 142.417969 93.070312 142.621094 92.835938 142.8125 92.585938 C 143.003906 92.339844 143.179688 92.078125 143.339844 91.8125 C 143.503906 91.542969 143.648438 91.265625 143.777344 90.980469 C 143.910156 90.695312 144.023438 90.40625 144.121094 90.109375 C 144.214844 89.808594 144.296875 89.507812 144.359375 89.199219 C 144.421875 88.894531 144.464844 88.582031 144.492188 88.273438 C 144.519531 87.960938 144.527344 87.648438 144.519531 87.332031 C 144.511719 87.019531 144.484375 86.707031 144.4375 86.398438 C 144.394531 86.089844 144.332031 85.78125 144.253906 85.480469 C 144.175781 85.175781 144.078125 84.878906 143.964844 84.585938 C 143.851562 84.292969 143.722656 84.007812 143.578125 83.734375 C 143.429688 83.457031 143.269531 83.1875 143.09375 82.929688 C 142.859375 82.589844 142.679688 82.21875 142.554688 81.824219 C 142.433594 81.429688 142.371094 81.027344 142.367188 80.613281 C 142.367188 80.199219 142.429688 79.796875 142.550781 79.398438 C 142.671875 79.003906 142.847656 78.636719 143.082031 78.292969 Z M 124.722656 125.925781 L 117.175781 121.277344 C 116.472656 120.84375 115.707031 120.628906 114.882812 120.628906 C 114.058594 120.628906 113.292969 120.84375 112.59375 121.277344 L 105.042969 125.925781 C 104.957031 125.980469 104.871094 125.980469 104.785156 125.933594 C 104.699219 125.886719 104.65625 125.8125 104.65625 125.710938 L 104.65625 106.574219 C 105.371094 106.492188 106.058594 106.589844 106.722656 106.871094 C 107.386719 107.148438 107.933594 107.574219 108.371094 108.144531 C 108.566406 108.394531 108.769531 108.628906 108.988281 108.855469 C 109.207031 109.078125 109.4375 109.289062 109.679688 109.488281 C 109.921875 109.683594 110.175781 109.867188 110.441406 110.039062 C 110.703125 110.207031 110.976562 110.359375 111.257812 110.5 C 111.539062 110.636719 111.828125 110.757812 112.121094 110.863281 C 112.417969 110.96875 112.71875 111.054688 113.023438 111.125 C 113.328125 111.199219 113.636719 111.25 113.945312 111.285156 C 114.257812 111.320312 114.570312 111.339844 114.882812 111.339844 C 115.195312 111.339844 115.507812 111.320312 115.820312 111.285156 C 116.132812 111.25 116.4375 111.199219 116.746094 111.125 C 117.050781 111.054688 117.347656 110.96875 117.644531 110.863281 C 117.941406 110.757812 118.226562 110.636719 118.507812 110.5 C 118.789062 110.359375 119.0625 110.207031 119.328125 110.039062 C 119.589844 109.867188 119.84375 109.683594 120.085938 109.488281 C 120.328125 109.289062 120.558594 109.078125 120.777344 108.855469 C 120.996094 108.628906 121.203125 108.394531 121.394531 108.144531 C 121.832031 107.574219 122.382812 107.148438 123.042969 106.871094 C 123.707031 106.589844 124.394531 106.492188 125.109375 106.574219 L 125.109375 125.710938 C 125.109375 125.808594 125.066406 125.882812 124.980469 125.929688 C 124.894531 125.980469 124.808594 125.976562 124.722656 125.925781 Z M 139.679688 85.246094 C 139.855469 85.507812 140 85.78125 140.113281 86.074219 C 140.230469 86.367188 140.308594 86.671875 140.351562 86.980469 C 140.398438 87.292969 140.40625 87.605469 140.378906 87.917969 C 140.351562 88.230469 140.289062 88.535156 140.191406 88.835938 C 140.09375 89.132812 139.964844 89.417969 139.804688 89.6875 C 139.640625 89.957031 139.449219 90.203125 139.230469 90.429688 C 139.011719 90.65625 138.769531 90.851562 138.507812 91.023438 C 138.242188 91.191406 137.960938 91.332031 137.667969 91.4375 C 136.886719 91.714844 136.164062 92.097656 135.503906 92.59375 C 134.839844 93.089844 134.265625 93.671875 133.777344 94.339844 C 133.292969 95.011719 132.914062 95.738281 132.648438 96.519531 C 132.382812 97.304688 132.238281 98.109375 132.21875 98.9375 C 132.207031 99.25 132.164062 99.558594 132.082031 99.863281 C 132.003906 100.167969 131.890625 100.457031 131.742188 100.734375 C 131.597656 101.011719 131.421875 101.269531 131.214844 101.507812 C 131.007812 101.746094 130.777344 101.957031 130.523438 102.140625 C 130.269531 102.324219 130 102.480469 129.710938 102.601562 C 129.421875 102.722656 129.121094 102.8125 128.8125 102.867188 C 128.5 102.921875 128.191406 102.9375 127.875 102.921875 C 127.5625 102.902344 127.253906 102.851562 126.953125 102.761719 C 126.160156 102.527344 125.347656 102.414062 124.523438 102.425781 C 123.695312 102.4375 122.886719 102.570312 122.101562 102.828125 C 121.3125 103.082031 120.582031 103.449219 119.90625 103.925781 C 119.230469 104.402344 118.640625 104.972656 118.136719 105.628906 C 117.941406 105.875 117.726562 106.097656 117.480469 106.296875 C 117.238281 106.492188 116.976562 106.660156 116.695312 106.800781 C 116.414062 106.9375 116.121094 107.042969 115.816406 107.113281 C 115.507812 107.183594 115.199219 107.21875 114.886719 107.21875 C 114.574219 107.21875 114.261719 107.183594 113.957031 107.113281 C 113.652344 107.042969 113.359375 106.9375 113.078125 106.800781 C 112.796875 106.660156 112.53125 106.492188 112.289062 106.296875 C 112.046875 106.097656 111.828125 105.875 111.636719 105.628906 C 110.863281 104.621094 109.90625 103.832031 108.765625 103.269531 C 107.625 102.707031 106.421875 102.425781 105.148438 102.425781 C 104.355469 102.425781 103.578125 102.539062 102.820312 102.761719 C 102.160156 102.957031 101.496094 102.984375 100.824219 102.84375 C 100.152344 102.707031 99.554688 102.417969 99.027344 101.976562 C 98.570312 101.601562 98.214844 101.148438 97.957031 100.621094 C 97.695312 100.089844 97.558594 99.527344 97.546875 98.9375 C 97.523438 98.109375 97.378906 97.304688 97.113281 96.523438 C 96.847656 95.738281 96.472656 95.011719 95.984375 94.34375 C 95.5 93.671875 94.925781 93.089844 94.261719 92.59375 C 93.597656 92.097656 92.878906 91.714844 92.097656 91.4375 C 91.800781 91.332031 91.519531 91.191406 91.257812 91.023438 C 90.992188 90.851562 90.75 90.65625 90.53125 90.429688 C 90.3125 90.203125 90.121094 89.957031 89.960938 89.6875 C 89.796875 89.417969 89.667969 89.132812 89.570312 88.835938 C 89.472656 88.535156 89.414062 88.230469 89.386719 87.917969 C 89.359375 87.605469 89.367188 87.292969 89.410156 86.980469 C 89.457031 86.671875 89.535156 86.367188 89.648438 86.074219 C 89.761719 85.78125 89.90625 85.507812 90.085938 85.246094 C 90.554688 84.5625 90.910156 83.828125 91.15625 83.039062 C 91.402344 82.246094 91.523438 81.4375 91.523438 80.613281 C 91.523438 79.785156 91.402344 78.976562 91.15625 78.183594 C 90.910156 77.394531 90.554688 76.660156 90.085938 75.976562 C 89.90625 75.71875 89.761719 75.441406 89.648438 75.148438 C 89.535156 74.855469 89.457031 74.550781 89.410156 74.242188 C 89.367188 73.929688 89.359375 73.617188 89.386719 73.304688 C 89.414062 72.992188 89.472656 72.6875 89.570312 72.386719 C 89.667969 72.089844 89.796875 71.804688 89.960938 71.535156 C 90.121094 71.265625 90.3125 71.019531 90.53125 70.792969 C 90.75 70.566406 90.992188 70.371094 91.257812 70.199219 C 91.519531 70.03125 91.800781 69.890625 92.097656 69.785156 C 92.878906 69.507812 93.597656 69.125 94.261719 68.628906 C 94.925781 68.132812 95.5 67.550781 95.984375 66.878906 C 96.472656 66.210938 96.847656 65.484375 97.113281 64.699219 C 97.378906 63.917969 97.523438 63.113281 97.546875 62.285156 C 97.554688 61.96875 97.601562 61.660156 97.679688 61.359375 C 97.761719 61.054688 97.875 60.761719 98.019531 60.484375 C 98.167969 60.207031 98.34375 59.949219 98.550781 59.710938 C 98.753906 59.476562 98.984375 59.265625 99.238281 59.078125 C 99.492188 58.894531 99.765625 58.742188 100.054688 58.617188 C 100.34375 58.496094 100.644531 58.40625 100.953125 58.355469 C 101.261719 58.300781 101.574219 58.28125 101.886719 58.300781 C 102.203125 58.316406 102.507812 58.371094 102.808594 58.457031 C 103.605469 58.691406 104.414062 58.804688 105.242188 58.792969 C 106.070312 58.78125 106.878906 58.648438 107.664062 58.394531 C 108.449219 58.136719 109.183594 57.769531 109.859375 57.292969 C 110.535156 56.816406 111.125 56.25 111.628906 55.59375 C 111.820312 55.34375 112.039062 55.121094 112.28125 54.925781 C 112.523438 54.726562 112.785156 54.558594 113.070312 54.421875 C 113.351562 54.28125 113.644531 54.179688 113.949219 54.105469 C 114.253906 54.035156 114.5625 54 114.878906 54 C 115.191406 54 115.5 54.035156 115.804688 54.105469 C 116.113281 54.179688 116.40625 54.28125 116.6875 54.421875 C 116.96875 54.558594 117.230469 54.726562 117.472656 54.925781 C 117.71875 55.121094 117.933594 55.34375 118.128906 55.59375 C 118.632812 56.25 119.222656 56.816406 119.898438 57.292969 C 120.574219 57.769531 121.304688 58.136719 122.089844 58.394531 C 122.878906 58.648438 123.6875 58.78125 124.511719 58.792969 C 125.339844 58.804688 126.152344 58.691406 126.945312 58.457031 C 127.246094 58.371094 127.554688 58.316406 127.867188 58.300781 C 128.179688 58.28125 128.492188 58.300781 128.800781 58.355469 C 129.113281 58.40625 129.410156 58.496094 129.699219 58.617188 C 129.988281 58.742188 130.261719 58.894531 130.515625 59.078125 C 130.769531 59.261719 131 59.472656 131.207031 59.710938 C 131.410156 59.949219 131.585938 60.207031 131.734375 60.484375 C 131.882812 60.761719 131.996094 61.050781 132.074219 61.355469 C 132.15625 61.660156 132.199219 61.96875 132.210938 62.28125 C 132.230469 63.109375 132.375 63.914062 132.640625 64.699219 C 132.90625 65.480469 133.285156 66.207031 133.769531 66.878906 C 134.257812 67.546875 134.832031 68.128906 135.492188 68.625 C 136.15625 69.121094 136.878906 69.507812 137.660156 69.78125 C 137.953125 69.890625 138.234375 70.027344 138.5 70.195312 C 138.761719 70.367188 139.003906 70.566406 139.222656 70.789062 C 139.441406 71.015625 139.632812 71.261719 139.796875 71.53125 C 139.957031 71.800781 140.085938 72.085938 140.183594 72.382812 C 140.28125 72.683594 140.34375 72.988281 140.371094 73.300781 C 140.398438 73.617188 140.390625 73.929688 140.34375 74.238281 C 140.300781 74.550781 140.21875 74.851562 140.105469 75.144531 C 139.992188 75.4375 139.847656 75.714844 139.671875 75.972656 C 139.203125 76.65625 138.847656 77.394531 138.601562 78.183594 C 138.355469 78.972656 138.234375 79.78125 138.234375 80.609375 C 138.238281 81.4375 138.359375 82.246094 138.605469 83.035156 C 138.851562 83.828125 139.210938 84.5625 139.679688 85.242188 Z M 139.679688 85.246094 " fill-opacity="1" fill-rule="nonzero"/></g><path fill="#002d72" d="M 114.882812 63.355469 C 114.316406 63.355469 113.753906 63.382812 113.191406 63.4375 C 112.628906 63.492188 112.070312 63.574219 111.515625 63.6875 C 110.960938 63.796875 110.414062 63.933594 109.875 64.097656 C 109.332031 64.261719 108.800781 64.453125 108.28125 64.667969 C 107.757812 64.882812 107.246094 65.125 106.75 65.390625 C 106.25 65.65625 105.765625 65.949219 105.296875 66.261719 C 104.828125 66.578125 104.371094 66.914062 103.9375 67.269531 C 103.5 67.628906 103.082031 68.007812 102.679688 68.410156 C 102.28125 68.808594 101.902344 69.226562 101.542969 69.664062 C 101.1875 70.101562 100.847656 70.554688 100.535156 71.023438 C 100.222656 71.492188 99.929688 71.976562 99.664062 72.476562 C 99.398438 72.972656 99.15625 73.484375 98.941406 74.007812 C 98.722656 74.527344 98.535156 75.058594 98.371094 75.601562 C 98.207031 76.140625 98.070312 76.6875 97.957031 77.242188 C 97.847656 77.796875 97.765625 78.355469 97.710938 78.917969 C 97.65625 79.480469 97.628906 80.046875 97.628906 80.609375 C 97.628906 81.175781 97.65625 81.738281 97.710938 82.300781 C 97.765625 82.863281 97.847656 83.421875 97.957031 83.976562 C 98.070312 84.53125 98.207031 85.078125 98.371094 85.621094 C 98.535156 86.160156 98.722656 86.691406 98.941406 87.214844 C 99.15625 87.734375 99.398438 88.246094 99.664062 88.746094 C 99.929688 89.242188 100.222656 89.726562 100.535156 90.195312 C 100.847656 90.667969 101.1875 91.121094 101.542969 91.558594 C 101.902344 91.992188 102.28125 92.414062 102.679688 92.8125 C 103.082031 93.210938 103.5 93.589844 103.9375 93.949219 C 104.371094 94.308594 104.828125 94.644531 105.296875 94.957031 C 105.765625 95.273438 106.25 95.5625 106.75 95.828125 C 107.246094 96.09375 107.757812 96.335938 108.28125 96.550781 C 108.800781 96.769531 109.332031 96.957031 109.875 97.121094 C 110.414062 97.285156 110.960938 97.425781 111.515625 97.535156 C 112.070312 97.644531 112.628906 97.726562 113.191406 97.78125 C 113.753906 97.839844 114.316406 97.867188 114.882812 97.867188 C 115.449219 97.867188 116.011719 97.839844 116.574219 97.78125 C 117.136719 97.726562 117.695312 97.644531 118.25 97.535156 C 118.804688 97.425781 119.351562 97.285156 119.890625 97.125 C 120.433594 96.957031 120.964844 96.769531 121.488281 96.550781 C 122.007812 96.335938 122.519531 96.09375 123.015625 95.828125 C 123.515625 95.5625 124 95.273438 124.46875 94.957031 C 124.941406 94.644531 125.394531 94.308594 125.832031 93.949219 C 126.265625 93.589844 126.683594 93.210938 127.085938 92.8125 C 127.484375 92.414062 127.863281 91.992188 128.222656 91.558594 C 128.582031 91.121094 128.917969 90.667969 129.230469 90.195312 C 129.546875 89.726562 129.835938 89.242188 130.101562 88.746094 C 130.367188 88.246094 130.609375 87.734375 130.824219 87.214844 C 131.042969 86.691406 131.230469 86.160156 131.394531 85.621094 C 131.558594 85.078125 131.699219 84.53125 131.808594 83.976562 C 131.917969 83.421875 132 82.863281 132.054688 82.300781 C 132.113281 81.738281 132.140625 81.175781 132.140625 80.609375 C 132.136719 80.046875 132.109375 79.480469 132.054688 78.917969 C 132 78.355469 131.914062 77.800781 131.804688 77.246094 C 131.695312 76.691406 131.554688 76.144531 131.390625 75.601562 C 131.226562 75.0625 131.039062 74.53125 130.820312 74.007812 C 130.605469 73.488281 130.363281 72.976562 130.097656 72.480469 C 129.828125 71.980469 129.539062 71.496094 129.226562 71.027344 C 128.910156 70.558594 128.574219 70.105469 128.214844 69.667969 C 127.859375 69.230469 127.480469 68.8125 127.078125 68.414062 C 126.679688 68.015625 126.261719 67.636719 125.824219 67.277344 C 125.386719 66.917969 124.933594 66.582031 124.464844 66.269531 C 123.996094 65.953125 123.511719 65.664062 123.015625 65.398438 C 122.515625 65.128906 122.003906 64.890625 121.484375 64.671875 C 120.960938 64.457031 120.429688 64.265625 119.890625 64.101562 C 119.347656 63.9375 118.800781 63.800781 118.25 63.6875 C 117.695312 63.578125 117.136719 63.496094 116.574219 63.4375 C 116.011719 63.382812 115.449219 63.355469 114.882812 63.355469 Z M 114.882812 93.75 C 114.019531 93.75 113.167969 93.664062 112.320312 93.496094 C 111.472656 93.328125 110.652344 93.078125 109.855469 92.75 C 109.058594 92.417969 108.300781 92.015625 107.585938 91.535156 C 106.867188 91.054688 106.203125 90.511719 105.59375 89.902344 C 104.984375 89.292969 104.4375 88.628906 103.960938 87.910156 C 103.480469 87.195312 103.078125 86.4375 102.746094 85.640625 C 102.417969 84.84375 102.167969 84.023438 102 83.175781 C 101.832031 82.328125 101.746094 81.476562 101.746094 80.613281 C 101.746094 79.75 101.832031 78.894531 102 78.050781 C 102.167969 77.203125 102.417969 76.382812 102.746094 75.585938 C 103.078125 74.789062 103.480469 74.03125 103.960938 73.3125 C 104.4375 72.597656 104.984375 71.933594 105.59375 71.324219 C 106.203125 70.714844 106.867188 70.167969 107.585938 69.691406 C 108.300781 69.210938 109.058594 68.804688 109.855469 68.476562 C 110.652344 68.144531 111.472656 67.894531 112.320312 67.726562 C 113.167969 67.558594 114.019531 67.476562 114.882812 67.476562 C 115.746094 67.476562 116.601562 67.558594 117.445312 67.726562 C 118.292969 67.894531 119.113281 68.144531 119.910156 68.476562 C 120.707031 68.804688 121.464844 69.210938 122.183594 69.691406 C 122.898438 70.167969 123.5625 70.714844 124.171875 71.324219 C 124.78125 71.933594 125.328125 72.597656 125.804688 73.3125 C 126.285156 74.03125 126.691406 74.789062 127.019531 75.585938 C 127.351562 76.382812 127.597656 77.203125 127.769531 78.050781 C 127.9375 78.894531 128.019531 79.75 128.019531 80.613281 C 128.019531 81.476562 127.933594 82.328125 127.765625 83.175781 C 127.597656 84.019531 127.347656 84.839844 127.015625 85.636719 C 126.6875 86.433594 126.28125 87.191406 125.800781 87.90625 C 125.320312 88.625 124.777344 89.289062 124.167969 89.898438 C 123.558594 90.507812 122.894531 91.050781 122.179688 91.53125 C 121.460938 92.011719 120.703125 92.414062 119.90625 92.746094 C 119.113281 93.074219 118.289062 93.324219 117.445312 93.496094 C 116.597656 93.664062 115.746094 93.75 114.882812 93.75 Z M 114.882812 93.75 " fill-opacity="1" fill-rule="nonzero"/></svg>