<svg xmlns="http://www.w3.org/2000/svg" xmlns:xlink="http://www.w3.org/1999/xlink" width="500" zoomAndPan="magnify" viewBox="0 0 375 374.999991" height="500" preserveAspectRatio="xMidYMid meet" version="1.0"><defs><clipPath id="5457d4d0f0"><path d="M 5.183594 5.183594 L 369.683594 5.183594 L 369.683594 369.683594 L 5.183594 369.683594 Z M 5.183594 5.183594 " clip-rule="nonzero"/></clipPath></defs><g clip-path="url(#5457d4d0f0)"><path fill="#39b54a" d="M 187.433594 5.183594 C 86.789062 5.183594 5.183594 86.789062 5.183594 187.433594 C 5.183594 288.078125 86.789062 369.683594 187.433594 369.683594 C 288.078125 369.683594 369.683594 288.078125 369.683594 187.433594 C 369.683594 86.789062 288.078125 5.183594 187.433594 5.183594 Z M 290.003906 159.304688 L 183.371094 265.9375 C 178.238281 271.074219 171.285156 273.960938 164.011719 273.960938 C 156.847656 273.960938 149.894531 271.074219 144.761719 265.9375 L 91.496094 212.675781 C 80.800781 201.980469 80.800781 184.761719 91.496094 174.066406 C 102.191406 163.476562 119.304688 163.476562 130 174.066406 L 164.011719 208.183594 L 251.394531 120.800781 C 262.089844 110.105469 279.308594 110.105469 290.003906 120.800781 C 300.59375 131.390625 300.59375 148.609375 290.003906 159.304688 Z M 290.003906 159.304688 " fill-opacity="1" fill-rule="nonzero"/></g><path fill="#ffffff" d="M 290.003906 159.304688 L 183.371094 265.9375 C 178.238281 271.074219 171.285156 273.960938 164.011719 273.960938 C 156.847656 273.960938 149.894531 271.074219 144.761719 265.9375 L 91.496094 212.675781 C 80.800781 201.980469 80.800781 184.761719 91.496094 174.066406 C 102.191406 163.476562 119.304688 163.476562 130 174.066406 L 164.011719 208.183594 L 251.394531 120.800781 C 262.089844 110.105469 279.308594 110.105469 290.003906 120.800781 C 300.59375 131.390625 300.59375 148.609375 290.003906 159.304688 Z M 290.003906 159.304688 " fill-opacity="1" fill-rule="nonzero"/></svg>