<svg xmlns="http://www.w3.org/2000/svg" xmlns:xlink="http://www.w3.org/1999/xlink" width="500" zoomAndPan="magnify" viewBox="0 0 375 374.999991" height="500" preserveAspectRatio="xMidYMid meet" version="1.0"><defs><clipPath id="cb13c52ca4"><path d="M 1.78125 63 L 375 63 L 375 310 L 1.78125 310 Z M 1.78125 63 " clip-rule="nonzero"/></clipPath></defs><g clip-path="url(#cb13c52ca4)"><path fill="#ff6929" d="M 274.773438 309.730469 C 269.519531 309.730469 265.796875 304.039062 268.207031 299.003906 L 285.28125 266.164062 C 244.125 275.796875 208.441406 279.300781 178.886719 279.300781 C 113.429688 279.300781 77.089844 262.664062 74.898438 261.785156 C 66.363281 257.628906 72.492188 244.492188 81.027344 248.433594 C 82.125 248.871094 154.148438 281.050781 278.277344 252.59375 L 248.285156 237.269531 C 239.746094 233.109375 246.3125 219.972656 255.070312 224.351562 L 302.136719 248.433594 C 305.859375 250.402344 307.390625 254.78125 305.421875 258.503906 L 281.339844 305.789062 C 280.027344 308.199219 277.398438 309.730469 274.773438 309.730469 Z M 39.214844 190.417969 L 74.898438 97.816406 L 88.035156 97.816406 L 126.125 190.417969 L 112.117188 190.417969 L 101.167969 162.398438 L 62.421875 162.398438 L 52.351562 190.417969 Z M 65.921875 152.328125 L 97.449219 152.328125 C 92.851562 140.066406 84.53125 118.832031 81.25 107.449219 C 78.402344 121.242188 71.179688 138.753906 65.921875 152.328125 Z M 262.074219 186.480469 L 262.074219 176.1875 C 262.292969 175.75 307.171875 118.832031 314.179688 111.828125 L 266.890625 111.828125 L 266.890625 101.757812 L 327.75 101.757812 L 327.75 111.828125 L 274.992188 176.410156 L 329.066406 176.410156 L 329.066406 186.480469 Z M 82.5625 225.007812 C 38.121094 225.007812 1.78125 188.667969 1.78125 144.226562 C 1.78125 99.566406 38.121094 63.226562 82.5625 63.226562 C 127.222656 63.226562 163.5625 99.566406 163.5625 144.226562 C 163.5625 188.667969 127.222656 225.007812 82.5625 225.007812 Z M 82.5625 77.894531 C 46.003906 77.894531 16.449219 107.667969 16.449219 144.226562 C 16.449219 180.785156 46.003906 210.339844 82.5625 210.339844 C 119.121094 210.339844 148.894531 180.785156 148.894531 144.226562 C 148.894531 107.667969 119.121094 77.894531 82.5625 77.894531 Z M 294.476562 225.007812 C 249.816406 225.007812 213.476562 188.667969 213.476562 144.226562 C 213.476562 99.566406 249.816406 63.226562 294.476562 63.226562 C 338.917969 63.226562 375.257812 99.566406 375.257812 144.226562 C 375.257812 188.667969 338.917969 225.007812 294.476562 225.007812 Z M 294.476562 77.894531 C 257.917969 77.894531 228.144531 107.667969 228.144531 144.226562 C 228.144531 180.785156 257.917969 210.339844 294.476562 210.339844 C 331.035156 210.339844 360.589844 180.785156 360.589844 144.226562 C 360.589844 107.667969 331.035156 77.894531 294.476562 77.894531 Z M 294.476562 77.894531 " fill-opacity="1" fill-rule="evenodd"/></g></svg>