<svg xmlns="http://www.w3.org/2000/svg" xmlns:xlink="http://www.w3.org/1999/xlink" width="500" zoomAndPan="magnify" viewBox="0 0 375 374.999991" height="500" preserveAspectRatio="xMidYMid meet" version="1.0"><defs><clipPath id="c98d1d5905"><path d="M 5.464844 5.464844 L 369.535156 5.464844 L 369.535156 369.535156 L 5.464844 369.535156 Z M 5.464844 5.464844 " clip-rule="nonzero"/></clipPath><clipPath id="9e57ae64ad"><path d="M 187.5 5.464844 C 86.964844 5.464844 5.464844 86.964844 5.464844 187.5 C 5.464844 288.035156 86.964844 369.535156 187.5 369.535156 C 288.035156 369.535156 369.535156 288.035156 369.535156 187.5 C 369.535156 86.964844 288.035156 5.464844 187.5 5.464844 Z M 187.5 5.464844 " clip-rule="nonzero"/></clipPath><clipPath id="307c3b86be"><path d="M 81.523438 98.261719 L 293.773438 98.261719 L 293.773438 354.761719 L 81.523438 354.761719 Z M 81.523438 98.261719 " clip-rule="nonzero"/></clipPath><clipPath id="e7c2b84e4e"><path d="M 134 28 L 241 28 L 241 90.996094 L 134 90.996094 Z M 134 28 " clip-rule="nonzero"/></clipPath><clipPath id="4e6a249869"><path d="M 126.226562 16.746094 L 248.476562 16.746094 L 248.476562 57 L 126.226562 57 Z M 126.226562 16.746094 " clip-rule="nonzero"/></clipPath></defs><g clip-path="url(#c98d1d5905)"><g clip-path="url(#9e57ae64ad)"><path fill="#000000" d="M 5.464844 5.464844 L 369.535156 5.464844 L 369.535156 369.535156 L 5.464844 369.535156 Z M 5.464844 5.464844 " fill-opacity="1" fill-rule="nonzero"/></g></g><g clip-path="url(#307c3b86be)"><path fill="#c2a965" d="M 187.640625 354.785156 L 185.609375 352.972656 C 179.753906 349.453125 134.019531 321.683594 110.769531 298.703125 C 110.234375 298.175781 109.652344 297.613281 109.03125 297.015625 C 99.429688 287.753906 81.5625 270.519531 81.5625 231.429688 L 81.5625 126.308594 L 81.566406 126.214844 C 81.589844 125.828125 81.621094 125.457031 81.65625 125.085938 L 81.84375 123.011719 L 83.675781 122.296875 C 126.933594 105.449219 158.308594 98.261719 188.589844 98.261719 C 219.140625 98.261719 249.875 105.457031 291.367188 122.3125 L 293.15625 123.039062 L 293.34375 125.046875 C 293.382812 125.449219 293.417969 125.847656 293.4375 126.265625 L 293.4375 231.429688 C 293.4375 270.515625 275.574219 287.753906 265.976562 297.011719 C 265.355469 297.613281 264.773438 298.175781 264.234375 298.703125 C 241.132812 321.535156 195.589844 349.246094 189.480469 352.917969 Z M 87.910156 127.464844 L 87.910156 231.429688 C 87.910156 267.824219 104.515625 283.839844 113.4375 292.445312 C 114.078125 293.0625 114.675781 293.640625 115.230469 294.1875 C 136.652344 315.359375 177.980469 340.917969 187.503906 346.695312 C 196.980469 340.941406 238.398438 315.3125 259.773438 294.1875 C 260.328125 293.640625 260.925781 293.0625 261.570312 292.445312 C 270.488281 283.839844 287.089844 267.820312 287.089844 231.429688 L 287.089844 127.429688 C 247.359375 111.449219 217.808594 104.613281 188.589844 104.613281 C 159.59375 104.613281 129.390625 111.457031 87.910156 127.464844 Z M 87.910156 127.464844 " fill-opacity="1" fill-rule="nonzero"/></g><path fill="#c2a965" d="M 187.5 340.375 L 187 340.066406 C 172.878906 331.359375 137.980469 309.085938 119.023438 290.351562 C 118.457031 289.789062 117.839844 289.195312 117.183594 288.5625 C 108.253906 279.949219 93.304688 265.53125 93.304688 231.429688 L 93.304688 131.175781 L 93.921875 130.945312 C 132.742188 116.269531 161.054688 110.007812 188.589844 110.007812 C 216.292969 110.007812 243.957031 116.242188 281.089844 130.851562 L 281.695312 131.089844 L 281.695312 231.429688 C 281.695312 265.527344 266.75 279.945312 257.820312 288.558594 C 257.164062 289.195312 256.546875 289.789062 255.980469 290.347656 C 237.074219 309.03125 202.140625 331.339844 188 340.066406 Z M 95.210938 132.492188 L 95.210938 231.429688 C 95.210938 264.722656 109.792969 278.785156 118.503906 287.191406 C 119.167969 287.828125 119.789062 288.429688 120.363281 288.996094 C 138.960938 307.375 173.125 329.253906 187.5 338.136719 C 201.894531 329.238281 236.09375 307.324219 254.644531 288.992188 C 255.214844 288.429688 255.835938 287.828125 256.5 287.1875 C 265.210938 278.785156 279.789062 264.71875 279.789062 231.429688 L 279.789062 132.386719 C 243.195312 118.039062 215.890625 111.914062 188.589844 111.914062 C 161.445312 111.914062 133.488281 118.070312 95.210938 132.492188 Z M 95.210938 132.492188 " fill-opacity="1" fill-rule="nonzero"/><g clip-path="url(#e7c2b84e4e)"><path fill="#c2a965" d="M 240.902344 56.867188 L 221.640625 91.035156 C 221.640625 91.035156 204.285156 83.523438 187.5 83.523438 C 170.710938 83.523438 153.359375 91.035156 153.359375 91.035156 L 134.09375 56.867188 C 134.09375 56.867188 145.675781 66.214844 154.503906 62.59375 C 160.929688 59.960938 160.542969 43.332031 160.542969 43.332031 C 160.542969 43.332031 167.976562 59.710938 175.753906 59.183594 C 183.15625 58.679688 187.5 28.546875 187.5 28.546875 C 187.5 28.546875 191.839844 58.679688 199.242188 59.183594 C 207.019531 59.710938 214.453125 43.332031 214.453125 43.332031 C 214.453125 43.332031 214.066406 59.960938 220.492188 62.59375 C 229.320312 66.214844 240.902344 56.867188 240.902344 56.867188 Z M 240.902344 56.867188 " fill-opacity="1" fill-rule="nonzero"/></g><g clip-path="url(#4e6a249869)"><path fill="#c2a965" d="M 187.5 23.964844 C 189.492188 23.964844 191.109375 22.351562 191.109375 20.355469 C 191.109375 18.363281 189.492188 16.746094 187.5 16.746094 C 185.503906 16.746094 183.890625 18.363281 183.890625 20.355469 C 183.890625 22.351562 185.503906 23.964844 187.5 23.964844 Z M 216.511719 41.179688 C 218.507812 41.179688 220.121094 39.5625 220.121094 37.570312 C 220.121094 35.578125 218.507812 33.960938 216.511719 33.960938 C 214.519531 33.960938 212.902344 35.578125 212.902344 37.570312 C 212.902344 39.5625 214.519531 41.179688 216.511719 41.179688 Z M 245.113281 48.953125 C 243.121094 48.953125 241.503906 50.570312 241.503906 52.566406 C 241.503906 54.558594 243.121094 56.175781 245.113281 56.175781 C 247.105469 56.175781 248.722656 54.558594 248.722656 52.566406 C 248.722656 50.570312 247.105469 48.953125 245.113281 48.953125 Z M 158.484375 41.179688 C 160.476562 41.179688 162.09375 39.5625 162.09375 37.570312 C 162.09375 35.578125 160.476562 33.960938 158.484375 33.960938 C 156.488281 33.960938 154.875 35.578125 154.875 37.570312 C 154.875 39.5625 156.488281 41.179688 158.484375 41.179688 Z M 129.886719 48.953125 C 127.890625 48.953125 126.277344 50.570312 126.277344 52.566406 C 126.277344 54.558594 127.890625 56.175781 129.886719 56.175781 C 131.878906 56.175781 133.496094 54.558594 133.496094 52.566406 C 133.496094 50.570312 131.878906 48.953125 129.886719 48.953125 Z M 129.886719 48.953125 " fill-opacity="1" fill-rule="nonzero"/></g><path stroke-linecap="butt" transform="matrix(1.444437, 0, 0, 1.444437, 117.502972, 136.178415)" fill="none" stroke-linejoin="miter" d="M 0.000646803 1.999389 L 36.133353 1.999389 " stroke="#c2a965" stroke-width="4" stroke-opacity="1" stroke-miterlimit="4"/><path stroke-linecap="butt" transform="matrix(1.444437, 0, 0, 1.444437, 117.502972, 159.289398)" fill="none" stroke-linejoin="miter" d="M 0.000646803 2.00098 L 96.918837 2.00098 " stroke="#c2a965" stroke-width="4" stroke-opacity="1" stroke-miterlimit="4"/><path stroke-linecap="butt" transform="matrix(1.444437, 0, 0, 1.444437, 117.502972, 185.289261)" fill="none" stroke-linejoin="miter" d="M 0.000646803 2.001075 L 96.918837 2.001075 " stroke="#c2a965" stroke-width="4" stroke-opacity="1" stroke-miterlimit="4"/><path stroke-linecap="butt" transform="matrix(1.444437, 0, 0, 1.444437, 117.502972, 209.844685)" fill="none" stroke-linejoin="miter" d="M 0.000646803 2.000566 L 96.918837 2.000566 " stroke="#c2a965" stroke-width="4" stroke-opacity="1" stroke-miterlimit="4"/><path stroke-linecap="butt" transform="matrix(1.444437, 0, 0, 1.444437, 117.502972, 235.852206)" fill="none" stroke-linejoin="miter" d="M 0.000646803 2.000767 L 96.918837 2.000767 " stroke="#c2a965" stroke-width="4" stroke-opacity="1" stroke-miterlimit="4"/><path stroke-linecap="butt" transform="matrix(1.444437, 0, 0, 1.444437, 117.502972, 260.917718)" fill="none" stroke-linejoin="miter" d="M 0.000646803 1.998682 L 96.918837 1.998682 " stroke="#c2a965" stroke-width="4" stroke-opacity="1" stroke-miterlimit="4"/><path stroke-linecap="butt" transform="matrix(1.444437, 0, 0, 1.444437, 151.447231, 285.288058)" fill="none" stroke-linejoin="miter" d="M -0.00132789 1.999204 L 46.889249 1.999204 " stroke="#c2a965" stroke-width="4" stroke-opacity="1" stroke-miterlimit="4"/></svg>