<svg xmlns="http://www.w3.org/2000/svg" xmlns:xlink="http://www.w3.org/1999/xlink" width="500" zoomAndPan="magnify" viewBox="0 0 375 374.999991" height="500" preserveAspectRatio="xMidYMid meet" version="1.0"><defs><g/><clipPath id="56471f4186"><path d="M 110.925781 74.523438 L 263.925781 74.523438 L 263.925781 259.773438 L 110.925781 259.773438 Z M 110.925781 74.523438 " clip-rule="nonzero"/></clipPath><clipPath id="52ed5dcf06"><path d="M 79 194 L 128 194 L 128 267 L 79 267 Z M 79 194 " clip-rule="nonzero"/></clipPath><clipPath id="b18da5aa41"><path d="M 41.660156 210.464844 L 80.929688 168.121094 L 154.066406 235.953125 L 114.796875 278.292969 Z M 41.660156 210.464844 " clip-rule="nonzero"/></clipPath><clipPath id="3d7fd88415"><path d="M 41.660156 210.464844 L 172.730469 69.136719 L 245.867188 136.96875 L 114.796875 278.292969 Z M 41.660156 210.464844 " clip-rule="nonzero"/></clipPath><clipPath id="8575fb43f3"><path d="M 76 172 L 86 172 L 86 193 L 76 193 Z M 76 172 " clip-rule="nonzero"/></clipPath><clipPath id="a0c68a1047"><path d="M 41.660156 210.464844 L 80.929688 168.121094 L 154.066406 235.953125 L 114.796875 278.292969 Z M 41.660156 210.464844 " clip-rule="nonzero"/></clipPath><clipPath id="5f1148ac6c"><path d="M 41.660156 210.464844 L 172.730469 69.136719 L 245.867188 136.96875 L 114.796875 278.292969 Z M 41.660156 210.464844 " clip-rule="nonzero"/></clipPath><clipPath id="87c58fe730"><path d="M 84 187 L 94 187 L 94 207 L 84 207 Z M 84 187 " clip-rule="nonzero"/></clipPath><clipPath id="0a5e305dda"><path d="M 41.660156 210.464844 L 80.929688 168.121094 L 154.066406 235.953125 L 114.796875 278.292969 Z M 41.660156 210.464844 " clip-rule="nonzero"/></clipPath><clipPath id="87fb974826"><path d="M 41.660156 210.464844 L 172.730469 69.136719 L 245.867188 136.96875 L 114.796875 278.292969 Z M 41.660156 210.464844 " clip-rule="nonzero"/></clipPath><clipPath id="39912770ae"><path d="M 87 204 L 98 204 L 98 223 L 87 223 Z M 87 204 " clip-rule="nonzero"/></clipPath><clipPath id="5b571fd0a4"><path d="M 41.660156 210.464844 L 80.929688 168.121094 L 154.066406 235.953125 L 114.796875 278.292969 Z M 41.660156 210.464844 " clip-rule="nonzero"/></clipPath><clipPath id="94bd400fa2"><path d="M 41.660156 210.464844 L 172.730469 69.136719 L 245.867188 136.96875 L 114.796875 278.292969 Z M 41.660156 210.464844 " clip-rule="nonzero"/></clipPath><clipPath id="5b70cd7a6e"><path d="M 94 218 L 104 218 L 104 238 L 94 238 Z M 94 218 " clip-rule="nonzero"/></clipPath><clipPath id="a407c13d71"><path d="M 41.660156 210.464844 L 80.929688 168.121094 L 154.066406 235.953125 L 114.796875 278.292969 Z M 41.660156 210.464844 " clip-rule="nonzero"/></clipPath><clipPath id="0be2534547"><path d="M 41.660156 210.464844 L 172.730469 69.136719 L 245.867188 136.96875 L 114.796875 278.292969 Z M 41.660156 210.464844 " clip-rule="nonzero"/></clipPath><clipPath id="c4473ef65c"><path d="M 105 231 L 115 231 L 115 252 L 105 252 Z M 105 231 " clip-rule="nonzero"/></clipPath><clipPath id="0b7cb35a2c"><path d="M 41.660156 210.464844 L 80.929688 168.121094 L 154.066406 235.953125 L 114.796875 278.292969 Z M 41.660156 210.464844 " clip-rule="nonzero"/></clipPath><clipPath id="eea4bb0c81"><path d="M 41.660156 210.464844 L 172.730469 69.136719 L 245.867188 136.96875 L 114.796875 278.292969 Z M 41.660156 210.464844 " clip-rule="nonzero"/></clipPath><clipPath id="1921fc5d85"><path d="M 63 186 L 78 186 L 78 202 L 63 202 Z M 63 186 " clip-rule="nonzero"/></clipPath><clipPath id="e15a51d8bc"><path d="M 41.660156 210.464844 L 80.929688 168.121094 L 154.066406 235.953125 L 114.796875 278.292969 Z M 41.660156 210.464844 " clip-rule="nonzero"/></clipPath><clipPath id="70085ab682"><path d="M 41.660156 210.464844 L 172.730469 69.136719 L 245.867188 136.96875 L 114.796875 278.292969 Z M 41.660156 210.464844 " clip-rule="nonzero"/></clipPath><clipPath id="e71dc0e414"><path d="M 64 205 L 81 205 L 81 218 L 64 218 Z M 64 205 " clip-rule="nonzero"/></clipPath><clipPath id="3579bb177b"><path d="M 41.660156 210.464844 L 80.929688 168.121094 L 154.066406 235.953125 L 114.796875 278.292969 Z M 41.660156 210.464844 " clip-rule="nonzero"/></clipPath><clipPath id="d4b077ba3f"><path d="M 41.660156 210.464844 L 172.730469 69.136719 L 245.867188 136.96875 L 114.796875 278.292969 Z M 41.660156 210.464844 " clip-rule="nonzero"/></clipPath><clipPath id="9949459987"><path d="M 70 226 L 89 226 L 89 236 L 70 236 Z M 70 226 " clip-rule="nonzero"/></clipPath><clipPath id="06b7a5ee6c"><path d="M 41.660156 210.464844 L 80.929688 168.121094 L 154.066406 235.953125 L 114.796875 278.292969 Z M 41.660156 210.464844 " clip-rule="nonzero"/></clipPath><clipPath id="6602b9e50c"><path d="M 41.660156 210.464844 L 172.730469 69.136719 L 245.867188 136.96875 L 114.796875 278.292969 Z M 41.660156 210.464844 " clip-rule="nonzero"/></clipPath><clipPath id="0acd8e2411"><path d="M 80 243 L 101 243 L 101 253 L 80 253 Z M 80 243 " clip-rule="nonzero"/></clipPath><clipPath id="eed4a245b2"><path d="M 41.660156 210.464844 L 80.929688 168.121094 L 154.066406 235.953125 L 114.796875 278.292969 Z M 41.660156 210.464844 " clip-rule="nonzero"/></clipPath><clipPath id="3f13ea806d"><path d="M 41.660156 210.464844 L 172.730469 69.136719 L 245.867188 136.96875 L 114.796875 278.292969 Z M 41.660156 210.464844 " clip-rule="nonzero"/></clipPath><clipPath id="398d625cb2"><path d="M 19 278.316406 L 356 278.316406 L 356 313 L 19 313 Z M 19 278.316406 " clip-rule="nonzero"/></clipPath><clipPath id="58137964b8"><path d="M 233 203 L 283 203 L 283 275 L 233 275 Z M 233 203 " clip-rule="nonzero"/></clipPath><clipPath id="e9cd7cf2ed"><path d="M 280.46875 176.171875 L 319.703125 218.542969 L 246.515625 286.320312 L 207.277344 243.945312 Z M 280.46875 176.171875 " clip-rule="nonzero"/></clipPath><clipPath id="f6f328a389"><path d="M 319.871094 218.726562 L 188.910156 77.300781 L 115.71875 145.074219 L 246.683594 286.5 Z M 319.871094 218.726562 " clip-rule="nonzero"/></clipPath><clipPath id="24c228f53d"><path d="M 276 181 L 286 181 L 286 202 L 276 202 Z M 276 181 " clip-rule="nonzero"/></clipPath><clipPath id="20df8f4c42"><path d="M 280.46875 176.171875 L 319.703125 218.542969 L 246.515625 286.320312 L 207.277344 243.945312 Z M 280.46875 176.171875 " clip-rule="nonzero"/></clipPath><clipPath id="cd1ddf4a09"><path d="M 319.871094 218.726562 L 188.910156 77.300781 L 115.71875 145.074219 L 246.683594 286.5 Z M 319.871094 218.726562 " clip-rule="nonzero"/></clipPath><clipPath id="50b41026d8"><path d="M 267 195 L 278 195 L 278 215 L 267 215 Z M 267 195 " clip-rule="nonzero"/></clipPath><clipPath id="cf11775bf7"><path d="M 280.46875 176.171875 L 319.703125 218.542969 L 246.515625 286.320312 L 207.277344 243.945312 Z M 280.46875 176.171875 " clip-rule="nonzero"/></clipPath><clipPath id="76792d4784"><path d="M 319.871094 218.726562 L 188.910156 77.300781 L 115.71875 145.074219 L 246.683594 286.5 Z M 319.871094 218.726562 " clip-rule="nonzero"/></clipPath><clipPath id="545134b6f7"><path d="M 263 212 L 274 212 L 274 231 L 263 231 Z M 263 212 " clip-rule="nonzero"/></clipPath><clipPath id="ef294debb1"><path d="M 280.46875 176.171875 L 319.703125 218.542969 L 246.515625 286.320312 L 207.277344 243.945312 Z M 280.46875 176.171875 " clip-rule="nonzero"/></clipPath><clipPath id="735f54fd24"><path d="M 319.871094 218.726562 L 188.910156 77.300781 L 115.71875 145.074219 L 246.683594 286.5 Z M 319.871094 218.726562 " clip-rule="nonzero"/></clipPath><clipPath id="d5e7c418de"><path d="M 257 226 L 267 226 L 267 246 L 257 246 Z M 257 226 " clip-rule="nonzero"/></clipPath><clipPath id="6e70eb9961"><path d="M 280.46875 176.171875 L 319.703125 218.542969 L 246.515625 286.320312 L 207.277344 243.945312 Z M 280.46875 176.171875 " clip-rule="nonzero"/></clipPath><clipPath id="56939a8dc3"><path d="M 319.871094 218.726562 L 188.910156 77.300781 L 115.71875 145.074219 L 246.683594 286.5 Z M 319.871094 218.726562 " clip-rule="nonzero"/></clipPath><clipPath id="e28855a485"><path d="M 247 239 L 256 239 L 256 260 L 247 260 Z M 247 239 " clip-rule="nonzero"/></clipPath><clipPath id="7bbd9e0650"><path d="M 280.46875 176.171875 L 319.703125 218.542969 L 246.515625 286.320312 L 207.277344 243.945312 Z M 280.46875 176.171875 " clip-rule="nonzero"/></clipPath><clipPath id="ef247bde1f"><path d="M 319.871094 218.726562 L 188.910156 77.300781 L 115.71875 145.074219 L 246.683594 286.5 Z M 319.871094 218.726562 " clip-rule="nonzero"/></clipPath><clipPath id="9d29580ec2"><path d="M 283 194 L 298 194 L 298 210 L 283 210 Z M 283 194 " clip-rule="nonzero"/></clipPath><clipPath id="c71e1d67b6"><path d="M 280.46875 176.171875 L 319.703125 218.542969 L 246.515625 286.320312 L 207.277344 243.945312 Z M 280.46875 176.171875 " clip-rule="nonzero"/></clipPath><clipPath id="39baed75b4"><path d="M 319.871094 218.726562 L 188.910156 77.300781 L 115.71875 145.074219 L 246.683594 286.5 Z M 319.871094 218.726562 " clip-rule="nonzero"/></clipPath><clipPath id="b709b024ea"><path d="M 280 214 L 298 214 L 298 226 L 280 226 Z M 280 214 " clip-rule="nonzero"/></clipPath><clipPath id="f3482d1a85"><path d="M 280.46875 176.171875 L 319.703125 218.542969 L 246.515625 286.320312 L 207.277344 243.945312 Z M 280.46875 176.171875 " clip-rule="nonzero"/></clipPath><clipPath id="21b7401977"><path d="M 319.871094 218.726562 L 188.910156 77.300781 L 115.71875 145.074219 L 246.683594 286.5 Z M 319.871094 218.726562 " clip-rule="nonzero"/></clipPath><clipPath id="b9488d17df"><path d="M 272 234 L 292 234 L 292 245 L 272 245 Z M 272 234 " clip-rule="nonzero"/></clipPath><clipPath id="c31b1392c3"><path d="M 280.46875 176.171875 L 319.703125 218.542969 L 246.515625 286.320312 L 207.277344 243.945312 Z M 280.46875 176.171875 " clip-rule="nonzero"/></clipPath><clipPath id="746a1b6b5a"><path d="M 319.871094 218.726562 L 188.910156 77.300781 L 115.71875 145.074219 L 246.683594 286.5 Z M 319.871094 218.726562 " clip-rule="nonzero"/></clipPath><clipPath id="60ea76bd31"><path d="M 261 251 L 282 251 L 282 261 L 261 261 Z M 261 251 " clip-rule="nonzero"/></clipPath><clipPath id="481e72731b"><path d="M 280.46875 176.171875 L 319.703125 218.542969 L 246.515625 286.320312 L 207.277344 243.945312 Z M 280.46875 176.171875 " clip-rule="nonzero"/></clipPath><clipPath id="c8a6b3a18b"><path d="M 319.871094 218.726562 L 188.910156 77.300781 L 115.71875 145.074219 L 246.683594 286.5 Z M 319.871094 218.726562 " clip-rule="nonzero"/></clipPath><clipPath id="2b53bce22f"><path d="M 148 24 L 227 24 L 227 69.621094 L 148 69.621094 Z M 148 24 " clip-rule="nonzero"/></clipPath><clipPath id="99c1a9dea1"><path d="M 143.226562 15.621094 L 231.726562 15.621094 L 231.726562 45 L 143.226562 45 Z M 143.226562 15.621094 " clip-rule="nonzero"/></clipPath></defs><rect x="-37.5" width="450" fill="#ffffff" y="-37.499999" height="449.999989" fill-opacity="1"/><rect x="-37.5" width="450" fill="#000000" y="-37.499999" height="449.999989" fill-opacity="1"/><g clip-path="url(#56471f4186)"><path fill="#c2a965" d="M 187.597656 259.878906 L 186.132812 258.566406 C 181.898438 256.023438 148.855469 235.957031 132.054688 219.355469 C 131.667969 218.972656 131.246094 218.566406 130.796875 218.132812 C 123.859375 211.445312 110.949219 198.988281 110.949219 170.746094 L 110.949219 94.789062 L 110.953125 94.722656 C 110.96875 94.441406 110.992188 94.171875 111.019531 93.902344 L 111.152344 92.40625 L 112.476562 91.886719 C 143.734375 79.714844 166.40625 74.523438 188.285156 74.523438 C 210.359375 74.523438 232.570312 79.71875 262.550781 91.902344 L 263.839844 92.425781 L 263.976562 93.875 C 264.003906 94.167969 264.03125 94.453125 264.042969 94.757812 L 264.046875 94.855469 L 264.046875 170.746094 C 264.046875 198.988281 251.136719 211.441406 244.203125 218.132812 C 243.753906 218.566406 243.332031 218.972656 242.945312 219.355469 C 226.25 235.851562 193.34375 255.875 188.929688 258.53125 Z M 115.535156 95.621094 L 115.535156 170.746094 C 115.535156 197.042969 127.535156 208.613281 133.980469 214.832031 C 134.445312 215.277344 134.878906 215.699219 135.277344 216.089844 C 150.757812 231.390625 180.617188 249.859375 187.5 254.035156 C 194.347656 249.875 224.273438 231.355469 239.71875 216.089844 C 240.121094 215.699219 240.554688 215.277344 241.015625 214.832031 C 247.460938 208.613281 259.457031 197.039062 259.457031 170.746094 L 259.457031 95.597656 C 230.75 84.050781 209.394531 79.109375 188.285156 79.109375 C 167.332031 79.109375 145.507812 84.054688 115.535156 95.621094 Z M 115.535156 95.621094 " fill-opacity="1" fill-rule="nonzero"/></g><path fill="#c2a965" d="M 187.5 249.464844 L 187.136719 249.242188 C 176.933594 242.949219 151.71875 226.855469 138.019531 213.320312 C 137.609375 212.914062 137.164062 212.484375 136.6875 212.027344 C 130.234375 205.800781 119.4375 195.386719 119.4375 170.746094 L 119.4375 98.304688 L 119.882812 98.136719 C 147.929688 87.535156 168.390625 83.007812 188.285156 83.007812 C 208.300781 83.007812 228.292969 87.511719 255.121094 98.070312 L 255.558594 98.242188 L 255.558594 170.746094 C 255.558594 195.382812 244.761719 205.800781 238.308594 212.023438 C 237.835938 212.484375 237.390625 212.914062 236.980469 213.316406 C 223.320312 226.820312 198.078125 242.9375 187.859375 249.242188 Z M 120.8125 99.257812 L 120.8125 170.746094 C 120.8125 194.800781 131.347656 204.964844 137.644531 211.035156 C 138.121094 211.496094 138.570312 211.929688 138.984375 212.339844 C 152.425781 225.621094 177.109375 241.429688 187.5 247.847656 C 197.898438 241.417969 222.609375 225.585938 236.011719 212.339844 C 236.425781 211.929688 236.875 211.496094 237.355469 211.035156 C 243.648438 204.960938 254.183594 194.796875 254.183594 170.746094 L 254.183594 99.179688 C 227.738281 88.8125 208.011719 84.386719 188.285156 84.386719 C 168.671875 84.386719 148.46875 88.835938 120.8125 99.257812 Z M 120.8125 99.257812 " fill-opacity="1" fill-rule="nonzero"/><g clip-path="url(#52ed5dcf06)"><g clip-path="url(#b18da5aa41)"><g clip-path="url(#3d7fd88415)"><path fill="#c2a965" d="M 127.949219 264.132812 C 120.1875 260.757812 112.859375 256.046875 106.3125 249.972656 C 92.683594 237.335938 84.230469 220.589844 82.125 202.320312 C 81.894531 200.320312 80.976562 194.871094 80.1875 194.898438 C 79.402344 194.929688 79.035156 200.285156 79.25 202.222656 C 81.34375 221.335938 90.140625 238.855469 104.378906 252.0625 C 110.910156 258.121094 118.191406 262.871094 125.898438 266.347656 L 127.949219 264.132812 " fill-opacity="1" fill-rule="nonzero"/></g></g></g><g clip-path="url(#8575fb43f3)"><g clip-path="url(#a0c68a1047)"><g clip-path="url(#5f1148ac6c)"><path fill="#c2a965" d="M 82.28125 172.785156 C 82.28125 172.785156 79.191406 176.21875 77.34375 180.78125 C 75.148438 186.1875 77.867188 188.953125 79.921875 192.941406 C 82.84375 189.535156 86.128906 187.472656 85.242188 181.707031 C 84.496094 176.839844 82.28125 172.785156 82.28125 172.785156 " fill-opacity="1" fill-rule="nonzero"/></g></g></g><g clip-path="url(#87c58fe730)"><g clip-path="url(#0a5e305dda)"><g clip-path="url(#87fb974826)"><path fill="#c2a965" d="M 92.964844 187.386719 C 92.964844 187.386719 89.125 189.957031 86.210938 193.925781 C 82.753906 198.625 84.710938 201.972656 85.726562 206.34375 C 89.398438 203.761719 93.082031 202.566406 93.644531 196.761719 C 94.117188 191.859375 92.964844 187.386719 92.964844 187.386719 " fill-opacity="1" fill-rule="nonzero"/></g></g></g><g clip-path="url(#39912770ae)"><g clip-path="url(#5b571fd0a4)"><g clip-path="url(#94bd400fa2)"><path fill="#c2a965" d="M 97.433594 204.367188 C 97.433594 204.367188 93.417969 206.65625 90.226562 210.40625 C 86.445312 214.847656 88.15625 218.328125 88.855469 222.761719 C 92.699219 220.449219 96.464844 219.519531 97.4375 213.769531 C 98.261719 208.910156 97.433594 204.367188 97.433594 204.367188 " fill-opacity="1" fill-rule="nonzero"/></g></g></g><g clip-path="url(#5b70cd7a6e)"><g clip-path="url(#a407c13d71)"><g clip-path="url(#0be2534547)"><path fill="#c2a965" d="M 102.5625 218.144531 C 102.5625 218.144531 98.878906 220.9375 96.199219 225.066406 C 93.023438 229.960938 95.171875 233.1875 96.4375 237.496094 C 99.953125 234.699219 103.5625 233.296875 103.785156 227.46875 C 103.96875 222.546875 102.5625 218.144531 102.5625 218.144531 " fill-opacity="1" fill-rule="nonzero"/></g></g></g><g clip-path="url(#c4473ef65c)"><g clip-path="url(#0b7cb35a2c)"><g clip-path="url(#eea4bb0c81)"><path fill="#c2a965" d="M 112.039062 231.085938 C 112.039062 231.085938 108.730469 234.3125 106.585938 238.75 C 104.046875 243.996094 106.578125 246.933594 108.371094 251.050781 C 111.507812 247.839844 114.917969 245.996094 114.414062 240.1875 C 113.984375 235.28125 112.039062 231.085938 112.039062 231.085938 " fill-opacity="1" fill-rule="nonzero"/></g></g></g><g clip-path="url(#1921fc5d85)"><g clip-path="url(#e15a51d8bc)"><g clip-path="url(#70085ab682)"><path fill="#c2a965" d="M 63.671875 186.746094 C 63.671875 186.746094 64.421875 191.308594 66.835938 195.601562 C 69.691406 200.6875 73.546875 200.289062 77.945312 201.175781 C 77.109375 196.765625 77.546875 192.914062 72.492188 190.007812 C 68.222656 187.550781 63.671875 186.746094 63.671875 186.746094 " fill-opacity="1" fill-rule="nonzero"/></g></g></g><g clip-path="url(#e71dc0e414)"><g clip-path="url(#3579bb177b)"><g clip-path="url(#d4b077ba3f)"><path fill="#c2a965" d="M 64.039062 205.953125 C 64.039062 205.953125 65.585938 210.308594 68.710938 214.109375 C 72.421875 218.617188 76.144531 217.542969 80.632812 217.640625 C 79.03125 213.445312 78.78125 209.582031 73.296875 207.605469 C 68.660156 205.941406 64.039062 205.953125 64.039062 205.953125 " fill-opacity="1" fill-rule="nonzero"/></g></g></g><g clip-path="url(#9949459987)"><g clip-path="url(#06b7a5ee6c)"><g clip-path="url(#6602b9e50c)"><path fill="#c2a965" d="M 70.203125 226.613281 C 70.203125 226.613281 72.605469 230.5625 76.445312 233.644531 C 80.996094 237.292969 84.425781 235.488281 88.835938 234.660156 C 86.410156 230.882812 85.378906 227.148438 79.601562 226.339844 C 74.726562 225.65625 70.203125 226.613281 70.203125 226.613281 " fill-opacity="1" fill-rule="nonzero"/></g></g></g><g clip-path="url(#0acd8e2411)"><g clip-path="url(#eed4a245b2)"><g clip-path="url(#3f13ea806d)"><path fill="#c2a965" d="M 80.296875 245.835938 C 80.296875 245.835938 83.46875 249.195312 87.871094 251.40625 C 93.082031 254.027344 96.054688 251.542969 100.199219 249.816406 C 97.039062 246.628906 95.25 243.191406 89.429688 243.605469 C 84.519531 243.957031 80.296875 245.835938 80.296875 245.835938 " fill-opacity="1" fill-rule="nonzero"/></g></g></g><g clip-path="url(#398d625cb2)"><path fill="#c2a965" d="M 187.992188 289.292969 C 187.273438 287.175781 187.378906 285.003906 188.042969 283.121094 C 188.695312 281.25 190.050781 279.558594 191.882812 278.824219 C 192.78125 278.457031 193.726562 278.335938 194.582031 278.398438 C 194.796875 278.417969 195 278.457031 195.207031 278.488281 L 195.511719 278.535156 L 195.878906 278.636719 C 196.355469 278.800781 196.765625 279.050781 197.109375 279.335938 C 198.433594 280.507812 198.828125 282.148438 198.433594 283.496094 C 198.234375 284.199219 197.761719 284.75 197.292969 285.050781 C 196.820312 285.371094 196.335938 285.519531 195.894531 285.574219 C 195.007812 285.691406 194.3125 285.351562 194 285.03125 C 193.683594 284.691406 193.675781 284.429688 193.75 284.375 C 193.847656 284.292969 194.046875 284.390625 194.351562 284.464844 C 194.65625 284.523438 195.101562 284.546875 195.601562 284.320312 C 196.089844 284.113281 196.632812 283.625 196.632812 283.074219 C 196.714844 282.472656 196.332031 281.59375 195.671875 281.179688 C 195.511719 281.082031 195.347656 281.015625 195.191406 280.984375 L 195.074219 280.96875 L 194.878906 280.964844 L 194.484375 280.945312 C 193.964844 280.96875 193.464844 281.089844 193.003906 281.324219 C 192.082031 281.78125 191.308594 282.800781 190.933594 284.089844 C 190.550781 285.367188 190.546875 286.886719 191.039062 288.203125 C 191.53125 289.53125 192.515625 290.585938 193.910156 291.117188 C 194.609375 291.382812 195.382812 291.515625 196.167969 291.574219 C 196.949219 291.589844 197.835938 291.558594 198.539062 291.429688 C 199.984375 291.167969 201.328125 290.429688 202.527344 289.507812 C 204.941406 287.652344 206.683594 285.195312 208.597656 283.355469 C 210.457031 281.503906 212.375 280.3125 213.808594 279.839844 C 215.253906 279.363281 216.109375 279.464844 216.152344 279.664062 C 216.210938 279.90625 215.484375 280.238281 214.382812 280.992188 C 213.273438 281.753906 211.835938 283.023438 210.324219 284.933594 C 208.78125 286.769531 207.230469 289.464844 204.449219 291.871094 C 203.070312 293.046875 201.3125 294.160156 199.167969 294.605469 C 198.085938 294.824219 197.117188 294.867188 196.023438 294.859375 C 194.941406 294.796875 193.816406 294.621094 192.710938 294.199219 C 190.46875 293.378906 188.675781 291.40625 187.992188 289.292969 Z M 158.84375 279.664062 C 158.886719 279.464844 159.742188 279.363281 161.1875 279.839844 C 162.621094 280.3125 164.539062 281.503906 166.398438 283.355469 C 168.3125 285.195312 170.054688 287.652344 172.46875 289.507812 C 173.667969 290.429688 175.011719 291.167969 176.453125 291.429688 C 177.15625 291.558594 178.046875 291.589844 178.824219 291.574219 C 179.613281 291.515625 180.386719 291.382812 181.085938 291.117188 C 182.480469 290.585938 183.464844 289.53125 183.957031 288.203125 C 184.449219 286.886719 184.445312 285.367188 184.0625 284.089844 C 183.6875 282.800781 182.914062 281.78125 181.992188 281.324219 C 181.53125 281.089844 181.03125 280.96875 180.511719 280.945312 L 180.117188 280.964844 L 179.921875 280.96875 L 179.804688 280.984375 C 179.648438 281.015625 179.484375 281.082031 179.324219 281.179688 C 178.664062 281.59375 178.28125 282.472656 178.363281 283.074219 C 178.363281 283.625 178.90625 284.113281 179.394531 284.320312 C 179.894531 284.546875 180.335938 284.523438 180.644531 284.464844 C 180.949219 284.390625 181.148438 284.292969 181.246094 284.375 C 181.320312 284.429688 181.3125 284.691406 180.996094 285.03125 C 180.683594 285.351562 179.988281 285.691406 179.101562 285.574219 C 178.660156 285.519531 178.175781 285.371094 177.703125 285.050781 C 177.234375 284.75 176.761719 284.199219 176.5625 283.496094 C 176.167969 282.148438 176.5625 280.507812 177.886719 279.335938 C 178.230469 279.050781 178.640625 278.800781 179.117188 278.636719 L 179.484375 278.535156 L 179.789062 278.488281 C 179.996094 278.457031 180.199219 278.417969 180.414062 278.398438 C 181.269531 278.335938 182.214844 278.457031 183.113281 278.824219 C 184.945312 279.558594 186.300781 281.25 186.953125 283.121094 C 187.617188 285.003906 187.722656 287.175781 187.003906 289.292969 C 186.320312 291.40625 184.527344 293.378906 182.285156 294.199219 C 181.179688 294.621094 180.054688 294.796875 178.972656 294.859375 C 177.878906 294.867188 176.910156 294.824219 175.828125 294.605469 C 173.683594 294.160156 171.925781 293.046875 170.546875 291.871094 C 167.765625 289.464844 166.214844 286.769531 164.671875 284.933594 C 163.160156 283.023438 161.722656 281.753906 160.613281 280.992188 C 159.511719 280.238281 158.785156 279.90625 158.84375 279.664062 Z M 216.4375 297.027344 C 215.328125 297.691406 214.09375 298.632812 212.820312 299.800781 C 211.546875 300.96875 210.230469 302.378906 208.75 303.789062 C 207.261719 305.195312 205.710938 306.460938 204.085938 307.304688 C 202.472656 308.15625 200.847656 308.578125 199.464844 308.664062 C 198.078125 308.742188 196.957031 308.5 196.246094 308.210938 C 196.066406 308.132812 195.914062 308.058594 195.78125 308 C 195.648438 307.933594 195.546875 307.859375 195.460938 307.804688 C 195.292969 307.695312 195.214844 307.617188 195.230469 307.582031 C 195.25 307.546875 195.359375 307.554688 195.550781 307.597656 C 195.644531 307.621094 195.761719 307.652344 195.898438 307.6875 C 196.035156 307.714844 196.195312 307.75 196.367188 307.789062 C 197.078125 307.941406 198.121094 308.042969 199.382812 307.871094 C 200.648438 307.699219 202.121094 307.230469 203.59375 306.398438 C 205.066406 305.570312 206.519531 304.347656 207.976562 302.972656 C 209.429688 301.589844 210.777344 300.191406 212.136719 299.03125 C 213.484375 297.859375 214.835938 296.9375 216.058594 296.332031 C 217.285156 295.722656 218.363281 295.417969 219.113281 295.3125 C 219.304688 295.289062 219.472656 295.269531 219.617188 295.257812 C 219.765625 295.246094 219.890625 295.25 219.988281 295.25 C 220.191406 295.257812 220.296875 295.28125 220.300781 295.320312 C 220.332031 295.503906 218.667969 295.683594 216.4375 297.027344 Z M 179.535156 307.804688 C 179.449219 307.859375 179.347656 307.933594 179.214844 308 C 179.082031 308.058594 178.929688 308.132812 178.75 308.210938 C 178.039062 308.5 176.917969 308.742188 175.53125 308.664062 C 174.148438 308.578125 172.523438 308.15625 170.910156 307.304688 C 169.285156 306.460938 167.734375 305.195312 166.246094 303.789062 C 164.765625 302.378906 163.445312 300.96875 162.175781 299.800781 C 160.902344 298.632812 159.667969 297.691406 158.558594 297.027344 C 156.328125 295.683594 154.664062 295.503906 154.695312 295.320312 C 154.699219 295.28125 154.804688 295.257812 155.003906 295.25 C 155.105469 295.25 155.230469 295.246094 155.378906 295.257812 C 155.523438 295.269531 155.691406 295.289062 155.882812 295.3125 C 156.632812 295.417969 157.710938 295.722656 158.9375 296.332031 C 160.160156 296.9375 161.511719 297.859375 162.859375 299.03125 C 164.21875 300.191406 165.566406 301.589844 167.019531 302.972656 C 168.476562 304.347656 169.929688 305.570312 171.402344 306.398438 C 172.875 307.230469 174.347656 307.699219 175.613281 307.871094 C 176.875 308.042969 177.917969 307.941406 178.625 307.789062 C 178.800781 307.75 178.960938 307.714844 179.097656 307.6875 C 179.234375 307.652344 179.351562 307.621094 179.445312 307.597656 C 179.636719 307.554688 179.746094 307.546875 179.765625 307.582031 C 179.78125 307.617188 179.703125 307.695312 179.535156 307.804688 Z M 355.171875 301.28125 L 257.222656 299.929688 C 256.507812 298.304688 254.730469 296.882812 251.363281 296.453125 C 253.070312 297.007812 254.886719 297.78125 255.726562 299.367188 C 255.816406 299.542969 255.886719 299.726562 255.949219 299.914062 L 253.40625 299.878906 C 252.875 298.734375 251.734375 297.933594 250.390625 297.933594 C 248.539062 297.933594 247.039062 299.433594 247.039062 301.28125 C 247.039062 303.132812 248.539062 304.628906 250.390625 304.628906 C 251.734375 304.628906 252.871094 303.828125 253.40625 302.6875 L 255.894531 302.652344 C 255.652344 303.359375 255.257812 304.011719 254.730469 304.535156 C 253.398438 305.855469 251.421875 306.390625 249.550781 306.289062 C 246.839844 306.144531 244.394531 304.824219 242.105469 303.292969 C 241.542969 302.921875 240.992188 302.53125 240.445312 302.144531 C 240.394531 302.109375 240.347656 302.074219 240.296875 302.039062 C 239.816406 301.695312 239.226562 301.269531 238.59375 300.808594 C 238.597656 300.808594 238.597656 300.808594 238.601562 300.804688 C 238.65625 300.738281 238.457031 300.5 238.148438 300.054688 C 237.847656 299.613281 237.4375 298.949219 237.179688 298.050781 C 237.046875 297.605469 236.953125 297.101562 236.9375 296.5625 C 236.925781 296.027344 236.972656 295.441406 237.144531 294.890625 C 237.320312 294.34375 237.632812 293.847656 238.101562 293.5625 C 238.578125 293.277344 239.222656 293.167969 239.792969 293.328125 C 240.078125 293.402344 240.332031 293.546875 240.53125 293.730469 C 240.738281 293.914062 240.898438 294.160156 241.003906 294.417969 C 241.222656 294.941406 241.183594 295.515625 240.933594 295.90625 C 240.707031 296.28125 240.210938 296.492188 239.757812 296.5 C 239.300781 296.507812 238.902344 296.324219 238.703125 296.035156 C 238.488281 295.746094 238.449219 295.355469 238.542969 295.089844 C 238.5625 295.023438 238.59375 294.960938 238.628906 294.90625 C 238.664062 294.855469 238.703125 294.804688 238.75 294.769531 C 238.84375 294.6875 238.957031 294.632812 239.066406 294.601562 C 239.28125 294.535156 239.464844 294.566406 239.589844 294.597656 C 239.714844 294.636719 239.789062 294.675781 239.820312 294.644531 C 239.847656 294.625 239.832031 294.53125 239.710938 294.40625 C 239.589844 294.289062 239.34375 294.152344 239.003906 294.167969 C 238.835938 294.175781 238.648438 294.214844 238.457031 294.320312 C 238.359375 294.371094 238.269531 294.445312 238.183594 294.53125 C 238.105469 294.617188 238.027344 294.71875 237.96875 294.828125 C 237.730469 295.277344 237.714844 295.894531 238.027344 296.453125 C 238.179688 296.738281 238.433594 296.980469 238.734375 297.148438 C 239.03125 297.316406 239.378906 297.410156 239.734375 297.429688 C 240.09375 297.449219 240.464844 297.394531 240.828125 297.246094 C 241.183594 297.097656 241.542969 296.851562 241.792969 296.484375 C 242.285156 295.78125 242.347656 294.820312 242.027344 294.019531 C 241.875 293.613281 241.636719 293.226562 241.296875 292.910156 C 240.957031 292.59375 240.535156 292.359375 240.085938 292.242188 C 239.191406 292.003906 238.257812 292.167969 237.515625 292.632812 C 237.152344 292.871094 236.832031 293.191406 236.617188 293.535156 C 236.394531 293.882812 236.25 294.246094 236.152344 294.601562 C 235.792969 296.03125 236.03125 297.339844 236.429688 298.3125 C 236.722656 299.039062 237.105469 299.585938 237.457031 299.976562 C 236.097656 298.984375 234.679688 297.949219 233.703125 297.253906 C 231.980469 296 230.394531 294.988281 228.917969 294.191406 C 228.820312 294.136719 228.722656 294.089844 228.621094 294.035156 C 228.722656 294.089844 228.820312 294.136719 228.917969 294.191406 C 225.683594 290.339844 227.796875 288.046875 229.066406 288.125 C 229.390625 288.640625 229.949219 289.015625 230.558594 289.054688 C 231.609375 289.113281 232.789062 288.121094 233.011719 287.097656 C 233.632812 284.203125 230.53125 282.632812 227.542969 284.582031 C 225.933594 285.632812 223.410156 289.816406 228.175781 293.800781 L 228.171875 293.800781 C 220.855469 290.101562 216.410156 291.746094 212.21875 294.042969 C 208.898438 295.855469 206.269531 298.746094 202.949219 300.5625 C 200.070312 302.140625 195.835938 302.292969 193.132812 300.445312 C 193.859375 302.132812 195.191406 303.558594 196.839844 304.375 C 196.195312 304.660156 195.488281 304.796875 194.789062 304.863281 C 192.238281 305.097656 189.617188 304.421875 187.496094 302.984375 C 185.378906 304.421875 182.757812 305.097656 180.207031 304.863281 C 179.507812 304.796875 178.800781 304.660156 178.15625 304.375 C 179.804688 303.558594 181.136719 302.132812 181.863281 300.445312 C 179.160156 302.292969 174.925781 302.140625 172.042969 300.5625 C 168.726562 298.746094 166.097656 295.855469 162.777344 294.042969 C 158.585938 291.746094 154.140625 290.101562 146.824219 293.800781 L 146.820312 293.800781 C 151.585938 289.816406 149.0625 285.632812 147.453125 284.582031 C 144.464844 282.632812 141.363281 284.203125 141.984375 287.097656 C 142.203125 288.121094 143.386719 289.113281 144.4375 289.054688 C 145.046875 289.015625 145.605469 288.640625 145.929688 288.125 C 147.199219 288.046875 149.3125 290.339844 146.078125 294.191406 C 146.175781 294.136719 146.273438 294.089844 146.375 294.035156 C 146.273438 294.089844 146.175781 294.136719 146.078125 294.191406 C 144.601562 294.988281 143.015625 296 141.292969 297.253906 C 140.316406 297.949219 138.898438 298.984375 137.539062 299.976562 C 137.890625 299.585938 138.273438 299.039062 138.566406 298.3125 C 138.964844 297.339844 139.203125 296.03125 138.84375 294.601562 C 138.742188 294.246094 138.601562 293.882812 138.378906 293.535156 C 138.164062 293.191406 137.84375 292.871094 137.480469 292.632812 C 136.738281 292.167969 135.804688 292.003906 134.910156 292.242188 C 134.460938 292.359375 134.039062 292.59375 133.699219 292.910156 C 133.359375 293.226562 133.121094 293.613281 132.96875 294.019531 C 132.648438 294.820312 132.710938 295.78125 133.203125 296.484375 C 133.453125 296.851562 133.8125 297.097656 134.167969 297.246094 C 134.53125 297.394531 134.902344 297.449219 135.261719 297.429688 C 135.617188 297.410156 135.964844 297.316406 136.261719 297.148438 C 136.5625 296.980469 136.816406 296.738281 136.96875 296.453125 C 137.28125 295.894531 137.265625 295.277344 137.027344 294.828125 C 136.96875 294.71875 136.890625 294.617188 136.8125 294.53125 C 136.726562 294.445312 136.636719 294.371094 136.539062 294.320312 C 136.347656 294.214844 136.160156 294.175781 135.992188 294.167969 C 135.652344 294.152344 135.40625 294.289062 135.285156 294.40625 C 135.164062 294.53125 135.148438 294.625 135.175781 294.644531 C 135.207031 294.675781 135.28125 294.636719 135.40625 294.597656 C 135.53125 294.566406 135.710938 294.535156 135.929688 294.601562 C 136.039062 294.632812 136.148438 294.6875 136.246094 294.769531 C 136.292969 294.804688 136.332031 294.855469 136.363281 294.90625 C 136.402344 294.960938 136.433594 295.023438 136.453125 295.089844 C 136.546875 295.355469 136.507812 295.746094 136.292969 296.035156 C 136.09375 296.324219 135.695312 296.507812 135.238281 296.5 C 134.785156 296.492188 134.289062 296.28125 134.0625 295.90625 C 133.8125 295.515625 133.773438 294.941406 133.992188 294.417969 C 134.097656 294.160156 134.257812 293.914062 134.464844 293.730469 C 134.664062 293.546875 134.917969 293.402344 135.203125 293.328125 C 135.773438 293.167969 136.417969 293.277344 136.894531 293.5625 C 137.363281 293.847656 137.675781 294.34375 137.851562 294.890625 C 138.023438 295.441406 138.070312 296.027344 138.058594 296.5625 C 138.042969 297.101562 137.949219 297.605469 137.816406 298.050781 C 137.558594 298.949219 137.148438 299.613281 136.847656 300.054688 C 136.539062 300.5 136.339844 300.738281 136.394531 300.804688 C 136.398438 300.808594 136.398438 300.808594 136.402344 300.808594 C 135.769531 301.269531 135.179688 301.695312 134.699219 302.039062 C 134.648438 302.074219 134.601562 302.109375 134.550781 302.144531 C 134.007812 302.53125 133.453125 302.921875 132.886719 303.292969 C 130.601562 304.824219 128.15625 306.144531 125.445312 306.289062 C 123.570312 306.390625 121.597656 305.855469 120.265625 304.535156 C 119.738281 304.011719 119.34375 303.359375 119.101562 302.652344 L 121.589844 302.6875 C 122.125 303.828125 123.261719 304.628906 124.605469 304.628906 C 126.457031 304.628906 127.957031 303.132812 127.957031 301.28125 C 127.957031 299.433594 126.457031 297.933594 124.605469 297.933594 C 123.261719 297.933594 122.121094 298.734375 121.589844 299.878906 L 119.046875 299.914062 C 119.109375 299.726562 119.179688 299.542969 119.269531 299.367188 C 120.109375 297.78125 121.925781 297.007812 123.632812 296.453125 C 120.265625 296.882812 118.488281 298.304688 117.773438 299.929688 L 19.824219 301.28125 L 117.476562 302.628906 C 117.527344 302.878906 117.566406 303.136719 117.648438 303.375 C 118.566406 305.996094 121.414062 307.566406 124.1875 307.742188 C 126.960938 307.917969 129.675781 306.960938 132.226562 305.867188 C 133.566406 305.296875 134.890625 304.683594 136.191406 304.027344 C 136.792969 303.730469 137.390625 303.417969 137.980469 303.097656 C 138.984375 302.5625 139.96875 302.003906 140.941406 301.421875 C 141.28125 301.214844 141.625 301.003906 141.964844 300.796875 C 142.136719 300.84375 142.476562 300.882812 142.96875 300.914062 C 143.691406 300.964844 144.734375 300.988281 146.003906 301.082031 C 146.636719 301.136719 147.328125 301.207031 148.015625 301.367188 C 148.363281 301.457031 148.664062 301.5625 148.957031 301.746094 C 149.253906 301.929688 149.53125 302.164062 149.78125 302.445312 C 150.273438 303.003906 150.628906 303.75 150.738281 304.550781 C 150.851562 305.347656 150.6875 306.1875 150.226562 306.898438 C 149.777344 307.605469 149.0625 308.109375 148.335938 308.234375 C 147.609375 308.351562 146.820312 308.113281 146.3125 307.65625 C 145.789062 307.214844 145.582031 306.554688 145.660156 305.949219 C 145.738281 305.335938 146.09375 304.863281 146.566406 304.640625 C 147.035156 304.40625 147.554688 304.410156 147.921875 304.582031 C 148.300781 304.753906 148.550781 305.074219 148.683594 305.359375 C 148.957031 305.949219 148.816406 306.359375 148.910156 306.382812 C 148.941406 306.398438 149.027344 306.320312 149.101562 306.125 C 149.171875 305.929688 149.222656 305.605469 149.121094 305.207031 C 149.023438 304.816406 148.777344 304.335938 148.242188 304.003906 C 147.71875 303.667969 146.953125 303.585938 146.230469 303.867188 C 145.871094 304.003906 145.515625 304.246094 145.238281 304.582031 C 144.964844 304.921875 144.769531 305.335938 144.6875 305.785156 C 144.605469 306.234375 144.621094 306.71875 144.765625 307.191406 C 144.917969 307.667969 145.195312 308.113281 145.570312 308.464844 C 146.316406 309.171875 147.398438 309.539062 148.519531 309.386719 C 149.636719 309.214844 150.621094 308.488281 151.226562 307.542969 C 151.851562 306.59375 152.0625 305.417969 151.894531 304.382812 C 151.730469 303.335938 151.25 302.402344 150.589844 301.707031 C 150.261719 301.355469 149.882812 301.066406 149.484375 300.84375 C 149.074219 300.609375 148.617188 300.476562 148.222656 300.40625 C 147.421875 300.261719 146.695312 300.242188 146.035156 300.242188 C 144.71875 300.253906 143.671875 300.363281 142.953125 300.453125 C 142.734375 300.480469 142.546875 300.507812 142.390625 300.539062 C 144.113281 299.5 145.871094 298.515625 147.820312 298.078125 C 150.546875 297.46875 153.210938 297.988281 155.683594 299.195312 C 156.734375 299.703125 157.75 300.335938 158.71875 301.058594 C 158.722656 301.058594 158.722656 301.0625 158.730469 301.066406 C 160.933594 302.699219 162.910156 304.789062 164.539062 306.929688 C 166.0625 308.925781 167.550781 311.101562 169.804688 312.214844 C 172.402344 313.5 175.585938 313.085938 178.179688 311.796875 C 180.777344 310.511719 183.644531 308.351562 187.496094 302.984375 C 191.351562 308.351562 194.21875 310.511719 196.8125 311.796875 C 199.40625 313.085938 202.59375 313.5 205.191406 312.214844 C 207.441406 311.101562 208.933594 308.925781 210.457031 306.929688 C 212.085938 304.789062 214.0625 302.699219 216.265625 301.066406 C 216.273438 301.0625 216.273438 301.058594 216.277344 301.058594 C 217.246094 300.335938 218.261719 299.703125 219.3125 299.195312 C 221.785156 297.988281 224.453125 297.46875 227.175781 298.078125 C 229.125 298.515625 230.882812 299.5 232.605469 300.539062 C 232.449219 300.507812 232.261719 300.480469 232.042969 300.453125 C 231.324219 300.363281 230.277344 300.253906 228.960938 300.242188 C 228.300781 300.242188 227.574219 300.261719 226.773438 300.40625 C 226.378906 300.476562 225.921875 300.609375 225.511719 300.84375 C 225.113281 301.066406 224.734375 301.355469 224.40625 301.707031 C 223.742188 302.402344 223.265625 303.335938 223.101562 304.382812 C 222.933594 305.417969 223.144531 306.59375 223.769531 307.542969 C 224.375 308.488281 225.359375 309.214844 226.476562 309.386719 C 227.597656 309.539062 228.675781 309.171875 229.425781 308.464844 C 229.800781 308.113281 230.078125 307.667969 230.230469 307.191406 C 230.375 306.71875 230.390625 306.234375 230.308594 305.785156 C 230.226562 305.335938 230.03125 304.921875 229.757812 304.582031 C 229.480469 304.246094 229.125 304.003906 228.765625 303.867188 C 228.042969 303.585938 227.277344 303.667969 226.753906 304.003906 C 226.21875 304.335938 225.972656 304.816406 225.875 305.207031 C 225.773438 305.605469 225.824219 305.929688 225.894531 306.125 C 225.96875 306.320312 226.054688 306.398438 226.085938 306.382812 C 226.179688 306.359375 226.039062 305.949219 226.3125 305.359375 C 226.445312 305.074219 226.695312 304.753906 227.074219 304.582031 C 227.441406 304.410156 227.960938 304.40625 228.429688 304.640625 C 228.902344 304.863281 229.257812 305.335938 229.335938 305.949219 C 229.414062 306.554688 229.207031 307.214844 228.683594 307.65625 C 228.175781 308.113281 227.386719 308.351562 226.660156 308.234375 C 225.933594 308.109375 225.21875 307.605469 224.769531 306.898438 C 224.308594 306.1875 224.144531 305.347656 224.257812 304.550781 C 224.367188 303.75 224.722656 303.003906 225.214844 302.445312 C 225.464844 302.164062 225.742188 301.929688 226.039062 301.746094 C 226.332031 301.5625 226.632812 301.457031 226.980469 301.367188 C 227.667969 301.207031 228.359375 301.136719 228.992188 301.082031 C 230.261719 300.988281 231.304688 300.964844 232.027344 300.914062 C 232.519531 300.882812 232.859375 300.84375 233.03125 300.796875 C 233.371094 301.003906 233.714844 301.214844 234.054688 301.421875 C 235.027344 302.003906 236.011719 302.5625 237.015625 303.097656 C 237.605469 303.417969 238.203125 303.730469 238.804688 304.027344 C 240.105469 304.683594 241.429688 305.296875 242.769531 305.867188 C 245.320312 306.960938 248.035156 307.917969 250.808594 307.742188 C 253.578125 307.566406 256.429688 305.996094 257.347656 303.375 C 257.429688 303.136719 257.46875 302.878906 257.519531 302.628906 L 355.171875 301.28125 " fill-opacity="1" fill-rule="nonzero"/></g><g clip-path="url(#58137964b8)"><g clip-path="url(#e9cd7cf2ed)"><g clip-path="url(#f6f328a389)"><path fill="#c2a965" d="M 233.542969 272.328125 C 241.304688 268.957031 248.636719 264.253906 255.1875 258.1875 C 268.828125 245.558594 277.296875 228.820312 279.414062 210.546875 C 279.644531 208.550781 280.566406 203.101562 281.355469 203.132812 C 282.144531 203.160156 282.503906 208.519531 282.289062 210.453125 C 280.179688 229.566406 271.371094 247.082031 257.121094 260.273438 C 250.585938 266.328125 243.300781 271.074219 235.589844 274.542969 L 233.542969 272.328125 " fill-opacity="1" fill-rule="nonzero"/></g></g></g><g clip-path="url(#24c228f53d)"><g clip-path="url(#20df8f4c42)"><g clip-path="url(#cd1ddf4a09)"><path fill="#c2a965" d="M 279.28125 181.015625 C 279.28125 181.015625 282.367188 184.453125 284.210938 189.015625 C 286.402344 194.425781 283.679688 197.1875 281.625 201.175781 C 278.707031 197.765625 275.421875 195.703125 276.3125 189.933594 C 277.0625 185.070312 279.28125 181.015625 279.28125 181.015625 " fill-opacity="1" fill-rule="nonzero"/></g></g></g><g clip-path="url(#50b41026d8)"><g clip-path="url(#cf11775bf7)"><g clip-path="url(#76792d4784)"><path fill="#c2a965" d="M 268.582031 195.609375 C 268.582031 195.609375 272.421875 198.179688 275.335938 202.152344 C 278.785156 206.855469 276.824219 210.203125 275.808594 214.570312 C 272.140625 211.984375 268.457031 210.789062 267.898438 204.984375 C 267.429688 200.078125 268.582031 195.609375 268.582031 195.609375 " fill-opacity="1" fill-rule="nonzero"/></g></g></g><g clip-path="url(#545134b6f7)"><g clip-path="url(#ef294debb1)"><g clip-path="url(#735f54fd24)"><path fill="#c2a965" d="M 264.105469 212.585938 C 264.105469 212.585938 268.117188 214.878906 271.304688 218.628906 C 275.082031 223.074219 273.367188 226.554688 272.664062 230.984375 C 268.824219 228.667969 265.058594 227.738281 264.089844 221.988281 C 263.273438 217.128906 264.105469 212.585938 264.105469 212.585938 " fill-opacity="1" fill-rule="nonzero"/></g></g></g><g clip-path="url(#d5e7c418de)"><g clip-path="url(#6e70eb9961)"><g clip-path="url(#56939a8dc3)"><path fill="#c2a965" d="M 258.964844 226.359375 C 258.964844 226.359375 262.648438 229.152344 265.320312 233.289062 C 268.492188 238.183594 266.34375 241.410156 265.074219 245.714844 C 261.5625 242.917969 257.949219 241.511719 257.734375 235.683594 C 257.550781 230.757812 258.964844 226.359375 258.964844 226.359375 " fill-opacity="1" fill-rule="nonzero"/></g></g></g><g clip-path="url(#e28855a485)"><g clip-path="url(#7bbd9e0650)"><g clip-path="url(#ef247bde1f)"><path fill="#c2a965" d="M 249.476562 239.292969 C 249.476562 239.292969 252.785156 242.523438 254.925781 246.960938 C 257.460938 252.210938 254.925781 255.144531 253.128906 259.257812 C 249.996094 256.046875 246.585938 254.203125 247.09375 248.394531 C 247.527344 243.488281 249.476562 239.292969 249.476562 239.292969 " fill-opacity="1" fill-rule="nonzero"/></g></g></g><g clip-path="url(#9d29580ec2)"><g clip-path="url(#c71e1d67b6)"><g clip-path="url(#39baed75b4)"><path fill="#c2a965" d="M 297.878906 194.992188 C 297.878906 194.992188 297.125 199.550781 294.707031 203.84375 C 291.847656 208.929688 287.992188 208.527344 283.59375 209.40625 C 284.433594 205 283.996094 201.148438 289.054688 198.246094 C 293.328125 195.792969 297.878906 194.992188 297.878906 194.992188 " fill-opacity="1" fill-rule="nonzero"/></g></g></g><g clip-path="url(#b709b024ea)"><g clip-path="url(#f3482d1a85)"><g clip-path="url(#21b7401977)"><path fill="#c2a965" d="M 297.496094 214.199219 C 297.496094 214.199219 295.945312 218.554688 292.816406 222.351562 C 289.105469 226.855469 285.378906 225.777344 280.894531 225.871094 C 282.5 221.679688 282.75 217.8125 288.238281 215.84375 C 292.875 214.179688 297.496094 214.199219 297.496094 214.199219 " fill-opacity="1" fill-rule="nonzero"/></g></g></g><g clip-path="url(#b9488d17df)"><g clip-path="url(#c31b1392c3)"><g clip-path="url(#746a1b6b5a)"><path fill="#c2a965" d="M 291.316406 234.851562 C 291.316406 234.851562 288.910156 238.796875 285.066406 241.878906 C 280.515625 245.523438 277.089844 243.714844 272.675781 242.886719 C 275.105469 239.113281 276.140625 235.378906 281.917969 234.570312 C 286.792969 233.890625 291.316406 234.851562 291.316406 234.851562 " fill-opacity="1" fill-rule="nonzero"/></g></g></g><g clip-path="url(#60ea76bd31)"><g clip-path="url(#481e72731b)"><g clip-path="url(#c8a6b3a18b)"><path fill="#c2a965" d="M 281.207031 254.066406 C 281.207031 254.066406 278.03125 257.425781 273.628906 259.632812 C 268.417969 262.25 265.445312 259.761719 261.300781 258.035156 C 264.464844 254.847656 266.257812 251.410156 272.074219 251.832031 C 276.988281 252.183594 281.207031 254.066406 281.207031 254.066406 " fill-opacity="1" fill-rule="nonzero"/></g></g></g><g clip-path="url(#2b53bce22f)"><path fill="#c2a965" d="M 226.085938 44.609375 L 212.167969 69.296875 C 212.167969 69.296875 199.628906 63.867188 187.5 63.867188 C 175.371094 63.867188 162.832031 69.296875 162.832031 69.296875 L 148.914062 44.609375 C 148.914062 44.609375 157.28125 51.363281 163.660156 48.746094 C 168.304688 46.84375 168.023438 34.832031 168.023438 34.832031 C 168.023438 34.832031 173.394531 46.664062 179.015625 46.28125 C 184.363281 45.917969 187.5 24.148438 187.5 24.148438 C 187.5 24.148438 190.636719 45.917969 195.984375 46.28125 C 201.605469 46.664062 206.976562 34.832031 206.976562 34.832031 C 206.976562 34.832031 206.695312 46.84375 211.339844 48.746094 C 217.71875 51.363281 226.085938 44.609375 226.085938 44.609375 Z M 226.085938 44.609375 " fill-opacity="1" fill-rule="nonzero"/></g><g clip-path="url(#99c1a9dea1)"><path fill="#c2a965" d="M 187.5 20.839844 C 188.9375 20.839844 190.105469 19.671875 190.105469 18.230469 C 190.105469 16.789062 188.941406 15.621094 187.5 15.621094 C 186.058594 15.621094 184.890625 16.789062 184.890625 18.230469 C 184.890625 19.671875 186.058594 20.839844 187.5 20.839844 Z M 208.460938 33.277344 C 209.902344 33.277344 211.070312 32.109375 211.070312 30.667969 C 211.070312 29.226562 209.902344 28.058594 208.460938 28.058594 C 207.023438 28.058594 205.855469 29.226562 205.855469 30.667969 C 205.855469 32.109375 207.023438 33.277344 208.460938 33.277344 Z M 229.125 38.894531 C 227.6875 38.894531 226.519531 40.058594 226.519531 41.5 C 226.519531 42.941406 227.6875 44.109375 229.125 44.109375 C 230.566406 44.109375 231.734375 42.941406 231.734375 41.5 C 231.734375 40.058594 230.566406 38.894531 229.125 38.894531 Z M 166.535156 33.277344 C 167.976562 33.277344 169.144531 32.109375 169.144531 30.667969 C 169.144531 29.226562 167.976562 28.058594 166.535156 28.058594 C 165.09375 28.058594 163.925781 29.226562 163.925781 30.667969 C 163.925781 32.109375 165.09375 33.277344 166.535156 33.277344 Z M 145.875 38.894531 C 144.433594 38.894531 143.265625 40.058594 143.265625 41.5 C 143.265625 42.941406 144.433594 44.109375 145.875 44.109375 C 147.3125 44.109375 148.480469 42.941406 148.480469 41.5 C 148.480469 40.058594 147.3125 38.894531 145.875 38.894531 Z M 145.875 38.894531 " fill-opacity="1" fill-rule="nonzero"/></g><g fill="#ffffff" fill-opacity="1"><g transform="translate(29.96809, 355.072518)"><g><path d="M 8.8125 0.25 C 7.75 0.25 6.765625 0.0546875 5.859375 -0.328125 C 4.960938 -0.722656 4.1875 -1.257812 3.53125 -1.9375 C 2.875 -2.625 2.359375 -3.425781 1.984375 -4.34375 C 1.617188 -5.269531 1.4375 -6.257812 1.4375 -7.3125 L 1.4375 -7.359375 C 1.4375 -8.398438 1.617188 -9.378906 1.984375 -10.296875 C 2.359375 -11.222656 2.875 -12.035156 3.53125 -12.734375 C 4.1875 -13.429688 4.96875 -13.976562 5.875 -14.375 C 6.789062 -14.769531 7.789062 -14.96875 8.875 -14.96875 C 9.550781 -14.96875 10.15625 -14.910156 10.6875 -14.796875 C 11.226562 -14.691406 11.726562 -14.535156 12.1875 -14.328125 C 12.65625 -14.128906 13.082031 -13.882812 13.46875 -13.59375 C 13.863281 -13.3125 14.242188 -12.992188 14.609375 -12.640625 L 13.484375 -11.421875 C 12.847656 -12.003906 12.171875 -12.484375 11.453125 -12.859375 C 10.734375 -13.242188 9.867188 -13.4375 8.859375 -13.4375 C 8.046875 -13.4375 7.289062 -13.28125 6.59375 -12.96875 C 5.894531 -12.664062 5.289062 -12.238281 4.78125 -11.6875 C 4.269531 -11.144531 3.867188 -10.503906 3.578125 -9.765625 C 3.296875 -9.035156 3.15625 -8.25 3.15625 -7.40625 L 3.15625 -7.359375 C 3.15625 -6.503906 3.296875 -5.707031 3.578125 -4.96875 C 3.867188 -4.238281 4.269531 -3.597656 4.78125 -3.046875 C 5.289062 -2.503906 5.894531 -2.070312 6.59375 -1.75 C 7.289062 -1.4375 8.046875 -1.28125 8.859375 -1.28125 C 9.867188 -1.28125 10.738281 -1.460938 11.46875 -1.828125 C 12.195312 -2.203125 12.910156 -2.726562 13.609375 -3.40625 L 14.703125 -2.328125 C 14.328125 -1.941406 13.929688 -1.585938 13.515625 -1.265625 C 13.097656 -0.953125 12.648438 -0.679688 12.171875 -0.453125 C 11.703125 -0.234375 11.191406 -0.0625 10.640625 0.0625 C 10.097656 0.1875 9.488281 0.25 8.8125 0.25 Z M 8.8125 0.25 "/></g></g></g><g fill="#ffffff" fill-opacity="1"><g transform="translate(50.454913, 355.072518)"><g><path d="M 8.921875 0.25 C 7.796875 0.25 6.773438 0.046875 5.859375 -0.359375 C 4.941406 -0.765625 4.148438 -1.3125 3.484375 -2 C 2.828125 -2.695312 2.320312 -3.503906 1.96875 -4.421875 C 1.613281 -5.335938 1.4375 -6.300781 1.4375 -7.3125 L 1.4375 -7.359375 C 1.4375 -8.367188 1.617188 -9.335938 1.984375 -10.265625 C 2.347656 -11.191406 2.859375 -12 3.515625 -12.6875 C 4.171875 -13.382812 4.960938 -13.9375 5.890625 -14.34375 C 6.816406 -14.757812 7.835938 -14.96875 8.953125 -14.96875 C 10.078125 -14.96875 11.097656 -14.765625 12.015625 -14.359375 C 12.929688 -13.953125 13.71875 -13.398438 14.375 -12.703125 C 15.039062 -12.015625 15.550781 -11.210938 15.90625 -10.296875 C 16.269531 -9.378906 16.453125 -8.414062 16.453125 -7.40625 L 16.453125 -7.359375 C 16.453125 -6.347656 16.269531 -5.378906 15.90625 -4.453125 C 15.539062 -3.535156 15.023438 -2.726562 14.359375 -2.03125 C 13.703125 -1.332031 12.910156 -0.773438 11.984375 -0.359375 C 11.054688 0.046875 10.035156 0.25 8.921875 0.25 Z M 8.953125 -1.28125 C 9.796875 -1.28125 10.570312 -1.4375 11.28125 -1.75 C 11.988281 -2.070312 12.59375 -2.503906 13.09375 -3.046875 C 13.601562 -3.597656 14 -4.238281 14.28125 -4.96875 C 14.570312 -5.695312 14.71875 -6.476562 14.71875 -7.3125 L 14.71875 -7.359375 C 14.71875 -8.203125 14.570312 -8.988281 14.28125 -9.71875 C 14 -10.457031 13.597656 -11.097656 13.078125 -11.640625 C 12.554688 -12.191406 11.941406 -12.628906 11.234375 -12.953125 C 10.523438 -13.273438 9.753906 -13.4375 8.921875 -13.4375 C 8.078125 -13.4375 7.300781 -13.28125 6.59375 -12.96875 C 5.882812 -12.65625 5.273438 -12.222656 4.765625 -11.671875 C 4.265625 -11.128906 3.867188 -10.492188 3.578125 -9.765625 C 3.296875 -9.035156 3.15625 -8.25 3.15625 -7.40625 L 3.15625 -7.359375 C 3.15625 -6.515625 3.296875 -5.722656 3.578125 -4.984375 C 3.867188 -4.253906 4.273438 -3.613281 4.796875 -3.0625 C 5.316406 -2.519531 5.929688 -2.085938 6.640625 -1.765625 C 7.347656 -1.441406 8.117188 -1.28125 8.953125 -1.28125 Z M 8.953125 -1.28125 "/></g></g></g><g fill="#ffffff" fill-opacity="1"><g transform="translate(73.213108, 355.072518)"><g><path d="M 0.8125 -14.71875 L 2.671875 -14.71875 L 7.90625 -2.046875 L 13.171875 -14.71875 L 14.953125 -14.71875 L 8.625 0.109375 L 7.15625 0.109375 Z M 0.8125 -14.71875 "/></g></g></g><g fill="#ffffff" fill-opacity="1"><g transform="translate(93.868168, 355.072518)"><g><path d="M 2.078125 -14.71875 L 12.71875 -14.71875 L 12.71875 -13.203125 L 3.75 -13.203125 L 3.75 -8.1875 L 11.78125 -8.1875 L 11.78125 -6.671875 L 3.75 -6.671875 L 3.75 -1.515625 L 12.828125 -1.515625 L 12.828125 0 L 2.078125 0 Z M 2.078125 -14.71875 "/></g></g></g><g fill="#ffffff" fill-opacity="1"><g transform="translate(112.840735, 355.072518)"><g><path d="M 2.078125 -14.71875 L 8.40625 -14.71875 C 9.320312 -14.71875 10.132812 -14.585938 10.84375 -14.328125 C 11.550781 -14.066406 12.132812 -13.707031 12.59375 -13.25 C 12.957031 -12.882812 13.238281 -12.457031 13.4375 -11.96875 C 13.632812 -11.476562 13.734375 -10.9375 13.734375 -10.34375 L 13.734375 -10.3125 C 13.734375 -9.6875 13.632812 -9.128906 13.4375 -8.640625 C 13.238281 -8.160156 12.960938 -7.742188 12.609375 -7.390625 C 12.253906 -7.035156 11.828125 -6.738281 11.328125 -6.5 C 10.835938 -6.269531 10.304688 -6.109375 9.734375 -6.015625 L 14.265625 0 L 12.21875 0 L 7.953125 -5.71875 L 3.75 -5.71875 L 3.75 0 L 2.078125 0 Z M 8.265625 -7.21875 C 8.804688 -7.21875 9.304688 -7.285156 9.765625 -7.421875 C 10.234375 -7.566406 10.632812 -7.765625 10.96875 -8.015625 C 11.3125 -8.273438 11.578125 -8.59375 11.765625 -8.96875 C 11.953125 -9.34375 12.046875 -9.765625 12.046875 -10.234375 L 12.046875 -10.28125 C 12.046875 -11.195312 11.71875 -11.910156 11.0625 -12.421875 C 10.40625 -12.929688 9.476562 -13.1875 8.28125 -13.1875 L 3.75 -13.1875 L 3.75 -7.21875 Z M 8.265625 -7.21875 "/></g></g></g><g fill="#ffffff" fill-opacity="1"><g transform="translate(132.927967, 355.072518)"><g/></g></g><g fill="#ffffff" fill-opacity="1"><g transform="translate(144.11899, 355.072518)"><g><path d="M 2.078125 -14.71875 L 3.75 -14.71875 L 3.75 -1.53125 L 12.03125 -1.53125 L 12.03125 0 L 2.078125 0 Z M 2.078125 -14.71875 "/></g></g></g><g fill="#ffffff" fill-opacity="1"><g transform="translate(161.934849, 355.072518)"><g><path d="M 2.078125 -14.71875 L 12.71875 -14.71875 L 12.71875 -13.203125 L 3.75 -13.203125 L 3.75 -8.1875 L 11.78125 -8.1875 L 11.78125 -6.671875 L 3.75 -6.671875 L 3.75 -1.515625 L 12.828125 -1.515625 L 12.828125 0 L 2.078125 0 Z M 2.078125 -14.71875 "/></g></g></g><g fill="#ffffff" fill-opacity="1"><g transform="translate(180.907421, 355.072518)"><g><path d="M 5.90625 -13.1875 L 0.953125 -13.1875 L 0.953125 -14.71875 L 12.53125 -14.71875 L 12.53125 -13.1875 L 7.578125 -13.1875 L 7.578125 0 L 5.90625 0 Z M 5.90625 -13.1875 "/></g></g></g><g fill="#ffffff" fill-opacity="1"><g transform="translate(199.270075, 355.072518)"><g><path d="M 5.90625 -13.1875 L 0.953125 -13.1875 L 0.953125 -14.71875 L 12.53125 -14.71875 L 12.53125 -13.1875 L 7.578125 -13.1875 L 7.578125 0 L 5.90625 0 Z M 5.90625 -13.1875 "/></g></g></g><g fill="#ffffff" fill-opacity="1"><g transform="translate(217.63273, 355.072518)"><g><path d="M 2.078125 -14.71875 L 12.71875 -14.71875 L 12.71875 -13.203125 L 3.75 -13.203125 L 3.75 -8.1875 L 11.78125 -8.1875 L 11.78125 -6.671875 L 3.75 -6.671875 L 3.75 -1.515625 L 12.828125 -1.515625 L 12.828125 0 L 2.078125 0 Z M 2.078125 -14.71875 "/></g></g></g><g fill="#ffffff" fill-opacity="1"><g transform="translate(236.605292, 355.072518)"><g><path d="M 2.078125 -14.71875 L 8.40625 -14.71875 C 9.320312 -14.71875 10.132812 -14.585938 10.84375 -14.328125 C 11.550781 -14.066406 12.132812 -13.707031 12.59375 -13.25 C 12.957031 -12.882812 13.238281 -12.457031 13.4375 -11.96875 C 13.632812 -11.476562 13.734375 -10.9375 13.734375 -10.34375 L 13.734375 -10.3125 C 13.734375 -9.6875 13.632812 -9.128906 13.4375 -8.640625 C 13.238281 -8.160156 12.960938 -7.742188 12.609375 -7.390625 C 12.253906 -7.035156 11.828125 -6.738281 11.328125 -6.5 C 10.835938 -6.269531 10.304688 -6.109375 9.734375 -6.015625 L 14.265625 0 L 12.21875 0 L 7.953125 -5.71875 L 3.75 -5.71875 L 3.75 0 L 2.078125 0 Z M 8.265625 -7.21875 C 8.804688 -7.21875 9.304688 -7.285156 9.765625 -7.421875 C 10.234375 -7.566406 10.632812 -7.765625 10.96875 -8.015625 C 11.3125 -8.273438 11.578125 -8.59375 11.765625 -8.96875 C 11.953125 -9.34375 12.046875 -9.765625 12.046875 -10.234375 L 12.046875 -10.28125 C 12.046875 -11.195312 11.71875 -11.910156 11.0625 -12.421875 C 10.40625 -12.929688 9.476562 -13.1875 8.28125 -13.1875 L 3.75 -13.1875 L 3.75 -7.21875 Z M 8.265625 -7.21875 "/></g></g></g><g fill="#ffffff" fill-opacity="1"><g transform="translate(256.692514, 355.072518)"><g/></g></g><g fill="#ffffff" fill-opacity="1"><g transform="translate(267.883528, 355.072518)"><g><path d="M 2.078125 -14.71875 L 3.75 -14.71875 L 3.75 -1.53125 L 12.03125 -1.53125 L 12.03125 0 L 2.078125 0 Z M 2.078125 -14.71875 "/></g></g></g><g fill="#ffffff" fill-opacity="1"><g transform="translate(285.699376, 355.072518)"><g><path d="M 8.921875 0.25 C 7.796875 0.25 6.773438 0.046875 5.859375 -0.359375 C 4.941406 -0.765625 4.148438 -1.3125 3.484375 -2 C 2.828125 -2.695312 2.320312 -3.503906 1.96875 -4.421875 C 1.613281 -5.335938 1.4375 -6.300781 1.4375 -7.3125 L 1.4375 -7.359375 C 1.4375 -8.367188 1.617188 -9.335938 1.984375 -10.265625 C 2.347656 -11.191406 2.859375 -12 3.515625 -12.6875 C 4.171875 -13.382812 4.960938 -13.9375 5.890625 -14.34375 C 6.816406 -14.757812 7.835938 -14.96875 8.953125 -14.96875 C 10.078125 -14.96875 11.097656 -14.765625 12.015625 -14.359375 C 12.929688 -13.953125 13.71875 -13.398438 14.375 -12.703125 C 15.039062 -12.015625 15.550781 -11.210938 15.90625 -10.296875 C 16.269531 -9.378906 16.453125 -8.414062 16.453125 -7.40625 L 16.453125 -7.359375 C 16.453125 -6.347656 16.269531 -5.378906 15.90625 -4.453125 C 15.539062 -3.535156 15.023438 -2.726562 14.359375 -2.03125 C 13.703125 -1.332031 12.910156 -0.773438 11.984375 -0.359375 C 11.054688 0.046875 10.035156 0.25 8.921875 0.25 Z M 8.953125 -1.28125 C 9.796875 -1.28125 10.570312 -1.4375 11.28125 -1.75 C 11.988281 -2.070312 12.59375 -2.503906 13.09375 -3.046875 C 13.601562 -3.597656 14 -4.238281 14.28125 -4.96875 C 14.570312 -5.695312 14.71875 -6.476562 14.71875 -7.3125 L 14.71875 -7.359375 C 14.71875 -8.203125 14.570312 -8.988281 14.28125 -9.71875 C 14 -10.457031 13.597656 -11.097656 13.078125 -11.640625 C 12.554688 -12.191406 11.941406 -12.628906 11.234375 -12.953125 C 10.523438 -13.273438 9.753906 -13.4375 8.921875 -13.4375 C 8.078125 -13.4375 7.300781 -13.28125 6.59375 -12.96875 C 5.882812 -12.65625 5.273438 -12.222656 4.765625 -11.671875 C 4.265625 -11.128906 3.867188 -10.492188 3.578125 -9.765625 C 3.296875 -9.035156 3.15625 -8.25 3.15625 -7.40625 L 3.15625 -7.359375 C 3.15625 -6.515625 3.296875 -5.722656 3.578125 -4.984375 C 3.867188 -4.253906 4.273438 -3.613281 4.796875 -3.0625 C 5.316406 -2.519531 5.929688 -2.085938 6.640625 -1.765625 C 7.347656 -1.441406 8.117188 -1.28125 8.953125 -1.28125 Z M 8.953125 -1.28125 "/></g></g></g><g fill="#ffffff" fill-opacity="1"><g transform="translate(308.457566, 355.072518)"><g><path d="M 2.078125 -14.71875 L 8.40625 -14.71875 C 9.320312 -14.71875 10.132812 -14.585938 10.84375 -14.328125 C 11.550781 -14.066406 12.132812 -13.707031 12.59375 -13.25 C 12.957031 -12.882812 13.238281 -12.457031 13.4375 -11.96875 C 13.632812 -11.476562 13.734375 -10.9375 13.734375 -10.34375 L 13.734375 -10.3125 C 13.734375 -9.6875 13.632812 -9.128906 13.4375 -8.640625 C 13.238281 -8.160156 12.960938 -7.742188 12.609375 -7.390625 C 12.253906 -7.035156 11.828125 -6.738281 11.328125 -6.5 C 10.835938 -6.269531 10.304688 -6.109375 9.734375 -6.015625 L 14.265625 0 L 12.21875 0 L 7.953125 -5.71875 L 3.75 -5.71875 L 3.75 0 L 2.078125 0 Z M 8.265625 -7.21875 C 8.804688 -7.21875 9.304688 -7.285156 9.765625 -7.421875 C 10.234375 -7.566406 10.632812 -7.765625 10.96875 -8.015625 C 11.3125 -8.273438 11.578125 -8.59375 11.765625 -8.96875 C 11.953125 -9.34375 12.046875 -9.765625 12.046875 -10.234375 L 12.046875 -10.28125 C 12.046875 -11.195312 11.71875 -11.910156 11.0625 -12.421875 C 10.40625 -12.929688 9.476562 -13.1875 8.28125 -13.1875 L 3.75 -13.1875 L 3.75 -7.21875 Z M 8.265625 -7.21875 "/></g></g></g><g fill="#ffffff" fill-opacity="1"><g transform="translate(328.544788, 355.072518)"><g><path d="M 2.078125 -14.71875 L 7.1875 -14.71875 C 8.34375 -14.71875 9.398438 -14.53125 10.359375 -14.15625 C 11.316406 -13.789062 12.140625 -13.273438 12.828125 -12.609375 C 13.523438 -11.953125 14.0625 -11.175781 14.4375 -10.28125 C 14.820312 -9.394531 15.015625 -8.4375 15.015625 -7.40625 L 15.015625 -7.359375 C 15.015625 -6.316406 14.820312 -5.347656 14.4375 -4.453125 C 14.0625 -3.554688 13.523438 -2.78125 12.828125 -2.125 C 12.140625 -1.46875 11.316406 -0.945312 10.359375 -0.5625 C 9.398438 -0.1875 8.34375 0 7.1875 0 L 2.078125 0 Z M 3.75 -13.1875 L 3.75 -1.53125 L 7.1875 -1.53125 C 8.113281 -1.53125 8.957031 -1.675781 9.71875 -1.96875 C 10.476562 -2.269531 11.117188 -2.675781 11.640625 -3.1875 C 12.160156 -3.707031 12.566406 -4.320312 12.859375 -5.03125 C 13.148438 -5.738281 13.296875 -6.5 13.296875 -7.3125 L 13.296875 -7.359375 C 13.296875 -8.171875 13.148438 -8.929688 12.859375 -9.640625 C 12.566406 -10.347656 12.160156 -10.960938 11.640625 -11.484375 C 11.117188 -12.015625 10.476562 -12.429688 9.71875 -12.734375 C 8.957031 -13.035156 8.113281 -13.1875 7.1875 -13.1875 Z M 3.75 -13.1875 "/></g></g></g><g fill="#ffffff" fill-opacity="1"><g transform="translate(45.250561, 284.885028)"><g><path d="M 4.265625 -9.515625 L 0.6875 -9.515625 L 0.6875 -10.625 L 9.046875 -10.625 L 9.046875 -9.515625 L 5.46875 -9.515625 L 5.46875 0 L 4.265625 0 Z M 4.265625 -9.515625 "/></g></g></g><g fill="#ffffff" fill-opacity="1"><g transform="translate(58.481853, 284.885028)"><g><path d="M 1.5 -10.625 L 6.0625 -10.625 C 6.726562 -10.625 7.316406 -10.53125 7.828125 -10.34375 C 8.335938 -10.15625 8.757812 -9.894531 9.09375 -9.5625 C 9.351562 -9.289062 9.550781 -8.976562 9.6875 -8.625 C 9.832031 -8.28125 9.90625 -7.894531 9.90625 -7.46875 L 9.90625 -7.4375 C 9.90625 -6.988281 9.832031 -6.585938 9.6875 -6.234375 C 9.550781 -5.890625 9.351562 -5.585938 9.09375 -5.328125 C 8.832031 -5.078125 8.523438 -4.867188 8.171875 -4.703125 C 7.816406 -4.535156 7.4375 -4.414062 7.03125 -4.34375 L 10.28125 0 L 8.8125 0 L 5.734375 -4.125 L 2.703125 -4.125 L 2.703125 0 L 1.5 0 Z M 5.96875 -5.203125 C 6.351562 -5.203125 6.710938 -5.25 7.046875 -5.34375 C 7.390625 -5.445312 7.679688 -5.59375 7.921875 -5.78125 C 8.160156 -5.96875 8.347656 -6.195312 8.484375 -6.46875 C 8.617188 -6.738281 8.6875 -7.046875 8.6875 -7.390625 L 8.6875 -7.421875 C 8.6875 -8.078125 8.445312 -8.585938 7.96875 -8.953125 C 7.5 -9.328125 6.835938 -9.515625 5.984375 -9.515625 L 2.703125 -9.515625 L 2.703125 -5.203125 Z M 5.96875 -5.203125 "/></g></g></g><g fill="#ffffff" fill-opacity="1"><g transform="translate(72.955461, 284.885028)"><g><path d="M 5.75 0.171875 C 5.09375 0.171875 4.492188 0.0703125 3.953125 -0.125 C 3.410156 -0.320312 2.941406 -0.613281 2.546875 -1 C 2.160156 -1.394531 1.859375 -1.878906 1.640625 -2.453125 C 1.429688 -3.035156 1.328125 -3.703125 1.328125 -4.453125 L 1.328125 -10.625 L 2.53125 -10.625 L 2.53125 -4.515625 C 2.53125 -3.367188 2.816406 -2.484375 3.390625 -1.859375 C 3.960938 -1.242188 4.757812 -0.9375 5.78125 -0.9375 C 6.757812 -0.9375 7.535156 -1.226562 8.109375 -1.8125 C 8.691406 -2.40625 8.984375 -3.285156 8.984375 -4.453125 L 8.984375 -10.625 L 10.1875 -10.625 L 10.1875 -4.53125 C 10.1875 -3.757812 10.078125 -3.078125 9.859375 -2.484375 C 9.648438 -1.898438 9.347656 -1.410156 8.953125 -1.015625 C 8.566406 -0.617188 8.101562 -0.320312 7.5625 -0.125 C 7.019531 0.0703125 6.414062 0.171875 5.75 0.171875 Z M 5.75 0.171875 "/></g></g></g><g fill="#ffffff" fill-opacity="1"><g transform="translate(87.974462, 284.885028)"><g><path d="M 5.140625 0.15625 C 4.296875 0.15625 3.519531 0.015625 2.8125 -0.265625 C 2.113281 -0.546875 1.441406 -0.972656 0.796875 -1.546875 L 1.546875 -2.421875 C 2.097656 -1.921875 2.65625 -1.546875 3.21875 -1.296875 C 3.789062 -1.046875 4.445312 -0.921875 5.1875 -0.921875 C 5.90625 -0.921875 6.476562 -1.085938 6.90625 -1.421875 C 7.34375 -1.765625 7.5625 -2.203125 7.5625 -2.734375 L 7.5625 -2.765625 C 7.5625 -3.003906 7.519531 -3.222656 7.4375 -3.421875 C 7.351562 -3.617188 7.207031 -3.796875 7 -3.953125 C 6.800781 -4.117188 6.519531 -4.265625 6.15625 -4.390625 C 5.800781 -4.523438 5.347656 -4.65625 4.796875 -4.78125 C 4.191406 -4.90625 3.660156 -5.050781 3.203125 -5.21875 C 2.753906 -5.394531 2.382812 -5.601562 2.09375 -5.84375 C 1.800781 -6.09375 1.582031 -6.378906 1.4375 -6.703125 C 1.300781 -7.023438 1.234375 -7.40625 1.234375 -7.84375 L 1.234375 -7.875 C 1.234375 -8.289062 1.316406 -8.675781 1.484375 -9.03125 C 1.660156 -9.382812 1.90625 -9.6875 2.21875 -9.9375 C 2.53125 -10.195312 2.894531 -10.398438 3.3125 -10.546875 C 3.738281 -10.691406 4.207031 -10.765625 4.71875 -10.765625 C 5.5 -10.765625 6.175781 -10.65625 6.75 -10.4375 C 7.332031 -10.226562 7.898438 -9.90625 8.453125 -9.46875 L 7.75 -8.546875 C 7.257812 -8.953125 6.757812 -9.242188 6.25 -9.421875 C 5.75 -9.597656 5.226562 -9.6875 4.6875 -9.6875 C 3.988281 -9.6875 3.4375 -9.519531 3.03125 -9.1875 C 2.625 -8.863281 2.421875 -8.460938 2.421875 -7.984375 L 2.421875 -7.953125 C 2.421875 -7.703125 2.460938 -7.476562 2.546875 -7.28125 C 2.628906 -7.082031 2.773438 -6.898438 2.984375 -6.734375 C 3.203125 -6.566406 3.5 -6.410156 3.875 -6.265625 C 4.25 -6.128906 4.726562 -6.003906 5.3125 -5.890625 C 6.488281 -5.617188 7.359375 -5.25 7.921875 -4.78125 C 8.484375 -4.320312 8.765625 -3.6875 8.765625 -2.875 L 8.765625 -2.859375 C 8.765625 -2.398438 8.671875 -1.984375 8.484375 -1.609375 C 8.304688 -1.242188 8.054688 -0.925781 7.734375 -0.65625 C 7.421875 -0.394531 7.039062 -0.191406 6.59375 -0.046875 C 6.15625 0.0859375 5.671875 0.15625 5.140625 0.15625 Z M 5.140625 0.15625 "/></g></g></g><g fill="#ffffff" fill-opacity="1"><g transform="translate(101.190608, 284.885028)"><g><path d="M 4.265625 -9.515625 L 0.6875 -9.515625 L 0.6875 -10.625 L 9.046875 -10.625 L 9.046875 -9.515625 L 5.46875 -9.515625 L 5.46875 0 L 4.265625 0 Z M 4.265625 -9.515625 "/></g></g></g><g fill="#ffffff" fill-opacity="1"><g transform="translate(292.385491, 284.885028)"><g><path d="M 1.609375 -10.625 L 2.8125 -10.625 L 2.8125 0 L 1.609375 0 Z M 1.609375 -10.625 "/></g></g></g><g fill="#ffffff" fill-opacity="1"><g transform="translate(300.31425, 284.885028)"><g><path d="M 1.5 -10.625 L 2.625 -10.625 L 9.3125 -2.109375 L 9.3125 -10.625 L 10.484375 -10.625 L 10.484375 0 L 9.53125 0 L 2.671875 -8.703125 L 2.671875 0 L 1.5 0 Z M 1.5 -10.625 "/></g></g></g><path stroke-linecap="butt" transform="matrix(1.043708, 0, 0, 1.043708, 137.965894, 105.32617)" fill="none" stroke-linejoin="miter" d="M -0.00100611 2.000457 L 36.134431 2.000457 " stroke="#c2a965" stroke-width="4" stroke-opacity="1" stroke-miterlimit="4"/><path stroke-linecap="butt" transform="matrix(1.043708, 0, 0, 1.043708, 137.965894, 122.025506)" fill="none" stroke-linejoin="miter" d="M -0.00100611 2.000345 L 96.919064 2.000345 " stroke="#c2a965" stroke-width="4" stroke-opacity="1" stroke-miterlimit="4"/><path stroke-linecap="butt" transform="matrix(1.043708, 0, 0, 1.043708, 137.965894, 140.812241)" fill="none" stroke-linejoin="miter" d="M -0.00100611 1.998831 L 96.919064 1.998831 " stroke="#c2a965" stroke-width="4" stroke-opacity="1" stroke-miterlimit="4"/><path stroke-linecap="butt" transform="matrix(1.043708, 0, 0, 1.043708, 137.965894, 158.555277)" fill="none" stroke-linejoin="miter" d="M -0.00100611 2.001762 L 96.919064 2.001762 " stroke="#c2a965" stroke-width="4" stroke-opacity="1" stroke-miterlimit="4"/><path stroke-linecap="butt" transform="matrix(1.043708, 0, 0, 1.043708, 137.965894, 177.347566)" fill="none" stroke-linejoin="miter" d="M -0.00100611 1.99867 L 96.919064 1.99867 " stroke="#c2a965" stroke-width="4" stroke-opacity="1" stroke-miterlimit="4"/><path stroke-linecap="butt" transform="matrix(1.043708, 0, 0, 1.043708, 137.965894, 195.459186)" fill="none" stroke-linejoin="miter" d="M -0.00100611 2.000261 L 96.919064 2.000261 " stroke="#c2a965" stroke-width="4" stroke-opacity="1" stroke-miterlimit="4"/><path stroke-linecap="butt" transform="matrix(1.043708, 0, 0, 1.043708, 162.493031, 213.068468)" fill="none" stroke-linejoin="miter" d="M -0.000807821 2.000351 L 46.89105 2.000351 " stroke="#c2a965" stroke-width="4" stroke-opacity="1" stroke-miterlimit="4"/></svg>