<svg xmlns="http://www.w3.org/2000/svg" xmlns:xlink="http://www.w3.org/1999/xlink" width="500" zoomAndPan="magnify" viewBox="0 0 375 374.999991" height="500" preserveAspectRatio="xMidYMid meet" version="1.0"><defs><g/><clipPath id="63d7972c42"><path d="M 132.472656 95.347656 L 242.722656 95.347656 L 242.722656 228.847656 L 132.472656 228.847656 Z M 132.472656 95.347656 " clip-rule="nonzero"/></clipPath><clipPath id="9eeccf8da1"><path d="M 109 181 L 145 181 L 145 234 L 109 234 Z M 109 181 " clip-rule="nonzero"/></clipPath><clipPath id="e7dac40e13"><path d="M 82.699219 193.03125 L 111.261719 162.234375 L 164.050781 211.195312 L 135.492188 241.992188 Z M 82.699219 193.03125 " clip-rule="nonzero"/></clipPath><clipPath id="6e8a4db9c5"><path d="M 82.699219 193.03125 L 177.050781 91.296875 L 229.84375 140.257812 L 135.492188 241.992188 Z M 82.699219 193.03125 " clip-rule="nonzero"/></clipPath><clipPath id="2c8c4a8d71"><path d="M 107 165 L 115 165 L 115 181 L 107 181 Z M 107 165 " clip-rule="nonzero"/></clipPath><clipPath id="d00b82b39e"><path d="M 82.699219 193.03125 L 111.261719 162.234375 L 164.050781 211.195312 L 135.492188 241.992188 Z M 82.699219 193.03125 " clip-rule="nonzero"/></clipPath><clipPath id="a0ccd77d5f"><path d="M 82.699219 193.03125 L 177.050781 91.296875 L 229.84375 140.257812 L 135.492188 241.992188 Z M 82.699219 193.03125 " clip-rule="nonzero"/></clipPath><clipPath id="d4d3df7b05"><path d="M 113 176 L 121 176 L 121 191 L 113 191 Z M 113 176 " clip-rule="nonzero"/></clipPath><clipPath id="ad4fc59a6f"><path d="M 82.699219 193.03125 L 111.261719 162.234375 L 164.050781 211.195312 L 135.492188 241.992188 Z M 82.699219 193.03125 " clip-rule="nonzero"/></clipPath><clipPath id="3aac5107fe"><path d="M 82.699219 193.03125 L 177.050781 91.296875 L 229.84375 140.257812 L 135.492188 241.992188 Z M 82.699219 193.03125 " clip-rule="nonzero"/></clipPath><clipPath id="789b4eec1f"><path d="M 115 188 L 124 188 L 124 202 L 115 202 Z M 115 188 " clip-rule="nonzero"/></clipPath><clipPath id="be0361ae8c"><path d="M 82.699219 193.03125 L 111.261719 162.234375 L 164.050781 211.195312 L 135.492188 241.992188 Z M 82.699219 193.03125 " clip-rule="nonzero"/></clipPath><clipPath id="4673175645"><path d="M 82.699219 193.03125 L 177.050781 91.296875 L 229.84375 140.257812 L 135.492188 241.992188 Z M 82.699219 193.03125 " clip-rule="nonzero"/></clipPath><clipPath id="c7a6eb0e07"><path d="M 120 198 L 128 198 L 128 213 L 120 213 Z M 120 198 " clip-rule="nonzero"/></clipPath><clipPath id="bc2bb29764"><path d="M 82.699219 193.03125 L 111.261719 162.234375 L 164.050781 211.195312 L 135.492188 241.992188 Z M 82.699219 193.03125 " clip-rule="nonzero"/></clipPath><clipPath id="fe274a9c2f"><path d="M 82.699219 193.03125 L 177.050781 91.296875 L 229.84375 140.257812 L 135.492188 241.992188 Z M 82.699219 193.03125 " clip-rule="nonzero"/></clipPath><clipPath id="ae26aeb48e"><path d="M 128 207 L 136 207 L 136 223 L 128 223 Z M 128 207 " clip-rule="nonzero"/></clipPath><clipPath id="8e7be2750b"><path d="M 82.699219 193.03125 L 111.261719 162.234375 L 164.050781 211.195312 L 135.492188 241.992188 Z M 82.699219 193.03125 " clip-rule="nonzero"/></clipPath><clipPath id="d35c83da0b"><path d="M 82.699219 193.03125 L 177.050781 91.296875 L 229.84375 140.257812 L 135.492188 241.992188 Z M 82.699219 193.03125 " clip-rule="nonzero"/></clipPath><clipPath id="87569b7270"><path d="M 98 175 L 109 175 L 109 187 L 98 187 Z M 98 175 " clip-rule="nonzero"/></clipPath><clipPath id="9512e37cbb"><path d="M 82.699219 193.03125 L 111.261719 162.234375 L 164.050781 211.195312 L 135.492188 241.992188 Z M 82.699219 193.03125 " clip-rule="nonzero"/></clipPath><clipPath id="7a5bd131f3"><path d="M 82.699219 193.03125 L 177.050781 91.296875 L 229.84375 140.257812 L 135.492188 241.992188 Z M 82.699219 193.03125 " clip-rule="nonzero"/></clipPath><clipPath id="aac9977237"><path d="M 98 189 L 111 189 L 111 199 L 98 199 Z M 98 189 " clip-rule="nonzero"/></clipPath><clipPath id="d01b3fa286"><path d="M 82.699219 193.03125 L 111.261719 162.234375 L 164.050781 211.195312 L 135.492188 241.992188 Z M 82.699219 193.03125 " clip-rule="nonzero"/></clipPath><clipPath id="6944619da0"><path d="M 82.699219 193.03125 L 177.050781 91.296875 L 229.84375 140.257812 L 135.492188 241.992188 Z M 82.699219 193.03125 " clip-rule="nonzero"/></clipPath><clipPath id="40d03dc082"><path d="M 103 204 L 117 204 L 117 212 L 103 212 Z M 103 204 " clip-rule="nonzero"/></clipPath><clipPath id="907de5a3db"><path d="M 82.699219 193.03125 L 111.261719 162.234375 L 164.050781 211.195312 L 135.492188 241.992188 Z M 82.699219 193.03125 " clip-rule="nonzero"/></clipPath><clipPath id="5ac3a98689"><path d="M 82.699219 193.03125 L 177.050781 91.296875 L 229.84375 140.257812 L 135.492188 241.992188 Z M 82.699219 193.03125 " clip-rule="nonzero"/></clipPath><clipPath id="aca84bbb80"><path d="M 110 216 L 125 216 L 125 224 L 110 224 Z M 110 216 " clip-rule="nonzero"/></clipPath><clipPath id="87a763a689"><path d="M 82.699219 193.03125 L 111.261719 162.234375 L 164.050781 211.195312 L 135.492188 241.992188 Z M 82.699219 193.03125 " clip-rule="nonzero"/></clipPath><clipPath id="30c47efeac"><path d="M 82.699219 193.03125 L 177.050781 91.296875 L 229.84375 140.257812 L 135.492188 241.992188 Z M 82.699219 193.03125 " clip-rule="nonzero"/></clipPath><clipPath id="9d2d3bc696"><path d="M 67 241.792969 L 308 241.792969 L 308 267 L 67 267 Z M 67 241.792969 " clip-rule="nonzero"/></clipPath><clipPath id="61b3999b58"><path d="M 220 187 L 256 187 L 256 240 L 220 240 Z M 220 187 " clip-rule="nonzero"/></clipPath><clipPath id="739da2a871"><path d="M 254.304688 168.390625 L 282.839844 199.207031 L 230.011719 248.128906 L 201.476562 217.3125 Z M 254.304688 168.390625 " clip-rule="nonzero"/></clipPath><clipPath id="a11fd5a14c"><path d="M 282.617188 198.96875 L 188.34375 97.164062 L 135.515625 146.082031 L 229.789062 247.886719 Z M 282.617188 198.96875 " clip-rule="nonzero"/></clipPath><clipPath id="7ebacd2caa"><path d="M 251 171 L 258 171 L 258 187 L 251 187 Z M 251 171 " clip-rule="nonzero"/></clipPath><clipPath id="cc33ee783d"><path d="M 254.304688 168.390625 L 282.839844 199.207031 L 230.011719 248.128906 L 201.476562 217.3125 Z M 254.304688 168.390625 " clip-rule="nonzero"/></clipPath><clipPath id="6df88463f3"><path d="M 282.617188 198.96875 L 188.34375 97.164062 L 135.515625 146.082031 L 229.789062 247.886719 Z M 282.617188 198.96875 " clip-rule="nonzero"/></clipPath><clipPath id="9c43e3b702"><path d="M 245 182 L 253 182 L 253 196 L 245 196 Z M 245 182 " clip-rule="nonzero"/></clipPath><clipPath id="a5903e940d"><path d="M 254.304688 168.390625 L 282.839844 199.207031 L 230.011719 248.128906 L 201.476562 217.3125 Z M 254.304688 168.390625 " clip-rule="nonzero"/></clipPath><clipPath id="c952fd3593"><path d="M 282.617188 198.96875 L 188.34375 97.164062 L 135.515625 146.082031 L 229.789062 247.886719 Z M 282.617188 198.96875 " clip-rule="nonzero"/></clipPath><clipPath id="6429de5f11"><path d="M 242 194 L 250 194 L 250 208 L 242 208 Z M 242 194 " clip-rule="nonzero"/></clipPath><clipPath id="b7a6c442d0"><path d="M 254.304688 168.390625 L 282.839844 199.207031 L 230.011719 248.128906 L 201.476562 217.3125 Z M 254.304688 168.390625 " clip-rule="nonzero"/></clipPath><clipPath id="9563012857"><path d="M 282.617188 198.96875 L 188.34375 97.164062 L 135.515625 146.082031 L 229.789062 247.886719 Z M 282.617188 198.96875 " clip-rule="nonzero"/></clipPath><clipPath id="46d71d6789"><path d="M 237 204 L 245 204 L 245 219 L 237 219 Z M 237 204 " clip-rule="nonzero"/></clipPath><clipPath id="6af1d1e232"><path d="M 254.304688 168.390625 L 282.839844 199.207031 L 230.011719 248.128906 L 201.476562 217.3125 Z M 254.304688 168.390625 " clip-rule="nonzero"/></clipPath><clipPath id="468c6c1f24"><path d="M 282.617188 198.96875 L 188.34375 97.164062 L 135.515625 146.082031 L 229.789062 247.886719 Z M 282.617188 198.96875 " clip-rule="nonzero"/></clipPath><clipPath id="71f3f902ce"><path d="M 230 213 L 237 213 L 237 229 L 230 229 Z M 230 213 " clip-rule="nonzero"/></clipPath><clipPath id="2f1b6e1caa"><path d="M 254.304688 168.390625 L 282.839844 199.207031 L 230.011719 248.128906 L 201.476562 217.3125 Z M 254.304688 168.390625 " clip-rule="nonzero"/></clipPath><clipPath id="8a83032cdd"><path d="M 282.617188 198.96875 L 188.34375 97.164062 L 135.515625 146.082031 L 229.789062 247.886719 Z M 282.617188 198.96875 " clip-rule="nonzero"/></clipPath><clipPath id="95b67b6579"><path d="M 256 181 L 267 181 L 267 193 L 256 193 Z M 256 181 " clip-rule="nonzero"/></clipPath><clipPath id="3cf9d625c8"><path d="M 254.304688 168.390625 L 282.839844 199.207031 L 230.011719 248.128906 L 201.476562 217.3125 Z M 254.304688 168.390625 " clip-rule="nonzero"/></clipPath><clipPath id="6069291a2a"><path d="M 282.617188 198.96875 L 188.34375 97.164062 L 135.515625 146.082031 L 229.789062 247.886719 Z M 282.617188 198.96875 " clip-rule="nonzero"/></clipPath><clipPath id="14185790a5"><path d="M 254 195 L 267 195 L 267 205 L 254 205 Z M 254 195 " clip-rule="nonzero"/></clipPath><clipPath id="3c0c46130e"><path d="M 254.304688 168.390625 L 282.839844 199.207031 L 230.011719 248.128906 L 201.476562 217.3125 Z M 254.304688 168.390625 " clip-rule="nonzero"/></clipPath><clipPath id="9456af1379"><path d="M 282.617188 198.96875 L 188.34375 97.164062 L 135.515625 146.082031 L 229.789062 247.886719 Z M 282.617188 198.96875 " clip-rule="nonzero"/></clipPath><clipPath id="28cf00da22"><path d="M 248 210 L 263 210 L 263 218 L 248 218 Z M 248 210 " clip-rule="nonzero"/></clipPath><clipPath id="2b2992940a"><path d="M 254.304688 168.390625 L 282.839844 199.207031 L 230.011719 248.128906 L 201.476562 217.3125 Z M 254.304688 168.390625 " clip-rule="nonzero"/></clipPath><clipPath id="32f924981f"><path d="M 282.617188 198.96875 L 188.34375 97.164062 L 135.515625 146.082031 L 229.789062 247.886719 Z M 282.617188 198.96875 " clip-rule="nonzero"/></clipPath><clipPath id="625a93de74"><path d="M 240 222 L 255 222 L 255 230 L 240 230 Z M 240 222 " clip-rule="nonzero"/></clipPath><clipPath id="ddb852baf3"><path d="M 254.304688 168.390625 L 282.839844 199.207031 L 230.011719 248.128906 L 201.476562 217.3125 Z M 254.304688 168.390625 " clip-rule="nonzero"/></clipPath><clipPath id="68373656d2"><path d="M 282.617188 198.96875 L 188.34375 97.164062 L 135.515625 146.082031 L 229.789062 247.886719 Z M 282.617188 198.96875 " clip-rule="nonzero"/></clipPath><clipPath id="8a9dac5fc3"><path d="M 159 59 L 216 59 L 216 91.269531 L 159 91.269531 Z M 159 59 " clip-rule="nonzero"/></clipPath><clipPath id="df26ebda36"><path d="M 155.683594 53.019531 L 219.433594 53.019531 L 219.433594 74 L 155.683594 74 Z M 155.683594 53.019531 " clip-rule="nonzero"/></clipPath></defs><rect x="-37.5" width="450" fill="#ffffff" y="-37.499999" height="449.999989" fill-opacity="1"/><rect x="-37.5" width="450" fill="#000000" y="-37.499999" height="449.999989" fill-opacity="1"/><g clip-path="url(#63d7972c42)"><path fill="#c2a965" d="M 187.574219 228.542969 L 186.519531 227.597656 C 183.476562 225.773438 159.730469 211.351562 147.660156 199.421875 C 147.382812 199.148438 147.078125 198.855469 146.757812 198.542969 C 141.773438 193.738281 132.492188 184.789062 132.492188 164.492188 L 132.492188 109.910156 L 132.496094 109.859375 C 132.507812 109.660156 132.527344 109.464844 132.542969 109.273438 L 132.640625 108.195312 L 133.59375 107.824219 C 156.050781 99.078125 172.34375 95.347656 188.066406 95.347656 C 203.929688 95.347656 219.886719 99.082031 241.433594 107.835938 L 242.359375 108.210938 L 242.457031 109.253906 C 242.476562 109.460938 242.496094 109.667969 242.507812 109.886719 L 242.507812 164.492188 C 242.507812 184.785156 233.230469 193.734375 228.25 198.542969 C 227.925781 198.855469 227.621094 199.148438 227.34375 199.421875 C 215.347656 211.277344 191.699219 225.664062 188.53125 227.570312 Z M 135.789062 110.507812 L 135.789062 164.492188 C 135.789062 183.386719 144.414062 191.703125 149.042969 196.171875 C 149.378906 196.492188 149.6875 196.792969 149.976562 197.078125 C 161.097656 208.070312 182.558594 221.339844 187.503906 224.339844 C 192.421875 221.351562 213.929688 208.046875 225.027344 197.078125 C 225.316406 196.792969 225.625 196.492188 225.960938 196.171875 C 230.589844 191.703125 239.210938 183.386719 239.210938 164.492188 L 239.210938 110.492188 C 218.582031 102.191406 203.238281 98.644531 188.066406 98.644531 C 173.011719 98.644531 157.328125 102.195312 135.789062 110.507812 Z M 135.789062 110.507812 " fill-opacity="1" fill-rule="nonzero"/></g><path fill="#c2a965" d="M 187.5 221.058594 L 187.242188 220.898438 C 179.910156 216.378906 161.789062 204.8125 151.945312 195.085938 C 151.652344 194.792969 151.332031 194.484375 150.988281 194.15625 C 146.351562 189.683594 138.59375 182.195312 138.59375 164.492188 L 138.59375 112.4375 L 138.910156 112.316406 C 159.070312 104.695312 173.769531 101.445312 188.066406 101.445312 C 202.453125 101.445312 216.816406 104.679688 236.09375 112.265625 L 236.410156 112.390625 L 236.410156 164.492188 C 236.410156 182.195312 228.648438 189.679688 224.015625 194.15625 C 223.671875 194.484375 223.351562 194.792969 223.058594 195.082031 C 213.242188 204.785156 195.105469 216.367188 187.761719 220.898438 Z M 139.582031 113.121094 L 139.582031 164.492188 C 139.582031 181.777344 147.152344 189.082031 151.675781 193.441406 C 152.019531 193.773438 152.34375 194.085938 152.640625 194.378906 C 162.296875 203.925781 180.035156 215.285156 187.5 219.894531 C 194.976562 215.277344 212.734375 203.898438 222.363281 194.378906 C 222.660156 194.085938 222.984375 193.773438 223.328125 193.441406 C 227.851562 189.078125 235.421875 181.773438 235.421875 164.492188 L 235.421875 113.0625 C 216.417969 105.613281 202.242188 102.433594 188.066406 102.433594 C 173.972656 102.433594 159.457031 105.628906 139.582031 113.121094 Z M 139.582031 113.121094 " fill-opacity="1" fill-rule="nonzero"/><g clip-path="url(#9eeccf8da1)"><g clip-path="url(#e7dac40e13)"><g clip-path="url(#6e8a4db9c5)"><path fill="#c2a965" d="M 144.707031 231.597656 C 139.128906 229.167969 133.863281 225.785156 129.160156 221.421875 C 119.367188 212.339844 113.289062 200.308594 111.777344 187.175781 C 111.613281 185.742188 110.953125 181.824219 110.386719 181.84375 C 109.820312 181.867188 109.558594 185.71875 109.710938 187.105469 C 111.21875 200.839844 117.535156 213.433594 127.769531 222.921875 C 132.460938 227.273438 137.695312 230.691406 143.230469 233.1875 L 144.707031 231.597656 " fill-opacity="1" fill-rule="nonzero"/></g></g></g><g clip-path="url(#2c8c4a8d71)"><g clip-path="url(#d00b82b39e)"><g clip-path="url(#a0ccd77d5f)"><path fill="#c2a965" d="M 111.890625 165.953125 C 111.890625 165.953125 109.667969 168.421875 108.34375 171.703125 C 106.765625 175.585938 108.71875 177.574219 110.195312 180.4375 C 112.292969 177.992188 114.65625 176.511719 114.019531 172.367188 C 113.484375 168.871094 111.890625 165.953125 111.890625 165.953125 " fill-opacity="1" fill-rule="nonzero"/></g></g></g><g clip-path="url(#d4d3df7b05)"><g clip-path="url(#ad4fc59a6f)"><g clip-path="url(#3aac5107fe)"><path fill="#c2a965" d="M 119.570312 176.445312 C 119.570312 176.445312 116.808594 178.292969 114.714844 181.144531 C 112.230469 184.523438 113.636719 186.929688 114.363281 190.070312 C 117.003906 188.210938 119.652344 187.355469 120.054688 183.183594 C 120.394531 179.660156 119.570312 176.445312 119.570312 176.445312 " fill-opacity="1" fill-rule="nonzero"/></g></g></g><g clip-path="url(#789b4eec1f)"><g clip-path="url(#be0361ae8c)"><g clip-path="url(#4673175645)"><path fill="#c2a965" d="M 122.777344 188.648438 C 122.777344 188.648438 119.894531 190.292969 117.601562 192.988281 C 114.882812 196.179688 116.113281 198.679688 116.617188 201.867188 C 119.378906 200.203125 122.082031 199.539062 122.78125 195.40625 C 123.375 191.914062 122.777344 188.648438 122.777344 188.648438 " fill-opacity="1" fill-rule="nonzero"/></g></g></g><g clip-path="url(#c7a6eb0e07)"><g clip-path="url(#bc2bb29764)"><g clip-path="url(#fe274a9c2f)"><path fill="#c2a965" d="M 126.464844 198.546875 C 126.464844 198.546875 123.816406 200.554688 121.890625 203.523438 C 119.609375 207.042969 121.152344 209.359375 122.0625 212.453125 C 124.589844 210.445312 127.183594 209.4375 127.34375 205.25 C 127.476562 201.710938 126.464844 198.546875 126.464844 198.546875 " fill-opacity="1" fill-rule="nonzero"/></g></g></g><g clip-path="url(#ae26aeb48e)"><g clip-path="url(#8e7be2750b)"><g clip-path="url(#d35c83da0b)"><path fill="#c2a965" d="M 133.273438 207.847656 C 133.273438 207.847656 130.894531 210.167969 129.355469 213.355469 C 127.53125 217.125 129.347656 219.238281 130.636719 222.195312 C 132.894531 219.886719 135.34375 218.5625 134.980469 214.390625 C 134.671875 210.863281 133.273438 207.847656 133.273438 207.847656 " fill-opacity="1" fill-rule="nonzero"/></g></g></g><g clip-path="url(#87569b7270)"><g clip-path="url(#9512e37cbb)"><g clip-path="url(#7a5bd131f3)"><path fill="#c2a965" d="M 98.519531 175.988281 C 98.519531 175.988281 99.058594 179.265625 100.792969 182.347656 C 102.84375 186.003906 105.613281 185.71875 108.777344 186.355469 C 108.175781 183.1875 108.488281 180.417969 104.855469 178.332031 C 101.789062 176.566406 98.519531 175.988281 98.519531 175.988281 " fill-opacity="1" fill-rule="nonzero"/></g></g></g><g clip-path="url(#aac9977237)"><g clip-path="url(#d01b3fa286)"><g clip-path="url(#6944619da0)"><path fill="#c2a965" d="M 98.78125 189.789062 C 98.78125 189.789062 99.894531 192.917969 102.140625 195.652344 C 104.804688 198.886719 107.480469 198.117188 110.707031 198.1875 C 109.554688 195.171875 109.378906 192.394531 105.433594 190.976562 C 102.105469 189.78125 98.78125 189.789062 98.78125 189.789062 " fill-opacity="1" fill-rule="nonzero"/></g></g></g><g clip-path="url(#40d03dc082)"><g clip-path="url(#907de5a3db)"><g clip-path="url(#5ac3a98689)"><path fill="#c2a965" d="M 103.210938 204.632812 C 103.210938 204.632812 104.9375 207.472656 107.699219 209.6875 C 110.964844 212.308594 113.429688 211.011719 116.601562 210.417969 C 114.859375 207.703125 114.117188 205.019531 109.964844 204.4375 C 106.460938 203.945312 103.210938 204.632812 103.210938 204.632812 " fill-opacity="1" fill-rule="nonzero"/></g></g></g><g clip-path="url(#aca84bbb80)"><g clip-path="url(#87a763a689)"><g clip-path="url(#30c47efeac)"><path fill="#c2a965" d="M 110.464844 218.445312 C 110.464844 218.445312 112.746094 220.863281 115.90625 222.453125 C 119.652344 224.335938 121.789062 222.550781 124.765625 221.308594 C 122.496094 219.015625 121.207031 216.546875 117.027344 216.84375 C 113.496094 217.097656 110.464844 218.445312 110.464844 218.445312 " fill-opacity="1" fill-rule="nonzero"/></g></g></g><g clip-path="url(#9d2d3bc696)"><path fill="#c2a965" d="M 187.855469 249.679688 C 187.339844 248.15625 187.414062 246.597656 187.890625 245.242188 C 188.359375 243.898438 189.335938 242.683594 190.648438 242.15625 C 191.296875 241.890625 191.976562 241.804688 192.589844 241.847656 C 192.746094 241.863281 192.890625 241.890625 193.039062 241.914062 L 193.257812 241.949219 L 193.523438 242.023438 C 193.863281 242.140625 194.160156 242.316406 194.40625 242.523438 C 195.359375 243.363281 195.640625 244.542969 195.359375 245.511719 C 195.214844 246.015625 194.875 246.414062 194.535156 246.628906 C 194.199219 246.859375 193.851562 246.96875 193.535156 247.007812 C 192.898438 247.089844 192.398438 246.847656 192.171875 246.617188 C 191.945312 246.371094 191.9375 246.183594 191.992188 246.144531 C 192.0625 246.085938 192.203125 246.15625 192.425781 246.207031 C 192.644531 246.25 192.964844 246.265625 193.324219 246.105469 C 193.675781 245.957031 194.0625 245.605469 194.066406 245.210938 C 194.121094 244.777344 193.847656 244.144531 193.375 243.847656 C 193.257812 243.777344 193.140625 243.730469 193.027344 243.707031 L 192.945312 243.699219 L 192.804688 243.695312 L 192.519531 243.679688 C 192.144531 243.695312 191.785156 243.78125 191.457031 243.953125 C 190.792969 244.277344 190.238281 245.011719 189.96875 245.941406 C 189.691406 246.855469 189.691406 247.949219 190.046875 248.894531 C 190.398438 249.847656 191.105469 250.605469 192.105469 250.988281 C 192.609375 251.179688 193.164062 251.273438 193.730469 251.316406 C 194.289062 251.328125 194.929688 251.308594 195.433594 251.214844 C 196.472656 251.027344 197.4375 250.492188 198.296875 249.832031 C 200.035156 248.5 201.285156 246.730469 202.664062 245.414062 C 203.996094 244.078125 205.375 243.226562 206.40625 242.886719 C 207.445312 242.542969 208.058594 242.617188 208.089844 242.761719 C 208.132812 242.933594 207.609375 243.171875 206.816406 243.714844 C 206.019531 244.261719 204.988281 245.171875 203.902344 246.546875 C 202.792969 247.867188 201.679688 249.800781 199.679688 251.527344 C 198.691406 252.375 197.425781 253.175781 195.886719 253.496094 C 195.109375 253.652344 194.414062 253.683594 193.625 253.675781 C 192.847656 253.632812 192.039062 253.507812 191.246094 253.203125 C 189.636719 252.613281 188.34375 251.199219 187.855469 249.679688 Z M 166.910156 242.761719 C 166.941406 242.617188 167.554688 242.542969 168.59375 242.886719 C 169.625 243.226562 171.003906 244.078125 172.335938 245.414062 C 173.714844 246.730469 174.964844 248.5 176.703125 249.832031 C 177.5625 250.492188 178.527344 251.027344 179.566406 251.214844 C 180.070312 251.308594 180.710938 251.328125 181.269531 251.316406 C 181.835938 251.273438 182.390625 251.179688 182.894531 250.988281 C 183.894531 250.605469 184.601562 249.847656 184.953125 248.894531 C 185.308594 247.949219 185.308594 246.855469 185.03125 245.941406 C 184.761719 245.011719 184.207031 244.277344 183.542969 243.953125 C 183.214844 243.78125 182.855469 243.695312 182.480469 243.679688 L 182.195312 243.695312 L 182.054688 243.699219 L 181.972656 243.707031 C 181.859375 243.730469 181.742188 243.777344 181.625 243.847656 C 181.152344 244.144531 180.875 244.777344 180.933594 245.210938 C 180.9375 245.605469 181.324219 245.957031 181.675781 246.105469 C 182.035156 246.265625 182.355469 246.25 182.574219 246.207031 C 182.796875 246.15625 182.9375 246.085938 183.007812 246.144531 C 183.0625 246.183594 183.054688 246.371094 182.828125 246.617188 C 182.601562 246.847656 182.101562 247.089844 181.464844 247.007812 C 181.148438 246.96875 180.800781 246.859375 180.460938 246.628906 C 180.125 246.414062 179.785156 246.015625 179.640625 245.511719 C 179.359375 244.542969 179.640625 243.363281 180.59375 242.523438 C 180.839844 242.316406 181.136719 242.140625 181.476562 242.023438 L 181.742188 241.949219 L 181.960938 241.914062 C 182.109375 241.890625 182.253906 241.863281 182.410156 241.847656 C 183.023438 241.804688 183.703125 241.890625 184.351562 242.15625 C 185.664062 242.683594 186.640625 243.898438 187.109375 245.242188 C 187.585938 246.597656 187.660156 248.15625 187.144531 249.679688 C 186.65625 251.199219 185.363281 252.613281 183.753906 253.203125 C 182.960938 253.507812 182.152344 253.632812 181.375 253.675781 C 180.585938 253.683594 179.890625 253.652344 179.113281 253.496094 C 177.574219 253.175781 176.308594 252.375 175.320312 251.527344 C 173.320312 249.800781 172.207031 247.867188 171.097656 246.546875 C 170.011719 245.171875 168.980469 244.261719 168.183594 243.714844 C 167.390625 243.171875 166.867188 242.933594 166.910156 242.761719 Z M 208.296875 255.234375 C 207.496094 255.710938 206.609375 256.386719 205.695312 257.230469 C 204.78125 258.066406 203.835938 259.082031 202.769531 260.09375 C 201.699219 261.105469 200.585938 262.011719 199.421875 262.621094 C 198.257812 263.230469 197.089844 263.535156 196.097656 263.597656 C 195.101562 263.65625 194.296875 263.480469 193.785156 263.269531 C 193.65625 263.214844 193.546875 263.164062 193.453125 263.121094 C 193.355469 263.070312 193.285156 263.019531 193.222656 262.980469 C 193.101562 262.898438 193.046875 262.84375 193.058594 262.820312 C 193.070312 262.792969 193.148438 262.800781 193.285156 262.832031 C 193.355469 262.847656 193.4375 262.871094 193.535156 262.894531 C 193.636719 262.914062 193.75 262.941406 193.875 262.96875 C 194.382812 263.078125 195.132812 263.152344 196.042969 263.027344 C 196.949219 262.902344 198.007812 262.566406 199.066406 261.96875 C 200.121094 261.375 201.167969 260.496094 202.214844 259.507812 C 203.257812 258.511719 204.230469 257.511719 205.203125 256.675781 C 206.171875 255.835938 207.144531 255.171875 208.023438 254.734375 C 208.902344 254.296875 209.679688 254.078125 210.21875 254.003906 C 210.355469 253.984375 210.476562 253.972656 210.582031 253.964844 C 210.6875 253.957031 210.777344 253.960938 210.847656 253.960938 C 210.992188 253.964844 211.066406 253.980469 211.070312 254.007812 C 211.09375 254.140625 209.898438 254.269531 208.296875 255.234375 Z M 181.777344 262.980469 C 181.714844 263.019531 181.644531 263.070312 181.546875 263.121094 C 181.453125 263.164062 181.34375 263.214844 181.214844 263.269531 C 180.703125 263.480469 179.898438 263.65625 178.902344 263.597656 C 177.90625 263.535156 176.742188 263.230469 175.578125 262.621094 C 174.410156 262.011719 173.300781 261.105469 172.230469 260.09375 C 171.164062 259.082031 170.21875 258.066406 169.300781 257.230469 C 168.390625 256.386719 167.503906 255.710938 166.703125 255.234375 C 165.101562 254.269531 163.90625 254.140625 163.929688 254.007812 C 163.933594 253.980469 164.007812 253.964844 164.152344 253.960938 C 164.222656 253.960938 164.3125 253.957031 164.417969 253.964844 C 164.523438 253.972656 164.644531 253.984375 164.78125 254.003906 C 165.320312 254.078125 166.097656 254.296875 166.976562 254.734375 C 167.855469 255.171875 168.828125 255.835938 169.796875 256.675781 C 170.769531 257.511719 171.742188 258.511719 172.785156 259.507812 C 173.832031 260.496094 174.878906 261.375 175.933594 261.96875 C 176.992188 262.566406 178.050781 262.902344 178.957031 263.027344 C 179.867188 263.152344 180.617188 263.078125 181.125 262.96875 C 181.25 262.941406 181.363281 262.914062 181.464844 262.894531 C 181.5625 262.871094 181.644531 262.847656 181.710938 262.832031 C 181.851562 262.800781 181.929688 262.792969 181.941406 262.820312 C 181.953125 262.84375 181.898438 262.898438 181.777344 262.980469 Z M 307.984375 258.292969 L 237.601562 257.320312 C 237.085938 256.152344 235.8125 255.132812 233.390625 254.824219 C 234.621094 255.222656 235.925781 255.777344 236.527344 256.917969 C 236.59375 257.042969 236.640625 257.175781 236.6875 257.308594 L 234.859375 257.285156 C 234.476562 256.464844 233.65625 255.886719 232.691406 255.886719 C 231.363281 255.886719 230.285156 256.964844 230.285156 258.292969 C 230.285156 259.621094 231.363281 260.699219 232.691406 260.699219 C 233.65625 260.699219 234.476562 260.125 234.859375 259.300781 L 236.648438 259.277344 C 236.472656 259.785156 236.191406 260.253906 235.8125 260.628906 C 234.855469 261.582031 233.433594 261.960938 232.089844 261.890625 C 230.140625 261.789062 228.382812 260.839844 226.742188 259.738281 C 226.335938 259.46875 225.9375 259.1875 225.546875 258.914062 C 225.507812 258.886719 225.476562 258.863281 225.441406 258.835938 C 225.09375 258.589844 224.671875 258.285156 224.214844 257.953125 C 224.21875 257.953125 224.21875 257.953125 224.222656 257.949219 C 224.257812 257.902344 224.117188 257.730469 223.894531 257.414062 C 223.679688 257.09375 223.386719 256.617188 223.199219 255.96875 C 223.105469 255.648438 223.035156 255.289062 223.027344 254.902344 C 223.015625 254.515625 223.050781 254.097656 223.175781 253.703125 C 223.300781 253.308594 223.523438 252.949219 223.863281 252.746094 C 224.203125 252.539062 224.667969 252.464844 225.078125 252.578125 C 225.285156 252.628906 225.464844 252.734375 225.609375 252.867188 C 225.757812 253 225.871094 253.175781 225.949219 253.359375 C 226.105469 253.734375 226.078125 254.148438 225.898438 254.429688 C 225.734375 254.699219 225.378906 254.851562 225.050781 254.855469 C 224.722656 254.863281 224.4375 254.730469 224.292969 254.523438 C 224.140625 254.316406 224.109375 254.03125 224.179688 253.84375 C 224.195312 253.796875 224.214844 253.75 224.242188 253.710938 C 224.265625 253.675781 224.296875 253.640625 224.328125 253.613281 C 224.398438 253.554688 224.476562 253.515625 224.554688 253.492188 C 224.710938 253.445312 224.84375 253.464844 224.929688 253.492188 C 225.023438 253.515625 225.074219 253.546875 225.097656 253.523438 C 225.117188 253.507812 225.105469 253.441406 225.019531 253.351562 C 224.929688 253.265625 224.753906 253.171875 224.511719 253.179688 C 224.390625 253.1875 224.253906 253.214844 224.117188 253.292969 C 224.046875 253.328125 223.984375 253.378906 223.921875 253.441406 C 223.863281 253.503906 223.808594 253.574219 223.769531 253.65625 C 223.597656 253.976562 223.582031 254.421875 223.808594 254.824219 C 223.917969 255.027344 224.101562 255.203125 224.316406 255.324219 C 224.53125 255.441406 224.777344 255.511719 225.035156 255.527344 C 225.292969 255.539062 225.558594 255.5 225.820312 255.390625 C 226.078125 255.285156 226.335938 255.109375 226.515625 254.847656 C 226.867188 254.339844 226.910156 253.652344 226.683594 253.074219 C 226.574219 252.78125 226.402344 252.503906 226.160156 252.277344 C 225.914062 252.046875 225.609375 251.882812 225.289062 251.796875 C 224.644531 251.625 223.972656 251.742188 223.441406 252.078125 C 223.179688 252.25 222.949219 252.480469 222.796875 252.726562 C 222.636719 252.976562 222.53125 253.238281 222.460938 253.492188 C 222.203125 254.519531 222.375 255.460938 222.660156 256.160156 C 222.871094 256.679688 223.148438 257.074219 223.398438 257.355469 C 222.421875 256.640625 221.402344 255.898438 220.703125 255.398438 C 219.464844 254.496094 218.324219 253.769531 217.265625 253.195312 C 217.191406 253.160156 217.121094 253.125 217.050781 253.085938 C 217.121094 253.125 217.191406 253.160156 217.265625 253.195312 C 214.9375 250.429688 216.457031 248.78125 217.371094 248.839844 C 217.601562 249.207031 218.003906 249.480469 218.441406 249.503906 C 219.195312 249.546875 220.046875 248.835938 220.203125 248.101562 C 220.652344 246.019531 218.421875 244.894531 216.273438 246.292969 C 215.117188 247.046875 213.304688 250.054688 216.730469 252.917969 L 216.726562 252.917969 C 211.46875 250.257812 208.277344 251.441406 205.261719 253.089844 C 202.878906 254.394531 200.988281 256.472656 198.601562 257.777344 C 196.535156 258.910156 193.492188 259.019531 191.550781 257.691406 C 192.070312 258.902344 193.027344 259.929688 194.210938 260.515625 C 193.75 260.71875 193.242188 260.820312 192.738281 260.867188 C 190.90625 261.035156 189.023438 260.550781 187.5 259.515625 C 185.976562 260.550781 184.09375 261.035156 182.261719 260.867188 C 181.757812 260.820312 181.25 260.71875 180.789062 260.515625 C 181.972656 259.929688 182.929688 258.902344 183.449219 257.691406 C 181.507812 259.019531 178.464844 258.910156 176.394531 257.777344 C 174.011719 256.472656 172.121094 254.394531 169.738281 253.089844 C 166.722656 251.441406 163.53125 250.257812 158.273438 252.917969 L 158.269531 252.917969 C 161.691406 250.054688 159.882812 247.046875 158.722656 246.292969 C 156.578125 244.894531 154.347656 246.019531 154.796875 248.101562 C 154.953125 248.835938 155.800781 249.546875 156.558594 249.503906 C 156.996094 249.480469 157.398438 249.207031 157.628906 248.839844 C 158.542969 248.78125 160.0625 250.429688 157.734375 253.195312 C 157.808594 253.160156 157.878906 253.125 157.949219 253.085938 C 157.878906 253.125 157.808594 253.160156 157.734375 253.195312 C 156.675781 253.769531 155.535156 254.496094 154.296875 255.398438 C 153.597656 255.898438 152.578125 256.640625 151.601562 257.355469 C 151.851562 257.074219 152.128906 256.679688 152.339844 256.160156 C 152.625 255.460938 152.796875 254.519531 152.539062 253.492188 C 152.464844 253.238281 152.363281 252.976562 152.203125 252.726562 C 152.046875 252.480469 151.820312 252.25 151.558594 252.078125 C 151.027344 251.742188 150.355469 251.625 149.710938 251.796875 C 149.386719 251.882812 149.085938 252.046875 148.839844 252.277344 C 148.597656 252.503906 148.425781 252.78125 148.316406 253.074219 C 148.085938 253.652344 148.132812 254.339844 148.484375 254.847656 C 148.664062 255.109375 148.921875 255.285156 149.179688 255.390625 C 149.4375 255.5 149.707031 255.539062 149.964844 255.527344 C 150.222656 255.511719 150.46875 255.441406 150.683594 255.324219 C 150.898438 255.203125 151.082031 255.027344 151.191406 254.824219 C 151.417969 254.421875 151.402344 253.976562 151.230469 253.65625 C 151.191406 253.574219 151.136719 253.503906 151.078125 253.441406 C 151.015625 253.378906 150.953125 253.328125 150.882812 253.292969 C 150.746094 253.214844 150.609375 253.1875 150.488281 253.179688 C 150.246094 253.171875 150.066406 253.265625 149.980469 253.351562 C 149.894531 253.441406 149.882812 253.507812 149.902344 253.523438 C 149.925781 253.546875 149.976562 253.515625 150.066406 253.492188 C 150.15625 253.464844 150.289062 253.445312 150.445312 253.492188 C 150.523438 253.515625 150.601562 253.554688 150.671875 253.613281 C 150.703125 253.640625 150.734375 253.675781 150.757812 253.710938 C 150.785156 253.75 150.804688 253.796875 150.820312 253.84375 C 150.890625 254.03125 150.859375 254.316406 150.707031 254.523438 C 150.5625 254.730469 150.273438 254.863281 149.949219 254.855469 C 149.621094 254.851562 149.265625 254.699219 149.101562 254.429688 C 148.921875 254.148438 148.894531 253.734375 149.050781 253.359375 C 149.128906 253.175781 149.242188 253 149.390625 252.867188 C 149.535156 252.734375 149.714844 252.628906 149.921875 252.578125 C 150.332031 252.464844 150.792969 252.539062 151.136719 252.746094 C 151.472656 252.949219 151.699219 253.308594 151.824219 253.703125 C 151.949219 254.097656 151.984375 254.515625 151.972656 254.902344 C 151.964844 255.289062 151.894531 255.648438 151.800781 255.96875 C 151.613281 256.617188 151.320312 257.09375 151.105469 257.414062 C 150.882812 257.730469 150.742188 257.902344 150.777344 257.949219 C 150.78125 257.953125 150.78125 257.953125 150.785156 257.953125 C 150.328125 258.285156 149.90625 258.589844 149.558594 258.835938 C 149.523438 258.863281 149.492188 258.886719 149.453125 258.914062 C 149.0625 259.1875 148.664062 259.46875 148.257812 259.738281 C 146.617188 260.839844 144.859375 261.789062 142.910156 261.890625 C 141.566406 261.960938 140.144531 261.582031 139.1875 260.628906 C 138.808594 260.253906 138.527344 259.785156 138.351562 259.277344 L 140.140625 259.300781 C 140.523438 260.125 141.34375 260.699219 142.308594 260.699219 C 143.636719 260.699219 144.714844 259.621094 144.714844 258.292969 C 144.714844 256.964844 143.636719 255.886719 142.308594 255.886719 C 141.34375 255.886719 140.523438 256.464844 140.140625 257.285156 L 138.3125 257.308594 C 138.359375 257.175781 138.40625 257.042969 138.472656 256.917969 C 139.074219 255.777344 140.378906 255.222656 141.609375 254.824219 C 139.1875 255.132812 137.914062 256.152344 137.394531 257.320312 L 67.015625 258.292969 L 137.1875 259.261719 C 137.21875 259.441406 137.246094 259.625 137.308594 259.796875 C 137.96875 261.679688 140.015625 262.808594 142.007812 262.9375 C 144 263.0625 145.949219 262.371094 147.785156 261.585938 C 148.746094 261.175781 149.699219 260.738281 150.632812 260.265625 C 151.0625 260.050781 151.492188 259.828125 151.917969 259.597656 C 152.636719 259.214844 153.347656 258.8125 154.042969 258.394531 C 154.289062 258.246094 154.535156 258.09375 154.78125 257.945312 C 154.90625 257.980469 155.148438 258.007812 155.5 258.03125 C 156.019531 258.066406 156.773438 258.082031 157.683594 258.148438 C 158.136719 258.1875 158.636719 258.238281 159.128906 258.355469 C 159.378906 258.417969 159.597656 258.496094 159.804688 258.625 C 160.019531 258.757812 160.21875 258.929688 160.398438 259.128906 C 160.753906 259.53125 161.007812 260.066406 161.085938 260.640625 C 161.167969 261.214844 161.050781 261.816406 160.71875 262.328125 C 160.394531 262.835938 159.882812 263.199219 159.359375 263.289062 C 158.835938 263.371094 158.269531 263.203125 157.90625 262.875 C 157.527344 262.554688 157.378906 262.082031 157.4375 261.644531 C 157.492188 261.207031 157.746094 260.867188 158.085938 260.707031 C 158.421875 260.539062 158.796875 260.542969 159.0625 260.664062 C 159.332031 260.789062 159.511719 261.019531 159.609375 261.222656 C 159.804688 261.644531 159.703125 261.941406 159.769531 261.957031 C 159.792969 261.96875 159.855469 261.914062 159.910156 261.773438 C 159.960938 261.632812 159.996094 261.398438 159.921875 261.113281 C 159.855469 260.832031 159.675781 260.488281 159.292969 260.246094 C 158.914062 260.007812 158.363281 259.949219 157.847656 260.148438 C 157.585938 260.25 157.332031 260.421875 157.132812 260.664062 C 156.9375 260.910156 156.796875 261.207031 156.738281 261.53125 C 156.679688 261.851562 156.6875 262.199219 156.792969 262.539062 C 156.902344 262.882812 157.101562 263.203125 157.371094 263.453125 C 157.910156 263.960938 158.6875 264.226562 159.492188 264.117188 C 160.292969 263.992188 161 263.472656 161.4375 262.789062 C 161.886719 262.109375 162.039062 261.265625 161.914062 260.519531 C 161.796875 259.769531 161.453125 259.097656 160.980469 258.597656 C 160.742188 258.347656 160.472656 258.136719 160.183594 257.976562 C 159.890625 257.808594 159.558594 257.714844 159.277344 257.664062 C 158.703125 257.558594 158.179688 257.546875 157.707031 257.546875 C 156.761719 257.554688 156.007812 257.632812 155.488281 257.699219 C 155.332031 257.71875 155.199219 257.738281 155.085938 257.757812 C 156.324219 257.011719 157.589844 256.304688 158.988281 255.992188 C 160.949219 255.550781 162.863281 255.925781 164.640625 256.792969 C 165.394531 257.15625 166.121094 257.613281 166.820312 258.132812 C 166.824219 258.132812 166.824219 258.136719 166.828125 258.136719 C 168.414062 259.3125 169.832031 260.8125 171.003906 262.351562 C 172.097656 263.785156 173.167969 265.347656 174.785156 266.148438 C 176.652344 267.070312 178.941406 266.773438 180.804688 265.851562 C 182.671875 264.921875 184.730469 263.371094 187.5 259.515625 C 190.269531 263.371094 192.328125 264.921875 194.195312 265.851562 C 196.058594 266.773438 198.347656 267.070312 200.214844 266.148438 C 201.832031 265.347656 202.902344 263.785156 203.996094 262.351562 C 205.167969 260.8125 206.585938 259.3125 208.171875 258.136719 C 208.175781 258.136719 208.175781 258.132812 208.179688 258.132812 C 208.875 257.613281 209.605469 257.15625 210.359375 256.792969 C 212.136719 255.925781 214.054688 255.550781 216.011719 255.992188 C 217.410156 256.304688 218.675781 257.011719 219.914062 257.757812 C 219.800781 257.738281 219.664062 257.71875 219.507812 257.699219 C 218.992188 257.632812 218.238281 257.554688 217.292969 257.546875 C 216.820312 257.546875 216.296875 257.558594 215.722656 257.664062 C 215.441406 257.714844 215.109375 257.808594 214.816406 257.976562 C 214.527344 258.136719 214.257812 258.347656 214.019531 258.597656 C 213.542969 259.097656 213.199219 259.769531 213.085938 260.519531 C 212.960938 261.265625 213.113281 262.109375 213.5625 262.789062 C 214 263.472656 214.707031 263.992188 215.507812 264.117188 C 216.3125 264.226562 217.089844 263.960938 217.628906 263.453125 C 217.898438 263.203125 218.097656 262.882812 218.207031 262.539062 C 218.308594 262.199219 218.320312 261.851562 218.261719 261.53125 C 218.203125 261.207031 218.0625 260.910156 217.867188 260.664062 C 217.667969 260.421875 217.414062 260.25 217.152344 260.148438 C 216.636719 259.949219 216.085938 260.007812 215.707031 260.246094 C 215.324219 260.488281 215.144531 260.832031 215.078125 261.113281 C 215.003906 261.398438 215.039062 261.632812 215.089844 261.773438 C 215.144531 261.914062 215.207031 261.96875 215.230469 261.957031 C 215.296875 261.941406 215.195312 261.644531 215.390625 261.222656 C 215.488281 261.019531 215.667969 260.789062 215.9375 260.664062 C 216.203125 260.542969 216.578125 260.539062 216.914062 260.707031 C 217.253906 260.867188 217.507812 261.207031 217.5625 261.644531 C 217.621094 262.082031 217.472656 262.554688 217.09375 262.875 C 216.730469 263.203125 216.164062 263.371094 215.640625 263.289062 C 215.117188 263.199219 214.605469 262.835938 214.28125 262.328125 C 213.949219 261.816406 213.832031 261.214844 213.914062 260.640625 C 213.992188 260.066406 214.246094 259.53125 214.601562 259.128906 C 214.78125 258.929688 214.980469 258.757812 215.195312 258.625 C 215.402344 258.496094 215.621094 258.417969 215.871094 258.355469 C 216.363281 258.238281 216.863281 258.1875 217.316406 258.148438 C 218.226562 258.082031 218.980469 258.066406 219.5 258.03125 C 219.851562 258.007812 220.09375 257.980469 220.21875 257.945312 C 220.464844 258.09375 220.710938 258.246094 220.957031 258.394531 C 221.652344 258.8125 222.363281 259.214844 223.082031 259.597656 C 223.507812 259.828125 223.9375 260.050781 224.367188 260.265625 C 225.300781 260.738281 226.253906 261.175781 227.214844 261.585938 C 229.050781 262.371094 231 263.0625 232.992188 262.9375 C 234.984375 262.808594 237.03125 261.679688 237.691406 259.796875 C 237.753906 259.625 237.78125 259.441406 237.8125 259.261719 L 307.984375 258.292969 " fill-opacity="1" fill-rule="nonzero"/></g><g clip-path="url(#61b3999b58)"><g clip-path="url(#739da2a871)"><g clip-path="url(#a11fd5a14c)"><path fill="#c2a965" d="M 220.582031 237.484375 C 226.160156 235.0625 231.429688 231.683594 236.136719 227.320312 C 245.9375 218.246094 252.023438 206.21875 253.542969 193.089844 C 253.710938 191.65625 254.375 187.742188 254.941406 187.761719 C 255.507812 187.78125 255.765625 191.632812 255.613281 193.023438 C 254.09375 206.757812 247.765625 219.339844 237.527344 228.824219 C 232.828125 233.171875 227.59375 236.585938 222.054688 239.074219 L 220.582031 237.484375 " fill-opacity="1" fill-rule="nonzero"/></g></g></g><g clip-path="url(#7ebacd2caa)"><g clip-path="url(#cc33ee783d)"><g clip-path="url(#6df88463f3)"><path fill="#c2a965" d="M 253.449219 171.867188 C 253.449219 171.867188 255.667969 174.339844 256.992188 177.617188 C 258.566406 181.503906 256.609375 183.488281 255.132812 186.355469 C 253.035156 183.90625 250.675781 182.421875 251.316406 178.277344 C 251.855469 174.78125 253.449219 171.867188 253.449219 171.867188 " fill-opacity="1" fill-rule="nonzero"/></g></g></g><g clip-path="url(#9c43e3b702)"><g clip-path="url(#a5903e940d)"><g clip-path="url(#c952fd3593)"><path fill="#c2a965" d="M 245.761719 182.355469 C 245.761719 182.355469 248.519531 184.203125 250.613281 187.058594 C 253.09375 190.4375 251.683594 192.839844 250.957031 195.980469 C 248.316406 194.125 245.671875 193.265625 245.269531 189.09375 C 244.933594 185.566406 245.761719 182.355469 245.761719 182.355469 " fill-opacity="1" fill-rule="nonzero"/></g></g></g><g clip-path="url(#6429de5f11)"><g clip-path="url(#b7a6c442d0)"><g clip-path="url(#9563012857)"><path fill="#c2a965" d="M 242.542969 194.554688 C 242.542969 194.554688 245.425781 196.203125 247.714844 198.898438 C 250.433594 202.09375 249.199219 204.589844 248.695312 207.777344 C 245.933594 206.113281 243.230469 205.445312 242.535156 201.3125 C 241.945312 197.820312 242.542969 194.554688 242.542969 194.554688 " fill-opacity="1" fill-rule="nonzero"/></g></g></g><g clip-path="url(#46d71d6789)"><g clip-path="url(#6af1d1e232)"><g clip-path="url(#468c6c1f24)"><path fill="#c2a965" d="M 238.851562 204.453125 C 238.851562 204.453125 241.496094 206.460938 243.417969 209.429688 C 245.695312 212.949219 244.152344 215.265625 243.242188 218.359375 C 240.714844 216.351562 238.121094 215.339844 237.964844 211.152344 C 237.835938 207.613281 238.851562 204.453125 238.851562 204.453125 " fill-opacity="1" fill-rule="nonzero"/></g></g></g><g clip-path="url(#71f3f902ce)"><g clip-path="url(#2f1b6e1caa)"><g clip-path="url(#8a83032cdd)"><path fill="#c2a965" d="M 232.03125 213.746094 C 232.03125 213.746094 234.410156 216.066406 235.945312 219.257812 C 237.769531 223.027344 235.949219 225.136719 234.65625 228.09375 C 232.40625 225.785156 229.957031 224.460938 230.320312 220.285156 C 230.632812 216.761719 232.03125 213.746094 232.03125 213.746094 " fill-opacity="1" fill-rule="nonzero"/></g></g></g><g clip-path="url(#95b67b6579)"><g clip-path="url(#3cf9d625c8)"><g clip-path="url(#6069291a2a)"><path fill="#c2a965" d="M 266.8125 181.914062 C 266.8125 181.914062 266.269531 185.1875 264.535156 188.273438 C 262.480469 191.925781 259.710938 191.640625 256.546875 192.269531 C 257.152344 189.101562 256.839844 186.335938 260.472656 184.25 C 263.542969 182.488281 266.8125 181.914062 266.8125 181.914062 " fill-opacity="1" fill-rule="nonzero"/></g></g></g><g clip-path="url(#14185790a5)"><g clip-path="url(#3c0c46130e)"><g clip-path="url(#9456af1379)"><path fill="#c2a965" d="M 266.539062 195.714844 C 266.539062 195.714844 265.425781 198.84375 263.175781 201.574219 C 260.507812 204.808594 257.832031 204.035156 254.609375 204.101562 C 255.761719 201.089844 255.941406 198.3125 259.886719 196.894531 C 263.21875 195.703125 266.539062 195.714844 266.539062 195.714844 " fill-opacity="1" fill-rule="nonzero"/></g></g></g><g clip-path="url(#28cf00da22)"><g clip-path="url(#2b2992940a)"><g clip-path="url(#32f924981f)"><path fill="#c2a965" d="M 262.097656 210.554688 C 262.097656 210.554688 260.367188 213.390625 257.605469 215.605469 C 254.335938 218.222656 251.875 216.921875 248.703125 216.328125 C 250.449219 213.617188 251.191406 210.933594 255.34375 210.355469 C 258.847656 209.863281 262.097656 210.554688 262.097656 210.554688 " fill-opacity="1" fill-rule="nonzero"/></g></g></g><g clip-path="url(#625a93de74)"><g clip-path="url(#ddb852baf3)"><g clip-path="url(#68373656d2)"><path fill="#c2a965" d="M 254.832031 224.363281 C 254.832031 224.363281 252.550781 226.777344 249.386719 228.363281 C 245.644531 230.242188 243.507812 228.457031 240.527344 227.210938 C 242.800781 224.921875 244.089844 222.453125 248.273438 222.757812 C 251.800781 223.011719 254.832031 224.363281 254.832031 224.363281 " fill-opacity="1" fill-rule="nonzero"/></g></g></g><g clip-path="url(#8a9dac5fc3)"><path fill="#c2a965" d="M 215.222656 73.851562 L 205.21875 91.589844 C 205.21875 91.589844 196.210938 87.6875 187.496094 87.6875 C 178.78125 87.6875 169.769531 91.589844 169.769531 91.589844 L 159.769531 73.851562 C 159.769531 73.851562 165.78125 78.703125 170.367188 76.824219 C 173.703125 75.453125 173.5 66.824219 173.5 66.824219 C 173.5 66.824219 177.359375 75.324219 181.398438 75.050781 C 185.242188 74.789062 187.496094 59.148438 187.496094 59.148438 C 187.496094 59.148438 189.75 74.789062 193.59375 75.050781 C 197.632812 75.324219 201.492188 66.824219 201.492188 66.824219 C 201.492188 66.824219 201.289062 75.453125 204.625 76.824219 C 209.207031 78.703125 215.222656 73.851562 215.222656 73.851562 Z M 215.222656 73.851562 " fill-opacity="1" fill-rule="nonzero"/></g><g clip-path="url(#df26ebda36)"><path fill="#c2a965" d="M 187.496094 56.769531 C 188.53125 56.769531 189.371094 55.929688 189.371094 54.894531 C 189.371094 53.859375 188.53125 53.019531 187.496094 53.019531 C 186.460938 53.019531 185.621094 53.859375 185.621094 54.894531 C 185.621094 55.929688 186.460938 56.769531 187.496094 56.769531 Z M 202.558594 65.707031 C 203.59375 65.707031 204.433594 64.867188 204.433594 63.832031 C 204.433594 62.796875 203.59375 61.957031 202.558594 61.957031 C 201.523438 61.957031 200.683594 62.796875 200.683594 63.832031 C 200.683594 64.867188 201.523438 65.707031 202.558594 65.707031 Z M 217.40625 69.742188 C 216.371094 69.742188 215.53125 70.582031 215.53125 71.617188 C 215.53125 72.652344 216.371094 73.488281 217.40625 73.488281 C 218.441406 73.488281 219.28125 72.652344 219.28125 71.617188 C 219.28125 70.582031 218.441406 69.742188 217.40625 69.742188 Z M 172.433594 65.707031 C 173.464844 65.707031 174.304688 64.867188 174.304688 63.832031 C 174.304688 62.796875 173.464844 61.957031 172.433594 61.957031 C 171.398438 61.957031 170.558594 62.796875 170.558594 63.832031 C 170.558594 64.867188 171.398438 65.707031 172.433594 65.707031 Z M 157.585938 69.742188 C 156.550781 69.742188 155.710938 70.582031 155.710938 71.617188 C 155.710938 72.652344 156.550781 73.488281 157.585938 73.488281 C 158.621094 73.488281 159.457031 72.652344 159.457031 71.617188 C 159.457031 70.582031 158.621094 69.742188 157.585938 69.742188 Z M 157.585938 69.742188 " fill-opacity="1" fill-rule="nonzero"/></g><g fill="#ffffff" fill-opacity="1"><g transform="translate(74.298866, 296.946799)"><g><path d="M 6.328125 0.1875 C 5.566406 0.1875 4.863281 0.046875 4.21875 -0.234375 C 3.570312 -0.523438 3.007812 -0.910156 2.53125 -1.390625 C 2.0625 -1.878906 1.691406 -2.457031 1.421875 -3.125 C 1.160156 -3.789062 1.03125 -4.503906 1.03125 -5.265625 L 1.03125 -5.28125 C 1.03125 -6.03125 1.160156 -6.738281 1.421875 -7.40625 C 1.691406 -8.070312 2.0625 -8.648438 2.53125 -9.140625 C 3.007812 -9.640625 3.578125 -10.035156 4.234375 -10.328125 C 4.890625 -10.617188 5.601562 -10.765625 6.375 -10.765625 C 6.851562 -10.765625 7.285156 -10.722656 7.671875 -10.640625 C 8.066406 -10.554688 8.429688 -10.441406 8.765625 -10.296875 C 9.097656 -10.148438 9.40625 -9.972656 9.6875 -9.765625 C 9.96875 -9.554688 10.238281 -9.328125 10.5 -9.078125 L 9.6875 -8.203125 C 9.226562 -8.628906 8.738281 -8.976562 8.21875 -9.25 C 7.707031 -9.519531 7.085938 -9.65625 6.359375 -9.65625 C 5.773438 -9.65625 5.234375 -9.539062 4.734375 -9.3125 C 4.234375 -9.09375 3.800781 -8.785156 3.4375 -8.390625 C 3.070312 -8.003906 2.785156 -7.546875 2.578125 -7.015625 C 2.367188 -6.484375 2.265625 -5.914062 2.265625 -5.3125 L 2.265625 -5.28125 C 2.265625 -4.664062 2.367188 -4.09375 2.578125 -3.5625 C 2.785156 -3.039062 3.070312 -2.582031 3.4375 -2.1875 C 3.800781 -1.800781 4.234375 -1.492188 4.734375 -1.265625 C 5.234375 -1.035156 5.773438 -0.921875 6.359375 -0.921875 C 7.085938 -0.921875 7.710938 -1.050781 8.234375 -1.3125 C 8.753906 -1.582031 9.269531 -1.960938 9.78125 -2.453125 L 10.5625 -1.671875 C 10.289062 -1.390625 10.003906 -1.132812 9.703125 -0.90625 C 9.410156 -0.6875 9.09375 -0.492188 8.75 -0.328125 C 8.40625 -0.171875 8.035156 -0.046875 7.640625 0.046875 C 7.253906 0.140625 6.816406 0.1875 6.328125 0.1875 Z M 6.328125 0.1875 "/></g></g></g><g fill="#ffffff" fill-opacity="1"><g transform="translate(89.020528, 296.946799)"><g><path d="M 6.40625 0.1875 C 5.601562 0.1875 4.867188 0.0390625 4.203125 -0.25 C 3.546875 -0.539062 2.976562 -0.9375 2.5 -1.4375 C 2.03125 -1.9375 1.664062 -2.515625 1.40625 -3.171875 C 1.15625 -3.835938 1.03125 -4.535156 1.03125 -5.265625 L 1.03125 -5.28125 C 1.03125 -6.007812 1.160156 -6.707031 1.421875 -7.375 C 1.679688 -8.039062 2.046875 -8.617188 2.515625 -9.109375 C 2.992188 -9.609375 3.566406 -10.007812 4.234375 -10.3125 C 4.898438 -10.613281 5.632812 -10.765625 6.4375 -10.765625 C 7.238281 -10.765625 7.96875 -10.613281 8.625 -10.3125 C 9.289062 -10.019531 9.859375 -9.625 10.328125 -9.125 C 10.804688 -8.632812 11.171875 -8.054688 11.421875 -7.390625 C 11.679688 -6.734375 11.8125 -6.039062 11.8125 -5.3125 L 11.8125 -5.28125 C 11.8125 -4.5625 11.679688 -3.867188 11.421875 -3.203125 C 11.160156 -2.535156 10.789062 -1.953125 10.3125 -1.453125 C 9.84375 -0.953125 9.273438 -0.550781 8.609375 -0.25 C 7.941406 0.0390625 7.207031 0.1875 6.40625 0.1875 Z M 6.4375 -0.921875 C 7.039062 -0.921875 7.597656 -1.035156 8.109375 -1.265625 C 8.617188 -1.492188 9.050781 -1.800781 9.40625 -2.1875 C 9.769531 -2.582031 10.054688 -3.039062 10.265625 -3.5625 C 10.472656 -4.082031 10.578125 -4.648438 10.578125 -5.265625 L 10.578125 -5.28125 C 10.578125 -5.882812 10.472656 -6.453125 10.265625 -6.984375 C 10.054688 -7.515625 9.765625 -7.972656 9.390625 -8.359375 C 9.023438 -8.753906 8.585938 -9.066406 8.078125 -9.296875 C 7.566406 -9.535156 7.007812 -9.65625 6.40625 -9.65625 C 5.800781 -9.65625 5.242188 -9.539062 4.734375 -9.3125 C 4.222656 -9.082031 3.785156 -8.769531 3.421875 -8.375 C 3.066406 -7.988281 2.785156 -7.53125 2.578125 -7 C 2.367188 -6.476562 2.265625 -5.914062 2.265625 -5.3125 L 2.265625 -5.28125 C 2.265625 -4.675781 2.367188 -4.109375 2.578125 -3.578125 C 2.785156 -3.054688 3.070312 -2.597656 3.4375 -2.203125 C 3.8125 -1.804688 4.253906 -1.492188 4.765625 -1.265625 C 5.273438 -1.035156 5.832031 -0.921875 6.4375 -0.921875 Z M 6.4375 -0.921875 "/></g></g></g><g fill="#ffffff" fill-opacity="1"><g transform="translate(105.374378, 296.946799)"><g><path d="M 0.59375 -10.578125 L 1.921875 -10.578125 L 5.6875 -1.46875 L 9.453125 -10.578125 L 10.75 -10.578125 L 6.1875 0.078125 L 5.140625 0.078125 Z M 0.59375 -10.578125 "/></g></g></g><g fill="#ffffff" fill-opacity="1"><g transform="translate(120.216934, 296.946799)"><g><path d="M 1.5 -10.578125 L 9.140625 -10.578125 L 9.140625 -9.484375 L 2.6875 -9.484375 L 2.6875 -5.875 L 8.46875 -5.875 L 8.46875 -4.796875 L 2.6875 -4.796875 L 2.6875 -1.09375 L 9.21875 -1.09375 L 9.21875 0 L 1.5 0 Z M 1.5 -10.578125 "/></g></g></g><g fill="#ffffff" fill-opacity="1"><g transform="translate(133.850463, 296.946799)"><g><path d="M 1.5 -10.578125 L 6.046875 -10.578125 C 6.703125 -10.578125 7.28125 -10.484375 7.78125 -10.296875 C 8.289062 -10.109375 8.710938 -9.847656 9.046875 -9.515625 C 9.304688 -9.253906 9.503906 -8.945312 9.640625 -8.59375 C 9.785156 -8.238281 9.859375 -7.851562 9.859375 -7.4375 L 9.859375 -7.40625 C 9.859375 -6.957031 9.785156 -6.5625 9.640625 -6.21875 C 9.503906 -5.875 9.304688 -5.570312 9.046875 -5.3125 C 8.796875 -5.050781 8.492188 -4.835938 8.140625 -4.671875 C 7.785156 -4.503906 7.40625 -4.390625 7 -4.328125 L 10.25 0 L 8.78125 0 L 5.71875 -4.109375 L 2.6875 -4.109375 L 2.6875 0 L 1.5 0 Z M 5.9375 -5.1875 C 6.332031 -5.1875 6.695312 -5.234375 7.03125 -5.328125 C 7.363281 -5.429688 7.648438 -5.578125 7.890625 -5.765625 C 8.128906 -5.953125 8.316406 -6.175781 8.453125 -6.4375 C 8.585938 -6.707031 8.65625 -7.015625 8.65625 -7.359375 L 8.65625 -7.390625 C 8.65625 -8.046875 8.414062 -8.554688 7.9375 -8.921875 C 7.46875 -9.285156 6.804688 -9.46875 5.953125 -9.46875 L 2.6875 -9.46875 L 2.6875 -5.1875 Z M 5.9375 -5.1875 "/></g></g></g><g fill="#ffffff" fill-opacity="1"><g transform="translate(148.284982, 296.946799)"><g/></g></g><g fill="#ffffff" fill-opacity="1"><g transform="translate(156.326759, 296.946799)"><g><path d="M 1.5 -10.578125 L 2.6875 -10.578125 L 2.6875 -1.109375 L 8.640625 -1.109375 L 8.640625 0 L 1.5 0 Z M 1.5 -10.578125 "/></g></g></g><g fill="#ffffff" fill-opacity="1"><g transform="translate(169.129087, 296.946799)"><g><path d="M 1.5 -10.578125 L 9.140625 -10.578125 L 9.140625 -9.484375 L 2.6875 -9.484375 L 2.6875 -5.875 L 8.46875 -5.875 L 8.46875 -4.796875 L 2.6875 -4.796875 L 2.6875 -1.09375 L 9.21875 -1.09375 L 9.21875 0 L 1.5 0 Z M 1.5 -10.578125 "/></g></g></g><g fill="#ffffff" fill-opacity="1"><g transform="translate(182.762621, 296.946799)"><g><path d="M 4.25 -9.46875 L 0.6875 -9.46875 L 0.6875 -10.578125 L 9 -10.578125 L 9 -9.46875 L 5.4375 -9.46875 L 5.4375 0 L 4.25 0 Z M 4.25 -9.46875 "/></g></g></g><g fill="#ffffff" fill-opacity="1"><g transform="translate(195.957873, 296.946799)"><g><path d="M 4.25 -9.46875 L 0.6875 -9.46875 L 0.6875 -10.578125 L 9 -10.578125 L 9 -9.46875 L 5.4375 -9.46875 L 5.4375 0 L 4.25 0 Z M 4.25 -9.46875 "/></g></g></g><g fill="#ffffff" fill-opacity="1"><g transform="translate(209.153124, 296.946799)"><g><path d="M 1.5 -10.578125 L 9.140625 -10.578125 L 9.140625 -9.484375 L 2.6875 -9.484375 L 2.6875 -5.875 L 8.46875 -5.875 L 8.46875 -4.796875 L 2.6875 -4.796875 L 2.6875 -1.09375 L 9.21875 -1.09375 L 9.21875 0 L 1.5 0 Z M 1.5 -10.578125 "/></g></g></g><g fill="#ffffff" fill-opacity="1"><g transform="translate(222.786651, 296.946799)"><g><path d="M 1.5 -10.578125 L 6.046875 -10.578125 C 6.703125 -10.578125 7.28125 -10.484375 7.78125 -10.296875 C 8.289062 -10.109375 8.710938 -9.847656 9.046875 -9.515625 C 9.304688 -9.253906 9.503906 -8.945312 9.640625 -8.59375 C 9.785156 -8.238281 9.859375 -7.851562 9.859375 -7.4375 L 9.859375 -7.40625 C 9.859375 -6.957031 9.785156 -6.5625 9.640625 -6.21875 C 9.503906 -5.875 9.304688 -5.570312 9.046875 -5.3125 C 8.796875 -5.050781 8.492188 -4.835938 8.140625 -4.671875 C 7.785156 -4.503906 7.40625 -4.390625 7 -4.328125 L 10.25 0 L 8.78125 0 L 5.71875 -4.109375 L 2.6875 -4.109375 L 2.6875 0 L 1.5 0 Z M 5.9375 -5.1875 C 6.332031 -5.1875 6.695312 -5.234375 7.03125 -5.328125 C 7.363281 -5.429688 7.648438 -5.578125 7.890625 -5.765625 C 8.128906 -5.953125 8.316406 -6.175781 8.453125 -6.4375 C 8.585938 -6.707031 8.65625 -7.015625 8.65625 -7.359375 L 8.65625 -7.390625 C 8.65625 -8.046875 8.414062 -8.554688 7.9375 -8.921875 C 7.46875 -9.285156 6.804688 -9.46875 5.953125 -9.46875 L 2.6875 -9.46875 L 2.6875 -5.1875 Z M 5.9375 -5.1875 "/></g></g></g><g fill="#ffffff" fill-opacity="1"><g transform="translate(237.221162, 296.946799)"><g/></g></g><g fill="#ffffff" fill-opacity="1"><g transform="translate(245.262932, 296.946799)"><g><path d="M 1.5 -10.578125 L 2.6875 -10.578125 L 2.6875 -1.109375 L 8.640625 -1.109375 L 8.640625 0 L 1.5 0 Z M 1.5 -10.578125 "/></g></g></g><g fill="#ffffff" fill-opacity="1"><g transform="translate(258.065253, 296.946799)"><g><path d="M 6.40625 0.1875 C 5.601562 0.1875 4.867188 0.0390625 4.203125 -0.25 C 3.546875 -0.539062 2.976562 -0.9375 2.5 -1.4375 C 2.03125 -1.9375 1.664062 -2.515625 1.40625 -3.171875 C 1.15625 -3.835938 1.03125 -4.535156 1.03125 -5.265625 L 1.03125 -5.28125 C 1.03125 -6.007812 1.160156 -6.707031 1.421875 -7.375 C 1.679688 -8.039062 2.046875 -8.617188 2.515625 -9.109375 C 2.992188 -9.609375 3.566406 -10.007812 4.234375 -10.3125 C 4.898438 -10.613281 5.632812 -10.765625 6.4375 -10.765625 C 7.238281 -10.765625 7.96875 -10.613281 8.625 -10.3125 C 9.289062 -10.019531 9.859375 -9.625 10.328125 -9.125 C 10.804688 -8.632812 11.171875 -8.054688 11.421875 -7.390625 C 11.679688 -6.734375 11.8125 -6.039062 11.8125 -5.3125 L 11.8125 -5.28125 C 11.8125 -4.5625 11.679688 -3.867188 11.421875 -3.203125 C 11.160156 -2.535156 10.789062 -1.953125 10.3125 -1.453125 C 9.84375 -0.953125 9.273438 -0.550781 8.609375 -0.25 C 7.941406 0.0390625 7.207031 0.1875 6.40625 0.1875 Z M 6.4375 -0.921875 C 7.039062 -0.921875 7.597656 -1.035156 8.109375 -1.265625 C 8.617188 -1.492188 9.050781 -1.800781 9.40625 -2.1875 C 9.769531 -2.582031 10.054688 -3.039062 10.265625 -3.5625 C 10.472656 -4.082031 10.578125 -4.648438 10.578125 -5.265625 L 10.578125 -5.28125 C 10.578125 -5.882812 10.472656 -6.453125 10.265625 -6.984375 C 10.054688 -7.515625 9.765625 -7.972656 9.390625 -8.359375 C 9.023438 -8.753906 8.585938 -9.066406 8.078125 -9.296875 C 7.566406 -9.535156 7.007812 -9.65625 6.40625 -9.65625 C 5.800781 -9.65625 5.242188 -9.539062 4.734375 -9.3125 C 4.222656 -9.082031 3.785156 -8.769531 3.421875 -8.375 C 3.066406 -7.988281 2.785156 -7.53125 2.578125 -7 C 2.367188 -6.476562 2.265625 -5.914062 2.265625 -5.3125 L 2.265625 -5.28125 C 2.265625 -4.675781 2.367188 -4.109375 2.578125 -3.578125 C 2.785156 -3.054688 3.070312 -2.597656 3.4375 -2.203125 C 3.8125 -1.804688 4.253906 -1.492188 4.765625 -1.265625 C 5.273438 -1.035156 5.832031 -0.921875 6.4375 -0.921875 Z M 6.4375 -0.921875 "/></g></g></g><g fill="#ffffff" fill-opacity="1"><g transform="translate(274.419101, 296.946799)"><g><path d="M 1.5 -10.578125 L 6.046875 -10.578125 C 6.703125 -10.578125 7.28125 -10.484375 7.78125 -10.296875 C 8.289062 -10.109375 8.710938 -9.847656 9.046875 -9.515625 C 9.304688 -9.253906 9.503906 -8.945312 9.640625 -8.59375 C 9.785156 -8.238281 9.859375 -7.851562 9.859375 -7.4375 L 9.859375 -7.40625 C 9.859375 -6.957031 9.785156 -6.5625 9.640625 -6.21875 C 9.503906 -5.875 9.304688 -5.570312 9.046875 -5.3125 C 8.796875 -5.050781 8.492188 -4.835938 8.140625 -4.671875 C 7.785156 -4.503906 7.40625 -4.390625 7 -4.328125 L 10.25 0 L 8.78125 0 L 5.71875 -4.109375 L 2.6875 -4.109375 L 2.6875 0 L 1.5 0 Z M 5.9375 -5.1875 C 6.332031 -5.1875 6.695312 -5.234375 7.03125 -5.328125 C 7.363281 -5.429688 7.648438 -5.578125 7.890625 -5.765625 C 8.128906 -5.953125 8.316406 -6.175781 8.453125 -6.4375 C 8.585938 -6.707031 8.65625 -7.015625 8.65625 -7.359375 L 8.65625 -7.390625 C 8.65625 -8.046875 8.414062 -8.554688 7.9375 -8.921875 C 7.46875 -9.285156 6.804688 -9.46875 5.953125 -9.46875 L 2.6875 -9.46875 L 2.6875 -5.1875 Z M 5.9375 -5.1875 "/></g></g></g><g fill="#ffffff" fill-opacity="1"><g transform="translate(288.853612, 296.946799)"><g><path d="M 1.5 -10.578125 L 5.171875 -10.578125 C 5.992188 -10.578125 6.75 -10.441406 7.4375 -10.171875 C 8.125 -9.910156 8.71875 -9.539062 9.21875 -9.0625 C 9.71875 -8.59375 10.101562 -8.035156 10.375 -7.390625 C 10.644531 -6.753906 10.78125 -6.0625 10.78125 -5.3125 L 10.78125 -5.28125 C 10.78125 -4.539062 10.644531 -3.847656 10.375 -3.203125 C 10.101562 -2.554688 9.71875 -1.992188 9.21875 -1.515625 C 8.71875 -1.046875 8.125 -0.675781 7.4375 -0.40625 C 6.75 -0.132812 5.992188 0 5.171875 0 L 1.5 0 Z M 2.6875 -9.46875 L 2.6875 -1.109375 L 5.171875 -1.109375 C 5.835938 -1.109375 6.441406 -1.210938 6.984375 -1.421875 C 7.523438 -1.628906 7.984375 -1.921875 8.359375 -2.296875 C 8.734375 -2.671875 9.023438 -3.109375 9.234375 -3.609375 C 9.441406 -4.117188 9.546875 -4.671875 9.546875 -5.265625 L 9.546875 -5.28125 C 9.546875 -5.875 9.441406 -6.421875 9.234375 -6.921875 C 9.023438 -7.429688 8.734375 -7.875 8.359375 -8.25 C 7.984375 -8.632812 7.523438 -8.929688 6.984375 -9.140625 C 6.441406 -9.359375 5.835938 -9.46875 5.171875 -9.46875 Z M 2.6875 -9.46875 "/></g></g></g><g fill="#ffffff" fill-opacity="1"><g transform="translate(85.280726, 246.510644)"><g><path d="M 3.0625 -6.828125 L 0.484375 -6.828125 L 0.484375 -7.625 L 6.484375 -7.625 L 6.484375 -6.828125 L 3.921875 -6.828125 L 3.921875 0 L 3.0625 0 Z M 3.0625 -6.828125 "/></g></g></g><g fill="#ffffff" fill-opacity="1"><g transform="translate(94.788623, 246.510644)"><g><path d="M 1.078125 -7.625 L 4.359375 -7.625 C 4.828125 -7.625 5.242188 -7.554688 5.609375 -7.421875 C 5.984375 -7.285156 6.289062 -7.097656 6.53125 -6.859375 C 6.71875 -6.671875 6.859375 -6.445312 6.953125 -6.1875 C 7.054688 -5.9375 7.109375 -5.660156 7.109375 -5.359375 L 7.109375 -5.34375 C 7.109375 -5.019531 7.054688 -4.734375 6.953125 -4.484375 C 6.859375 -4.234375 6.71875 -4.015625 6.53125 -3.828125 C 6.34375 -3.640625 6.117188 -3.484375 5.859375 -3.359375 C 5.609375 -3.242188 5.335938 -3.160156 5.046875 -3.109375 L 7.390625 0 L 6.328125 0 L 4.109375 -2.96875 L 1.9375 -2.96875 L 1.9375 0 L 1.078125 0 Z M 4.28125 -3.734375 C 4.5625 -3.734375 4.820312 -3.769531 5.0625 -3.84375 C 5.300781 -3.914062 5.507812 -4.019531 5.6875 -4.15625 C 5.863281 -4.289062 6 -4.453125 6.09375 -4.640625 C 6.1875 -4.835938 6.234375 -5.054688 6.234375 -5.296875 L 6.234375 -5.328125 C 6.234375 -5.796875 6.0625 -6.160156 5.71875 -6.421875 C 5.382812 -6.691406 4.910156 -6.828125 4.296875 -6.828125 L 1.9375 -6.828125 L 1.9375 -3.734375 Z M 4.28125 -3.734375 "/></g></g></g><g fill="#ffffff" fill-opacity="1"><g transform="translate(105.189239, 246.510644)"><g><path d="M 4.125 0.125 C 3.65625 0.125 3.222656 0.0507812 2.828125 -0.09375 C 2.441406 -0.238281 2.109375 -0.445312 1.828125 -0.71875 C 1.554688 -1 1.34375 -1.347656 1.1875 -1.765625 C 1.03125 -2.179688 0.953125 -2.65625 0.953125 -3.1875 L 0.953125 -7.625 L 1.8125 -7.625 L 1.8125 -3.25 C 1.8125 -2.414062 2.015625 -1.773438 2.421875 -1.328125 C 2.835938 -0.890625 3.414062 -0.671875 4.15625 -0.671875 C 4.851562 -0.671875 5.410156 -0.878906 5.828125 -1.296875 C 6.242188 -1.722656 6.453125 -2.351562 6.453125 -3.1875 L 6.453125 -7.625 L 7.3125 -7.625 L 7.3125 -3.25 C 7.3125 -2.695312 7.234375 -2.207031 7.078125 -1.78125 C 6.921875 -1.363281 6.703125 -1.015625 6.421875 -0.734375 C 6.148438 -0.453125 5.816406 -0.238281 5.421875 -0.09375 C 5.035156 0.0507812 4.601562 0.125 4.125 0.125 Z M 4.125 0.125 "/></g></g></g><g fill="#ffffff" fill-opacity="1"><g transform="translate(115.981769, 246.510644)"><g><path d="M 3.6875 0.109375 C 3.082031 0.109375 2.523438 0.0078125 2.015625 -0.1875 C 1.515625 -0.382812 1.035156 -0.691406 0.578125 -1.109375 L 1.109375 -1.75 C 1.503906 -1.382812 1.90625 -1.113281 2.3125 -0.9375 C 2.71875 -0.757812 3.1875 -0.671875 3.71875 -0.671875 C 4.238281 -0.671875 4.648438 -0.789062 4.953125 -1.03125 C 5.265625 -1.269531 5.421875 -1.578125 5.421875 -1.953125 L 5.421875 -1.984375 C 5.421875 -2.160156 5.390625 -2.316406 5.328125 -2.453125 C 5.273438 -2.597656 5.175781 -2.726562 5.03125 -2.84375 C 4.882812 -2.957031 4.679688 -3.0625 4.421875 -3.15625 C 4.171875 -3.25 3.84375 -3.34375 3.4375 -3.4375 C 3 -3.53125 2.617188 -3.632812 2.296875 -3.75 C 1.972656 -3.875 1.707031 -4.023438 1.5 -4.203125 C 1.289062 -4.378906 1.132812 -4.582031 1.03125 -4.8125 C 0.925781 -5.039062 0.875 -5.3125 0.875 -5.625 L 0.875 -5.65625 C 0.875 -5.945312 0.9375 -6.21875 1.0625 -6.46875 C 1.1875 -6.726562 1.359375 -6.953125 1.578125 -7.140625 C 1.804688 -7.328125 2.070312 -7.472656 2.375 -7.578125 C 2.6875 -7.679688 3.023438 -7.734375 3.390625 -7.734375 C 3.941406 -7.734375 4.425781 -7.65625 4.84375 -7.5 C 5.269531 -7.34375 5.675781 -7.109375 6.0625 -6.796875 L 5.5625 -6.125 C 5.207031 -6.414062 4.847656 -6.625 4.484375 -6.75 C 4.128906 -6.882812 3.753906 -6.953125 3.359375 -6.953125 C 2.859375 -6.953125 2.460938 -6.832031 2.171875 -6.59375 C 1.890625 -6.363281 1.75 -6.078125 1.75 -5.734375 L 1.75 -5.703125 C 1.75 -5.523438 1.773438 -5.363281 1.828125 -5.21875 C 1.890625 -5.082031 1.992188 -4.953125 2.140625 -4.828125 C 2.296875 -4.710938 2.507812 -4.601562 2.78125 -4.5 C 3.050781 -4.40625 3.394531 -4.3125 3.8125 -4.21875 C 4.664062 -4.03125 5.289062 -3.769531 5.6875 -3.4375 C 6.09375 -3.101562 6.296875 -2.644531 6.296875 -2.0625 L 6.296875 -2.046875 C 6.296875 -1.722656 6.226562 -1.425781 6.09375 -1.15625 C 5.96875 -0.894531 5.789062 -0.671875 5.5625 -0.484375 C 5.332031 -0.296875 5.054688 -0.148438 4.734375 -0.046875 C 4.421875 0.0546875 4.070312 0.109375 3.6875 0.109375 Z M 3.6875 0.109375 "/></g></g></g><g fill="#ffffff" fill-opacity="1"><g transform="translate(125.478783, 246.510644)"><g><path d="M 3.0625 -6.828125 L 0.484375 -6.828125 L 0.484375 -7.625 L 6.484375 -7.625 L 6.484375 -6.828125 L 3.921875 -6.828125 L 3.921875 0 L 3.0625 0 Z M 3.0625 -6.828125 "/></g></g></g><g fill="#ffffff" fill-opacity="1"><g transform="translate(262.869831, 246.510644)"><g><path d="M 1.15625 -7.625 L 2.015625 -7.625 L 2.015625 0 L 1.15625 0 Z M 1.15625 -7.625 "/></g></g></g><g fill="#ffffff" fill-opacity="1"><g transform="translate(268.567372, 246.510644)"><g><path d="M 1.078125 -7.625 L 1.890625 -7.625 L 6.6875 -1.515625 L 6.6875 -7.625 L 7.53125 -7.625 L 7.53125 0 L 6.84375 0 L 1.921875 -6.25 L 1.921875 0 L 1.078125 0 Z M 1.078125 -7.625 "/></g></g></g><path stroke-linecap="butt" transform="matrix(0.75, 0, 0, 0.75, 151.905199, 117.481149)" fill="none" stroke-linejoin="miter" d="M 0.00140197 1.999093 L 36.136821 1.999093 " stroke="#c2a965" stroke-width="4" stroke-opacity="1" stroke-miterlimit="4"/><path stroke-linecap="butt" transform="matrix(0.75, 0, 0, 0.75, 151.905199, 129.481148)" fill="none" stroke-linejoin="miter" d="M 0.00140197 1.999094 L 96.918075 1.999094 " stroke="#c2a965" stroke-width="4" stroke-opacity="1" stroke-miterlimit="4"/><path stroke-linecap="butt" transform="matrix(0.75, 0, 0, 0.75, 151.905199, 142.981147)" fill="none" stroke-linejoin="miter" d="M 0.00140197 1.999095 L 96.918075 1.999095 " stroke="#c2a965" stroke-width="4" stroke-opacity="1" stroke-miterlimit="4"/><path stroke-linecap="butt" transform="matrix(0.75, 0, 0, 0.75, 151.905199, 155.731147)" fill="none" stroke-linejoin="miter" d="M 0.00140197 1.999096 L 96.918075 1.999096 " stroke="#c2a965" stroke-width="4" stroke-opacity="1" stroke-miterlimit="4"/><path stroke-linecap="butt" transform="matrix(0.75, 0, 0, 0.75, 151.905199, 169.23513)" fill="none" stroke-linejoin="miter" d="M 0.00140197 1.998994 L 96.918075 1.998994 " stroke="#c2a965" stroke-width="4" stroke-opacity="1" stroke-miterlimit="4"/><path stroke-linecap="butt" transform="matrix(0.75, 0, 0, 0.75, 151.905199, 182.249988)" fill="none" stroke-linejoin="miter" d="M 0.00140197 2.000016 L 96.918075 2.000016 " stroke="#c2a965" stroke-width="4" stroke-opacity="1" stroke-miterlimit="4"/><path stroke-linecap="butt" transform="matrix(0.75, 0, 0, 0.75, 169.530197, 194.903879)" fill="none" stroke-linejoin="miter" d="M 0.00140351 1.997953 L 46.892032 1.997953 " stroke="#c2a965" stroke-width="4" stroke-opacity="1" stroke-miterlimit="4"/></svg>