<svg xmlns="http://www.w3.org/2000/svg" xmlns:xlink="http://www.w3.org/1999/xlink" width="500" zoomAndPan="magnify" viewBox="0 0 375 374.999991" height="500" preserveAspectRatio="xMidYMid meet" version="1.0"><defs><clipPath id="248c998ed1"><path d="M 42 4.117188 L 333 4.117188 L 333 370.867188 L 42 370.867188 Z M 42 4.117188 " clip-rule="nonzero"/></clipPath></defs><g clip-path="url(#248c998ed1)"><path fill="#ff6929" d="M 304.113281 4.117188 L 70.878906 4.117188 C 55.132812 4.117188 42.320312 16.929688 42.320312 32.675781 L 42.320312 342.320312 C 42.320312 358.070312 55.132812 370.878906 70.878906 370.878906 L 304.113281 370.878906 C 319.859375 370.878906 332.671875 358.070312 332.671875 342.320312 L 332.671875 32.675781 C 332.671875 16.929688 319.859375 4.117188 304.113281 4.117188 Z M 320.449219 342.320312 C 320.449219 351.332031 313.125 358.65625 304.113281 358.65625 L 70.878906 358.65625 C 61.867188 358.65625 54.546875 351.332031 54.546875 342.320312 L 54.546875 32.675781 C 54.546875 23.667969 61.867188 16.34375 70.878906 16.34375 L 304.113281 16.34375 C 313.125 16.34375 320.449219 23.667969 320.449219 32.675781 Z M 320.449219 342.320312 " fill-opacity="1" fill-rule="nonzero"/></g><path fill="#ff6929" d="M 291.414062 36.210938 L 207.363281 36.210938 C 203.988281 36.210938 201.25 38.949219 201.25 42.324219 L 201.25 75.722656 C 201.25 79.097656 203.988281 81.835938 207.363281 81.835938 L 291.414062 81.835938 C 294.785156 81.835938 297.523438 79.097656 297.523438 75.722656 L 297.523438 42.324219 C 297.523438 38.949219 294.785156 36.210938 291.414062 36.210938 Z M 285.300781 69.609375 L 213.476562 69.609375 L 213.476562 48.4375 L 285.300781 48.4375 Z M 285.300781 69.609375 " fill-opacity="1" fill-rule="nonzero"/><path fill="#ff6929" d="M 176.140625 59.023438 C 176.140625 55.648438 173.402344 52.910156 170.027344 52.910156 L 83.582031 52.910156 C 80.207031 52.910156 77.46875 55.648438 77.46875 59.023438 C 77.46875 62.398438 80.207031 65.136719 83.582031 65.136719 L 170.027344 65.136719 C 173.414062 65.136719 176.140625 62.410156 176.140625 59.023438 Z M 176.140625 59.023438 " fill-opacity="1" fill-rule="nonzero"/><path fill="#ff6929" d="M 291.414062 118.070312 L 153.65625 118.070312 C 150.28125 118.070312 147.542969 120.808594 147.542969 124.183594 C 147.542969 127.558594 150.28125 130.296875 153.65625 130.296875 L 291.414062 130.296875 C 294.785156 130.296875 297.523438 127.558594 297.523438 124.183594 C 297.523438 120.808594 294.785156 118.070312 291.414062 118.070312 Z M 291.414062 118.070312 " fill-opacity="1" fill-rule="nonzero"/><path fill="#ff6929" d="M 291.414062 179.640625 L 153.65625 179.640625 C 150.28125 179.640625 147.542969 182.378906 147.542969 185.75 C 147.542969 189.125 150.28125 191.863281 153.65625 191.863281 L 291.414062 191.863281 C 294.785156 191.863281 297.523438 189.125 297.523438 185.75 C 297.523438 182.378906 294.785156 179.640625 291.414062 179.640625 Z M 291.414062 179.640625 " fill-opacity="1" fill-rule="nonzero"/><path fill="#ff6929" d="M 153.339844 253.101562 L 291.09375 253.101562 C 294.46875 253.101562 297.207031 250.363281 297.207031 246.988281 C 297.207031 243.613281 294.46875 240.875 291.09375 240.875 L 153.339844 240.875 C 149.964844 240.875 147.226562 243.613281 147.226562 246.988281 C 147.226562 250.363281 149.953125 253.101562 153.339844 253.101562 Z M 153.339844 253.101562 " fill-opacity="1" fill-rule="nonzero"/><path fill="#ff6929" d="M 291.414062 308.128906 L 153.65625 308.128906 C 150.28125 308.128906 147.542969 310.867188 147.542969 314.242188 C 147.542969 317.613281 150.28125 320.351562 153.65625 320.351562 L 291.414062 320.351562 C 294.785156 320.351562 297.523438 317.613281 297.523438 314.242188 C 297.523438 310.867188 294.785156 308.128906 291.414062 308.128906 Z M 291.414062 308.128906 " fill-opacity="1" fill-rule="nonzero"/><path fill="#ff6929" d="M 121.929688 105.527344 L 103.570312 129.757812 L 94.523438 120.40625 C 92.175781 117.972656 88.324219 117.914062 85.878906 120.261719 C 83.457031 122.609375 83.386719 126.472656 85.730469 128.902344 L 99.730469 143.378906 C 100.878906 144.578125 102.46875 145.238281 104.121094 145.238281 C 104.242188 145.238281 104.363281 145.238281 104.484375 145.222656 C 106.269531 145.113281 107.910156 144.234375 108.996094 142.816406 L 131.675781 112.925781 C 133.71875 110.234375 133.191406 106.398438 130.5 104.355469 C 127.800781 102.3125 123.960938 102.851562 121.929688 105.527344 Z M 121.929688 105.527344 " fill-opacity="1" fill-rule="nonzero"/><path fill="#ff6929" d="M 130.488281 165.921875 C 127.789062 163.878906 123.949219 164.40625 121.929688 167.109375 L 103.570312 191.339844 L 94.523438 181.984375 C 92.175781 179.566406 88.324219 179.503906 85.878906 181.839844 C 83.457031 184.1875 83.386719 188.050781 85.730469 190.484375 L 99.730469 204.96875 C 100.878906 206.167969 102.46875 206.828125 104.121094 206.828125 C 104.242188 206.828125 104.363281 206.828125 104.484375 206.816406 C 106.269531 206.707031 107.921875 205.824219 108.996094 204.40625 L 131.675781 174.480469 C 133.71875 171.789062 133.191406 167.953125 130.488281 165.921875 Z M 130.488281 165.921875 " fill-opacity="1" fill-rule="nonzero"/><path fill="#ff6929" d="M 121.929688 228.664062 L 103.570312 252.90625 L 94.523438 243.554688 C 92.175781 241.132812 88.324219 241.070312 85.878906 243.40625 C 83.457031 245.753906 83.386719 249.617188 85.730469 252.050781 L 99.730469 266.535156 C 100.878906 267.734375 102.46875 268.394531 104.121094 268.394531 C 104.242188 268.394531 104.363281 268.394531 104.484375 268.382812 C 106.269531 268.273438 107.921875 267.394531 108.996094 265.976562 L 131.675781 236.046875 C 133.71875 233.355469 133.191406 229.519531 130.488281 227.488281 C 127.789062 225.433594 123.960938 225.972656 121.929688 228.664062 Z M 121.929688 228.664062 " fill-opacity="1" fill-rule="nonzero"/><path fill="#ff6929" d="M 121.929688 295.585938 L 103.570312 319.816406 L 94.523438 310.460938 C 92.175781 308.042969 88.324219 307.96875 85.878906 310.316406 C 83.457031 312.664062 83.386719 316.527344 85.730469 318.960938 L 99.730469 333.433594 C 100.878906 334.632812 102.46875 335.292969 104.121094 335.292969 C 104.242188 335.292969 104.363281 335.292969 104.484375 335.28125 C 106.269531 335.171875 107.910156 334.289062 108.996094 332.871094 L 131.675781 302.957031 C 133.71875 300.265625 133.191406 296.429688 130.5 294.386719 C 127.800781 292.371094 123.960938 292.894531 121.929688 295.585938 Z M 121.929688 295.585938 " fill-opacity="1" fill-rule="nonzero"/></svg>