<svg xmlns="http://www.w3.org/2000/svg" xmlns:xlink="http://www.w3.org/1999/xlink" width="500" zoomAndPan="magnify" viewBox="0 0 375 374.999991" height="500" preserveAspectRatio="xMidYMid meet" version="1.0"><defs><clipPath id="0dc6bf1e72"><path d="M 1.304688 1.15625 L 374 1.15625 L 374 372 L 1.304688 372 Z M 1.304688 1.15625 " clip-rule="nonzero"/></clipPath><clipPath id="1d5c7f4dff"><path d="M 111 73 L 271 73 L 271 373.90625 L 111 373.90625 Z M 111 73 " clip-rule="nonzero"/></clipPath></defs><g clip-path="url(#0dc6bf1e72)"><path fill="#002d72" d="M 373.832031 187.421875 C 373.832031 84.550781 290.441406 1.15625 187.570312 1.15625 C 84.699219 1.15625 1.304688 84.550781 1.304688 187.421875 C 1.304688 280.390625 69.421875 357.449219 158.464844 371.421875 L 158.464844 241.261719 L 111.171875 241.261719 L 111.171875 187.421875 L 158.464844 187.421875 L 158.464844 146.386719 C 158.464844 99.703125 186.273438 73.917969 228.820312 73.917969 C 249.199219 73.917969 270.515625 77.554688 270.515625 77.554688 L 270.515625 123.394531 L 247.027344 123.394531 C 223.890625 123.394531 216.671875 137.75 216.671875 152.480469 L 216.671875 187.421875 L 268.332031 187.421875 L 260.074219 241.261719 L 216.671875 241.261719 L 216.671875 371.421875 C 305.71875 357.449219 373.832031 280.390625 373.832031 187.421875 " fill-opacity="1" fill-rule="nonzero"/></g><g clip-path="url(#1d5c7f4dff)"><path fill="#ffffff" d="M 260.074219 241.261719 L 268.332031 187.421875 L 216.671875 187.421875 L 216.671875 152.480469 C 216.671875 137.75 223.890625 123.394531 247.027344 123.394531 L 270.515625 123.394531 L 270.515625 77.554688 C 270.515625 77.554688 249.199219 73.917969 228.820312 73.917969 C 186.273438 73.917969 158.464844 99.703125 158.464844 146.386719 L 158.464844 187.421875 L 111.171875 187.421875 L 111.171875 241.261719 L 158.464844 241.261719 L 158.464844 371.421875 C 167.949219 372.910156 177.667969 373.683594 187.570312 373.683594 C 197.472656 373.683594 207.191406 372.910156 216.671875 371.421875 L 216.671875 241.261719 L 260.074219 241.261719 " fill-opacity="1" fill-rule="nonzero"/></g></svg>