<svg xmlns="http://www.w3.org/2000/svg" xmlns:xlink="http://www.w3.org/1999/xlink" width="500" zoomAndPan="magnify" viewBox="0 0 375 374.999991" height="500" preserveAspectRatio="xMidYMid meet" version="1.0"><defs><clipPath id="12ecdce4bc"><path d="M 4 46.945312 L 372 46.945312 L 372 327.445312 L 4 327.445312 Z M 4 46.945312 " clip-rule="nonzero"/></clipPath></defs><path fill="#ff6929" d="M 272.835938 196.042969 C 251.15625 196.042969 233.457031 178.347656 233.457031 156.667969 C 233.457031 134.988281 251.15625 117.292969 272.835938 117.292969 C 294.511719 117.292969 312.210938 134.988281 312.210938 156.667969 C 312.210938 178.347656 294.511719 196.042969 272.835938 196.042969 Z M 272.835938 126.140625 C 256.023438 126.140625 242.304688 139.855469 242.304688 156.667969 C 242.304688 173.480469 256.023438 187.195312 272.835938 187.195312 C 289.644531 187.195312 303.363281 173.480469 303.363281 156.667969 C 303.363281 139.855469 289.644531 126.140625 272.835938 126.140625 Z M 272.835938 126.140625 " fill-opacity="1" fill-rule="nonzero"/><path fill="#ff6929" d="M 344.949219 252.234375 L 315.308594 199.140625 C 318.402344 198.257812 321.5 196.929688 323.714844 193.832031 C 326.367188 189.851562 326.367188 184.984375 325.925781 180.558594 C 325.925781 177.90625 325.484375 175.691406 325.925781 173.921875 C 326.367188 172.597656 328.136719 170.382812 329.464844 168.613281 C 332.121094 165.074219 335.660156 161.535156 335.660156 156.226562 C 335.660156 150.917969 332.5625 147.378906 329.464844 143.839844 C 328.136719 142.070312 326.367188 140.296875 325.925781 138.527344 C 325.484375 136.757812 325.484375 134.546875 325.925781 131.890625 C 326.367188 127.46875 326.367188 122.601562 323.714844 118.621094 C 320.617188 114.636719 316.191406 113.308594 311.769531 112.425781 C 309.554688 111.984375 306.902344 111.097656 305.574219 110.214844 C 304.246094 109.328125 302.917969 107.117188 301.59375 104.90625 C 299.378906 101.363281 296.726562 96.941406 291.859375 95.613281 C 287.433594 94.285156 283.011719 96.054688 279.027344 97.382812 C 276.816406 98.269531 274.160156 99.152344 272.390625 99.152344 C 270.621094 99.152344 268.410156 98.269531 265.753906 97.382812 C 261.773438 95.613281 257.347656 93.84375 252.925781 95.613281 C 248.058594 96.941406 245.402344 101.363281 243.191406 104.90625 C 241.863281 107.117188 240.535156 108.886719 239.210938 110.214844 C 237.882812 111.097656 235.226562 111.984375 233.015625 112.425781 C 228.589844 113.308594 224.167969 114.636719 221.070312 118.621094 C 218.414062 122.601562 218.414062 127.46875 218.859375 131.890625 C 218.859375 134.546875 219.300781 136.757812 218.859375 138.527344 C 218.414062 139.855469 216.644531 142.070312 215.316406 143.839844 C 212.664062 147.378906 209.125 150.917969 209.125 156.226562 C 209.125 161.09375 212.222656 165.074219 215.316406 168.613281 C 216.644531 170.382812 218.414062 172.152344 218.859375 173.921875 C 219.300781 175.691406 219.300781 177.90625 218.859375 180.558594 C 218.414062 184.984375 218.414062 189.851562 221.070312 193.832031 C 223.722656 197.371094 227.707031 198.699219 231.6875 199.585938 L 202.488281 252.234375 C 201.601562 253.558594 201.601562 255.332031 202.488281 256.65625 C 203.371094 257.984375 204.699219 258.871094 206.46875 258.871094 L 225.496094 257.542969 L 234.34375 274.355469 C 235.226562 275.683594 236.554688 276.566406 238.324219 276.566406 C 240.09375 276.566406 241.421875 275.683594 242.304688 274.355469 L 274.160156 218.167969 L 305.132812 273.914062 C 306.015625 275.238281 307.34375 276.125 309.113281 276.125 C 310.882812 276.125 312.210938 275.238281 313.09375 273.914062 L 321.945312 257.101562 L 340.96875 258.425781 C 342.738281 258.425781 344.066406 257.542969 344.949219 256.214844 C 345.835938 255.332031 345.835938 253.558594 344.949219 252.234375 Z M 228.148438 181.003906 C 228.148438 177.90625 228.589844 174.367188 227.707031 171.269531 C 226.820312 168.171875 224.609375 165.515625 222.398438 163.304688 C 220.628906 161.09375 218.414062 158.4375 218.414062 156.667969 C 218.414062 154.898438 220.628906 152.246094 222.398438 150.03125 C 224.609375 147.378906 226.820312 145.164062 227.707031 142.070312 C 228.589844 138.972656 228.589844 135.433594 228.148438 132.335938 C 228.148438 129.238281 227.707031 126.140625 228.589844 124.8125 C 229.476562 123.488281 232.574219 122.601562 235.226562 122.160156 C 238.324219 121.273438 241.863281 120.390625 244.519531 118.621094 C 247.171875 116.851562 248.941406 113.753906 250.710938 111.097656 C 252.480469 108.445312 253.808594 105.789062 255.578125 105.347656 C 256.023438 105.347656 256.023438 105.347656 256.464844 105.347656 C 258.234375 105.347656 260.445312 106.230469 262.65625 107.117188 C 265.753906 108.445312 268.851562 109.769531 272.390625 109.769531 C 275.929688 109.769531 279.027344 108.445312 282.125 107.117188 C 284.78125 106.230469 287.433594 104.90625 289.203125 105.347656 C 290.972656 105.789062 292.300781 108.445312 294.070312 111.097656 C 295.839844 113.753906 297.609375 116.851562 300.265625 118.621094 C 302.917969 120.390625 306.457031 121.273438 309.554688 122.160156 C 312.652344 123.042969 315.308594 123.488281 316.191406 124.8125 C 317.078125 126.140625 317.078125 129.238281 316.632812 132.335938 C 316.632812 135.433594 316.191406 138.972656 317.078125 142.070312 C 317.960938 145.164062 320.175781 147.820312 322.386719 150.03125 C 324.15625 152.246094 326.367188 154.898438 326.367188 156.667969 C 326.367188 158.4375 324.15625 161.09375 322.386719 163.304688 C 320.175781 165.960938 317.960938 168.171875 317.078125 171.269531 C 316.191406 174.367188 316.191406 177.90625 316.632812 181.003906 C 316.632812 184.097656 317.078125 187.195312 316.191406 188.523438 C 315.308594 189.851562 312.210938 190.734375 309.554688 191.179688 C 306.457031 192.0625 302.917969 192.949219 300.265625 194.71875 C 297.609375 196.488281 295.839844 199.585938 294.070312 202.238281 C 292.300781 204.894531 290.972656 207.546875 289.203125 207.992188 C 287.875 208.433594 284.78125 207.105469 282.125 206.21875 C 279.914062 205.335938 277.257812 204.449219 275.046875 204.007812 C 274.160156 204.007812 273.277344 203.566406 272.390625 203.566406 C 268.851562 203.566406 265.753906 204.894531 262.65625 206.21875 C 260.003906 207.105469 257.347656 208.433594 255.578125 207.992188 C 253.808594 207.546875 252.480469 204.894531 250.710938 202.238281 C 248.941406 199.585938 247.171875 196.488281 244.519531 194.71875 C 241.863281 192.949219 238.324219 192.0625 235.226562 191.179688 C 232.128906 190.292969 229.476562 189.851562 228.589844 188.523438 C 227.707031 187.195312 228.148438 184.097656 228.148438 181.003906 Z M 239.210938 262.851562 L 232.574219 250.90625 C 231.6875 249.578125 229.917969 248.695312 228.589844 248.695312 L 214.875 249.136719 L 240.535156 202.679688 C 241.421875 203.566406 242.75 205.335938 243.632812 207.105469 C 245.847656 210.644531 248.5 215.070312 253.367188 216.394531 C 254.695312 216.839844 255.578125 216.839844 256.90625 216.839844 C 260.003906 216.839844 263.542969 215.511719 266.199219 214.183594 Z M 319.730469 248.25 C 317.960938 248.25 316.191406 249.136719 315.75 250.464844 L 309.113281 262.410156 L 283.453125 215.953125 C 286.105469 216.839844 289.203125 217.28125 292.300781 216.394531 C 297.167969 215.070312 299.820312 210.644531 302.035156 207.105469 C 303.363281 204.894531 304.6875 203.125 306.015625 201.796875 C 306.457031 201.355469 306.902344 201.355469 307.34375 201.355469 L 333.890625 249.136719 Z M 319.730469 248.25 " fill-opacity="1" fill-rule="nonzero"/><g clip-path="url(#12ecdce4bc)"><path fill="#ff6929" d="M 352.472656 327.445312 L 23.304688 327.445312 C 12.6875 327.445312 4.28125 319.039062 4.28125 308.421875 L 4.28125 65.96875 C 4.28125 55.351562 12.6875 46.945312 23.304688 46.945312 L 352.472656 46.945312 C 363.089844 46.945312 371.496094 55.351562 371.496094 65.96875 L 371.496094 308.421875 C 371.496094 318.597656 362.648438 327.445312 352.472656 327.445312 Z M 23.304688 55.792969 C 17.550781 55.792969 13.128906 60.21875 13.128906 65.96875 L 13.128906 308.421875 C 13.128906 314.171875 17.550781 318.597656 23.304688 318.597656 L 352.472656 318.597656 C 358.222656 318.597656 362.648438 314.171875 362.648438 308.421875 L 362.648438 65.96875 C 362.648438 60.21875 358.222656 55.792969 352.472656 55.792969 Z M 23.304688 55.792969 " fill-opacity="1" fill-rule="nonzero"/></g><path fill="#ff6929" d="M 336.984375 308.863281 L 40.117188 308.863281 C 30.824219 308.863281 23.304688 301.34375 23.304688 292.050781 L 23.304688 82.339844 C 23.304688 73.050781 30.824219 65.527344 40.117188 65.527344 L 336.984375 65.527344 C 346.277344 65.527344 353.796875 73.050781 353.796875 82.339844 L 353.796875 292.050781 C 353.796875 301.34375 346.277344 308.863281 336.984375 308.863281 Z M 40.117188 69.953125 C 33.480469 69.953125 27.726562 75.703125 27.726562 82.339844 L 27.726562 292.050781 C 27.726562 298.6875 33.480469 304.441406 40.117188 304.441406 L 336.984375 304.441406 C 343.621094 304.441406 349.375 298.6875 349.375 292.050781 L 349.375 82.339844 C 349.375 75.703125 343.621094 69.953125 336.984375 69.953125 Z M 40.117188 69.953125 " fill-opacity="1" fill-rule="nonzero"/><path fill="#ff6929" d="M 198.949219 112.867188 L 55.601562 112.867188 C 52.945312 112.867188 51.175781 111.097656 51.175781 108.445312 C 51.175781 105.789062 52.945312 104.019531 55.601562 104.019531 L 198.507812 104.019531 C 201.160156 104.019531 202.929688 105.789062 202.929688 108.445312 C 202.929688 111.097656 201.160156 112.867188 198.949219 112.867188 Z M 198.949219 112.867188 " fill-opacity="1" fill-rule="nonzero"/><path fill="#ff6929" d="M 182.578125 223.476562 L 55.601562 223.476562 C 52.945312 223.476562 51.175781 221.707031 51.175781 219.050781 C 51.175781 216.394531 52.945312 214.625 55.601562 214.625 L 182.578125 214.625 C 185.234375 214.625 187.003906 216.394531 187.003906 219.050781 C 187.003906 221.707031 185.234375 223.476562 182.578125 223.476562 Z M 182.578125 223.476562 " fill-opacity="1" fill-rule="nonzero"/><path fill="#ff6929" d="M 182.578125 172.597656 L 55.601562 172.597656 C 52.945312 172.597656 51.175781 170.828125 51.175781 168.171875 C 51.175781 165.515625 52.945312 163.746094 55.601562 163.746094 L 182.578125 163.746094 C 185.234375 163.746094 187.003906 165.515625 187.003906 168.171875 C 187.003906 170.828125 185.234375 172.597656 182.578125 172.597656 Z M 182.578125 172.597656 " fill-opacity="1" fill-rule="nonzero"/><path fill="#ff6929" d="M 122.851562 257.101562 L 55.601562 257.101562 C 52.945312 257.101562 51.175781 255.332031 51.175781 252.675781 C 51.175781 250.019531 52.945312 248.25 55.601562 248.25 L 122.851562 248.25 C 125.503906 248.25 127.273438 250.019531 127.273438 252.675781 C 127.273438 255.332031 125.503906 257.101562 122.851562 257.101562 Z M 122.851562 257.101562 " fill-opacity="1" fill-rule="nonzero"/></svg>