<svg xmlns="http://www.w3.org/2000/svg" xmlns:xlink="http://www.w3.org/1999/xlink" width="500" zoomAndPan="magnify" viewBox="0 0 375 374.999991" height="500" preserveAspectRatio="xMidYMid meet" version="1.0"><defs><clipPath id="96291479ca"><path d="M 7 8.882812 L 260 8.882812 L 260 362.882812 L 7 362.882812 Z M 7 8.882812 " clip-rule="nonzero"/></clipPath><clipPath id="ee9ca32c49"><path d="M 146 47 L 371.394531 47 L 371.394531 272 L 146 272 Z M 146 47 " clip-rule="nonzero"/></clipPath></defs><g clip-path="url(#96291479ca)"><path fill="#ff6929" d="M 259.050781 37.59375 L 259.390625 37.59375 L 259.390625 32.402344 C 259.390625 19.460938 248.855469 8.933594 235.949219 8.933594 L 30.632812 8.933594 C 17.71875 8.933594 7.191406 19.460938 7.191406 32.402344 L 7.191406 339.164062 C 7.191406 352.105469 17.71875 362.632812 30.632812 362.632812 L 235.949219 362.632812 C 248.855469 362.632812 259.390625 352.105469 259.390625 339.164062 L 259.390625 281.535156 L 259.050781 281.535156 C 255.375 281.535156 251.75 281.371094 248.160156 281.058594 L 248.160156 339.164062 C 248.160156 345.933594 242.683594 351.402344 235.949219 351.402344 L 30.632812 351.402344 C 23.898438 351.402344 18.421875 345.933594 18.421875 339.164062 L 18.421875 32.402344 C 18.421875 25.632812 23.898438 20.164062 30.632812 20.164062 L 235.949219 20.164062 C 242.683594 20.164062 248.160156 25.632812 248.160156 32.402344 L 248.160156 38.070312 C 251.75 37.765625 255.375 37.59375 259.050781 37.59375 " fill-opacity="1" fill-rule="nonzero"/></g><path fill="#ff6929" d="M 186.769531 61.375 C 192.550781 57.105469 198.695312 53.34375 205.203125 50.144531 L 34.625 50.144531 L 34.625 102.75 L 151.140625 102.75 C 153.191406 98.871094 155.433594 95.144531 157.851562 91.519531 L 45.84375 91.519531 L 45.84375 61.375 L 186.769531 61.375 " fill-opacity="1" fill-rule="nonzero"/><path fill="#ff6929" d="M 141.519531 126.945312 C 142.578125 123.132812 143.820312 119.367188 145.246094 115.714844 L 34.625 115.714844 L 34.625 141.941406 L 138.34375 141.941406 C 138.902344 138.140625 139.632812 134.386719 140.535156 130.703125 L 45.84375 130.703125 L 45.84375 126.945312 L 141.519531 126.945312 " fill-opacity="1" fill-rule="nonzero"/><path fill="#ff6929" d="M 64.507812 194.09375 L 87.871094 194.09375 L 87.871094 170.71875 L 64.507812 170.71875 Z M 99.101562 205.3125 L 53.277344 205.3125 L 53.277344 159.488281 L 99.101562 159.488281 L 99.101562 205.3125 " fill-opacity="1" fill-rule="nonzero"/><path fill="#ff6929" d="M 142.074219 194.09375 L 121.664062 194.09375 L 121.664062 170.710938 L 137.589844 170.710938 C 137.25 167.035156 137.078125 163.324219 137.078125 159.566406 L 137.078125 159.480469 L 110.445312 159.480469 L 110.445312 205.324219 L 146.003906 205.324219 C 144.492188 201.671875 143.167969 197.910156 142.074219 194.09375 " fill-opacity="1" fill-rule="nonzero"/><path fill="#ff6929" d="M 64.507812 252.207031 L 87.871094 252.207031 L 87.871094 228.835938 L 64.507812 228.835938 Z M 99.101562 263.429688 L 53.277344 263.429688 L 53.277344 217.605469 L 99.101562 217.605469 L 99.101562 263.429688 " fill-opacity="1" fill-rule="nonzero"/><path fill="#ff6929" d="M 145.054688 252.199219 L 121.664062 252.199219 L 121.664062 228.84375 L 145.054688 228.84375 Z M 151.792969 217.613281 L 110.445312 217.613281 L 110.445312 263.429688 L 156.277344 263.429688 L 156.277344 225.191406 C 154.710938 222.722656 153.21875 220.203125 151.792969 217.613281 " fill-opacity="1" fill-rule="nonzero"/><path fill="#ff6929" d="M 179.804688 252.199219 L 178.851562 252.199219 L 178.851562 251.382812 C 174.859375 247.90625 171.132812 244.167969 167.621094 240.210938 L 167.621094 263.429688 L 195.183594 263.429688 C 189.765625 260.089844 184.605469 256.328125 179.804688 252.199219 " fill-opacity="1" fill-rule="nonzero"/><path fill="#ff6929" d="M 64.507812 310.183594 L 87.871094 310.183594 L 87.871094 286.8125 L 64.507812 286.8125 Z M 99.101562 321.414062 L 53.277344 321.414062 L 53.277344 275.582031 L 99.101562 275.582031 L 99.101562 321.414062 " fill-opacity="1" fill-rule="nonzero"/><path fill="#ff6929" d="M 121.675781 310.183594 L 145.046875 310.183594 L 145.046875 286.8125 L 121.675781 286.8125 Z M 156.269531 321.414062 L 110.445312 321.414062 L 110.445312 275.582031 L 156.269531 275.582031 L 156.269531 321.414062 " fill-opacity="1" fill-rule="nonzero"/><path fill="#ff6929" d="M 178.839844 310.183594 L 202.214844 310.183594 L 202.214844 286.8125 L 178.839844 286.8125 Z M 213.4375 321.414062 L 167.613281 321.414062 L 167.613281 275.582031 L 213.4375 275.582031 L 213.4375 321.414062 " fill-opacity="1" fill-rule="nonzero"/><path fill="#ff6929" d="M 236.957031 279.507812 L 236.957031 317.972656 C 236.957031 330.886719 226.429688 341.414062 213.488281 341.414062 L 154.710938 341.414062 L 154.710938 330.183594 L 213.488281 330.183594 C 220.257812 330.183594 225.726562 324.707031 225.726562 317.972656 L 225.726562 276.902344 C 229.402344 277.945312 233.140625 278.839844 236.957031 279.507812 " fill-opacity="1" fill-rule="nonzero"/><path fill="#ff6929" d="M 298.808594 76.203125 C 294.480469 76.203125 290.941406 72.664062 290.941406 68.34375 C 290.941406 64 294.480469 60.488281 298.808594 60.488281 C 303.15625 60.488281 306.667969 64 306.667969 68.34375 C 306.667969 72.664062 303.15625 76.203125 298.808594 76.203125 Z M 298.808594 48.136719 C 287.664062 48.136719 278.589844 57.203125 278.589844 68.34375 C 278.589844 79.488281 287.664062 88.554688 298.808594 88.554688 C 309.953125 88.554688 319.019531 79.488281 319.019531 68.34375 C 319.019531 57.203125 309.953125 48.136719 298.808594 48.136719 " fill-opacity="1" fill-rule="nonzero"/><path fill="#ff6929" d="M 350.292969 127.660156 C 345.9375 127.660156 342.425781 124.121094 342.425781 119.800781 C 342.425781 115.472656 345.9375 111.945312 350.292969 111.945312 C 354.613281 111.945312 358.148438 115.472656 358.148438 119.800781 C 358.148438 124.121094 354.613281 127.660156 350.292969 127.660156 Z M 350.292969 99.59375 C 339.140625 99.59375 330.074219 108.660156 330.074219 119.800781 C 330.074219 130.945312 339.140625 140.011719 350.292969 140.011719 C 361.433594 140.011719 370.5 130.945312 370.5 119.800781 C 370.5 108.660156 361.433594 99.59375 350.292969 99.59375 " fill-opacity="1" fill-rule="nonzero"/><g clip-path="url(#ee9ca32c49)"><path fill="#ff6929" d="M 259.050781 260.628906 C 203.328125 260.628906 157.988281 215.292969 157.988281 159.566406 C 157.988281 107.640625 197.363281 64.738281 247.820312 59.132812 L 247.820312 170.796875 L 359.488281 170.796875 C 353.882812 221.253906 310.976562 260.628906 259.050781 260.628906 Z M 259.042969 159.566406 L 259.042969 47.285156 C 197.035156 47.285156 146.757812 97.558594 146.757812 159.566406 C 146.757812 221.578125 197.035156 271.851562 259.042969 271.851562 C 321.0625 271.851562 371.335938 221.578125 371.335938 159.566406 L 259.042969 159.566406 " fill-opacity="1" fill-rule="nonzero"/></g><path fill="#ff6929" d="M 370.136719 57.203125 L 287.691406 139.671875 L 278.957031 130.917969 L 361.402344 48.464844 L 370.136719 57.203125 " fill-opacity="1" fill-rule="nonzero"/></svg>