<svg xmlns="http://www.w3.org/2000/svg" xmlns:xlink="http://www.w3.org/1999/xlink" width="1366" zoomAndPan="magnify" viewBox="0 0 1024.5 576" height="768" preserveAspectRatio="xMidYMid meet" version="1.0"><defs><clipPath id="9bc8a3a53d"><path d="M 44 0.140625 L 46 0.140625 L 46 575.859375 L 44 575.859375 Z M 44 0.140625 " clip-rule="nonzero"/></clipPath><clipPath id="e11393cf8e"><path d="M 88 0.140625 L 91 0.140625 L 91 575.859375 L 88 575.859375 Z M 88 0.140625 " clip-rule="nonzero"/></clipPath><clipPath id="143e62174d"><path d="M 133 0.140625 L 135 0.140625 L 135 575.859375 L 133 575.859375 Z M 133 0.140625 " clip-rule="nonzero"/></clipPath><clipPath id="93c9185434"><path d="M 177 0.140625 L 179 0.140625 L 179 575.859375 L 177 575.859375 Z M 177 0.140625 " clip-rule="nonzero"/></clipPath><clipPath id="398764595b"><path d="M 221 0.140625 L 223 0.140625 L 223 575.859375 L 221 575.859375 Z M 221 0.140625 " clip-rule="nonzero"/></clipPath><clipPath id="c8a0c73082"><path d="M 265 0.140625 L 267 0.140625 L 267 575.859375 L 265 575.859375 Z M 265 0.140625 " clip-rule="nonzero"/></clipPath><clipPath id="e62fbd4445"><path d="M 309 0.140625 L 311 0.140625 L 311 575.859375 L 309 575.859375 Z M 309 0.140625 " clip-rule="nonzero"/></clipPath><clipPath id="eee1f7d746"><path d="M 353 0.140625 L 355 0.140625 L 355 575.859375 L 353 575.859375 Z M 353 0.140625 " clip-rule="nonzero"/></clipPath><clipPath id="2fa446c664"><path d="M 397 0.140625 L 399 0.140625 L 399 575.859375 L 397 575.859375 Z M 397 0.140625 " clip-rule="nonzero"/></clipPath><clipPath id="144565f8c5"><path d="M 441 0.140625 L 443 0.140625 L 443 575.859375 L 441 575.859375 Z M 441 0.140625 " clip-rule="nonzero"/></clipPath><clipPath id="00ed306ccc"><path d="M 485 0.140625 L 487 0.140625 L 487 575.859375 L 485 575.859375 Z M 485 0.140625 " clip-rule="nonzero"/></clipPath><clipPath id="d4e92244c1"><path d="M 529 0.140625 L 531 0.140625 L 531 575.859375 L 529 575.859375 Z M 529 0.140625 " clip-rule="nonzero"/></clipPath><clipPath id="1b7e6d837d"><path d="M 0 44 L 575.71875 44 L 575.71875 47 L 0 47 Z M 0 44 " clip-rule="nonzero"/></clipPath><clipPath id="c720eba116"><path d="M 0 89 L 575.71875 89 L 575.71875 91 L 0 91 Z M 0 89 " clip-rule="nonzero"/></clipPath><clipPath id="8936586395"><path d="M 0 133 L 575.71875 133 L 575.71875 135 L 0 135 Z M 0 133 " clip-rule="nonzero"/></clipPath><clipPath id="487ddc2472"><path d="M 0 177 L 575.71875 177 L 575.71875 179 L 0 179 Z M 0 177 " clip-rule="nonzero"/></clipPath><clipPath id="8827564880"><path d="M 0 221 L 575.71875 221 L 575.71875 223 L 0 223 Z M 0 221 " clip-rule="nonzero"/></clipPath><clipPath id="453f42510d"><path d="M 0 265 L 575.71875 265 L 575.71875 267 L 0 267 Z M 0 265 " clip-rule="nonzero"/></clipPath><clipPath id="00e44e49f9"><path d="M 0 309 L 575.71875 309 L 575.71875 311 L 0 311 Z M 0 309 " clip-rule="nonzero"/></clipPath><clipPath id="567284be05"><path d="M 0 353 L 575.71875 353 L 575.71875 355 L 0 355 Z M 0 353 " clip-rule="nonzero"/></clipPath><clipPath id="69cf10a753"><path d="M 0 397 L 575.71875 397 L 575.71875 399 L 0 399 Z M 0 397 " clip-rule="nonzero"/></clipPath><clipPath id="b1eaa8d5a5"><path d="M 0 441 L 575.71875 441 L 575.71875 443 L 0 443 Z M 0 441 " clip-rule="nonzero"/></clipPath><clipPath id="550e942b82"><path d="M 0 485 L 575.71875 485 L 575.71875 487 L 0 487 Z M 0 485 " clip-rule="nonzero"/></clipPath><clipPath id="f64f2ebd81"><path d="M 0 529 L 575.71875 529 L 575.71875 532 L 0 532 Z M 0 529 " clip-rule="nonzero"/></clipPath><clipPath id="7c744c8c7e"><path d="M 575 0.140625 L 577 0.140625 L 577 575.859375 L 575 575.859375 Z M 575 0.140625 " clip-rule="nonzero"/></clipPath><clipPath id="cb2614a89e"><path d="M 619 0.140625 L 621 0.140625 L 621 575.859375 L 619 575.859375 Z M 619 0.140625 " clip-rule="nonzero"/></clipPath><clipPath id="2ef06f084a"><path d="M 663 0.140625 L 665 0.140625 L 665 575.859375 L 663 575.859375 Z M 663 0.140625 " clip-rule="nonzero"/></clipPath><clipPath id="2807ba0620"><path d="M 707 0.140625 L 710 0.140625 L 710 575.859375 L 707 575.859375 Z M 707 0.140625 " clip-rule="nonzero"/></clipPath><clipPath id="8d592f435b"><path d="M 751 0.140625 L 754 0.140625 L 754 575.859375 L 751 575.859375 Z M 751 0.140625 " clip-rule="nonzero"/></clipPath><clipPath id="c1ada90b2f"><path d="M 796 0.140625 L 798 0.140625 L 798 575.859375 L 796 575.859375 Z M 796 0.140625 " clip-rule="nonzero"/></clipPath><clipPath id="fdfbd7048d"><path d="M 840 0.140625 L 842 0.140625 L 842 575.859375 L 840 575.859375 Z M 840 0.140625 " clip-rule="nonzero"/></clipPath><clipPath id="ae2be429c7"><path d="M 884 0.140625 L 886 0.140625 L 886 575.859375 L 884 575.859375 Z M 884 0.140625 " clip-rule="nonzero"/></clipPath><clipPath id="59df3ebfc3"><path d="M 928 0.140625 L 930 0.140625 L 930 575.859375 L 928 575.859375 Z M 928 0.140625 " clip-rule="nonzero"/></clipPath><clipPath id="0aea62a38e"><path d="M 972 0.140625 L 974 0.140625 L 974 575.859375 L 972 575.859375 Z M 972 0.140625 " clip-rule="nonzero"/></clipPath><clipPath id="d24832af26"><path d="M 1016 0.140625 L 1018 0.140625 L 1018 575.859375 L 1016 575.859375 Z M 1016 0.140625 " clip-rule="nonzero"/></clipPath><clipPath id="f14aad3cfe"><path d="M 530.777344 44 L 1024 44 L 1024 47 L 530.777344 47 Z M 530.777344 44 " clip-rule="nonzero"/></clipPath><clipPath id="9f24f1ad13"><path d="M 530.777344 89 L 1024 89 L 1024 91 L 530.777344 91 Z M 530.777344 89 " clip-rule="nonzero"/></clipPath><clipPath id="a796b7b9bd"><path d="M 530.777344 133 L 1024 133 L 1024 135 L 530.777344 135 Z M 530.777344 133 " clip-rule="nonzero"/></clipPath><clipPath id="530fc0316a"><path d="M 530.777344 177 L 1024 177 L 1024 179 L 530.777344 179 Z M 530.777344 177 " clip-rule="nonzero"/></clipPath><clipPath id="716c43eb24"><path d="M 530.777344 221 L 1024 221 L 1024 223 L 530.777344 223 Z M 530.777344 221 " clip-rule="nonzero"/></clipPath><clipPath id="92b9190f75"><path d="M 530.777344 265 L 1024 265 L 1024 267 L 530.777344 267 Z M 530.777344 265 " clip-rule="nonzero"/></clipPath><clipPath id="eddc0fce4d"><path d="M 530.777344 309 L 1024 309 L 1024 311 L 530.777344 311 Z M 530.777344 309 " clip-rule="nonzero"/></clipPath><clipPath id="fa41fb2742"><path d="M 530.777344 353 L 1024 353 L 1024 355 L 530.777344 355 Z M 530.777344 353 " clip-rule="nonzero"/></clipPath><clipPath id="cee843512b"><path d="M 530.777344 397 L 1024 397 L 1024 399 L 530.777344 399 Z M 530.777344 397 " clip-rule="nonzero"/></clipPath><clipPath id="6f2b225d2d"><path d="M 530.777344 441 L 1024 441 L 1024 443 L 530.777344 443 Z M 530.777344 441 " clip-rule="nonzero"/></clipPath><clipPath id="b3a7c8b27c"><path d="M 530.777344 485 L 1024 485 L 1024 487 L 530.777344 487 Z M 530.777344 485 " clip-rule="nonzero"/></clipPath><clipPath id="bb8e2777a4"><path d="M 530.777344 529 L 1024 529 L 1024 532 L 530.777344 532 Z M 530.777344 529 " clip-rule="nonzero"/></clipPath></defs><g clip-path="url(#9bc8a3a53d)"><path fill="#f5f5f5" d="M 44.835938 0.140625 L 45.988281 0.140625 L 45.988281 575.859375 L 44.835938 575.859375 Z M 44.835938 0.140625 " fill-opacity="1" fill-rule="nonzero"/></g><g clip-path="url(#e11393cf8e)"><path fill="#f5f5f5" d="M 88.914062 0.140625 L 90.066406 0.140625 L 90.066406 575.859375 L 88.914062 575.859375 Z M 88.914062 0.140625 " fill-opacity="1" fill-rule="nonzero"/></g><g clip-path="url(#143e62174d)"><path fill="#f5f5f5" d="M 133.003906 0.140625 L 134.152344 0.140625 L 134.152344 575.859375 L 133.003906 575.859375 Z M 133.003906 0.140625 " fill-opacity="1" fill-rule="nonzero"/></g><g clip-path="url(#93c9185434)"><path fill="#f5f5f5" d="M 177.078125 0.140625 L 178.230469 0.140625 L 178.230469 575.859375 L 177.078125 575.859375 Z M 177.078125 0.140625 " fill-opacity="1" fill-rule="nonzero"/></g><g clip-path="url(#398764595b)"><path fill="#f5f5f5" d="M 221.15625 0.140625 L 222.308594 0.140625 L 222.308594 575.859375 L 221.15625 575.859375 Z M 221.15625 0.140625 " fill-opacity="1" fill-rule="nonzero"/></g><g clip-path="url(#c8a0c73082)"><path fill="#f5f5f5" d="M 265.246094 0.140625 L 266.398438 0.140625 L 266.398438 575.859375 L 265.246094 575.859375 Z M 265.246094 0.140625 " fill-opacity="1" fill-rule="nonzero"/></g><g clip-path="url(#e62fbd4445)"><path fill="#f5f5f5" d="M 309.324219 0.140625 L 310.472656 0.140625 L 310.472656 575.859375 L 309.324219 575.859375 Z M 309.324219 0.140625 " fill-opacity="1" fill-rule="nonzero"/></g><g clip-path="url(#eee1f7d746)"><path fill="#f5f5f5" d="M 353.410156 0.140625 L 354.5625 0.140625 L 354.5625 575.859375 L 353.410156 575.859375 Z M 353.410156 0.140625 " fill-opacity="1" fill-rule="nonzero"/></g><g clip-path="url(#2fa446c664)"><path fill="#f5f5f5" d="M 397.488281 0.140625 L 398.640625 0.140625 L 398.640625 575.859375 L 397.488281 575.859375 Z M 397.488281 0.140625 " fill-opacity="1" fill-rule="nonzero"/></g><g clip-path="url(#144565f8c5)"><path fill="#f5f5f5" d="M 441.566406 0.140625 L 442.714844 0.140625 L 442.714844 575.859375 L 441.566406 575.859375 Z M 441.566406 0.140625 " fill-opacity="1" fill-rule="nonzero"/></g><g clip-path="url(#00ed306ccc)"><path fill="#f5f5f5" d="M 485.652344 0.140625 L 486.804688 0.140625 L 486.804688 575.859375 L 485.652344 575.859375 Z M 485.652344 0.140625 " fill-opacity="1" fill-rule="nonzero"/></g><g clip-path="url(#d4e92244c1)"><path fill="#f5f5f5" d="M 529.730469 0.140625 L 530.882812 0.140625 L 530.882812 575.859375 L 529.730469 575.859375 Z M 529.730469 0.140625 " fill-opacity="1" fill-rule="nonzero"/></g><g clip-path="url(#1b7e6d837d)"><path fill="#f5f5f5" d="M 0 44.976562 L 575.71875 44.976562 L 575.71875 46.128906 L 0 46.128906 Z M 0 44.976562 " fill-opacity="1" fill-rule="nonzero"/></g><g clip-path="url(#c720eba116)"><path fill="#f5f5f5" d="M 0 89.054688 L 575.71875 89.054688 L 575.71875 90.207031 L 0 90.207031 Z M 0 89.054688 " fill-opacity="1" fill-rule="nonzero"/></g><g clip-path="url(#8936586395)"><path fill="#f5f5f5" d="M 0 133.144531 L 575.71875 133.144531 L 575.71875 134.292969 L 0 134.292969 Z M 0 133.144531 " fill-opacity="1" fill-rule="nonzero"/></g><g clip-path="url(#487ddc2472)"><path fill="#f5f5f5" d="M 0 177.21875 L 575.71875 177.21875 L 575.71875 178.371094 L 0 178.371094 Z M 0 177.21875 " fill-opacity="1" fill-rule="nonzero"/></g><g clip-path="url(#8827564880)"><path fill="#f5f5f5" d="M 0 221.296875 L 575.71875 221.296875 L 575.71875 222.449219 L 0 222.449219 Z M 0 221.296875 " fill-opacity="1" fill-rule="nonzero"/></g><g clip-path="url(#453f42510d)"><path fill="#f5f5f5" d="M 0 265.386719 L 575.71875 265.386719 L 575.71875 266.539062 L 0 266.539062 Z M 0 265.386719 " fill-opacity="1" fill-rule="nonzero"/></g><g clip-path="url(#00e44e49f9)"><path fill="#f5f5f5" d="M 0 309.460938 L 575.71875 309.460938 L 575.71875 310.613281 L 0 310.613281 Z M 0 309.460938 " fill-opacity="1" fill-rule="nonzero"/></g><g clip-path="url(#567284be05)"><path fill="#f5f5f5" d="M 0 353.550781 L 575.71875 353.550781 L 575.71875 354.703125 L 0 354.703125 Z M 0 353.550781 " fill-opacity="1" fill-rule="nonzero"/></g><g clip-path="url(#69cf10a753)"><path fill="#f5f5f5" d="M 0 397.628906 L 575.71875 397.628906 L 575.71875 398.78125 L 0 398.78125 Z M 0 397.628906 " fill-opacity="1" fill-rule="nonzero"/></g><g clip-path="url(#b1eaa8d5a5)"><path fill="#f5f5f5" d="M 0 441.707031 L 575.71875 441.707031 L 575.71875 442.855469 L 0 442.855469 Z M 0 441.707031 " fill-opacity="1" fill-rule="nonzero"/></g><g clip-path="url(#550e942b82)"><path fill="#f5f5f5" d="M 0 485.792969 L 575.71875 485.792969 L 575.71875 486.945312 L 0 486.945312 Z M 0 485.792969 " fill-opacity="1" fill-rule="nonzero"/></g><g clip-path="url(#f64f2ebd81)"><path fill="#f5f5f5" d="M 0 529.871094 L 575.71875 529.871094 L 575.71875 531.023438 L 0 531.023438 Z M 0 529.871094 " fill-opacity="1" fill-rule="nonzero"/></g><g clip-path="url(#7c744c8c7e)"><path fill="#f5f5f5" d="M 575.617188 0.140625 L 576.765625 0.140625 L 576.765625 575.859375 L 575.617188 575.859375 Z M 575.617188 0.140625 " fill-opacity="1" fill-rule="nonzero"/></g><g clip-path="url(#cb2614a89e)"><path fill="#f5f5f5" d="M 619.691406 0.140625 L 620.84375 0.140625 L 620.84375 575.859375 L 619.691406 575.859375 Z M 619.691406 0.140625 " fill-opacity="1" fill-rule="nonzero"/></g><g clip-path="url(#2ef06f084a)"><path fill="#f5f5f5" d="M 663.78125 0.140625 L 664.933594 0.140625 L 664.933594 575.859375 L 663.78125 575.859375 Z M 663.78125 0.140625 " fill-opacity="1" fill-rule="nonzero"/></g><g clip-path="url(#2807ba0620)"><path fill="#f5f5f5" d="M 707.859375 0.140625 L 709.007812 0.140625 L 709.007812 575.859375 L 707.859375 575.859375 Z M 707.859375 0.140625 " fill-opacity="1" fill-rule="nonzero"/></g><g clip-path="url(#8d592f435b)"><path fill="#f5f5f5" d="M 751.933594 0.140625 L 753.085938 0.140625 L 753.085938 575.859375 L 751.933594 575.859375 Z M 751.933594 0.140625 " fill-opacity="1" fill-rule="nonzero"/></g><g clip-path="url(#c1ada90b2f)"><path fill="#f5f5f5" d="M 796.023438 0.140625 L 797.175781 0.140625 L 797.175781 575.859375 L 796.023438 575.859375 Z M 796.023438 0.140625 " fill-opacity="1" fill-rule="nonzero"/></g><g clip-path="url(#fdfbd7048d)"><path fill="#f5f5f5" d="M 840.101562 0.140625 L 841.253906 0.140625 L 841.253906 575.859375 L 840.101562 575.859375 Z M 840.101562 0.140625 " fill-opacity="1" fill-rule="nonzero"/></g><g clip-path="url(#ae2be429c7)"><path fill="#f5f5f5" d="M 884.1875 0.140625 L 885.339844 0.140625 L 885.339844 575.859375 L 884.1875 575.859375 Z M 884.1875 0.140625 " fill-opacity="1" fill-rule="nonzero"/></g><g clip-path="url(#59df3ebfc3)"><path fill="#f5f5f5" d="M 928.265625 0.140625 L 929.417969 0.140625 L 929.417969 575.859375 L 928.265625 575.859375 Z M 928.265625 0.140625 " fill-opacity="1" fill-rule="nonzero"/></g><g clip-path="url(#0aea62a38e)"><path fill="#f5f5f5" d="M 972.34375 0.140625 L 973.496094 0.140625 L 973.496094 575.859375 L 972.34375 575.859375 Z M 972.34375 0.140625 " fill-opacity="1" fill-rule="nonzero"/></g><g clip-path="url(#d24832af26)"><path fill="#f5f5f5" d="M 1016.433594 0.140625 L 1017.582031 0.140625 L 1017.582031 575.859375 L 1016.433594 575.859375 Z M 1016.433594 0.140625 " fill-opacity="1" fill-rule="nonzero"/></g><g clip-path="url(#f14aad3cfe)"><path fill="#f5f5f5" d="M 530.777344 44.976562 L 1106.496094 44.976562 L 1106.496094 46.128906 L 530.777344 46.128906 Z M 530.777344 44.976562 " fill-opacity="1" fill-rule="nonzero"/></g><g clip-path="url(#9f24f1ad13)"><path fill="#f5f5f5" d="M 530.777344 89.054688 L 1106.496094 89.054688 L 1106.496094 90.207031 L 530.777344 90.207031 Z M 530.777344 89.054688 " fill-opacity="1" fill-rule="nonzero"/></g><g clip-path="url(#a796b7b9bd)"><path fill="#f5f5f5" d="M 530.777344 133.144531 L 1106.496094 133.144531 L 1106.496094 134.292969 L 530.777344 134.292969 Z M 530.777344 133.144531 " fill-opacity="1" fill-rule="nonzero"/></g><g clip-path="url(#530fc0316a)"><path fill="#f5f5f5" d="M 530.777344 177.21875 L 1106.496094 177.21875 L 1106.496094 178.371094 L 530.777344 178.371094 Z M 530.777344 177.21875 " fill-opacity="1" fill-rule="nonzero"/></g><g clip-path="url(#716c43eb24)"><path fill="#f5f5f5" d="M 530.777344 221.296875 L 1106.496094 221.296875 L 1106.496094 222.449219 L 530.777344 222.449219 Z M 530.777344 221.296875 " fill-opacity="1" fill-rule="nonzero"/></g><g clip-path="url(#92b9190f75)"><path fill="#f5f5f5" d="M 530.777344 265.386719 L 1106.496094 265.386719 L 1106.496094 266.539062 L 530.777344 266.539062 Z M 530.777344 265.386719 " fill-opacity="1" fill-rule="nonzero"/></g><g clip-path="url(#eddc0fce4d)"><path fill="#f5f5f5" d="M 530.777344 309.460938 L 1106.496094 309.460938 L 1106.496094 310.613281 L 530.777344 310.613281 Z M 530.777344 309.460938 " fill-opacity="1" fill-rule="nonzero"/></g><g clip-path="url(#fa41fb2742)"><path fill="#f5f5f5" d="M 530.777344 353.550781 L 1106.496094 353.550781 L 1106.496094 354.703125 L 530.777344 354.703125 Z M 530.777344 353.550781 " fill-opacity="1" fill-rule="nonzero"/></g><g clip-path="url(#cee843512b)"><path fill="#f5f5f5" d="M 530.777344 397.628906 L 1106.496094 397.628906 L 1106.496094 398.78125 L 530.777344 398.78125 Z M 530.777344 397.628906 " fill-opacity="1" fill-rule="nonzero"/></g><g clip-path="url(#6f2b225d2d)"><path fill="#f5f5f5" d="M 530.777344 441.707031 L 1106.496094 441.707031 L 1106.496094 442.855469 L 530.777344 442.855469 Z M 530.777344 441.707031 " fill-opacity="1" fill-rule="nonzero"/></g><g clip-path="url(#b3a7c8b27c)"><path fill="#f5f5f5" d="M 530.777344 485.792969 L 1106.496094 485.792969 L 1106.496094 486.945312 L 530.777344 486.945312 Z M 530.777344 485.792969 " fill-opacity="1" fill-rule="nonzero"/></g><g clip-path="url(#bb8e2777a4)"><path fill="#f5f5f5" d="M 530.777344 529.871094 L 1106.496094 529.871094 L 1106.496094 531.023438 L 530.777344 531.023438 Z M 530.777344 529.871094 " fill-opacity="1" fill-rule="nonzero"/></g></svg>