<svg xmlns="http://www.w3.org/2000/svg" xmlns:xlink="http://www.w3.org/1999/xlink" width="500" zoomAndPan="magnify" viewBox="0 0 375 374.999991" height="500" preserveAspectRatio="xMidYMid meet" version="1.0"><defs><clipPath id="1e63a175c2"><path d="M 171 0.949219 L 203 0.949219 L 203 101 L 171 101 Z M 171 0.949219 " clip-rule="nonzero"/></clipPath><clipPath id="802198552f"><path d="M 273 172 L 373.96875 172 L 373.96875 204 L 273 204 Z M 273 172 " clip-rule="nonzero"/></clipPath></defs><g clip-path="url(#1e63a175c2)"><path fill="#000000" d="M 193.089844 100.910156 L 180.492188 100.910156 C 175.484375 100.910156 171.429688 96.851562 171.429688 91.835938 L 171.429688 9.988281 C 171.429688 4.976562 175.484375 0.910156 180.492188 0.910156 L 193.089844 0.910156 C 198.101562 0.910156 202.15625 4.976562 202.15625 9.988281 L 202.15625 91.835938 C 202.15625 96.851562 198.101562 100.910156 193.089844 100.910156 " fill-opacity="1" fill-rule="nonzero"/></g><path fill="#7f7f7f" d="M 193.089844 375.136719 L 180.492188 375.136719 C 175.484375 375.136719 171.429688 371.070312 171.429688 366.058594 L 171.429688 284.210938 C 171.429688 279.199219 175.484375 275.136719 180.492188 275.136719 L 193.089844 275.136719 C 198.101562 275.136719 202.15625 279.199219 202.15625 284.210938 L 202.15625 366.058594 C 202.15625 371.070312 198.101562 375.136719 193.089844 375.136719 " fill-opacity="1" fill-rule="nonzero"/><g clip-path="url(#802198552f)"><path fill="#c9c9c9" d="M 273.796875 194.332031 L 273.796875 181.714844 C 273.796875 176.703125 277.851562 172.640625 282.859375 172.640625 L 364.601562 172.640625 C 369.613281 172.640625 373.671875 176.703125 373.671875 181.714844 L 373.671875 194.332031 C 373.671875 199.34375 369.613281 203.40625 364.601562 203.40625 L 282.859375 203.40625 C 277.851562 203.40625 273.796875 199.34375 273.796875 194.332031 " fill-opacity="1" fill-rule="nonzero"/></g><path fill="#afafaf" d="M 260.074219 235.742188 L 266.238281 224.734375 C 268.683594 220.363281 274.207031 218.804688 278.574219 221.257812 L 349.882812 261.273438 C 354.253906 263.722656 355.808594 269.253906 353.363281 273.628906 L 347.199219 284.632812 C 344.753906 289.007812 339.230469 290.5625 334.863281 288.113281 L 263.554688 248.097656 C 259.183594 245.644531 257.628906 240.113281 260.074219 235.742188 " fill-opacity="1" fill-rule="nonzero"/><path fill="#e2e2e2" d="M 353.363281 103.160156 L 347.199219 92.15625 C 344.753906 87.78125 339.230469 86.226562 334.863281 88.675781 L 263.554688 128.691406 C 259.183594 131.144531 257.628906 136.671875 260.074219 141.046875 L 266.238281 152.054688 C 268.683594 156.425781 274.207031 157.980469 278.574219 155.53125 L 349.882812 115.519531 C 354.253906 113.066406 355.808594 107.535156 353.363281 103.160156 " fill-opacity="1" fill-rule="nonzero"/><path fill="#313131" d="M 21.140625 103.160156 L 27.296875 92.15625 C 29.746094 87.78125 35.269531 86.226562 39.640625 88.675781 L 110.945312 128.691406 C 115.3125 131.144531 116.871094 136.671875 114.421875 141.046875 L 108.265625 152.054688 C 105.816406 156.425781 100.289062 157.980469 95.921875 155.53125 L 24.613281 115.519531 C 20.246094 113.066406 18.691406 107.535156 21.140625 103.160156 " fill-opacity="1" fill-rule="nonzero"/><path fill="#595959" d="M 114.421875 235.742188 L 108.265625 224.734375 C 105.816406 220.363281 100.289062 218.804688 95.921875 221.257812 L 24.613281 261.273438 C 20.246094 263.722656 18.691406 269.253906 21.140625 273.628906 L 27.296875 284.632812 C 29.746094 289.007812 35.269531 290.5625 39.640625 288.113281 L 110.945312 248.097656 C 115.3125 245.644531 116.871094 240.113281 114.421875 235.742188 " fill-opacity="1" fill-rule="nonzero"/><path fill="#979797" d="M 226.433594 267.171875 L 237.023438 260.339844 C 241.234375 257.625 246.839844 258.84375 249.554688 263.054688 L 293.816406 331.863281 C 296.527344 336.078125 295.316406 341.695312 291.105469 344.410156 L 280.515625 351.242188 C 276.304688 353.957031 270.695312 352.738281 267.984375 348.527344 L 223.71875 279.71875 C 221.007812 275.503906 222.222656 269.886719 226.433594 267.171875 " fill-opacity="1" fill-rule="nonzero"/><path fill="#efefef" d="M 291.105469 33.117188 L 280.515625 26.289062 C 276.304688 23.574219 270.695312 24.789062 267.984375 29 L 223.71875 97.8125 C 221.007812 102.027344 222.222656 107.644531 226.433594 110.359375 L 237.023438 117.1875 C 241.234375 119.902344 246.839844 118.6875 249.554688 114.472656 L 293.816406 45.664062 C 296.527344 41.449219 295.316406 35.832031 291.105469 33.117188 " fill-opacity="1" fill-rule="nonzero"/><path fill="#202020" d="M 83.246094 33.117188 L 93.835938 26.289062 C 98.046875 23.574219 103.65625 24.789062 106.367188 29 L 150.632812 97.8125 C 153.34375 102.027344 152.128906 107.644531 147.917969 110.359375 L 137.328125 117.1875 C 133.117188 119.902344 127.507812 118.6875 124.796875 114.472656 L 80.535156 45.664062 C 77.824219 41.449219 79.035156 35.832031 83.246094 33.117188 " fill-opacity="1" fill-rule="nonzero"/><path fill="#6b6b6b" d="M 147.917969 267.171875 L 137.328125 260.339844 C 133.117188 257.625 127.507812 258.84375 124.796875 263.054688 L 80.535156 331.863281 C 77.824219 336.078125 79.035156 341.695312 83.246094 344.410156 L 93.835938 351.242188 C 98.046875 353.957031 103.65625 352.738281 106.367188 348.527344 L 150.632812 279.71875 C 153.34375 275.503906 152.128906 269.886719 147.917969 267.171875 " fill-opacity="1" fill-rule="nonzero"/><path fill="#484848" d="M -0.0859375 194.332031 L -0.0859375 181.714844 C -0.0859375 176.703125 3.972656 172.640625 8.980469 172.640625 L 90.722656 172.640625 C 95.730469 172.640625 99.789062 176.703125 99.789062 181.714844 L 99.789062 194.332031 C 99.789062 199.34375 95.730469 203.40625 90.722656 203.40625 L 8.980469 203.40625 C 3.972656 203.40625 -0.0859375 199.34375 -0.0859375 194.332031 " fill-opacity="1" fill-rule="nonzero"/></svg>