<svg xmlns="http://www.w3.org/2000/svg" xmlns:xlink="http://www.w3.org/1999/xlink" width="500" zoomAndPan="magnify" viewBox="0 0 375 374.999991" height="500" preserveAspectRatio="xMidYMid meet" version="1.0"><defs><clipPath id="abc8b9ef8c"><path d="M 104 1.707031 L 198 1.707031 L 198 75 L 104 75 Z M 104 1.707031 " clip-rule="nonzero"/></clipPath></defs><g clip-path="url(#abc8b9ef8c)"><path fill="#ff6929" d="M 176.363281 56.515625 C 184.105469 50.710938 188.917969 42.644531 188.917969 33.714844 C 188.917969 16.035156 170.101562 1.707031 146.890625 1.707031 C 123.679688 1.707031 104.863281 16.035156 104.863281 33.714844 C 104.863281 51.390625 123.679688 65.71875 146.890625 65.71875 C 149.804688 65.71875 152.648438 65.492188 155.394531 65.0625 C 168.09375 75.132812 197.710938 74.753906 197.710938 74.753906 C 186.035156 70.394531 179.464844 61.796875 176.363281 56.515625 Z M 132.210938 35.855469 C 132.210938 37.699219 130.71875 39.1875 128.878906 39.1875 C 127.035156 39.1875 125.546875 37.699219 125.546875 35.855469 L 125.546875 29.449219 C 125.546875 27.609375 127.035156 26.117188 128.878906 26.117188 C 130.71875 26.117188 132.210938 27.609375 132.210938 29.449219 Z M 150.210938 35.855469 C 150.210938 37.699219 148.71875 39.1875 146.878906 39.1875 C 145.035156 39.1875 143.542969 37.699219 143.542969 35.855469 L 143.542969 29.449219 C 143.542969 27.609375 145.035156 26.117188 146.878906 26.117188 C 148.71875 26.117188 150.210938 27.609375 150.210938 29.449219 Z M 168.214844 35.855469 C 168.214844 37.699219 166.726562 39.1875 164.882812 39.1875 C 163.039062 39.1875 161.550781 37.699219 161.550781 35.855469 L 161.550781 29.449219 C 161.550781 27.609375 163.039062 26.117188 164.882812 26.117188 C 166.726562 26.117188 168.214844 27.609375 168.214844 29.449219 Z M 168.214844 35.855469 " fill-opacity="1" fill-rule="nonzero"/></g><path fill="#ff6929" d="M 84.800781 312.171875 L 39.996094 312.171875 C 38.152344 312.171875 36.664062 313.660156 36.664062 315.503906 L 36.664062 371.664062 C 36.664062 373.503906 38.152344 374.996094 39.996094 374.996094 L 84.800781 374.996094 C 86.644531 374.996094 88.132812 373.503906 88.132812 371.664062 L 88.132812 315.503906 C 88.132812 313.660156 86.644531 312.171875 84.800781 312.171875 Z M 81.46875 368.328125 L 43.328125 368.328125 L 43.328125 318.835938 L 81.46875 318.835938 Z M 81.46875 368.328125 " fill-opacity="1" fill-rule="nonzero"/><path fill="#ff6929" d="M 167.628906 281.40625 L 122.824219 281.40625 C 120.980469 281.40625 119.492188 282.898438 119.492188 284.738281 L 119.492188 371.664062 C 119.492188 373.503906 120.980469 374.996094 122.824219 374.996094 L 167.628906 374.996094 C 169.472656 374.996094 170.960938 373.503906 170.960938 371.664062 L 170.960938 284.738281 C 170.960938 282.898438 169.472656 281.40625 167.628906 281.40625 Z M 164.296875 368.328125 L 126.15625 368.328125 L 126.15625 288.070312 L 164.296875 288.070312 Z M 164.296875 368.328125 " fill-opacity="1" fill-rule="nonzero"/><path fill="#ff6929" d="M 250.464844 227.441406 L 205.660156 227.441406 C 203.816406 227.441406 202.328125 228.933594 202.328125 230.773438 L 202.328125 371.664062 C 202.328125 373.503906 203.816406 374.996094 205.660156 374.996094 L 250.464844 374.996094 C 252.308594 374.996094 253.796875 373.503906 253.796875 371.664062 L 253.796875 230.773438 C 253.796875 228.933594 252.308594 227.441406 250.464844 227.441406 Z M 247.132812 368.328125 L 208.992188 368.328125 L 208.992188 234.105469 L 247.132812 234.105469 Z M 247.132812 368.328125 " fill-opacity="1" fill-rule="nonzero"/><path fill="#ff6929" d="M 333.292969 216.96875 L 288.488281 216.96875 C 286.644531 216.96875 285.15625 218.457031 285.15625 220.300781 L 285.15625 371.664062 C 285.15625 373.503906 286.644531 374.996094 288.488281 374.996094 L 333.292969 374.996094 C 335.136719 374.996094 336.625 373.503906 336.625 371.664062 L 336.625 220.300781 C 336.625 218.457031 335.136719 216.96875 333.292969 216.96875 Z M 329.960938 368.328125 L 291.820312 368.328125 L 291.820312 223.632812 L 329.960938 223.632812 Z M 329.960938 368.328125 " fill-opacity="1" fill-rule="nonzero"/><path fill="#ff6929" d="M 165.546875 131.769531 C 165.546875 132.378906 165.515625 132.984375 165.457031 133.585938 C 165.398438 134.191406 165.308594 134.789062 165.191406 135.386719 C 165.074219 135.980469 164.925781 136.570312 164.75 137.148438 C 164.574219 137.730469 164.367188 138.300781 164.136719 138.863281 C 163.902344 139.421875 163.644531 139.972656 163.359375 140.507812 C 163.074219 141.042969 162.761719 141.5625 162.425781 142.066406 C 162.085938 142.570312 161.726562 143.058594 161.339844 143.527344 C 160.957031 143.996094 160.546875 144.445312 160.121094 144.875 C 159.691406 145.304688 159.242188 145.710938 158.773438 146.09375 C 158.304688 146.480469 157.816406 146.839844 157.3125 147.179688 C 156.804688 147.515625 156.285156 147.828125 155.75 148.113281 C 155.214844 148.398438 154.667969 148.660156 154.105469 148.890625 C 153.546875 149.125 152.976562 149.328125 152.394531 149.503906 C 151.8125 149.679688 151.226562 149.828125 150.632812 149.945312 C 150.035156 150.0625 149.4375 150.152344 148.832031 150.210938 C 148.226562 150.273438 147.621094 150.300781 147.015625 150.300781 C 146.410156 150.300781 145.804688 150.273438 145.199219 150.210938 C 144.59375 150.152344 143.996094 150.0625 143.402344 149.945312 C 142.804688 149.828125 142.21875 149.679688 141.636719 149.503906 C 141.054688 149.328125 140.484375 149.125 139.925781 148.890625 C 139.363281 148.660156 138.816406 148.398438 138.28125 148.113281 C 137.746094 147.828125 137.226562 147.515625 136.71875 147.179688 C 136.214844 146.839844 135.730469 146.480469 135.261719 146.09375 C 134.789062 145.710938 134.339844 145.304688 133.914062 144.875 C 133.484375 144.445312 133.074219 143.996094 132.691406 143.527344 C 132.304688 143.058594 131.945312 142.570312 131.609375 142.066406 C 131.269531 141.5625 130.957031 141.042969 130.671875 140.507812 C 130.386719 139.972656 130.128906 139.421875 129.894531 138.863281 C 129.664062 138.300781 129.457031 137.730469 129.28125 137.148438 C 129.105469 136.570312 128.960938 135.980469 128.839844 135.386719 C 128.722656 134.789062 128.632812 134.191406 128.574219 133.585938 C 128.515625 132.984375 128.484375 132.378906 128.484375 131.769531 C 128.484375 131.164062 128.515625 130.558594 128.574219 129.953125 C 128.632812 129.351562 128.722656 128.75 128.839844 128.15625 C 128.960938 127.558594 129.105469 126.972656 129.28125 126.390625 C 129.457031 125.8125 129.664062 125.238281 129.894531 124.679688 C 130.128906 124.117188 130.386719 123.570312 130.671875 123.035156 C 130.957031 122.5 131.269531 121.980469 131.609375 121.476562 C 131.945312 120.972656 132.304688 120.484375 132.691406 120.015625 C 133.074219 119.546875 133.484375 119.097656 133.914062 118.667969 C 134.339844 118.238281 134.789062 117.832031 135.261719 117.445312 C 135.730469 117.0625 136.214844 116.699219 136.71875 116.363281 C 137.226562 116.027344 137.746094 115.714844 138.28125 115.429688 C 138.816406 115.140625 139.363281 114.882812 139.925781 114.648438 C 140.484375 114.417969 141.054688 114.214844 141.636719 114.039062 C 142.21875 113.863281 142.804688 113.714844 143.402344 113.597656 C 143.996094 113.476562 144.59375 113.386719 145.199219 113.328125 C 145.804688 113.269531 146.410156 113.238281 147.015625 113.238281 C 147.621094 113.238281 148.226562 113.269531 148.832031 113.328125 C 149.4375 113.386719 150.035156 113.476562 150.632812 113.597656 C 151.226562 113.714844 151.8125 113.863281 152.394531 114.039062 C 152.976562 114.214844 153.546875 114.417969 154.105469 114.648438 C 154.667969 114.882812 155.214844 115.140625 155.75 115.429688 C 156.285156 115.714844 156.804688 116.027344 157.3125 116.363281 C 157.816406 116.699219 158.304688 117.0625 158.773438 117.445312 C 159.242188 117.832031 159.691406 118.238281 160.121094 118.667969 C 160.546875 119.097656 160.957031 119.546875 161.339844 120.015625 C 161.726562 120.484375 162.085938 120.972656 162.425781 121.476562 C 162.761719 121.980469 163.074219 122.5 163.359375 123.035156 C 163.644531 123.570312 163.902344 124.117188 164.136719 124.679688 C 164.367188 125.238281 164.574219 125.8125 164.75 126.390625 C 164.925781 126.972656 165.074219 127.558594 165.191406 128.15625 C 165.308594 128.75 165.398438 129.351562 165.457031 129.953125 C 165.515625 130.558594 165.546875 131.164062 165.546875 131.769531 Z M 165.546875 131.769531 " fill-opacity="1" fill-rule="nonzero"/><path fill="#ff6929" d="M 200.785156 158.125 C 197.988281 153.683594 192.078125 152.335938 187.59375 155.09375 L 153.351562 176.292969 L 134.484375 153.960938 C 134.304688 153.746094 134.089844 153.585938 133.894531 153.394531 C 133.765625 153.257812 133.628906 153.132812 133.492188 153.003906 C 133.257812 152.796875 133.023438 152.59375 132.773438 152.414062 C 131.808594 151.621094 130.753906 150.917969 129.535156 150.417969 C 123.007812 147.777344 115.558594 150.820312 112.859375 157.265625 L 88.019531 216.148438 C 87.808594 216.644531 69.234375 268.8125 69.234375 268.8125 L 50.402344 295.6875 C 46.378906 301.429688 47.847656 309.316406 53.65625 313.289062 C 55.890625 314.804688 58.378906 315.496094 60.933594 315.496094 C 64.957031 315.496094 68.914062 313.605469 71.402344 310.070312 L 91.257812 281.683594 C 91.957031 280.671875 92.53125 279.601562 92.917969 278.464844 C 92.917969 278.464844 106.707031 241.894531 109.164062 235.039062 L 130.417969 238.054688 L 133.101562 273.074219 C 133.609375 279.699219 139.207031 284.738281 145.820312 284.738281 C 146.144531 284.738281 146.46875 284.726562 146.800781 284.699219 C 153.832031 284.175781 159.101562 278.113281 158.5625 271.164062 L 155.105469 226.054688 C 154.65625 220.160156 150.117188 215.359375 144.1875 214.523438 L 117.890625 210.789062 L 131.125 179.511719 L 143.988281 194.738281 C 145.867188 196.964844 148.585938 198.140625 151.347656 198.140625 C 153.078125 198.140625 154.835938 197.671875 156.402344 196.710938 L 197.71875 171.164062 C 202.207031 168.402344 203.578125 162.5625 200.785156 158.125 Z M 200.785156 158.125 " fill-opacity="1" fill-rule="nonzero"/><path fill="#ff6929" d="M 228.425781 83.550781 C 238.660156 83.550781 246.957031 75.253906 246.957031 65.019531 C 246.957031 54.785156 238.660156 46.488281 228.425781 46.488281 C 218.191406 46.488281 209.894531 54.785156 209.894531 65.019531 C 209.894531 75.253906 218.191406 83.550781 228.425781 83.550781 Z M 228.425781 83.550781 " fill-opacity="1" fill-rule="nonzero"/><path fill="#ff6929" d="M 316.222656 203.519531 L 302.816406 164.59375 L 300.707031 130.652344 C 300.710938 130.671875 300.375 127.304688 298.898438 125.15625 L 270.570312 79.675781 C 266.871094 73.746094 259.003906 71.890625 253 75.550781 C 252.007812 76.152344 249.199219 78.445312 248.128906 80.878906 L 227.636719 127.730469 L 203.484375 146.449219 C 199.328125 149.675781 198.597656 155.621094 201.859375 159.738281 C 203.746094 162.113281 206.558594 163.359375 209.402344 163.359375 C 211.472656 163.359375 213.554688 162.699219 215.304688 161.34375 L 241.371094 141.144531 C 242.625 140.171875 243.613281 138.902344 244.25 137.445312 L 257.578125 106.96875 L 271.496094 129.316406 L 236.242188 159.875 C 234.230469 161.621094 232.820312 163.957031 232.222656 166.546875 L 220.917969 215.34375 C 219.339844 222.132812 223.636719 228.902344 230.511719 230.457031 C 231.472656 230.675781 232.425781 230.777344 233.375 230.777344 C 239.191406 230.777344 244.453125 226.820312 245.804688 220.972656 L 256.191406 176.15625 L 276.832031 158.265625 L 277.40625 167.808594 C 277.472656 168.945312 277.726562 170.082031 278.046875 171.152344 L 292.089844 211.71875 C 293.878906 216.957031 298.855469 220.234375 304.15625 220.234375 C 305.496094 220.234375 306.902344 220.046875 308.304688 219.542969 C 314.945312 217.332031 318.519531 210.140625 316.222656 203.519531 Z M 316.222656 203.519531 " fill-opacity="1" fill-rule="nonzero"/></svg>