<svg xmlns="http://www.w3.org/2000/svg" xmlns:xlink="http://www.w3.org/1999/xlink" width="500" zoomAndPan="magnify" viewBox="0 0 375 374.999991" height="500" preserveAspectRatio="xMidYMid meet" version="1.0"><defs><clipPath id="eb3e4abdef"><path d="M 3.402344 3 L 372.402344 3 L 372.402344 372.6875 L 3.402344 372.6875 Z M 3.402344 3 " clip-rule="nonzero"/></clipPath></defs><g clip-path="url(#eb3e4abdef)"><path fill="#ff0606" d="M 372.339844 187.824219 C 372.269531 290.449219 290.070312 372.683594 187.640625 372.605469 C 85.394531 372.519531 3.425781 289.984375 3.582031 187.210938 C 3.738281 85.675781 87.566406 3.003906 190.167969 3.859375 C 289.941406 4.675781 372.410156 87.363281 372.339844 187.824219 Z M 298.710938 262.421875 C 331.207031 217.339844 332.792969 142.964844 281.597656 92.824219 C 229.625 41.929688 155.816406 46.667969 113.765625 77.460938 C 175.320312 139.027344 236.933594 200.640625 298.710938 262.421875 Z M 76.890625 114.273438 C 43.816406 160.8125 43.066406 237.417969 98.304688 287.515625 C 150.507812 334.863281 222.320312 328.460938 261.785156 299.066406 C 200.222656 237.539062 138.632812 175.988281 76.890625 114.273438 Z M 76.890625 114.273438 " fill-opacity="1" fill-rule="nonzero"/></g></svg>