<svg xmlns="http://www.w3.org/2000/svg" xmlns:xlink="http://www.w3.org/1999/xlink" width="500" zoomAndPan="magnify" viewBox="0 0 375 374.999991" height="500" preserveAspectRatio="xMidYMid meet" version="1.0"><defs><clipPath id="f5f27f179d"><path d="M 10.605469 0 L 364 0 L 364 354 L 10.605469 354 Z M 10.605469 0 " clip-rule="nonzero"/></clipPath></defs><g clip-path="url(#f5f27f179d)"><path fill="#050a30" d="M 363.628906 177.355469 C 363.628906 180.242188 363.558594 183.128906 363.417969 186.015625 C 363.277344 188.898438 363.0625 191.777344 362.78125 194.652344 C 362.496094 197.527344 362.144531 200.394531 361.71875 203.25 C 361.296875 206.109375 360.800781 208.953125 360.238281 211.785156 C 359.675781 214.621094 359.042969 217.4375 358.339844 220.238281 C 357.640625 223.042969 356.867188 225.824219 356.03125 228.589844 C 355.191406 231.351562 354.285156 234.09375 353.3125 236.8125 C 352.339844 239.535156 351.300781 242.226562 350.195312 244.898438 C 349.089844 247.566406 347.917969 250.207031 346.683594 252.816406 C 345.449219 255.425781 344.152344 258.007812 342.789062 260.554688 C 341.425781 263.101562 340.003906 265.613281 338.519531 268.09375 C 337.035156 270.570312 335.488281 273.007812 333.882812 275.410156 C 332.28125 277.8125 330.617188 280.171875 328.898438 282.492188 C 327.175781 284.8125 325.398438 287.089844 323.566406 289.324219 C 321.734375 291.554688 319.847656 293.742188 317.910156 295.882812 C 315.96875 298.023438 313.976562 300.113281 311.933594 302.15625 C 309.890625 304.199219 307.800781 306.191406 305.660156 308.128906 C 303.519531 310.070312 301.332031 311.957031 299.101562 313.789062 C 296.867188 315.621094 294.589844 317.398438 292.273438 319.117188 C 289.953125 320.839844 287.589844 322.5 285.1875 324.105469 C 282.789062 325.710938 280.347656 327.257812 277.871094 328.742188 C 275.390625 330.226562 272.878906 331.648438 270.332031 333.011719 C 267.785156 334.371094 265.207031 335.671875 262.59375 336.90625 C 259.984375 338.140625 257.34375 339.3125 254.675781 340.417969 C 252.007812 341.523438 249.3125 342.5625 246.59375 343.535156 C 243.871094 344.507812 241.128906 345.414062 238.367188 346.253906 C 235.601562 347.089844 232.820312 347.859375 230.015625 348.5625 C 227.214844 349.265625 224.398438 349.898438 221.566406 350.460938 C 218.730469 351.023438 215.886719 351.519531 213.03125 351.941406 C 210.171875 352.367188 207.304688 352.71875 204.433594 353.003906 C 201.558594 353.285156 198.675781 353.496094 195.792969 353.640625 C 192.90625 353.78125 190.019531 353.851562 187.132812 353.851562 C 184.242188 353.851562 181.355469 353.78125 178.472656 353.640625 C 175.585938 353.496094 172.707031 353.285156 169.832031 353.003906 C 166.957031 352.71875 164.089844 352.367188 161.234375 351.941406 C 158.375 351.519531 155.53125 351.023438 152.699219 350.460938 C 149.867188 349.898438 147.046875 349.265625 144.246094 348.5625 C 141.445312 347.859375 138.660156 347.089844 135.898438 346.253906 C 133.132812 345.414062 130.390625 344.507812 127.671875 343.535156 C 124.953125 342.5625 122.257812 341.523438 119.589844 340.417969 C 116.921875 339.3125 114.28125 338.140625 111.667969 336.90625 C 109.058594 335.671875 106.480469 334.371094 103.929688 333.011719 C 101.382812 331.648438 98.871094 330.226562 96.394531 328.742188 C 93.914062 327.257812 91.476562 325.710938 89.074219 324.105469 C 86.671875 322.5 84.3125 320.839844 81.992188 319.117188 C 79.671875 317.398438 77.394531 315.621094 75.164062 313.789062 C 72.929688 311.957031 70.742188 310.070312 68.601562 308.128906 C 66.460938 306.191406 64.371094 304.199219 62.328125 302.15625 C 60.285156 300.113281 58.296875 298.023438 56.355469 295.882812 C 54.414062 293.742188 52.527344 291.554688 50.695312 289.324219 C 48.863281 287.089844 47.085938 284.8125 45.367188 282.492188 C 43.644531 280.171875 41.984375 277.8125 40.378906 275.410156 C 38.773438 273.007812 37.230469 270.570312 35.746094 268.09375 C 34.257812 265.613281 32.835938 263.101562 31.472656 260.554688 C 30.113281 258.007812 28.8125 255.425781 27.578125 252.816406 C 26.34375 250.207031 25.175781 247.566406 24.070312 244.898438 C 22.964844 242.226562 21.925781 239.535156 20.949219 236.8125 C 19.976562 234.09375 19.070312 231.351562 18.234375 228.589844 C 17.394531 225.824219 16.625 223.042969 15.921875 220.238281 C 15.222656 217.4375 14.589844 214.621094 14.023438 211.785156 C 13.460938 208.953125 12.96875 206.109375 12.542969 203.25 C 12.121094 200.394531 11.765625 197.527344 11.484375 194.652344 C 11.199219 191.777344 10.988281 188.898438 10.847656 186.015625 C 10.703125 183.128906 10.632812 180.242188 10.632812 177.355469 C 10.632812 174.464844 10.703125 171.578125 10.847656 168.695312 C 10.988281 165.808594 11.199219 162.929688 11.484375 160.054688 C 11.765625 157.179688 12.121094 154.3125 12.542969 151.457031 C 12.96875 148.597656 13.460938 145.753906 14.023438 142.921875 C 14.589844 140.085938 15.222656 137.269531 15.921875 134.46875 C 16.625 131.667969 17.394531 128.882812 18.234375 126.117188 C 19.070312 123.355469 19.976562 120.613281 20.949219 117.894531 C 21.925781 115.171875 22.964844 112.480469 24.070312 109.8125 C 25.175781 107.140625 26.34375 104.503906 27.578125 101.890625 C 28.8125 99.28125 30.113281 96.699219 31.472656 94.152344 C 32.835938 91.605469 34.257812 89.09375 35.746094 86.617188 C 37.230469 84.136719 38.773438 81.699219 40.378906 79.296875 C 41.984375 76.894531 43.644531 74.535156 45.367188 72.214844 C 47.085938 69.894531 48.863281 67.617188 50.695312 65.382812 C 52.527344 63.152344 54.414062 60.964844 56.355469 58.824219 C 58.296875 56.683594 60.285156 54.59375 62.328125 52.550781 C 64.371094 50.507812 66.460938 48.515625 68.601562 46.578125 C 70.742188 44.636719 72.929688 42.75 75.164062 40.917969 C 77.394531 39.085938 79.671875 37.308594 81.992188 35.589844 C 84.3125 33.867188 86.671875 32.207031 89.074219 30.601562 C 91.476562 28.996094 93.914062 27.449219 96.394531 25.964844 C 98.871094 24.480469 101.382812 23.058594 103.929688 21.695312 C 106.480469 20.335938 109.058594 19.035156 111.667969 17.800781 C 114.28125 16.566406 116.921875 15.394531 119.589844 14.289062 C 122.257812 13.183594 124.953125 12.144531 127.671875 11.171875 C 130.390625 10.199219 133.132812 9.292969 135.898438 8.457031 C 138.660156 7.617188 141.445312 6.847656 144.246094 6.144531 C 147.046875 5.441406 149.867188 4.808594 152.699219 4.246094 C 155.53125 3.683594 158.375 3.191406 161.234375 2.765625 C 164.089844 2.34375 166.957031 1.988281 169.832031 1.707031 C 172.707031 1.421875 175.585938 1.210938 178.472656 1.066406 C 181.355469 0.925781 184.242188 0.855469 187.132812 0.855469 C 190.019531 0.855469 192.90625 0.925781 195.792969 1.066406 C 198.675781 1.210938 201.558594 1.421875 204.433594 1.707031 C 207.304688 1.988281 210.171875 2.34375 213.03125 2.765625 C 215.886719 3.191406 218.730469 3.683594 221.566406 4.246094 C 224.398438 4.808594 227.214844 5.441406 230.015625 6.144531 C 232.820312 6.847656 235.601562 7.617188 238.367188 8.457031 C 241.128906 9.292969 243.871094 10.199219 246.59375 11.171875 C 249.3125 12.144531 252.007812 13.183594 254.675781 14.289062 C 257.34375 15.394531 259.984375 16.566406 262.59375 17.800781 C 265.207031 19.035156 267.785156 20.335938 270.332031 21.695312 C 272.878906 23.058594 275.390625 24.480469 277.871094 25.964844 C 280.347656 27.449219 282.789062 28.996094 285.1875 30.601562 C 287.589844 32.207031 289.953125 33.867188 292.273438 35.589844 C 294.589844 37.308594 296.867188 39.085938 299.101562 40.917969 C 301.332031 42.75 303.519531 44.636719 305.660156 46.578125 C 307.800781 48.515625 309.890625 50.507812 311.933594 52.550781 C 313.976562 54.59375 315.96875 56.683594 317.910156 58.824219 C 319.847656 60.964844 321.734375 63.152344 323.566406 65.382812 C 325.398438 67.617188 327.175781 69.894531 328.898438 72.214844 C 330.617188 74.535156 332.28125 76.894531 333.882812 79.296875 C 335.488281 81.699219 337.035156 84.136719 338.519531 86.617188 C 340.003906 89.09375 341.425781 91.605469 342.789062 94.152344 C 344.152344 96.699219 345.449219 99.28125 346.683594 101.890625 C 347.917969 104.503906 349.089844 107.140625 350.195312 109.8125 C 351.300781 112.480469 352.339844 115.171875 353.3125 117.894531 C 354.285156 120.613281 355.191406 123.355469 356.03125 126.117188 C 356.867188 128.882812 357.640625 131.667969 358.339844 134.46875 C 359.042969 137.269531 359.675781 140.085938 360.238281 142.921875 C 360.800781 145.753906 361.296875 148.597656 361.71875 151.457031 C 362.144531 154.3125 362.496094 157.179688 362.78125 160.054688 C 363.0625 162.929688 363.277344 165.808594 363.417969 168.695312 C 363.558594 171.578125 363.628906 174.464844 363.628906 177.355469 Z M 363.628906 177.355469 " fill-opacity="1" fill-rule="nonzero"/></g><path fill="#f4f6fc" d="M 332.570312 280.980469 C 334.949219 285.730469 334.285156 291.445312 330.878906 295.527344 C 295.121094 338.011719 242.375 362.472656 186.84375 362.3125 C 131.3125 362.152344 78.707031 337.394531 43.195312 294.703125 C 40.015625 290.847656 39.414062 285.472656 41.671875 281.011719 C 50.960938 262.410156 67.675781 248.597656 87.695312 242.984375 C 109.574219 236.882812 132.929688 232.363281 144.601562 230.261719 C 146.761719 229.871094 148.523438 229.566406 149.785156 229.351562 L 150.148438 229.289062 C 149.984375 229.46875 149.820312 229.640625 149.648438 229.808594 L 163.765625 240.847656 L 189.5625 261.0625 L 227.289062 229.839844 C 227.140625 229.707031 226.992188 229.550781 226.855469 229.402344 C 228.132812 229.625 229.914062 229.945312 232.105469 230.359375 C 243.386719 232.460938 265.554688 236.890625 286.535156 242.851562 C 306.554688 248.527344 323.261719 262.367188 332.570312 280.980469 Z M 332.570312 280.980469 " fill-opacity="1" fill-rule="nonzero"/><path fill="#f4f6fc" d="M 229.664062 227.367188 C 224.667969 222.492188 221.582031 208.777344 220.214844 196.722656 C 220.089844 195.617188 219.984375 194.527344 219.886719 193.421875 C 217.785156 194.882812 215.582031 196.1875 213.289062 197.324219 C 213.34375 197.867188 213.417969 198.429688 213.484375 199.011719 C 213.550781 199.597656 213.617188 200.027344 213.683594 200.554688 L 213.882812 201.90625 C 215.144531 210.699219 217.625 222.335938 222.367188 229.335938 L 189.4375 256.550781 L 164.769531 237.304688 L 154.527344 229.289062 C 159.660156 221.660156 162.125 208.613281 163.277344 199.679688 C 163.402344 198.691406 163.507812 197.75 163.609375 196.878906 L 163.65625 196.441406 C 161.351562 195.195312 159.144531 193.773438 157.0625 192.183594 C 156.96875 193.265625 156.871094 194.371094 156.753906 195.484375 C 155.460938 207.855469 152.351562 222.300781 147.164062 227.347656 L 144.320312 230.113281 L 144.535156 230.277344 L 162.164062 244.074219 L 162.660156 244.453125 L 189.5625 265.515625 L 232.066406 230.375 L 232.429688 230.070312 Z M 229.664062 227.367188 " fill-opacity="1" fill-rule="nonzero"/><path fill="#f4f6fc" d="M 217.238281 197.527344 C 217.238281 197.527344 203.953125 220.621094 170.453125 217.742188 L 162.652344 244.601562 L 149.613281 229.847656 L 160.054688 195.5 C 160.054688 195.5 191.53125 209.363281 217.238281 197.527344 Z M 217.238281 197.527344 " fill-opacity="1" fill-rule="nonzero"/><path fill="#f4f6fc" d="M 252.433594 127.703125 L 243.992188 162.882812 L 242.859375 108.222656 L 230.539062 90.667969 C 217.464844 92.328125 204.300781 93.152344 191.121094 93.140625 C 177.9375 93.152344 164.769531 92.328125 151.691406 90.667969 L 135.90625 108.222656 L 135 163.734375 L 125.976562 128.117188 C 122.175781 111.789062 122.570312 94.765625 127.132812 78.632812 C 130.804688 65.910156 137.457031 52.914062 149.464844 45.722656 C 153.210938 43.488281 156.765625 41.597656 160.121094 39.949219 C 164.632812 37.761719 169.386719 36.101562 174.28125 35 C 179.140625 33.90625 184.101562 33.355469 189.082031 33.351562 C 199.109375 33.335938 209.007812 35.589844 218.039062 39.949219 C 221.386719 41.597656 224.949219 43.488281 228.683594 45.722656 C 241.292969 53.265625 248 67.230469 251.554688 80.539062 C 255.582031 95.96875 255.882812 112.132812 252.433594 127.703125 Z M 252.433594 127.703125 " fill-opacity="1" fill-rule="nonzero"/><path fill="#f4f6fc" d="M 232.15625 79.097656 L 230.078125 79.375 C 204.210938 82.914062 177.984375 82.914062 152.121094 79.375 L 150.316406 79.128906 L 132.417969 100.332031 L 132.417969 152.410156 C 132.417969 152.566406 132.558594 153.746094 132.914062 155.667969 C 133.425781 158.390625 134.105469 161.078125 134.949219 163.71875 C 136.515625 168.714844 138.640625 173.523438 141.277344 178.050781 C 145.21875 184.839844 150.480469 190.765625 156.753906 195.484375 C 157.621094 196.144531 158.511719 196.769531 159.445312 197.378906 C 160.65625 198.207031 161.917969 198.9375 163.246094 199.664062 C 171.132812 203.910156 179.824219 206.457031 188.753906 207.144531 L 189.882812 207.144531 C 198.160156 206.484375 206.238281 204.242188 213.675781 200.546875 C 214.5 200.152344 215.226562 199.722656 215.976562 199.308594 C 217.453125 198.484375 218.855469 197.59375 220.183594 196.679688 C 227.210938 191.808594 233.085938 185.457031 237.394531 178.066406 C 240.183594 173.28125 242.398438 168.179688 243.992188 162.875 C 244.765625 160.332031 245.390625 157.742188 245.855469 155.125 C 246.132812 153.539062 246.234375 152.574219 246.25 152.433594 L 246.324219 100.605469 Z M 239.332031 151.816406 C 238.179688 159.695312 235.523438 167.277344 231.503906 174.148438 C 222.566406 189.40625 208.414062 198.066406 189.445312 199.789062 L 189.199219 199.789062 C 145.210938 195.714844 139.71875 155.253906 139.339844 151.824219 L 139.339844 123.066406 C 139.339844 109.511719 146.539062 97.148438 157.710938 91.375 C 159.199219 90.601562 160.75 89.953125 162.347656 89.4375 C 164.210938 88.761719 166.1875 88.453125 168.167969 88.523438 C 182.648438 89.652344 197.191406 89.707031 211.679688 88.6875 C 213.765625 88.609375 215.851562 88.90625 217.832031 89.570312 C 219.488281 90.085938 221.097656 90.753906 222.632812 91.566406 C 232.808594 96.933594 239.355469 108.273438 239.347656 120.703125 Z M 239.332031 151.816406 " fill-opacity="1" fill-rule="nonzero"/></svg>