<svg xmlns="http://www.w3.org/2000/svg" xmlns:xlink="http://www.w3.org/1999/xlink" width="500" zoomAndPan="magnify" viewBox="0 0 375 374.999991" height="500" preserveAspectRatio="xMidYMid meet" version="1.0"><defs><clipPath id="6c235c8907"><path d="M 60.160156 85.625 L 315 85.625 L 315 289 L 60.160156 289 Z M 60.160156 85.625 " clip-rule="nonzero"/></clipPath></defs><g clip-path="url(#6c235c8907)"><path fill="#000000" d="M 133.5 281.082031 C 93.488281 256.351562 65.730469 145.808594 60.160156 122.140625 L 182.960938 85.683594 C 186.996094 103.089844 201.21875 159.605469 223.296875 202.859375 L 162.902344 220.792969 C 160.886719 221.378906 159.558594 223.183594 159.398438 225.144531 C 159.1875 227.109375 160.140625 229.125 162 230.082031 C 174.3125 236.554688 181.476562 247.277344 181.636719 259.480469 C 181.792969 270.09375 176.433594 280.070312 167.941406 284.902344 C 166.828125 285.539062 165.714844 286.015625 164.546875 286.492188 L 162.902344 286.972656 C 162.902344 286.972656 162.847656 286.972656 162.847656 287.023438 C 154.304688 289.570312 144.0625 287.609375 133.5 281.082031 Z M 313.886719 223.660156 C 312.769531 235.175781 305.554688 244.570312 295.46875 247.699219 C 295.417969 247.699219 295.363281 247.699219 295.308594 247.699219 L 186.304688 280.070312 C 189.808594 273.96875 191.773438 266.859375 191.613281 259.324219 C 191.398438 246.796875 185.667969 235.601562 175.636719 227.375 L 230.988281 210.976562 C 231.574219 210.925781 232.15625 210.710938 232.6875 210.445312 L 295.789062 191.714844 C 308.367188 198.929688 315.160156 210.710938 313.886719 223.660156 Z M 313.886719 223.660156 " fill-opacity="1" fill-rule="nonzero"/></g><path fill="#000000" d="M 187.476562 374.953125 C 84.101562 374.953125 0 290.851562 0 187.476562 C 0 84.101562 84.101562 0 187.476562 0 C 290.851562 0 374.953125 84.101562 374.953125 187.476562 C 374.953125 290.851562 290.851562 374.953125 187.476562 374.953125 Z M 187.476562 18.335938 C 94.210938 18.335938 18.335938 94.210938 18.335938 187.476562 C 18.335938 280.742188 94.210938 356.617188 187.476562 356.617188 C 280.742188 356.617188 356.617188 280.742188 356.617188 187.476562 C 356.617188 94.210938 280.742188 18.335938 187.476562 18.335938 Z M 187.476562 18.335938 " fill-opacity="1" fill-rule="nonzero"/></svg>