<svg xmlns="http://www.w3.org/2000/svg" xmlns:xlink="http://www.w3.org/1999/xlink" width="500" zoomAndPan="magnify" viewBox="0 0 375 374.999991" height="500" preserveAspectRatio="xMidYMid meet" version="1.0"><defs><clipPath id="b35827484a"><path d="M 0 0.929688 L 344.078125 0.929688 L 344.078125 369.179688 L 0 369.179688 Z M 0 0.929688 " clip-rule="nonzero"/></clipPath><clipPath id="250d6f4730"><path d="M 0 24.789062 L 204.496094 24.789062 L 204.496094 357.734375 L 0 357.734375 Z M 0 24.789062 " clip-rule="nonzero"/></clipPath><clipPath id="9327e12166"><path d="M 0 0 L 119.988281 0 L 119.988281 375 L 0 375 Z M 0 0 " clip-rule="nonzero"/></clipPath><clipPath id="eb00a5ba17"><path d="M 0 0 L 106.785156 0 L 106.785156 375 L 0 375 Z M 0 0 " clip-rule="nonzero"/></clipPath><clipPath id="d352e4f604"><path d="M 0 0 L 106.785156 0 L 106.785156 375 L 0 375 Z M 0 0 " clip-rule="nonzero"/></clipPath><clipPath id="f4fbd16017"><rect x="0" width="107" y="0" height="375"/></clipPath></defs><g clip-path="url(#b35827484a)"><path fill="#622727" d="M 336.617188 93.453125 L 259.949219 166.8125 L 254.691406 162.0625 L 322.453125 80.816406 Z M 344.25 198.273438 L 265.886719 193.269531 L 265.886719 185.128906 L 344.25 175.714844 Z M 336.617188 279.859375 L 322.453125 292.496094 L 254.691406 211.503906 L 259.949219 207.007812 L 336.617188 279.855469 Z M 243.671875 261.542969 C 243.671875 275.621094 222.808594 287.492188 181.167969 297.078125 C 176.417969 298.265625 173.453125 301.488281 172.269531 306.832031 C 171.929688 308.445312 171.761719 313.617188 171.761719 322.265625 C 171.761719 328.539062 173.121094 336.9375 175.832031 347.285156 C 178.546875 357.628906 179.90625 365.007812 179.90625 369.335938 L 9.957031 369.335938 C 9.957031 363.996094 10.125 356.445312 10.464844 346.4375 C 10.800781 335.585938 10.972656 327.78125 10.972656 323.117188 C 10.972656 288.6875 1.132812 264.09375 -18.542969 249.335938 C -40.167969 233.136719 -55.433594 214.988281 -64.171875 194.972656 C -72.398438 176.066406 -76.554688 151.382812 -76.554688 120.9375 C -76.554688 88.96875 -60.273438 60.550781 -27.707031 35.707031 C 2.570312 12.554688 34.117188 0.933594 67.023438 0.933594 L 76.777344 0.933594 C 131.304688 0.933594 162.859375 12.554688 171.507812 35.707031 C 173.628906 44.785156 176.339844 54.789062 179.648438 65.730469 C 182.785156 69.890625 184.480469 72.171875 184.652344 72.773438 C 184.820312 73.363281 184.90625 76.246094 184.90625 81.335938 C 184.90625 92.441406 187.703125 100.414062 193.296875 105.164062 C 195.925781 107.539062 202.714844 110.675781 213.652344 114.664062 C 224.082031 118.222656 232.222656 123.058594 238.25 129 C 239.347656 130.183594 239.945312 131.457031 239.945312 132.726562 C 239.945312 135.1875 235.535156 139.34375 226.71875 145.109375 C 217.902344 150.960938 213.488281 156.304688 213.488281 161.308594 C 213.488281 165.121094 215.019531 168.007812 217.984375 169.953125 C 221.460938 172.582031 223.242188 174.113281 223.410156 174.449219 C 218.914062 177.757812 212.644531 183.351562 204.503906 191.246094 C 200.515625 195.824219 196.109375 201.589844 191.105469 208.546875 C 205.183594 213.042969 219.429688 215.25 234.019531 215.25 C 235.460938 215.25 236.222656 216.347656 236.222656 218.46875 C 236.222656 222.457031 235.039062 226.695312 232.75 231.023438 C 230.457031 235.433594 229.273438 238.230469 229.273438 239.417969 C 229.273438 241.875 231.648438 244.929688 236.484375 248.578125 C 241.316406 252.222656 243.691406 256.550781 243.691406 261.554688 Z M 243.671875 261.542969 " fill-opacity="1" fill-rule="nonzero"/></g><g clip-path="url(#250d6f4730)"><path fill="#ffffff" d="M 284.082031 107.785156 L 214.640625 174.230469 L 209.878906 169.929688 L 271.25 96.339844 Z M 290.996094 202.726562 L 220.015625 198.195312 L 220.015625 190.820312 L 290.996094 182.292969 Z M 284.082031 276.621094 L 271.25 288.066406 L 209.878906 214.707031 L 214.640625 210.636719 L 284.082031 276.617188 Z M 199.894531 260.03125 C 199.894531 272.785156 181 283.535156 143.285156 292.214844 C 138.984375 293.292969 136.296875 296.210938 135.222656 301.050781 C 134.917969 302.511719 134.761719 307.199219 134.761719 315.03125 C 134.761719 320.710938 135.996094 328.320312 138.453125 337.691406 C 140.910156 347.0625 142.140625 353.746094 142.140625 357.664062 L -11.789062 357.664062 C -11.789062 352.824219 -11.636719 345.988281 -11.328125 336.925781 C -11.023438 327.09375 -10.871094 320.027344 -10.871094 315.800781 C -10.871094 284.617188 -19.78125 262.339844 -37.601562 248.972656 C -57.1875 234.304688 -71.015625 217.867188 -78.929688 199.738281 C -86.378906 182.609375 -90.144531 160.253906 -90.144531 132.679688 C -90.144531 103.722656 -75.398438 77.988281 -45.902344 55.484375 C -18.476562 34.515625 10.09375 23.988281 39.898438 23.988281 L 48.734375 23.988281 C 98.121094 23.988281 126.699219 34.515625 134.535156 55.484375 C 136.453125 63.703125 138.914062 72.765625 141.90625 82.675781 C 144.746094 86.441406 146.285156 88.511719 146.4375 89.054688 C 146.59375 89.589844 146.667969 92.203125 146.667969 96.808594 C 146.667969 106.871094 149.203125 114.089844 154.273438 118.394531 C 156.652344 120.542969 162.800781 123.386719 172.707031 126.996094 C 182.15625 130.222656 189.527344 134.601562 194.984375 139.980469 C 195.980469 141.054688 196.523438 142.207031 196.523438 143.359375 C 196.523438 145.585938 192.527344 149.351562 184.542969 154.574219 C 176.554688 159.871094 172.558594 164.710938 172.558594 169.242188 C 172.558594 172.699219 173.945312 175.3125 176.632812 177.078125 C 179.777344 179.457031 181.394531 180.84375 181.546875 181.148438 C 177.472656 184.144531 171.792969 189.210938 164.417969 196.359375 C 160.808594 200.507812 156.816406 205.730469 152.285156 212.03125 C 165.039062 216.105469 177.941406 218.101562 191.152344 218.101562 C 192.460938 218.101562 193.152344 219.097656 193.152344 221.019531 C 193.152344 224.632812 192.078125 228.46875 190.003906 232.386719 C 187.929688 236.382812 186.855469 238.917969 186.855469 239.992188 C 186.855469 242.21875 189.007812 244.984375 193.386719 248.289062 C 197.765625 251.589844 199.914062 255.507812 199.914062 260.042969 Z M 199.894531 260.03125 " fill-opacity="1" fill-rule="nonzero"/></g><g clip-path="url(#9327e12166)"><path fill="#ffffff" d="M 76.390625 -19.289062 L -256.90625 -19.289062 C -281.085938 -19.289062 -300.761719 0.382812 -300.761719 24.566406 L -300.761719 357.863281 C -300.761719 382.046875 -281.085938 401.71875 -256.90625 401.71875 L 76.390625 401.71875 C 100.574219 401.71875 120.246094 382.046875 120.246094 357.863281 L 120.246094 24.566406 C 120.246094 0.382812 100.574219 -19.289062 76.390625 -19.289062 Z M 102.703125 357.863281 C 102.703125 372.371094 90.898438 384.175781 76.390625 384.175781 L -256.90625 384.175781 C -271.414062 384.175781 -283.21875 372.371094 -283.21875 357.863281 L -283.21875 24.566406 C -283.21875 10.058594 -271.414062 -1.746094 -256.90625 -1.746094 L 76.390625 -1.746094 C 90.898438 -1.746094 102.703125 10.058594 102.703125 24.566406 Z M 102.703125 357.863281 " fill-opacity="1" fill-rule="nonzero"/></g><g clip-path="url(#eb00a5ba17)"><g transform="matrix(1, 0, 0, 1, 0, 0)"><g clip-path="url(#f4fbd16017)"><g clip-path="url(#d352e4f604)"><path fill="#ffffff" d="M -242.878906 -125.847656 L 106.785156 -125.847656 L 106.785156 428.699219 L -242.878906 428.699219 Z M -242.878906 -125.847656 " fill-opacity="1" fill-rule="nonzero"/></g></g></g></g></svg>