<svg xmlns="http://www.w3.org/2000/svg" xmlns:xlink="http://www.w3.org/1999/xlink" width="500" zoomAndPan="magnify" viewBox="0 0 375 374.999991" height="500" preserveAspectRatio="xMidYMid meet" version="1.0"><defs><clipPath id="6ef926e7e4"><path d="M 0.878906 0.878906 L 374.378906 0.878906 L 374.378906 374.378906 L 0.878906 374.378906 Z M 0.878906 0.878906 " clip-rule="nonzero"/></clipPath><clipPath id="cac6a820d6"><path d="M 60.160156 85.625 L 315 85.625 L 315 289 L 60.160156 289 Z M 60.160156 85.625 " clip-rule="nonzero"/></clipPath></defs><g clip-path="url(#6ef926e7e4)"><path fill="#000000" d="M 187.628906 0.878906 C 84.589844 0.878906 0.878906 84.589844 0.878906 187.628906 C 0.878906 290.667969 84.589844 374.378906 187.628906 374.378906 C 290.667969 374.378906 374.378906 290.667969 374.378906 187.628906 C 374.378906 84.589844 290.667969 0.878906 187.628906 0.878906 Z M 187.628906 9 C 286.386719 9 366.257812 88.871094 366.257812 187.628906 C 366.257812 286.386719 286.386719 366.257812 187.628906 366.257812 C 88.871094 366.257812 9 286.386719 9 187.628906 C 9 88.871094 88.871094 9 187.628906 9 Z M 187.628906 9 " fill-opacity="1" fill-rule="nonzero"/></g><g clip-path="url(#cac6a820d6)"><path fill="#000000" d="M 133.5 281.082031 C 93.488281 256.351562 65.730469 145.808594 60.160156 122.140625 L 182.960938 85.683594 C 186.996094 103.089844 201.21875 159.605469 223.296875 202.859375 L 162.902344 220.792969 C 160.886719 221.378906 159.558594 223.183594 159.398438 225.144531 C 159.1875 227.109375 160.140625 229.125 162 230.082031 C 174.3125 236.554688 181.476562 247.277344 181.636719 259.480469 C 181.792969 270.09375 176.433594 280.070312 167.941406 284.902344 C 166.828125 285.539062 165.714844 286.015625 164.546875 286.492188 L 162.902344 286.972656 C 162.902344 286.972656 162.847656 286.972656 162.847656 287.023438 C 154.304688 289.570312 144.0625 287.609375 133.5 281.082031 Z M 313.886719 223.660156 C 312.769531 235.175781 305.554688 244.570312 295.46875 247.699219 C 295.417969 247.699219 295.363281 247.699219 295.308594 247.699219 L 186.304688 280.070312 C 189.808594 273.96875 191.773438 266.859375 191.613281 259.324219 C 191.398438 246.796875 185.667969 235.601562 175.636719 227.375 L 230.988281 210.976562 C 231.574219 210.925781 232.15625 210.710938 232.6875 210.445312 L 295.789062 191.714844 C 308.367188 198.929688 315.160156 210.710938 313.886719 223.660156 Z M 313.886719 223.660156 " fill-opacity="1" fill-rule="nonzero"/></g></svg>