<svg xmlns="http://www.w3.org/2000/svg" xmlns:xlink="http://www.w3.org/1999/xlink" width="500" zoomAndPan="magnify" viewBox="0 0 375 374.999991" height="500" preserveAspectRatio="xMidYMid meet" version="1.2"><defs><clipPath id="2ef6392fd9"><path d="M 0 0.929688 L 344 0.929688 L 344 369.179688 L 0 369.179688 Z M 0 0.929688 "/></clipPath><clipPath id="fa89d54446"><path d="M 0 24.789062 L 204.496094 24.789062 L 204.496094 357.734375 L 0 357.734375 Z M 0 24.789062 "/></clipPath><clipPath id="3b17164c64"><path d="M 0 0 L 119.988281 0 L 119.988281 375 L 0 375 Z M 0 0 "/></clipPath><clipPath id="1601da5a8f"><path d="M 0 0 L 106.785156 0 L 106.785156 375 L 0 375 Z M 0 0 "/></clipPath></defs><g id="b7dcfa8b45"><g clip-rule="nonzero" clip-path="url(#2ef6392fd9)"><path style=" stroke:none;fill-rule:nonzero;fill:#092436;fill-opacity:1;" d="M 336.316406 93.421875 L 259.699219 166.753906 L 254.445312 162.007812 L 322.160156 80.789062 Z M 343.945312 198.207031 L 265.628906 193.203125 L 265.628906 185.066406 L 343.945312 175.652344 Z M 336.316406 279.761719 L 322.160156 292.394531 L 254.445312 211.429688 L 259.699219 206.933594 L 336.316406 279.757812 Z M 243.425781 261.449219 C 243.425781 275.527344 222.578125 287.390625 180.964844 296.972656 C 176.21875 298.164062 173.253906 301.382812 172.070312 306.722656 C 171.730469 308.335938 171.5625 313.507812 171.5625 322.152344 C 171.5625 328.421875 172.917969 336.820312 175.632812 347.164062 C 178.34375 357.507812 179.703125 364.882812 179.703125 369.207031 L 9.855469 369.207031 C 9.855469 363.867188 10.023438 356.320312 10.363281 346.316406 C 10.703125 335.46875 10.871094 327.667969 10.871094 323.003906 C 10.871094 288.585938 1.039062 264 -18.628906 249.246094 C -40.238281 233.054688 -55.492188 214.914062 -64.226562 194.90625 C -72.445312 176.003906 -76.601562 151.332031 -76.601562 120.894531 C -76.601562 88.9375 -60.332031 60.53125 -27.78125 35.695312 C 2.476562 12.550781 34.003906 0.933594 66.886719 0.933594 L 76.636719 0.933594 C 131.132812 0.933594 162.664062 12.550781 171.308594 35.695312 C 173.425781 44.769531 176.140625 54.769531 179.441406 65.707031 C 182.578125 69.863281 184.273438 72.148438 184.445312 72.746094 C 184.613281 73.339844 184.699219 76.21875 184.699219 81.308594 C 184.699219 92.410156 187.492188 100.378906 193.085938 105.128906 C 195.714844 107.503906 202.496094 110.636719 213.429688 114.625 C 223.851562 118.183594 231.988281 123.015625 238.007812 128.953125 C 239.109375 130.136719 239.707031 131.414062 239.707031 132.683594 C 239.707031 135.140625 235.296875 139.296875 226.484375 145.058594 C 217.671875 150.90625 213.265625 156.25 213.265625 161.25 C 213.265625 165.0625 214.792969 167.949219 217.757812 169.894531 C 221.230469 172.523438 223.011719 174.050781 223.179688 174.390625 C 218.6875 177.695312 212.417969 183.289062 204.285156 191.179688 C 200.296875 195.757812 195.894531 201.519531 190.894531 208.476562 C 204.964844 212.96875 219.199219 215.175781 233.78125 215.175781 C 235.222656 215.175781 235.984375 216.273438 235.984375 218.394531 C 235.984375 222.382812 234.800781 226.617188 232.511719 230.941406 C 230.222656 235.351562 229.039062 238.148438 229.039062 239.332031 C 229.039062 241.792969 231.414062 244.84375 236.246094 248.492188 C 241.074219 252.132812 243.449219 256.460938 243.449219 261.460938 Z M 243.425781 261.449219 "/></g><g clip-rule="nonzero" clip-path="url(#fa89d54446)"><path style=" stroke:none;fill-rule:nonzero;fill:#ffffff;fill-opacity:1;" d="M 283.757812 107.714844 L 214.378906 174.101562 L 209.621094 169.800781 L 270.941406 96.277344 Z M 290.667969 202.574219 L 219.75 198.042969 L 219.75 190.679688 L 290.667969 182.15625 Z M 283.757812 276.402344 L 270.941406 287.839844 L 209.621094 214.542969 L 214.378906 210.476562 L 283.757812 276.398438 Z M 199.644531 259.828125 C 199.644531 272.570312 180.765625 283.3125 143.085938 291.984375 C 138.785156 293.0625 136.101562 295.976562 135.03125 300.8125 C 134.722656 302.273438 134.570312 306.953125 134.570312 314.78125 C 134.570312 320.457031 135.800781 328.058594 138.257812 337.421875 C 140.710938 346.785156 141.941406 353.460938 141.941406 357.378906 L -11.855469 357.378906 C -11.855469 352.542969 -11.703125 345.710938 -11.398438 336.65625 C -11.089844 326.832031 -10.9375 319.773438 -10.9375 315.550781 C -10.9375 284.394531 -19.839844 262.136719 -37.648438 248.78125 C -57.21875 234.125 -71.03125 217.699219 -78.941406 199.585938 C -86.382812 182.472656 -90.144531 160.136719 -90.144531 132.585938 C -90.144531 103.65625 -75.410156 77.941406 -45.941406 55.457031 C -18.539062 34.503906 10.007812 23.988281 39.785156 23.988281 L 48.613281 23.988281 C 97.960938 23.988281 126.515625 34.503906 134.339844 55.457031 C 136.257812 63.671875 138.714844 72.722656 141.707031 82.625 C 144.546875 86.390625 146.082031 88.457031 146.234375 88.996094 C 146.386719 89.535156 146.464844 92.140625 146.464844 96.746094 C 146.464844 106.800781 148.996094 114.011719 154.0625 118.3125 C 156.441406 120.460938 162.582031 123.300781 172.480469 126.910156 C 181.921875 130.128906 189.289062 134.503906 194.738281 139.882812 C 195.734375 140.953125 196.277344 142.105469 196.277344 143.253906 C 196.277344 145.480469 192.285156 149.242188 184.304688 154.460938 C 176.324219 159.753906 172.332031 164.589844 172.332031 169.117188 C 172.332031 172.570312 173.714844 175.183594 176.402344 176.945312 C 179.546875 179.324219 181.160156 180.707031 181.3125 181.015625 C 177.246094 184.003906 171.566406 189.070312 164.199219 196.210938 C 160.589844 200.355469 156.605469 205.574219 152.074219 211.871094 C 164.816406 215.9375 177.707031 217.933594 190.910156 217.933594 C 192.21875 217.933594 192.90625 218.929688 192.90625 220.847656 C 192.90625 224.457031 191.835938 228.292969 189.761719 232.207031 C 187.6875 236.199219 186.617188 238.734375 186.617188 239.804688 C 186.617188 242.03125 188.765625 244.792969 193.140625 248.097656 C 197.515625 251.394531 199.667969 255.308594 199.667969 259.839844 Z M 199.644531 259.828125 "/></g><g clip-rule="nonzero" clip-path="url(#3b17164c64)"><path style=" stroke:none;fill-rule:nonzero;fill:#ffffff;fill-opacity:1;" d="M 76.160156 -19.289062 L -256.933594 -19.289062 C -281.097656 -19.289062 -300.761719 0.371094 -300.761719 24.539062 L -300.761719 357.632812 C -300.761719 381.800781 -281.097656 401.460938 -256.933594 401.460938 L 76.160156 401.460938 C 100.328125 401.460938 119.988281 381.800781 119.988281 357.632812 L 119.988281 24.539062 C 119.988281 0.371094 100.328125 -19.289062 76.160156 -19.289062 Z M 102.457031 357.632812 C 102.457031 372.132812 90.660156 383.929688 76.160156 383.929688 L -256.933594 383.929688 C -271.429688 383.929688 -283.230469 372.132812 -283.230469 357.632812 L -283.230469 24.539062 C -283.230469 10.039062 -271.429688 -1.757812 -256.933594 -1.757812 L 76.160156 -1.757812 C 90.660156 -1.757812 102.457031 10.039062 102.457031 24.539062 Z M 102.457031 357.632812 "/></g><g clip-rule="nonzero" clip-path="url(#1601da5a8f)"><path style=" stroke:none;fill-rule:nonzero;fill:#ffffff;fill-opacity:1;" d="M -242.878906 -125.847656 L 106.785156 -125.847656 L 106.785156 428.699219 L -242.878906 428.699219 Z M -242.878906 -125.847656 "/></g></g></svg>