<svg xmlns="http://www.w3.org/2000/svg" xmlns:xlink="http://www.w3.org/1999/xlink" width="500" zoomAndPan="magnify" viewBox="0 0 375 374.999991" height="500" preserveAspectRatio="xMidYMid meet" version="1.0"><defs><clipPath id="e7e73d893d"><path d="M 0.878906 0.878906 L 374.378906 0.878906 L 374.378906 374.378906 L 0.878906 374.378906 Z M 0.878906 0.878906 " clip-rule="nonzero"/></clipPath><clipPath id="bc8e324cca"><path d="M 103.382812 65 L 317.882812 65 L 317.882812 309 L 103.382812 309 Z M 103.382812 65 " clip-rule="nonzero"/></clipPath></defs><g clip-path="url(#e7e73d893d)"><path fill="#000000" d="M 187.628906 0.878906 C 84.589844 0.878906 0.878906 84.589844 0.878906 187.628906 C 0.878906 290.667969 84.589844 374.378906 187.628906 374.378906 C 290.667969 374.378906 374.378906 290.667969 374.378906 187.628906 C 374.378906 84.589844 290.667969 0.878906 187.628906 0.878906 Z M 187.628906 9 C 286.386719 9 366.257812 88.871094 366.257812 187.628906 C 366.257812 286.386719 286.386719 366.257812 187.628906 366.257812 C 88.871094 366.257812 9 286.386719 9 187.628906 C 9 88.871094 88.871094 9 187.628906 9 Z M 187.628906 9 " fill-opacity="1" fill-rule="nonzero"/></g><g clip-path="url(#bc8e324cca)"><path fill="#000000" d="M 310.535156 173.816406 L 126.175781 67.339844 C 121.492188 64.636719 115.738281 64.636719 111.058594 67.339844 C 106.382812 70.035156 103.5 75.027344 103.5 80.433594 L 103.5 293.40625 C 103.5 298.8125 106.382812 303.804688 111.058594 306.503906 C 113.398438 307.871094 116.007812 308.53125 118.617188 308.53125 C 121.226562 308.53125 123.835938 307.851562 126.175781 306.503906 L 310.535156 200.027344 C 315.222656 197.324219 318.085938 192.332031 318.085938 186.925781 C 318.085938 181.519531 315.210938 176.523438 310.535156 173.816406 Z M 310.535156 173.816406 " fill-opacity="1" fill-rule="nonzero"/></g></svg>