<svg xmlns="http://www.w3.org/2000/svg" xmlns:xlink="http://www.w3.org/1999/xlink" width="500" zoomAndPan="magnify" viewBox="0 0 375 374.999991" height="500" preserveAspectRatio="xMidYMid meet" version="1.0"><defs><clipPath id="38ff5d63a1"><path d="M 103.382812 65 L 317.882812 65 L 317.882812 309 L 103.382812 309 Z M 103.382812 65 " clip-rule="nonzero"/></clipPath></defs><path fill="#000000" d="M 187.5 0 C 291.050781 0 375 83.945312 375 187.5 C 375 291.050781 291.050781 375 187.5 375 C 83.949219 375 0 291.050781 0 187.5 C 0 83.945312 83.949219 0 187.5 0 Z M 187.5 0 " fill-opacity="1" fill-rule="evenodd"/><g clip-path="url(#38ff5d63a1)"><path fill="#ffffff" d="M 310.75 173.882812 L 126.199219 67.339844 C 121.511719 64.636719 115.75 64.636719 111.066406 67.339844 C 106.382812 70.039062 103.5 75.035156 103.5 80.445312 L 103.5 293.550781 C 103.5 298.960938 106.382812 303.953125 111.066406 306.652344 C 113.410156 308.023438 116.019531 308.683594 118.632812 308.683594 C 121.246094 308.683594 123.859375 308.003906 126.199219 306.652344 L 310.75 200.109375 C 315.441406 197.40625 318.308594 192.410156 318.308594 187.003906 C 318.308594 181.59375 315.433594 176.59375 310.75 173.882812 Z M 310.75 173.882812 " fill-opacity="1" fill-rule="nonzero"/></g></svg>