<svg xmlns="http://www.w3.org/2000/svg" xmlns:xlink="http://www.w3.org/1999/xlink" width="500" zoomAndPan="magnify" viewBox="0 0 375 374.999991" height="500" preserveAspectRatio="xMidYMid meet" version="1.0"><defs><clipPath id="76d552e017"><path d="M 103.382812 65 L 317.882812 65 L 317.882812 309 L 103.382812 309 Z M 103.382812 65 " clip-rule="nonzero"/></clipPath></defs><g clip-path="url(#76d552e017)"><path fill="#000000" d="M 310.535156 173.816406 L 126.175781 67.339844 C 121.492188 64.636719 115.738281 64.636719 111.058594 67.339844 C 106.382812 70.035156 103.5 75.027344 103.5 80.433594 L 103.5 293.40625 C 103.5 298.8125 106.382812 303.804688 111.058594 306.503906 C 113.398438 307.871094 116.007812 308.53125 118.617188 308.53125 C 121.226562 308.53125 123.835938 307.851562 126.175781 306.503906 L 310.535156 200.027344 C 315.222656 197.324219 318.085938 192.332031 318.085938 186.925781 C 318.085938 181.519531 315.210938 176.523438 310.535156 173.816406 Z M 310.535156 173.816406 " fill-opacity="1" fill-rule="nonzero"/></g><path fill="#000000" d="M 187.476562 374.953125 C 84.101562 374.953125 0 290.851562 0 187.476562 C 0 84.101562 84.101562 0 187.476562 0 C 290.851562 0 374.953125 84.101562 374.953125 187.476562 C 374.953125 290.851562 290.851562 374.953125 187.476562 374.953125 Z M 187.476562 18.335938 C 94.210938 18.335938 18.335938 94.210938 18.335938 187.476562 C 18.335938 280.742188 94.210938 356.617188 187.476562 356.617188 C 280.742188 356.617188 356.617188 280.742188 356.617188 187.476562 C 356.617188 94.210938 280.742188 18.335938 187.476562 18.335938 Z M 187.476562 18.335938 " fill-opacity="1" fill-rule="nonzero"/></svg>