<svg xmlns="http://www.w3.org/2000/svg" xmlns:xlink="http://www.w3.org/1999/xlink" width="500" zoomAndPan="magnify" viewBox="0 0 375 374.999991" height="500" preserveAspectRatio="xMidYMid meet" version="1.0"><defs><g/><clipPath id="c4f7f8de36"><path d="M 0.800781 0.480469 L 374.300781 0.480469 L 374.300781 373.980469 L 0.800781 373.980469 Z M 0.800781 0.480469 " clip-rule="nonzero"/></clipPath><clipPath id="1c98d6d6a4"><path d="M 28.5 115.40625 L 175.5 115.40625 L 175.5 262.40625 L 28.5 262.40625 Z M 28.5 115.40625 " clip-rule="nonzero"/></clipPath><clipPath id="c41032b5c2"><path d="M 199.40625 115.40625 L 346.40625 115.40625 L 346.40625 262.40625 L 199.40625 262.40625 Z M 199.40625 115.40625 " clip-rule="nonzero"/></clipPath><clipPath id="334fda5a54"><path d="M 112.5 175.03125 L 262.5 175.03125 L 262.5 199.78125 L 112.5 199.78125 Z M 112.5 175.03125 " clip-rule="nonzero"/></clipPath></defs><g clip-path="url(#c4f7f8de36)"><path fill="#000000" d="M 187.550781 0.480469 C 290.691406 0.480469 374.300781 84.089844 374.300781 187.230469 C 374.300781 290.367188 290.691406 373.980469 187.550781 373.980469 C 84.414062 373.980469 0.800781 290.367188 0.800781 187.230469 C 0.800781 84.089844 84.414062 0.480469 187.550781 0.480469 Z M 187.550781 0.480469 " fill-opacity="1" fill-rule="evenodd"/></g><g clip-path="url(#1c98d6d6a4)"><path fill="#ffffff" d="M 102.046875 115.40625 C 142.664062 115.40625 175.59375 148.332031 175.59375 188.953125 C 175.59375 229.570312 142.664062 262.5 102.046875 262.5 C 61.429688 262.5 28.5 229.570312 28.5 188.953125 C 28.5 148.332031 61.429688 115.40625 102.046875 115.40625 Z M 102.046875 115.40625 " fill-opacity="1" fill-rule="evenodd"/></g><g clip-path="url(#c41032b5c2)"><path fill="#ffffff" d="M 272.953125 115.40625 C 313.570312 115.40625 346.5 148.332031 346.5 188.953125 C 346.5 229.570312 313.570312 262.5 272.953125 262.5 C 232.332031 262.5 199.40625 229.570312 199.40625 188.953125 C 199.40625 148.332031 232.332031 115.40625 272.953125 115.40625 Z M 272.953125 115.40625 " fill-opacity="1" fill-rule="evenodd"/></g><g clip-path="url(#334fda5a54)"><path fill="#ffffff" d="M 112.621094 175.039062 L 262.371094 175.039062 C 262.371094 183.292969 262.371094 191.546875 262.371094 199.800781 C 212.453125 199.800781 162.535156 199.800781 112.621094 199.800781 C 112.621094 191.546875 112.621094 183.292969 112.621094 175.039062 " fill-opacity="1" fill-rule="nonzero"/></g><g fill="#000000" fill-opacity="1"><g transform="translate(69.67716, 230.950005)"><g><path d="M 43.796875 -84.453125 L 43.796875 0 L 27.328125 0 L 27.328125 -70.109375 L 16.234375 -70.109375 L 16.234375 -84.453125 Z M 43.796875 -84.453125 "/></g></g></g><g fill="#000000" fill-opacity="1"><g transform="translate(240.582601, 230.950005)"><g><path d="M 47.15625 -31.578125 C 46.925781 -31.285156 45.222656 -29.289062 42.046875 -25.59375 C 38.878906 -21.894531 35.65625 -18.144531 32.375 -14.34375 L 60.03125 -14.34375 L 60.03125 0 L 3.140625 0 L 30.359375 -34.265625 C 33.640625 -38.296875 36.566406 -42.609375 39.140625 -47.203125 C 41.722656 -51.796875 43.015625 -55.625 43.015625 -58.6875 C 43.015625 -62.195312 41.96875 -65.351562 39.875 -68.15625 C 37.78125 -70.957031 35.203125 -72.359375 32.140625 -72.359375 C 29.148438 -72.359375 26.664062 -71.03125 24.6875 -68.375 C 22.71875 -65.726562 21.734375 -62.460938 21.734375 -58.578125 L 21.734375 -57.90625 L 4.25 -57.90625 C 5 -67.09375 7.851562 -74.1875 12.8125 -79.1875 C 17.78125 -84.1875 24.1875 -86.6875 32.03125 -86.6875 C 37.101562 -86.6875 41.769531 -85.453125 46.03125 -82.984375 C 50.289062 -80.523438 53.59375 -77.222656 55.9375 -73.078125 C 58.289062 -68.929688 59.46875 -64.394531 59.46875 -59.46875 C 59.46875 -54.6875 58.492188 -50.164062 56.546875 -45.90625 C 54.609375 -41.65625 51.476562 -36.878906 47.15625 -31.578125 Z M 47.15625 -31.578125 "/></g></g></g></svg>