<svg xmlns="http://www.w3.org/2000/svg" xmlns:xlink="http://www.w3.org/1999/xlink" width="500" zoomAndPan="magnify" viewBox="0 0 375 374.999991" height="500" preserveAspectRatio="xMidYMid meet" version="1.0"><defs><clipPath id="18bb9394f7"><path d="M 0.878906 0.878906 L 374.378906 0.878906 L 374.378906 374.378906 L 0.878906 374.378906 Z M 0.878906 0.878906 " clip-rule="nonzero"/></clipPath></defs><g clip-path="url(#18bb9394f7)"><path fill="#000000" d="M 187.628906 0.878906 C 84.589844 0.878906 0.878906 84.589844 0.878906 187.628906 C 0.878906 290.667969 84.589844 374.378906 187.628906 374.378906 C 290.667969 374.378906 374.378906 290.667969 374.378906 187.628906 C 374.378906 84.589844 290.667969 0.878906 187.628906 0.878906 Z M 187.628906 9 C 286.386719 9 366.257812 88.871094 366.257812 187.628906 C 366.257812 286.386719 286.386719 366.257812 187.628906 366.257812 C 88.871094 366.257812 9 286.386719 9 187.628906 C 9 88.871094 88.871094 9 187.628906 9 Z M 187.628906 9 " fill-opacity="1" fill-rule="nonzero"/></g><path fill="#000000" d="M 115.5 156 C 136.308594 156 153.488281 140.21875 155.734375 120 L 194.636719 120 L 191.066406 123.566406 C 189.308594 125.324219 189.308594 128.171875 191.066406 129.929688 C 192.738281 131.601562 195.65625 131.707031 197.429688 129.929688 L 208.679688 118.679688 C 210.4375 116.921875 210.4375 114.074219 208.679688 112.316406 L 197.429688 101.066406 C 195.671875 99.308594 192.824219 99.308594 191.066406 101.066406 C 189.308594 102.824219 189.308594 105.671875 191.066406 107.429688 L 194.636719 111 L 155.734375 111 C 153.488281 90.78125 136.308594 75 115.5 75 C 93.167969 75 75 93.167969 75 115.5 C 75 137.832031 93.167969 156 115.5 156 Z M 106.5 102 C 108.980469 102 111 99.980469 111 97.5 C 111 95.015625 113.015625 93 115.5 93 C 117.984375 93 120 95.015625 120 97.5 L 120 133.5 C 120 135.984375 117.984375 138 115.5 138 C 113.015625 138 111 135.984375 111 133.5 L 111 110.230469 C 109.589844 110.726562 108.078125 111 106.5 111 C 104.015625 111 102 108.984375 102 106.5 C 102 104.015625 104.015625 102 106.5 102 Z M 106.5 102 " fill-opacity="1" fill-rule="nonzero"/><path fill="#000000" d="M 259.5 219 C 237.167969 219 219 237.167969 219 259.5 C 219 281.832031 237.167969 300 259.5 300 C 281.832031 300 300 281.832031 300 259.5 C 300 237.167969 281.832031 219 259.5 219 Z M 258.6875 282 C 254.789062 282 251.121094 280.476562 248.351562 277.710938 C 246.59375 275.953125 246.59375 273.105469 248.351562 271.347656 C 250.109375 269.589844 252.957031 269.589844 254.714844 271.347656 C 255.78125 272.414062 257.191406 273 258.6875 273 C 261.792969 273 264.3125 270.476562 264.3125 267.375 C 264.3125 264.273438 261.792969 261.75 258.6875 261.75 C 257.191406 261.75 255.78125 262.335938 254.714844 263.402344 C 251.816406 266.304688 246.71875 263.925781 247.050781 259.855469 C 247.054688 259.820312 248.578125 241.132812 248.578125 241.132812 C 248.769531 238.796875 250.722656 237 253.0625 237 L 267.6875 237 C 270.175781 237 272.1875 239.015625 272.1875 241.5 C 272.1875 243.984375 270.175781 246 267.6875 246 L 257.210938 246 L 256.648438 252.890625 C 257.320312 252.796875 258 252.75 258.6875 252.75 C 266.753906 252.75 273.3125 259.3125 273.3125 267.375 C 273.3125 275.4375 266.753906 282 258.6875 282 Z M 258.6875 282 " fill-opacity="1" fill-rule="nonzero"/><path fill="#000000" d="M 187.5 228 C 209.832031 228 228 209.832031 228 187.5 C 228 177.953125 224.660156 169.183594 219.113281 162.25 L 234.25 147.113281 C 241.183594 152.660156 249.953125 156 259.5 156 C 281.832031 156 300 137.832031 300 115.5 C 300 93.167969 281.832031 75 259.5 75 C 237.167969 75 219 93.167969 219 115.5 C 219 125.046875 222.339844 133.816406 227.886719 140.75 L 212.75 155.886719 C 205.816406 150.339844 197.046875 147 187.5 147 C 165.167969 147 147 165.167969 147 187.5 C 147 197.046875 150.339844 205.816406 155.886719 212.75 L 140.75 227.886719 C 133.816406 222.339844 125.046875 219 115.5 219 C 93.167969 219 75 237.167969 75 259.5 C 75 281.832031 93.167969 300 115.5 300 C 136.308594 300 153.488281 284.21875 155.734375 264 L 194.636719 264 L 191.066406 267.566406 C 189.308594 269.324219 189.308594 272.171875 191.066406 273.929688 C 192.8125 275.675781 195.6875 275.675781 197.429688 273.929688 L 208.679688 262.679688 C 210.4375 260.921875 210.4375 258.074219 208.679688 256.316406 L 197.429688 245.066406 C 195.671875 243.308594 192.824219 243.308594 191.066406 245.066406 C 189.308594 246.824219 189.308594 249.671875 191.066406 251.429688 L 194.636719 255 L 155.734375 255 C 154.867188 247.203125 151.773438 240.078125 147.113281 234.25 L 162.25 219.113281 C 169.183594 224.660156 177.953125 228 187.5 228 Z M 259.5 94.125 C 266.945312 94.125 273 100.179688 273 107.625 C 273 113.210938 270.589844 118.527344 266.382812 122.207031 L 262.476562 125.625 L 268.5 125.625 C 270.984375 125.625 273 127.640625 273 130.125 C 273 132.609375 270.984375 134.625 268.5 134.625 L 250.5 134.625 C 248.625 134.625 246.945312 133.460938 246.289062 131.707031 C 245.628906 129.953125 246.125 127.972656 247.535156 126.738281 L 260.457031 115.433594 C 262.707031 113.464844 264 110.617188 264 107.625 C 264 105.144531 261.980469 103.125 259.5 103.125 C 257.019531 103.125 255 105.144531 255 107.625 C 255 110.109375 252.984375 112.125 250.5 112.125 C 248.015625 112.125 246 110.109375 246 107.625 C 246 100.179688 252.054688 94.125 259.5 94.125 Z M 187.5 192 C 185.015625 192 183 189.984375 183 187.5 C 183 185.015625 185.015625 183 187.5 183 C 189.980469 183 192 180.980469 192 178.5 C 192 176.019531 189.980469 174 187.5 174 C 185.019531 174 183 176.019531 183 178.5 C 183 180.984375 180.984375 183 178.5 183 C 176.015625 183 174 180.984375 174 178.5 C 174 171.054688 180.054688 165 187.5 165 C 194.945312 165 201 171.054688 201 178.5 C 201 181.953125 199.695312 185.109375 197.554688 187.5 C 199.695312 189.890625 201 193.046875 201 196.5 C 201 203.945312 194.945312 210 187.5 210 C 180.054688 210 174 203.945312 174 196.5 C 174 194.015625 176.015625 192 178.5 192 C 180.984375 192 183 194.015625 183 196.5 C 183 198.980469 185.019531 201 187.5 201 C 189.980469 201 192 198.980469 192 196.5 C 192 194.019531 189.980469 192 187.5 192 Z M 129 276.375 C 129 278.859375 126.984375 280.875 124.5 280.875 C 122.015625 280.875 120 278.859375 120 276.375 L 120 265.6875 L 106.5 265.6875 C 104.015625 265.6875 102 263.671875 102 261.1875 L 102 246 C 102 243.515625 104.015625 241.5 106.5 241.5 C 108.984375 241.5 111 243.515625 111 246 L 111 256.6875 L 120 256.6875 L 120 246 C 120 243.515625 122.015625 241.5 124.5 241.5 C 126.984375 241.5 129 243.515625 129 246 Z M 129 276.375 " fill-opacity="1" fill-rule="nonzero"/></svg>