<svg xmlns="http://www.w3.org/2000/svg" xmlns:xlink="http://www.w3.org/1999/xlink" width="500" zoomAndPan="magnify" viewBox="0 0 375 374.999991" height="500" preserveAspectRatio="xMidYMid meet" version="1.0"><defs><clipPath id="c898a46323"><path d="M 1.042969 0 L 375 0 L 375 374.25 L 1.042969 374.25 Z M 1.042969 0 " clip-rule="nonzero"/></clipPath></defs><g clip-path="url(#c898a46323)"><path fill="#000000" d="M 188.167969 0 C 291.515625 0 375.292969 83.78125 375.292969 187.125 C 375.292969 290.46875 291.515625 374.25 188.167969 374.25 C 84.824219 374.25 1.042969 290.46875 1.042969 187.125 C 1.042969 83.78125 84.824219 0 188.167969 0 Z M 188.167969 0 " fill-opacity="1" fill-rule="evenodd"/></g><path fill="#ffffff" d="M 302.863281 133.921875 L 196.929688 197.847656 C 191.148438 201.5 183.839844 201.5 177.753906 197.847656 L 72.125 133.921875 C 65.429688 129.964844 65.429688 120.226562 72.125 116.265625 L 178.058594 53.257812 C 183.839844 49.90625 191.148438 49.90625 196.929688 53.257812 L 302.863281 116.265625 C 309.558594 120.226562 309.558594 129.964844 302.863281 133.921875 Z M 302.863281 133.921875 " fill-opacity="1" fill-rule="nonzero"/><path fill="#ffffff" d="M 302.863281 178.0625 L 275.164062 161.625 L 196.929688 208.804688 C 191.148438 212.457031 183.839844 212.457031 177.753906 208.804688 L 99.828125 161.625 L 72.125 178.0625 C 65.429688 182.019531 65.429688 191.757812 72.125 195.714844 L 178.058594 259.335938 C 183.839844 262.988281 191.148438 262.988281 197.234375 259.335938 L 303.167969 195.714844 C 309.558594 191.757812 309.558594 182.019531 302.863281 178.0625 Z M 302.863281 178.0625 " fill-opacity="1" fill-rule="nonzero"/><path fill="#ffffff" d="M 302.863281 240.464844 L 275.164062 224.027344 L 196.929688 270.902344 C 191.148438 274.558594 183.839844 274.558594 177.753906 270.902344 L 99.828125 223.722656 L 72.125 240.160156 C 65.429688 244.117188 65.429688 253.855469 72.125 257.816406 L 178.058594 321.433594 C 183.839844 325.085938 191.148438 325.085938 197.234375 321.433594 L 303.167969 257.816406 C 309.558594 254.160156 309.558594 244.421875 302.863281 240.464844 Z M 302.863281 240.464844 " fill-opacity="1" fill-rule="nonzero"/></svg>