<svg xmlns="http://www.w3.org/2000/svg" xmlns:xlink="http://www.w3.org/1999/xlink" width="500" zoomAndPan="magnify" viewBox="0 0 375 374.999991" height="500" preserveAspectRatio="xMidYMid meet" version="1.0"><defs><clipPath id="93694043fb"><path d="M 77 62.089844 L 298 62.089844 L 298 200 L 77 200 Z M 77 62.089844 " clip-rule="nonzero"/></clipPath></defs><g clip-path="url(#93694043fb)"><path fill="#000000" d="M 292.5 138.570312 L 196.011719 196.761719 C 190.746094 200.089844 184.089844 200.089844 178.546875 196.761719 L 82.335938 138.570312 C 76.234375 134.96875 76.234375 126.101562 82.335938 122.5 L 178.824219 65.140625 C 184.089844 62.089844 190.746094 62.089844 196.011719 65.140625 L 292.5 122.5 C 298.601562 126.101562 298.601562 134.96875 292.5 138.570312 Z M 292.5 138.570312 " fill-opacity="1" fill-rule="nonzero"/></g><path fill="#000000" d="M 292.5 178.75 L 267.269531 163.789062 L 196.011719 206.738281 C 190.746094 210.0625 184.089844 210.0625 178.546875 206.738281 L 107.566406 163.789062 L 82.335938 178.75 C 76.234375 182.351562 76.234375 191.222656 82.335938 194.824219 L 178.824219 252.738281 C 184.089844 256.0625 190.746094 256.0625 196.289062 252.738281 L 292.777344 194.824219 C 298.601562 191.222656 298.601562 182.351562 292.5 178.75 Z M 292.5 178.75 " fill-opacity="1" fill-rule="nonzero"/><path fill="#000000" d="M 292.5 235.558594 L 267.269531 220.59375 L 196.011719 263.265625 C 190.746094 266.59375 184.089844 266.59375 178.546875 263.265625 L 107.566406 220.316406 L 82.335938 235.28125 C 76.234375 238.882812 76.234375 247.75 82.335938 251.351562 L 178.824219 309.265625 C 184.089844 312.589844 190.746094 312.589844 196.289062 309.265625 L 292.777344 251.351562 C 298.601562 248.027344 298.601562 239.160156 292.5 235.558594 Z M 292.5 235.558594 " fill-opacity="1" fill-rule="nonzero"/><path fill="#000000" d="M 187.476562 374.953125 C 84.101562 374.953125 0 290.851562 0 187.476562 C 0 84.101562 84.101562 0 187.476562 0 C 290.851562 0 374.953125 84.101562 374.953125 187.476562 C 374.953125 290.851562 290.851562 374.953125 187.476562 374.953125 Z M 187.476562 18.335938 C 94.210938 18.335938 18.335938 94.210938 18.335938 187.476562 C 18.335938 280.742188 94.210938 356.617188 187.476562 356.617188 C 280.742188 356.617188 356.617188 280.742188 356.617188 187.476562 C 356.617188 94.210938 280.742188 18.335938 187.476562 18.335938 Z M 187.476562 18.335938 " fill-opacity="1" fill-rule="nonzero"/></svg>