<svg xmlns="http://www.w3.org/2000/svg" xmlns:xlink="http://www.w3.org/1999/xlink" width="500" zoomAndPan="magnify" viewBox="0 0 375 374.999991" height="500" preserveAspectRatio="xMidYMid meet" version="1.0"><defs><clipPath id="11b9f60e8d"><path d="M 1.59375 1.59375 L 373.59375 1.59375 L 373.59375 373.59375 L 1.59375 373.59375 Z M 1.59375 1.59375 " clip-rule="nonzero"/></clipPath></defs><g clip-path="url(#11b9f60e8d)"><path fill="#ff6929" d="M 354.804688 361.003906 L 20.183594 361.003906 C 16.773438 361.003906 13.988281 358.21875 13.988281 354.804688 L 13.988281 63.5625 L 361.003906 63.5625 L 361.003906 354.804688 C 361.003906 358.21875 358.21875 361.003906 354.804688 361.003906 Z M 20.183594 13.988281 L 354.804688 13.988281 C 358.21875 13.988281 361.003906 16.773438 361.003906 20.183594 L 361.003906 51.167969 L 13.988281 51.167969 L 13.988281 20.183594 C 13.988281 16.773438 16.773438 13.988281 20.183594 13.988281 Z M 354.804688 1.59375 L 20.183594 1.59375 C 9.921875 1.59375 1.59375 9.921875 1.59375 20.183594 L 1.59375 354.804688 C 1.59375 365.070312 9.921875 373.394531 20.183594 373.394531 L 354.804688 373.394531 C 365.070312 373.394531 373.394531 365.070312 373.394531 354.804688 L 373.394531 20.183594 C 373.394531 9.921875 365.070312 1.59375 354.804688 1.59375 " fill-opacity="1" fill-rule="nonzero"/></g><path fill="#ff6929" d="M 100.742188 137.921875 L 75.957031 137.921875 C 72.542969 137.921875 69.757812 135.136719 69.757812 131.726562 C 69.757812 128.3125 72.542969 125.527344 75.957031 125.527344 L 100.742188 125.527344 C 104.15625 125.527344 106.9375 128.3125 106.9375 131.726562 C 106.9375 135.136719 104.15625 137.921875 100.742188 137.921875 Z M 100.742188 113.136719 L 75.957031 113.136719 C 65.691406 113.136719 57.363281 121.460938 57.363281 131.726562 C 57.363281 141.988281 65.691406 150.316406 75.957031 150.316406 L 100.742188 150.316406 C 111.003906 150.316406 119.332031 141.988281 119.332031 131.726562 C 119.332031 121.460938 111.003906 113.136719 100.742188 113.136719 " fill-opacity="1" fill-rule="nonzero"/><path fill="#ff6929" d="M 100.742188 187.496094 L 75.957031 187.496094 C 72.542969 187.496094 69.757812 184.710938 69.757812 181.296875 C 69.757812 177.886719 72.542969 175.101562 75.957031 175.101562 L 100.742188 175.101562 C 104.15625 175.101562 106.9375 177.886719 106.9375 181.296875 C 106.9375 184.710938 104.15625 187.496094 100.742188 187.496094 Z M 100.742188 162.707031 L 75.957031 162.707031 C 65.691406 162.707031 57.363281 171.035156 57.363281 181.296875 C 57.363281 191.5625 65.691406 199.886719 75.957031 199.886719 L 100.742188 199.886719 C 111.003906 199.886719 119.332031 191.5625 119.332031 181.296875 C 119.332031 171.035156 111.003906 162.707031 100.742188 162.707031 " fill-opacity="1" fill-rule="nonzero"/><path fill="#ff6929" d="M 100.742188 237.070312 L 75.957031 237.070312 C 72.542969 237.070312 69.757812 234.285156 69.757812 230.871094 C 69.757812 227.460938 72.542969 224.675781 75.957031 224.675781 L 100.742188 224.675781 C 104.15625 224.675781 106.9375 227.460938 106.9375 230.871094 C 106.9375 234.285156 104.15625 237.070312 100.742188 237.070312 Z M 100.742188 212.28125 L 75.957031 212.28125 C 65.691406 212.28125 57.363281 220.609375 57.363281 230.871094 C 57.363281 241.136719 65.691406 249.460938 75.957031 249.460938 L 100.742188 249.460938 C 111.003906 249.460938 119.332031 241.136719 119.332031 230.871094 C 119.332031 220.609375 111.003906 212.28125 100.742188 212.28125 " fill-opacity="1" fill-rule="nonzero"/><path fill="#ff6929" d="M 100.742188 286.640625 L 75.957031 286.640625 C 72.542969 286.640625 69.757812 283.859375 69.757812 280.445312 C 69.757812 277.03125 72.542969 274.25 75.957031 274.25 L 100.742188 274.25 C 104.15625 274.25 106.9375 277.03125 106.9375 280.445312 C 106.9375 283.859375 104.15625 286.640625 100.742188 286.640625 Z M 100.742188 261.855469 L 75.957031 261.855469 C 65.691406 261.855469 57.363281 270.183594 57.363281 280.445312 C 57.363281 290.707031 65.691406 299.035156 75.957031 299.035156 L 100.742188 299.035156 C 111.003906 299.035156 119.332031 290.707031 119.332031 280.445312 C 119.332031 270.183594 111.003906 261.855469 100.742188 261.855469 " fill-opacity="1" fill-rule="nonzero"/><path fill="#ff6929" d="M 100.742188 336.214844 L 75.957031 336.214844 C 72.542969 336.214844 69.757812 333.433594 69.757812 330.019531 C 69.757812 326.605469 72.542969 323.820312 75.957031 323.820312 L 100.742188 323.820312 C 104.15625 323.820312 106.9375 326.605469 106.9375 330.019531 C 106.9375 333.433594 104.15625 336.214844 100.742188 336.214844 Z M 100.742188 311.429688 L 75.957031 311.429688 C 65.691406 311.429688 57.363281 319.753906 57.363281 330.019531 C 57.363281 340.28125 65.691406 348.609375 75.957031 348.609375 L 100.742188 348.609375 C 111.003906 348.609375 119.332031 340.28125 119.332031 330.019531 C 119.332031 319.753906 111.003906 311.429688 100.742188 311.429688 " fill-opacity="1" fill-rule="nonzero"/><path fill="#ff6929" d="M 199.890625 137.921875 L 175.101562 137.921875 C 171.6875 137.921875 168.90625 135.136719 168.90625 131.726562 C 168.90625 128.3125 171.6875 125.527344 175.101562 125.527344 L 199.890625 125.527344 C 203.300781 125.527344 206.085938 128.3125 206.085938 131.726562 C 206.085938 135.136719 203.300781 137.921875 199.890625 137.921875 Z M 199.890625 113.136719 L 175.101562 113.136719 C 164.839844 113.136719 156.511719 121.460938 156.511719 131.726562 C 156.511719 141.988281 164.839844 150.316406 175.101562 150.316406 L 199.890625 150.316406 C 210.152344 150.316406 218.480469 141.988281 218.480469 131.726562 C 218.480469 121.460938 210.152344 113.136719 199.890625 113.136719 " fill-opacity="1" fill-rule="nonzero"/><path fill="#ff6929" d="M 199.890625 187.496094 L 175.101562 187.496094 C 171.6875 187.496094 168.90625 184.710938 168.90625 181.296875 C 168.90625 177.886719 171.6875 175.101562 175.101562 175.101562 L 199.890625 175.101562 C 203.300781 175.101562 206.085938 177.886719 206.085938 181.296875 C 206.085938 184.710938 203.300781 187.496094 199.890625 187.496094 Z M 199.890625 162.707031 L 175.101562 162.707031 C 164.839844 162.707031 156.511719 171.035156 156.511719 181.296875 C 156.511719 191.5625 164.839844 199.886719 175.101562 199.886719 L 199.890625 199.886719 C 210.152344 199.886719 218.480469 191.5625 218.480469 181.296875 C 218.480469 171.035156 210.152344 162.707031 199.890625 162.707031 " fill-opacity="1" fill-rule="nonzero"/><path fill="#ff6929" d="M 199.890625 237.070312 L 175.101562 237.070312 C 171.6875 237.070312 168.90625 234.285156 168.90625 230.871094 C 168.90625 227.460938 171.6875 224.675781 175.101562 224.675781 L 199.890625 224.675781 C 203.300781 224.675781 206.085938 227.460938 206.085938 230.871094 C 206.085938 234.285156 203.300781 237.070312 199.890625 237.070312 Z M 199.890625 212.28125 L 175.101562 212.28125 C 164.839844 212.28125 156.511719 220.609375 156.511719 230.871094 C 156.511719 241.136719 164.839844 249.460938 175.101562 249.460938 L 199.890625 249.460938 C 210.152344 249.460938 218.480469 241.136719 218.480469 230.871094 C 218.480469 220.609375 210.152344 212.28125 199.890625 212.28125 " fill-opacity="1" fill-rule="nonzero"/><path fill="#ff6929" d="M 299.035156 137.921875 L 274.25 137.921875 C 270.835938 137.921875 268.050781 135.136719 268.050781 131.726562 C 268.050781 128.3125 270.835938 125.527344 274.25 125.527344 L 299.035156 125.527344 C 302.449219 125.527344 305.230469 128.3125 305.230469 131.726562 C 305.230469 135.136719 302.449219 137.921875 299.035156 137.921875 Z M 299.035156 113.136719 L 274.25 113.136719 C 263.984375 113.136719 255.660156 121.460938 255.660156 131.726562 C 255.660156 141.988281 263.984375 150.316406 274.25 150.316406 L 299.035156 150.316406 C 309.296875 150.316406 317.625 141.988281 317.625 131.726562 C 317.625 121.460938 309.296875 113.136719 299.035156 113.136719 " fill-opacity="1" fill-rule="nonzero"/><path fill="#ff6929" d="M 299.035156 187.496094 L 274.25 187.496094 C 270.835938 187.496094 268.050781 184.710938 268.050781 181.296875 C 268.050781 177.886719 270.835938 175.101562 274.25 175.101562 L 299.035156 175.101562 C 302.449219 175.101562 305.230469 177.886719 305.230469 181.296875 C 305.230469 184.710938 302.449219 187.496094 299.035156 187.496094 Z M 299.035156 162.707031 L 274.25 162.707031 C 263.984375 162.707031 255.660156 171.035156 255.660156 181.296875 C 255.660156 191.5625 263.984375 199.886719 274.25 199.886719 L 299.035156 199.886719 C 309.296875 199.886719 317.625 191.5625 317.625 181.296875 C 317.625 171.035156 309.296875 162.707031 299.035156 162.707031 " fill-opacity="1" fill-rule="nonzero"/><path fill="#ff6929" d="M 299.035156 237.070312 L 274.25 237.070312 C 270.835938 237.070312 268.050781 234.285156 268.050781 230.871094 C 268.050781 227.460938 270.835938 224.675781 274.25 224.675781 L 299.035156 224.675781 C 302.449219 224.675781 305.230469 227.460938 305.230469 230.871094 C 305.230469 234.285156 302.449219 237.070312 299.035156 237.070312 Z M 299.035156 212.28125 L 274.25 212.28125 C 263.984375 212.28125 255.660156 220.609375 255.660156 230.871094 C 255.660156 241.136719 263.984375 249.460938 274.25 249.460938 L 299.035156 249.460938 C 309.296875 249.460938 317.625 241.136719 317.625 230.871094 C 317.625 220.609375 309.296875 212.28125 299.035156 212.28125 " fill-opacity="1" fill-rule="nonzero"/><path fill="#ff6929" d="M 299.035156 286.640625 L 274.25 286.640625 C 270.835938 286.640625 268.050781 283.859375 268.050781 280.445312 C 268.050781 277.03125 270.835938 274.25 274.25 274.25 L 299.035156 274.25 C 302.449219 274.25 305.230469 277.03125 305.230469 280.445312 C 305.230469 283.859375 302.449219 286.640625 299.035156 286.640625 Z M 299.035156 261.855469 L 274.25 261.855469 C 263.984375 261.855469 255.660156 270.183594 255.660156 280.445312 C 255.660156 290.707031 263.984375 299.035156 274.25 299.035156 L 299.035156 299.035156 C 309.296875 299.035156 317.625 290.707031 317.625 280.445312 C 317.625 270.183594 309.296875 261.855469 299.035156 261.855469 " fill-opacity="1" fill-rule="nonzero"/><path fill="#ff6929" d="M 32.578125 38.773438 L 38.773438 38.773438 C 42.1875 38.773438 44.972656 35.992188 44.972656 32.578125 C 44.972656 29.164062 42.1875 26.382812 38.773438 26.382812 L 32.578125 26.382812 C 29.164062 26.382812 26.382812 29.164062 26.382812 32.578125 C 26.382812 35.992188 29.164062 38.773438 32.578125 38.773438 " fill-opacity="1" fill-rule="nonzero"/><path fill="#ff6929" d="M 63.5625 38.773438 L 69.757812 38.773438 C 73.171875 38.773438 75.957031 35.992188 75.957031 32.578125 C 75.957031 29.164062 73.171875 26.382812 69.757812 26.382812 L 63.5625 26.382812 C 60.148438 26.382812 57.363281 29.164062 57.363281 32.578125 C 57.363281 35.992188 60.148438 38.773438 63.5625 38.773438 " fill-opacity="1" fill-rule="nonzero"/><path fill="#ff6929" d="M 94.546875 38.773438 L 100.742188 38.773438 C 104.15625 38.773438 106.9375 35.992188 106.9375 32.578125 C 106.9375 29.164062 104.15625 26.382812 100.742188 26.382812 L 94.546875 26.382812 C 91.132812 26.382812 88.347656 29.164062 88.347656 32.578125 C 88.347656 35.992188 91.132812 38.773438 94.546875 38.773438 " fill-opacity="1" fill-rule="nonzero"/><path fill="#ff6929" d="M 292.839844 38.773438 L 342.414062 38.773438 C 345.824219 38.773438 348.609375 35.992188 348.609375 32.578125 C 348.609375 29.164062 345.824219 26.382812 342.414062 26.382812 L 292.839844 26.382812 C 289.425781 26.382812 286.640625 29.164062 286.640625 32.578125 C 286.640625 35.992188 289.425781 38.773438 292.839844 38.773438 " fill-opacity="1" fill-rule="nonzero"/><path fill="#ff6929" d="M 336.214844 88.347656 L 243.265625 88.347656 L 243.265625 82.152344 C 243.265625 78.738281 240.480469 75.953125 237.070312 75.953125 C 233.65625 75.953125 230.871094 78.738281 230.871094 82.152344 L 230.871094 88.347656 L 144.117188 88.347656 L 144.117188 82.152344 C 144.117188 78.738281 141.335938 75.953125 137.921875 75.953125 C 134.507812 75.953125 131.726562 78.738281 131.726562 82.152344 L 131.726562 88.347656 L 38.773438 88.347656 C 35.363281 88.347656 32.578125 91.132812 32.578125 94.546875 C 32.578125 97.957031 35.363281 100.742188 38.773438 100.742188 L 131.726562 100.742188 L 131.726562 342.414062 C 131.726562 345.824219 134.507812 348.609375 137.921875 348.609375 C 141.335938 348.609375 144.117188 345.824219 144.117188 342.414062 L 144.117188 100.742188 L 230.871094 100.742188 L 230.871094 342.414062 C 230.871094 345.824219 233.65625 348.609375 237.070312 348.609375 C 240.480469 348.609375 243.265625 345.824219 243.265625 342.414062 L 243.265625 100.742188 L 336.214844 100.742188 C 339.628906 100.742188 342.414062 97.957031 342.414062 94.546875 C 342.414062 91.132812 339.628906 88.347656 336.214844 88.347656 " fill-opacity="1" fill-rule="nonzero"/></svg>