<svg xmlns="http://www.w3.org/2000/svg" xmlns:xlink="http://www.w3.org/1999/xlink" width="500" zoomAndPan="magnify" viewBox="0 0 375 374.999991" height="500" preserveAspectRatio="xMidYMid meet" version="1.0"><defs><clipPath id="e881b9a3be"><path d="M 26.773438 1.085938 L 347.773438 1.085938 L 347.773438 373 L 26.773438 373 Z M 26.773438 1.085938 " clip-rule="nonzero"/></clipPath></defs><g clip-path="url(#e881b9a3be)"><path fill="#002d72" d="M 276.5625 173.515625 C 274.695312 172.582031 273.765625 171.648438 271.902344 171.648438 C 269.105469 118.523438 240.210938 88.699219 191.746094 87.765625 C 191.746094 87.765625 191.746094 87.765625 190.8125 87.765625 C 161.917969 87.765625 137.6875 99.882812 122.773438 123.183594 L 149.800781 141.824219 C 160.988281 125.046875 178.695312 121.320312 190.8125 121.320312 C 206.65625 121.320312 218.773438 125.980469 227.164062 135.300781 C 232.753906 141.824219 236.484375 151.144531 238.347656 162.328125 C 224.367188 159.535156 208.519531 159.535156 192.675781 160.464844 C 146.074219 163.261719 116.25 190.289062 119.042969 227.574219 C 119.976562 246.214844 129.296875 262.992188 146.074219 273.242188 C 160.054688 282.5625 177.765625 286.292969 195.472656 285.359375 C 219.707031 284.429688 238.347656 275.105469 252.328125 258.332031 C 262.582031 245.28125 269.105469 228.503906 271.902344 208 C 283.085938 214.523438 292.40625 223.84375 297.066406 235.027344 C 305.453125 253.671875 305.453125 284.429688 280.289062 309.59375 C 257.921875 331.960938 231.824219 341.28125 191.746094 341.28125 C 147.007812 341.28125 114.382812 326.371094 92.015625 299.339844 C 69.644531 273.242188 59.394531 235.027344 59.394531 187.496094 C 59.394531 139.960938 70.578125 101.746094 91.082031 76.582031 C 112.519531 48.621094 146.074219 34.636719 190.8125 34.636719 C 235.550781 34.636719 269.105469 49.550781 292.40625 77.511719 C 303.589844 91.492188 311.980469 108.269531 317.570312 128.777344 L 349.261719 120.386719 C 340.871094 94.289062 330.621094 72.851562 315.707031 55.144531 C 286.8125 19.726562 244.871094 1.085938 189.878906 1.085938 C 134.890625 1.085938 92.945312 19.726562 64.984375 55.144531 C 39.820312 87.765625 26.773438 131.570312 26.773438 187.496094 C 26.773438 243.417969 39.820312 287.222656 64.984375 318.914062 C 92.945312 354.332031 134.890625 372.972656 189.878906 372.972656 C 238.347656 372.972656 272.832031 359.921875 300.792969 331.960938 C 338.078125 295.613281 336.210938 249.011719 324.09375 221.046875 C 315.707031 201.476562 298.929688 184.699219 276.5625 173.515625 Z M 192.675781 252.738281 C 172.171875 253.671875 151.667969 244.351562 150.734375 225.707031 C 149.800781 210.796875 160.988281 194.949219 194.539062 193.085938 C 198.269531 193.085938 201.996094 193.085938 205.726562 193.085938 C 217.84375 193.085938 229.027344 194.019531 239.277344 196.816406 C 234.617188 243.417969 212.25 251.804688 192.675781 252.738281 Z M 192.675781 252.738281 " fill-opacity="1" fill-rule="nonzero"/></g></svg>