<svg xmlns="http://www.w3.org/2000/svg" xmlns:xlink="http://www.w3.org/1999/xlink" width="500" zoomAndPan="magnify" viewBox="0 0 375 374.999991" height="500" preserveAspectRatio="xMidYMid meet" version="1.0"><defs><clipPath id="f702669550"><path d="M 102 1.820312 L 295 1.820312 L 295 40 L 102 40 Z M 102 1.820312 " clip-rule="nonzero"/></clipPath><clipPath id="848109a2e1"><path d="M 2.261719 90 L 32 90 L 32 135 L 2.261719 135 Z M 2.261719 90 " clip-rule="nonzero"/></clipPath><clipPath id="3ced81f5ce"><path d="M 220 68 L 372.761719 68 L 372.761719 174 L 220 174 Z M 220 68 " clip-rule="nonzero"/></clipPath><clipPath id="e019f1a9ad"><path d="M 140 319 L 168 319 L 168 373.820312 L 140 373.820312 Z M 140 319 " clip-rule="nonzero"/></clipPath></defs><path fill="#002d72" d="M 107.15625 349.363281 C 106.871094 349.363281 106.582031 349.296875 106.3125 349.164062 C 100.21875 346.136719 94.226562 342.730469 88.496094 339.039062 C 87.613281 338.46875 87.359375 337.292969 87.929688 336.410156 C 88.5 335.527344 89.675781 335.273438 90.558594 335.839844 C 96.167969 339.457031 102.035156 342.792969 108 345.757812 C 108.941406 346.222656 109.328125 347.363281 108.859375 348.304688 C 108.527344 348.972656 107.855469 349.363281 107.15625 349.363281 Z M 73.128906 327.417969 C 72.707031 327.417969 72.28125 327.277344 71.929688 326.988281 C 66.65625 322.6875 61.566406 318.039062 56.800781 313.175781 C 56.066406 312.425781 56.078125 311.222656 56.828125 310.488281 C 57.578125 309.753906 58.785156 309.765625 59.519531 310.515625 C 64.183594 315.277344 69.167969 319.828125 74.332031 324.042969 C 75.144531 324.707031 75.265625 325.90625 74.605469 326.71875 C 74.226562 327.179688 73.679688 327.417969 73.128906 327.417969 Z M 44.800781 298.5 C 44.238281 298.5 43.679688 298.25 43.304688 297.769531 C 39.105469 292.40625 35.171875 286.753906 31.601562 280.960938 C 31.050781 280.066406 31.328125 278.898438 32.222656 278.347656 C 33.117188 277.792969 34.289062 278.074219 34.839844 278.96875 C 38.332031 284.636719 42.1875 290.175781 46.300781 295.429688 C 46.945312 296.253906 46.800781 297.449219 45.972656 298.097656 C 45.625 298.371094 45.210938 298.5 44.800781 298.5 Z M 23.574219 264.046875 C 22.859375 264.046875 22.175781 263.644531 21.851562 262.953125 C 18.953125 256.796875 16.371094 250.410156 14.183594 243.96875 C 13.84375 242.976562 14.378906 241.894531 15.371094 241.558594 C 16.367188 241.21875 17.445312 241.753906 17.785156 242.746094 C 19.925781 249.050781 22.453125 255.304688 25.292969 261.335938 C 25.738281 262.285156 25.332031 263.417969 24.382812 263.863281 C 24.121094 263.988281 23.84375 264.046875 23.574219 264.046875 Z M 10.550781 225.730469 C 9.675781 225.730469 8.890625 225.125 8.695312 224.234375 C 7.246094 217.59375 6.15625 210.789062 5.457031 204.007812 C 5.347656 202.964844 6.109375 202.03125 7.152344 201.921875 C 8.199219 201.8125 9.132812 202.574219 9.242188 203.617188 C 9.925781 210.257812 10.992188 216.921875 12.410156 223.421875 C 12.636719 224.449219 11.984375 225.464844 10.957031 225.6875 C 10.820312 225.714844 10.683594 225.730469 10.550781 225.730469 Z M 6.390625 185.464844 C 6.386719 185.464844 6.378906 185.464844 6.375 185.464844 C 5.324219 185.457031 4.480469 184.601562 4.488281 183.550781 C 4.539062 176.722656 4.976562 169.84375 5.777344 163.105469 C 5.902344 162.0625 6.847656 161.320312 7.890625 161.441406 C 8.933594 161.566406 9.679688 162.511719 9.554688 163.554688 C 8.769531 170.15625 8.34375 176.890625 8.292969 183.578125 C 8.28125 184.625 7.433594 185.464844 6.390625 185.464844 Z M 6.390625 185.464844 " fill-opacity="1" fill-rule="nonzero"/><path fill="#002d72" d="M 288.238281 337.726562 C 287.625 337.726562 287.023438 337.429688 286.65625 336.882812 C 286.070312 336.007812 286.308594 334.828125 287.179688 334.246094 C 292.890625 330.425781 298.449219 326.234375 303.691406 321.78125 C 304.492188 321.101562 305.691406 321.199219 306.371094 322 C 307.050781 322.800781 306.953125 324 306.152344 324.679688 C 300.796875 329.226562 295.125 333.507812 289.292969 337.40625 C 288.96875 337.625 288.601562 337.726562 288.238281 337.726562 Z M 320.054688 310.710938 C 319.589844 310.710938 319.125 310.539062 318.757812 310.195312 C 317.988281 309.480469 317.949219 308.277344 318.667969 307.507812 C 323.367188 302.484375 327.820312 297.140625 331.910156 291.617188 C 332.535156 290.769531 333.726562 290.59375 334.570312 291.21875 C 335.414062 291.84375 335.59375 293.035156 334.96875 293.878906 C 330.792969 299.519531 326.242188 304.980469 321.445312 310.105469 C 321.070312 310.507812 320.5625 310.710938 320.054688 310.710938 Z M 344.890625 277.15625 C 344.566406 277.15625 344.242188 277.074219 343.941406 276.902344 C 343.03125 276.378906 342.71875 275.21875 343.242188 274.308594 C 346.675781 268.34375 349.789062 262.117188 352.503906 255.808594 C 352.917969 254.84375 354.039062 254.398438 355.003906 254.8125 C 355.96875 255.226562 356.414062 256.347656 356 257.3125 C 353.226562 263.753906 350.042969 270.113281 346.539062 276.203125 C 346.1875 276.816406 345.546875 277.15625 344.890625 277.15625 Z M 361.382812 238.808594 C 361.203125 238.808594 361.019531 238.78125 360.839844 238.726562 C 359.832031 238.425781 359.261719 237.367188 359.5625 236.359375 C 361.523438 229.777344 363.125 223.003906 364.3125 216.226562 C 364.496094 215.191406 365.484375 214.5 366.515625 214.683594 C 367.550781 214.863281 368.242188 215.847656 368.058594 216.882812 C 366.84375 223.804688 365.210938 230.726562 363.207031 237.449219 C 362.960938 238.273438 362.203125 238.808594 361.382812 238.808594 Z M 361.382812 238.808594 " fill-opacity="1" fill-rule="nonzero"/><g clip-path="url(#f702669550)"><path fill="#002d72" d="M 292.804688 39.230469 C 292.421875 39.230469 292.039062 39.113281 291.703125 38.875 C 285.792969 34.660156 279.570312 30.769531 273.207031 27.308594 C 272.285156 26.808594 271.941406 25.652344 272.445312 24.730469 C 272.945312 23.808594 274.101562 23.464844 275.023438 23.96875 C 281.523438 27.5 287.878906 31.476562 293.910156 35.777344 C 294.765625 36.390625 294.964844 37.578125 294.355469 38.433594 C 293.984375 38.953125 293.398438 39.230469 292.804688 39.230469 Z M 104.53125 25.769531 C 103.839844 25.769531 103.175781 25.394531 102.839844 24.742188 C 102.355469 23.808594 102.722656 22.664062 103.65625 22.179688 C 110.238281 18.777344 117.09375 15.75 124.03125 13.179688 C 125.015625 12.8125 126.113281 13.316406 126.476562 14.300781 C 126.839844 15.285156 126.339844 16.378906 125.351562 16.746094 C 118.558594 19.261719 111.847656 22.226562 105.402344 25.558594 C 105.121094 25.703125 104.824219 25.769531 104.53125 25.769531 Z M 254.140625 18.210938 C 253.90625 18.210938 253.671875 18.167969 253.441406 18.078125 C 246.699219 15.417969 239.71875 13.148438 232.699219 11.332031 C 231.683594 11.070312 231.070312 10.03125 231.335938 9.015625 C 231.597656 8 232.632812 7.386719 233.652344 7.652344 C 240.820312 9.503906 247.949219 11.824219 254.839844 14.539062 C 255.816406 14.925781 256.292969 16.03125 255.910156 17.007812 C 255.613281 17.753906 254.898438 18.210938 254.140625 18.210938 Z M 145.792969 10.488281 C 144.929688 10.488281 144.152344 9.898438 143.945312 9.023438 C 143.703125 8 144.335938 6.976562 145.359375 6.734375 C 152.550781 5.035156 159.9375 3.757812 167.308594 2.945312 C 168.351562 2.828125 169.292969 3.582031 169.410156 4.625 C 169.523438 5.667969 168.769531 6.609375 167.726562 6.726562 C 160.507812 7.523438 153.277344 8.769531 146.230469 10.4375 C 146.085938 10.472656 145.9375 10.488281 145.792969 10.488281 Z M 211.539062 7.191406 C 211.453125 7.191406 211.371094 7.183594 211.285156 7.171875 C 204.121094 6.230469 196.796875 5.714844 189.523438 5.640625 C 188.472656 5.628906 187.628906 4.769531 187.640625 3.71875 C 187.652344 2.675781 188.5 1.835938 189.542969 1.835938 C 189.550781 1.835938 189.554688 1.835938 189.5625 1.835938 C 196.988281 1.914062 204.464844 2.4375 211.78125 3.402344 C 212.824219 3.539062 213.558594 4.496094 213.421875 5.535156 C 213.292969 6.492188 212.476562 7.191406 211.539062 7.191406 Z M 211.539062 7.191406 " fill-opacity="1" fill-rule="nonzero"/></g><path fill="#f5f5f5" d="M 320.746094 185 C 320.746094 187.175781 320.691406 189.355469 320.585938 191.527344 C 320.476562 193.703125 320.316406 195.875 320.105469 198.042969 C 319.890625 200.210938 319.625 202.371094 319.304688 204.527344 C 318.984375 206.683594 318.613281 208.828125 318.1875 210.964844 C 317.761719 213.101562 317.285156 215.222656 316.757812 217.335938 C 316.226562 219.449219 315.644531 221.546875 315.015625 223.632812 C 314.382812 225.71875 313.699219 227.785156 312.964844 229.835938 C 312.230469 231.886719 311.449219 233.917969 310.613281 235.929688 C 309.78125 237.941406 308.898438 239.933594 307.96875 241.902344 C 307.035156 243.871094 306.054688 245.816406 305.03125 247.738281 C 304.003906 249.660156 302.929688 251.554688 301.808594 253.421875 C 300.691406 255.289062 299.523438 257.128906 298.316406 258.941406 C 297.105469 260.75 295.851562 262.53125 294.554688 264.28125 C 293.257812 266.03125 291.917969 267.746094 290.535156 269.429688 C 289.152344 271.113281 287.730469 272.761719 286.269531 274.378906 C 284.804688 275.992188 283.304688 277.566406 281.761719 279.109375 C 280.222656 280.648438 278.644531 282.148438 277.03125 283.613281 C 275.417969 285.074219 273.769531 286.496094 272.085938 287.878906 C 270.402344 289.261719 268.6875 290.601562 266.9375 291.898438 C 265.1875 293.195312 263.40625 294.449219 261.59375 295.660156 C 259.785156 296.871094 257.945312 298.035156 256.078125 299.15625 C 254.207031 300.273438 252.3125 301.347656 250.394531 302.375 C 248.472656 303.402344 246.527344 304.378906 244.558594 305.3125 C 242.589844 306.242188 240.597656 307.125 238.585938 307.957031 C 236.574219 308.792969 234.542969 309.574219 232.492188 310.308594 C 230.441406 311.042969 228.371094 311.726562 226.289062 312.359375 C 224.203125 312.992188 222.105469 313.570312 219.992188 314.101562 C 217.878906 314.628906 215.753906 315.109375 213.617188 315.53125 C 211.480469 315.957031 209.335938 316.328125 207.183594 316.648438 C 205.027344 316.96875 202.867188 317.234375 200.699219 317.449219 C 198.53125 317.664062 196.359375 317.824219 194.183594 317.929688 C 192.007812 318.035156 189.832031 318.089844 187.652344 318.089844 C 185.476562 318.089844 183.300781 318.035156 181.125 317.929688 C 178.949219 317.824219 176.777344 317.664062 174.609375 317.449219 C 172.441406 317.234375 170.28125 316.96875 168.125 316.648438 C 165.972656 316.328125 163.824219 315.957031 161.6875 315.53125 C 159.554688 315.109375 157.429688 314.628906 155.316406 314.101562 C 153.203125 313.570312 151.105469 312.992188 149.019531 312.359375 C 146.933594 311.726562 144.867188 311.042969 142.816406 310.308594 C 140.765625 309.574219 138.734375 308.792969 136.722656 307.957031 C 134.710938 307.125 132.71875 306.242188 130.75 305.3125 C 128.78125 304.378906 126.835938 303.402344 124.914062 302.375 C 122.996094 301.347656 121.101562 300.273438 119.230469 299.15625 C 117.363281 298.035156 115.523438 296.871094 113.710938 295.660156 C 111.902344 294.449219 110.121094 293.195312 108.371094 291.898438 C 106.621094 290.601562 104.90625 289.261719 103.222656 287.878906 C 101.539062 286.496094 99.890625 285.074219 98.273438 283.613281 C 96.660156 282.148438 95.085938 280.648438 93.542969 279.109375 C 92.003906 277.566406 90.503906 275.992188 89.039062 274.378906 C 87.578125 272.761719 86.15625 271.113281 84.773438 269.429688 C 83.390625 267.746094 82.050781 266.03125 80.753906 264.28125 C 79.457031 262.53125 78.203125 260.75 76.992188 258.941406 C 75.78125 257.128906 74.617188 255.289062 73.496094 253.421875 C 72.378906 251.554688 71.304688 249.660156 70.277344 247.738281 C 69.25 245.816406 68.273438 243.871094 67.339844 241.902344 C 66.410156 239.933594 65.527344 237.941406 64.695312 235.929688 C 63.859375 233.917969 63.078125 231.886719 62.34375 229.835938 C 61.609375 227.785156 60.925781 225.71875 60.292969 223.632812 C 59.660156 221.546875 59.082031 219.449219 58.550781 217.335938 C 58.023438 215.222656 57.546875 213.101562 57.121094 210.964844 C 56.695312 208.828125 56.324219 206.683594 56.003906 204.527344 C 55.683594 202.371094 55.417969 200.210938 55.203125 198.042969 C 54.988281 195.875 54.828125 193.703125 54.722656 191.527344 C 54.617188 189.355469 54.5625 187.175781 54.5625 185 C 54.5625 182.820312 54.617188 180.644531 54.722656 178.46875 C 54.828125 176.292969 54.988281 174.121094 55.203125 171.953125 C 55.417969 169.785156 55.683594 167.625 56.003906 165.46875 C 56.324219 163.316406 56.695312 161.171875 57.121094 159.035156 C 57.546875 156.898438 58.023438 154.773438 58.550781 152.660156 C 59.082031 150.546875 59.660156 148.449219 60.292969 146.363281 C 60.925781 144.28125 61.609375 142.210938 62.34375 140.160156 C 63.078125 138.109375 63.859375 136.078125 64.695312 134.066406 C 65.527344 132.054688 66.410156 130.0625 67.339844 128.09375 C 68.273438 126.125 69.25 124.179688 70.277344 122.261719 C 71.304688 120.339844 72.378906 118.445312 73.496094 116.574219 C 74.617188 114.707031 75.78125 112.867188 76.992188 111.058594 C 78.203125 109.246094 79.457031 107.464844 80.753906 105.714844 C 82.050781 103.96875 83.390625 102.25 84.773438 100.566406 C 86.15625 98.882812 87.578125 97.234375 89.039062 95.621094 C 90.503906 94.007812 92.003906 92.429688 93.542969 90.890625 C 95.085938 89.347656 96.660156 87.847656 98.273438 86.382812 C 99.890625 84.921875 101.539062 83.5 103.222656 82.117188 C 104.90625 80.734375 106.621094 79.394531 108.371094 78.097656 C 110.121094 76.800781 111.902344 75.546875 113.710938 74.335938 C 115.523438 73.128906 117.363281 71.960938 119.230469 70.84375 C 121.101562 69.722656 122.996094 68.648438 124.914062 67.621094 C 126.835938 66.597656 128.78125 65.617188 130.75 64.6875 C 132.71875 63.753906 134.710938 62.871094 136.722656 62.039062 C 138.734375 61.203125 140.765625 60.421875 142.816406 59.6875 C 144.867188 58.953125 146.933594 58.269531 149.019531 57.636719 C 151.105469 57.007812 153.203125 56.425781 155.316406 55.894531 C 157.429688 55.367188 159.554688 54.890625 161.6875 54.464844 C 163.824219 54.039062 165.972656 53.667969 168.125 53.347656 C 170.28125 53.027344 172.441406 52.761719 174.609375 52.546875 C 176.777344 52.335938 178.949219 52.175781 181.125 52.066406 C 183.300781 51.960938 185.476562 51.90625 187.652344 51.90625 C 189.832031 51.90625 192.007812 51.960938 194.183594 52.066406 C 196.359375 52.175781 198.53125 52.335938 200.699219 52.546875 C 202.867188 52.761719 205.027344 53.027344 207.183594 53.347656 C 209.335938 53.667969 211.480469 54.039062 213.617188 54.464844 C 215.753906 54.890625 217.878906 55.367188 219.992188 55.894531 C 222.105469 56.425781 224.203125 57.007812 226.289062 57.636719 C 228.371094 58.269531 230.441406 58.953125 232.492188 59.6875 C 234.542969 60.421875 236.574219 61.203125 238.585938 62.039062 C 240.597656 62.871094 242.589844 63.753906 244.558594 64.6875 C 246.527344 65.617188 248.472656 66.597656 250.394531 67.621094 C 252.3125 68.648438 254.207031 69.722656 256.078125 70.84375 C 257.945312 71.960938 259.785156 73.128906 261.59375 74.335938 C 263.40625 75.546875 265.1875 76.800781 266.9375 78.097656 C 268.6875 79.394531 270.402344 80.734375 272.085938 82.117188 C 273.769531 83.5 275.417969 84.921875 277.03125 86.382812 C 278.644531 87.847656 280.222656 89.347656 281.761719 90.890625 C 283.304688 92.429688 284.804688 94.007812 286.269531 95.621094 C 287.730469 97.234375 289.152344 98.882812 290.535156 100.566406 C 291.917969 102.25 293.257812 103.96875 294.554688 105.714844 C 295.851562 107.464844 297.105469 109.246094 298.316406 111.058594 C 299.523438 112.867188 300.691406 114.707031 301.808594 116.574219 C 302.929688 118.445312 304.003906 120.339844 305.03125 122.261719 C 306.054688 124.179688 307.035156 126.125 307.96875 128.09375 C 308.898438 130.0625 309.78125 132.054688 310.613281 134.066406 C 311.449219 136.078125 312.230469 138.109375 312.964844 140.160156 C 313.699219 142.210938 314.382812 144.28125 315.015625 146.363281 C 315.644531 148.449219 316.226562 150.546875 316.757812 152.660156 C 317.285156 154.773438 317.761719 156.898438 318.1875 159.035156 C 318.613281 161.171875 318.984375 163.316406 319.304688 165.46875 C 319.625 167.625 319.890625 169.785156 320.105469 171.953125 C 320.316406 174.121094 320.476562 176.292969 320.585938 178.46875 C 320.691406 180.644531 320.746094 182.820312 320.746094 185 Z M 320.746094 185 " fill-opacity="1" fill-rule="nonzero"/><path fill="#ff6929" d="M 155.863281 81.707031 L 155.863281 123.988281 C 155.863281 127.589844 152.941406 130.511719 149.339844 130.511719 L 54.570312 130.511719 C 50.96875 130.511719 48.046875 127.589844 48.046875 123.988281 L 48.046875 81.707031 Z M 155.863281 81.707031 " fill-opacity="1" fill-rule="nonzero"/><path fill="#002d72" d="M 149.339844 132.414062 L 54.570312 132.414062 C 49.925781 132.414062 46.144531 128.632812 46.144531 123.988281 L 46.144531 81.707031 C 46.144531 80.65625 46.996094 79.804688 48.046875 79.804688 C 49.097656 79.804688 49.949219 80.65625 49.949219 81.707031 L 49.949219 123.988281 C 49.949219 126.535156 52.023438 128.609375 54.570312 128.609375 L 149.339844 128.609375 C 151.886719 128.609375 153.960938 126.535156 153.960938 123.988281 L 153.960938 81.707031 C 153.960938 80.65625 154.8125 79.804688 155.863281 79.804688 C 156.914062 79.804688 157.765625 80.65625 157.765625 81.707031 L 157.765625 123.988281 C 157.765625 128.632812 153.984375 132.414062 149.339844 132.414062 Z M 149.339844 132.414062 " fill-opacity="1" fill-rule="nonzero"/><path fill="#002d72" d="M 16.988281 94.261719 C 15.9375 94.261719 15.085938 93.410156 15.085938 92.359375 L 15.085938 70.511719 C 15.085938 69.460938 15.9375 68.609375 16.988281 68.609375 C 18.039062 68.609375 18.890625 69.460938 18.890625 70.511719 L 18.890625 92.359375 C 18.890625 93.410156 18.039062 94.261719 16.988281 94.261719 Z M 16.988281 94.261719 " fill-opacity="1" fill-rule="nonzero"/><path fill="#f5f5f5" d="M 4.164062 105.1875 C 4.164062 98.101562 9.90625 92.359375 16.988281 92.359375 C 24.074219 92.359375 29.816406 98.101562 29.816406 105.1875 C 29.816406 112.269531 16.988281 132.957031 16.988281 132.957031 C 16.988281 132.957031 4.164062 112.269531 4.164062 105.1875 Z M 4.164062 105.1875 " fill-opacity="1" fill-rule="nonzero"/><g clip-path="url(#848109a2e1)"><path fill="#002d72" d="M 16.988281 134.859375 C 16.332031 134.859375 15.71875 134.519531 15.375 133.960938 C 15.339844 133.90625 12.09375 128.664062 8.894531 122.617188 C 4.429688 114.183594 2.261719 108.484375 2.261719 105.183594 C 2.261719 97.0625 8.867188 90.457031 16.988281 90.457031 C 25.109375 90.457031 31.71875 97.0625 31.71875 105.183594 C 31.71875 108.484375 29.546875 114.183594 25.082031 122.617188 C 21.882812 128.664062 18.636719 133.90625 18.605469 133.960938 C 18.257812 134.519531 17.648438 134.859375 16.988281 134.859375 Z M 16.988281 94.261719 C 10.964844 94.261719 6.0625 99.160156 6.0625 105.1875 C 6.0625 109.851562 12.910156 122.390625 16.988281 129.28125 C 21.070312 122.390625 27.914062 109.851562 27.914062 105.1875 C 27.914062 99.160156 23.015625 94.261719 16.988281 94.261719 Z M 16.988281 94.261719 " fill-opacity="1" fill-rule="nonzero"/></g><path fill="#ff6929" d="M 18.953125 67.886719 L 98.792969 44.375 C 100.855469 43.765625 103.054688 43.765625 105.117188 44.375 L 184.957031 67.886719 C 187.574219 68.660156 187.574219 72.367188 184.957031 73.136719 L 105.117188 96.652344 C 103.054688 97.257812 100.855469 97.257812 98.792969 96.652344 L 18.953125 73.136719 C 16.335938 72.367188 16.335938 68.660156 18.953125 67.886719 Z M 18.953125 67.886719 " fill-opacity="1" fill-rule="nonzero"/><path fill="#002d72" d="M 101.953125 99.007812 C 100.710938 99.007812 99.464844 98.832031 98.253906 98.472656 L 18.414062 74.960938 C 16.425781 74.375 15.085938 72.585938 15.085938 70.511719 C 15.085938 68.4375 16.425781 66.648438 18.414062 66.0625 L 98.253906 42.550781 C 100.675781 41.839844 103.234375 41.839844 105.65625 42.550781 L 185.492188 66.0625 C 187.484375 66.648438 188.820312 68.4375 188.820312 70.511719 C 188.820312 72.585938 187.484375 74.375 185.492188 74.960938 L 105.65625 98.476562 C 104.445312 98.832031 103.199219 99.007812 101.953125 99.007812 Z M 19.488281 69.710938 C 18.96875 69.867188 18.890625 70.28125 18.890625 70.511719 C 18.890625 70.746094 18.96875 71.160156 19.488281 71.3125 L 99.328125 94.828125 C 101.046875 95.332031 102.863281 95.332031 104.582031 94.828125 L 184.417969 71.3125 C 184.941406 71.160156 185.019531 70.746094 185.019531 70.511719 C 185.019531 70.28125 184.941406 69.867188 184.417969 69.710938 L 104.582031 46.199219 C 102.863281 45.691406 101.046875 45.691406 99.328125 46.199219 Z M 18.953125 67.886719 Z M 18.953125 67.886719 " fill-opacity="1" fill-rule="nonzero"/><path fill="#ffffff" d="M 40.875 172.164062 L 129.757812 166.710938 L 172.953125 144.464844 C 177.75 141.964844 183.664062 143.738281 186.292969 148.464844 C 188.96875 153.273438 187.246094 159.34375 182.441406 162.03125 L 114.148438 202.796875 C 108.316406 206.28125 101.640625 208.097656 94.847656 208.054688 L 39.15625 208.054688 Z M 40.875 172.164062 " fill-opacity="1" fill-rule="nonzero"/><path fill="#002d72" d="M 95.085938 209.957031 C 95.003906 209.957031 94.921875 209.957031 94.835938 209.957031 L 39.15625 209.957031 C 38.105469 209.957031 37.253906 209.105469 37.253906 208.054688 C 37.253906 207.003906 38.105469 206.152344 39.15625 206.152344 L 94.847656 206.152344 C 101.3125 206.199219 107.640625 204.46875 113.175781 201.164062 L 181.464844 160.398438 C 181.480469 160.386719 181.496094 160.378906 181.511719 160.371094 C 185.394531 158.199219 186.792969 153.273438 184.632812 149.386719 C 182.488281 145.535156 177.746094 144.109375 173.832031 146.148438 L 130.628906 168.402344 C 130.394531 168.519531 130.136719 168.589844 129.875 168.609375 L 40.992188 174.0625 C 39.945312 174.125 39.042969 173.328125 38.976562 172.277344 C 38.914062 171.230469 39.710938 170.328125 40.757812 170.265625 L 129.242188 164.835938 L 172.082031 142.773438 C 174.835938 141.335938 178 141.039062 180.984375 141.933594 C 183.964844 142.828125 186.441406 144.816406 187.953125 147.539062 C 191.128906 153.246094 189.082031 160.476562 183.390625 163.675781 L 115.125 204.429688 C 109.066406 208.046875 102.140625 209.957031 95.085938 209.957031 Z M 95.085938 209.957031 " fill-opacity="1" fill-rule="nonzero"/><path fill="#ffffff" d="M 129.757812 166.710938 L 172.953125 144.464844 C 177.75 141.964844 183.664062 143.738281 186.292969 148.464844 C 188.96875 153.273438 187.246094 159.34375 182.441406 162.03125 L 114.148438 202.796875 C 108.316406 206.28125 101.640625 208.097656 94.847656 208.054688 L 39.15625 208.054688 Z M 129.757812 166.710938 " fill-opacity="1" fill-rule="nonzero"/><path fill="#002d72" d="M 95.085938 209.957031 C 95.003906 209.957031 94.921875 209.957031 94.835938 209.957031 L 39.15625 209.957031 C 38.105469 209.957031 37.253906 209.105469 37.253906 208.054688 C 37.253906 207.003906 38.105469 206.152344 39.15625 206.152344 L 94.847656 206.152344 C 101.3125 206.199219 107.640625 204.46875 113.175781 201.164062 L 181.464844 160.398438 C 181.480469 160.386719 181.496094 160.378906 181.511719 160.371094 C 185.394531 158.199219 186.792969 153.273438 184.632812 149.386719 C 182.488281 145.535156 177.746094 144.109375 173.832031 146.148438 L 130.628906 168.402344 C 129.695312 168.882812 128.546875 168.515625 128.066406 167.582031 C 127.585938 166.648438 127.953125 165.5 128.886719 165.019531 L 172.082031 142.773438 C 174.835938 141.335938 178 141.039062 180.984375 141.933594 C 183.964844 142.828125 186.441406 144.816406 187.953125 147.539062 C 191.128906 153.246094 189.082031 160.476562 183.390625 163.675781 L 115.125 204.429688 C 109.066406 208.046875 102.140625 209.957031 95.085938 209.957031 Z M 95.085938 209.957031 " fill-opacity="1" fill-rule="nonzero"/><path fill="#ffffff" d="M 78.867188 177.796875 L 120.214844 179.128906 C 125.527344 179.300781 129.976562 175.136719 130.160156 169.824219 C 130.339844 164.601562 126.328125 160.1875 121.117188 159.867188 L 119.613281 159.773438 C 108.273438 159.078125 97.257812 156.140625 86.703125 151.945312 C 75.945312 147.671875 63.234375 149.824219 54.445312 158.390625 L 37.335938 174.671875 Z M 78.867188 177.796875 " fill-opacity="1" fill-rule="nonzero"/><path fill="#002d72" d="M 120.527344 181.035156 C 120.402344 181.035156 120.277344 181.035156 120.152344 181.03125 L 78.804688 179.699219 C 77.757812 179.664062 76.933594 178.789062 76.964844 177.738281 C 77 176.6875 77.878906 175.863281 78.929688 175.898438 L 120.273438 177.230469 C 124.53125 177.363281 128.113281 174.015625 128.261719 169.757812 C 128.40625 165.535156 125.214844 162.023438 121 161.765625 L 119.496094 161.671875 C 108.78125 161.015625 97.828125 158.410156 86 153.714844 C 75.628906 149.59375 63.761719 151.964844 55.773438 159.753906 C 55.765625 159.757812 55.761719 159.765625 55.757812 159.769531 L 38.644531 176.050781 C 37.886719 176.773438 36.683594 176.746094 35.957031 175.984375 C 35.234375 175.222656 35.265625 174.019531 36.023438 173.296875 L 53.125 157.023438 C 62.191406 148.195312 75.644531 145.507812 87.402344 150.179688 C 98.851562 154.726562 109.425781 157.242188 119.730469 157.878906 L 121.230469 157.96875 C 124.25 158.15625 127.035156 159.492188 129.066406 161.730469 C 131.101562 163.96875 132.164062 166.867188 132.0625 169.890625 C 131.847656 176.109375 126.710938 181.035156 120.527344 181.035156 Z M 120.527344 181.035156 " fill-opacity="1" fill-rule="nonzero"/><path fill="#f5f5f5" d="M 85.074219 68.1875 C 72.941406 77.753906 70.660156 95.605469 79.980469 108.0625 C 89.304688 120.515625 106.699219 122.859375 118.832031 113.289062 C 130.96875 103.722656 133.25 85.871094 123.929688 73.414062 C 114.605469 60.960938 97.210938 58.617188 85.074219 68.1875 Z M 85.074219 68.1875 " fill-opacity="1" fill-rule="nonzero"/><path fill="#002d72" d="M 102.011719 121.082031 C 100.746094 121.082031 99.472656 121 98.199219 120.832031 C 90.308594 119.796875 83.296875 115.667969 78.460938 109.203125 C 73.652344 102.78125 71.570312 94.824219 72.59375 86.800781 C 73.621094 78.773438 77.636719 71.628906 83.898438 66.691406 C 90.144531 61.765625 97.894531 59.621094 105.710938 60.644531 C 113.601562 61.679688 120.609375 65.808594 125.449219 72.277344 C 130.257812 78.695312 132.339844 86.652344 131.3125 94.675781 C 130.289062 102.707031 126.273438 109.847656 120.011719 114.785156 C 114.785156 118.90625 108.503906 121.082031 102.011719 121.082031 Z M 86.253906 69.679688 C 74.941406 78.597656 72.808594 95.304688 81.503906 106.921875 C 85.722656 112.5625 91.828125 116.160156 98.691406 117.0625 C 105.484375 117.953125 112.222656 116.082031 117.65625 111.796875 C 128.96875 102.878906 131.101562 86.171875 122.40625 74.554688 C 118.1875 68.914062 112.082031 65.316406 105.21875 64.414062 C 98.425781 63.523438 91.6875 65.394531 86.253906 69.679688 Z M 86.253906 69.679688 " fill-opacity="1" fill-rule="nonzero"/><path fill="#002d72" d="M 103.695312 107.824219 L 100.792969 107.824219 C 95.558594 107.824219 91.300781 103.566406 91.300781 98.332031 C 91.300781 97.28125 92.152344 96.429688 93.199219 96.429688 C 94.25 96.429688 95.101562 97.28125 95.101562 98.332031 C 95.101562 101.46875 97.65625 104.023438 100.792969 104.023438 L 103.695312 104.023438 C 106.832031 104.023438 109.386719 101.46875 109.386719 98.332031 C 109.386719 95.191406 106.832031 92.640625 103.695312 92.640625 L 100.214844 92.640625 C 94.976562 92.640625 90.71875 88.378906 90.71875 83.144531 C 90.71875 77.910156 94.976562 73.652344 100.214844 73.652344 L 103.117188 73.652344 C 108.351562 73.652344 112.609375 77.910156 112.609375 83.144531 C 112.609375 84.195312 111.757812 85.046875 110.707031 85.046875 C 109.65625 85.046875 108.804688 84.195312 108.804688 83.144531 C 108.804688 80.007812 106.253906 77.453125 103.117188 77.453125 L 100.214844 77.453125 C 97.074219 77.453125 94.523438 80.007812 94.523438 83.144531 C 94.523438 86.285156 97.074219 88.835938 100.214844 88.835938 L 103.695312 88.835938 C 108.929688 88.835938 113.191406 93.09375 113.191406 98.332031 C 113.191406 103.566406 108.929688 107.824219 103.695312 107.824219 Z M 103.695312 107.824219 " fill-opacity="1" fill-rule="nonzero"/><path fill="#002d72" d="M 101.953125 77.453125 C 100.90625 77.453125 100.054688 76.601562 100.054688 75.554688 L 100.054688 69.339844 C 100.054688 68.289062 100.90625 67.4375 101.953125 67.4375 C 103.003906 67.4375 103.855469 68.289062 103.855469 69.339844 L 103.855469 75.554688 C 103.855469 76.601562 103.003906 77.453125 101.953125 77.453125 Z M 101.953125 77.453125 " fill-opacity="1" fill-rule="nonzero"/><path fill="#002d72" d="M 101.953125 114.039062 C 100.90625 114.039062 100.054688 113.1875 100.054688 112.136719 L 100.054688 105.921875 C 100.054688 104.875 100.90625 104.023438 101.953125 104.023438 C 103.003906 104.023438 103.855469 104.875 103.855469 105.921875 L 103.855469 112.136719 C 103.855469 113.1875 103.003906 114.039062 101.953125 114.039062 Z M 101.953125 114.039062 " fill-opacity="1" fill-rule="nonzero"/><path fill="#ff6929" d="M 347.992188 171.148438 L 368.566406 171.148438 C 369.988281 171.148438 371.136719 169.996094 371.136719 168.578125 L 371.136719 73.425781 C 371.136719 72.003906 369.988281 70.851562 368.566406 70.851562 L 224.550781 70.851562 C 223.132812 70.851562 221.980469 72.003906 221.980469 73.425781 L 221.980469 168.578125 C 221.980469 169.996094 223.132812 171.148438 224.550781 171.148438 Z M 347.992188 171.148438 " fill-opacity="1" fill-rule="nonzero"/><g clip-path="url(#3ced81f5ce)"><path fill="#002d72" d="M 368.566406 173.050781 L 347.992188 173.050781 C 346.941406 173.050781 346.089844 172.199219 346.089844 171.148438 C 346.089844 170.097656 346.941406 169.246094 347.992188 169.246094 L 368.566406 169.246094 C 368.9375 169.246094 369.238281 168.945312 369.238281 168.578125 L 369.238281 73.425781 C 369.238281 73.054688 368.9375 72.753906 368.566406 72.753906 L 224.550781 72.753906 C 224.183594 72.753906 223.882812 73.054688 223.882812 73.425781 L 223.882812 168.578125 C 223.882812 168.945312 224.183594 169.246094 224.550781 169.246094 L 236.125 169.246094 C 237.175781 169.246094 238.027344 170.097656 238.027344 171.148438 C 238.027344 172.199219 237.175781 173.050781 236.125 173.050781 L 224.550781 173.050781 C 222.085938 173.050781 220.078125 171.042969 220.078125 168.578125 L 220.078125 73.425781 C 220.078125 70.957031 222.085938 68.949219 224.550781 68.949219 L 368.566406 68.949219 C 371.035156 68.949219 373.039062 70.957031 373.039062 73.425781 L 373.039062 168.578125 C 373.039062 171.042969 371.035156 173.050781 368.566406 173.050781 Z M 368.566406 173.050781 " fill-opacity="1" fill-rule="nonzero"/></g><path fill="#002d72" d="M 236.125 161.476562 L 233.554688 161.476562 C 232.503906 161.476562 231.652344 160.625 231.652344 159.574219 C 231.652344 158.527344 232.503906 157.675781 233.554688 157.675781 L 236.125 157.675781 C 237.175781 157.675781 238.027344 158.527344 238.027344 159.574219 C 238.027344 160.625 237.175781 161.476562 236.125 161.476562 Z M 236.125 161.476562 " fill-opacity="1" fill-rule="nonzero"/><path fill="#002d72" d="M 324.847656 161.476562 L 313.277344 161.476562 C 312.226562 161.476562 311.375 160.625 311.375 159.574219 C 311.375 158.527344 312.226562 157.675781 313.277344 157.675781 L 324.847656 157.675781 C 325.898438 157.675781 326.75 158.527344 326.75 159.574219 C 326.75 160.625 325.898438 161.476562 324.847656 161.476562 Z M 324.847656 161.476562 " fill-opacity="1" fill-rule="nonzero"/><path fill="#002d72" d="M 359.566406 161.476562 L 347.992188 161.476562 C 346.941406 161.476562 346.09375 160.625 346.09375 159.574219 C 346.09375 158.527344 346.941406 157.675781 347.992188 157.675781 L 359.566406 157.675781 C 360.617188 157.675781 361.46875 158.527344 361.46875 159.574219 C 361.46875 160.625 360.617188 161.476562 359.566406 161.476562 Z M 359.566406 161.476562 " fill-opacity="1" fill-rule="nonzero"/><path fill="#002d72" d="M 324.847656 173.050781 L 313.277344 173.050781 C 312.226562 173.050781 311.375 172.199219 311.375 171.148438 C 311.375 170.097656 312.226562 169.246094 313.277344 169.246094 L 324.847656 169.246094 C 325.898438 169.246094 326.75 170.097656 326.75 171.148438 C 326.75 172.199219 325.898438 173.050781 324.847656 173.050781 Z M 324.847656 173.050781 " fill-opacity="1" fill-rule="nonzero"/><path fill="#f5f5f5" d="M 347.992188 194.292969 L 336.421875 186.578125 L 324.847656 194.292969 L 324.847656 148.003906 L 347.992188 148.003906 Z M 347.992188 194.292969 " fill-opacity="1" fill-rule="nonzero"/><path fill="#002d72" d="M 347.992188 196.195312 C 347.625 196.195312 347.257812 196.089844 346.9375 195.875 L 336.421875 188.863281 L 325.902344 195.875 C 325.320312 196.265625 324.570312 196.300781 323.949219 195.96875 C 323.332031 195.640625 322.945312 194.996094 322.945312 194.292969 L 322.945312 148.003906 C 322.945312 146.953125 323.796875 146.101562 324.847656 146.101562 L 347.992188 146.101562 C 349.042969 146.101562 349.894531 146.953125 349.894531 148.003906 L 349.894531 194.292969 C 349.894531 194.996094 349.507812 195.640625 348.890625 195.96875 C 348.609375 196.121094 348.300781 196.195312 347.992188 196.195312 Z M 336.421875 184.675781 C 336.789062 184.675781 337.15625 184.785156 337.476562 184.996094 L 346.09375 190.738281 L 346.09375 149.90625 L 326.75 149.90625 L 326.75 190.738281 L 335.367188 184.996094 C 335.683594 184.78125 336.054688 184.675781 336.421875 184.675781 Z M 336.421875 184.675781 " fill-opacity="1" fill-rule="nonzero"/><path fill="#f5f5f5" d="M 296.558594 159.574219 L 288.097656 153.71875 C 282.722656 149.996094 276.339844 148.003906 269.800781 148.003906 L 237.410156 148.003906 C 235.28125 148.003906 233.554688 146.277344 233.554688 144.144531 L 233.554688 63.136719 C 233.554688 61.007812 235.28125 59.28125 237.410156 59.28125 L 269.800781 59.28125 C 276.339844 59.28125 282.722656 61.273438 288.097656 64.996094 L 296.558594 70.851562 Z M 296.558594 159.574219 " fill-opacity="1" fill-rule="nonzero"/><path fill="#f5f5f5" d="M 296.558594 159.574219 L 305.019531 153.71875 C 310.394531 149.996094 316.777344 148.003906 323.316406 148.003906 L 355.707031 148.003906 C 357.839844 148.003906 359.566406 146.277344 359.566406 144.144531 L 359.566406 63.136719 C 359.566406 61.007812 357.839844 59.28125 355.707031 59.28125 L 323.316406 59.28125 C 316.777344 59.28125 310.394531 61.273438 305.019531 64.996094 L 296.558594 70.851562 Z M 296.558594 159.574219 " fill-opacity="1" fill-rule="nonzero"/><path fill="#002d72" d="M 237.410156 149.90625 C 234.234375 149.90625 231.652344 147.320312 231.652344 144.144531 L 231.652344 63.136719 C 231.652344 59.960938 234.234375 57.378906 237.410156 57.378906 L 269.800781 57.378906 C 276.757812 57.378906 283.460938 59.472656 289.183594 63.433594 L 297.640625 69.289062 C 298.503906 69.886719 298.71875 71.070312 298.121094 71.933594 C 297.523438 72.796875 296.339844 73.011719 295.476562 72.414062 L 287.015625 66.558594 C 281.933594 63.039062 275.980469 61.179688 269.800781 61.179688 L 237.410156 61.179688 C 236.332031 61.179688 235.453125 62.058594 235.453125 63.136719 L 235.453125 144.144531 C 235.453125 145.222656 236.332031 146.101562 237.410156 146.101562 C 238.460938 146.101562 239.3125 146.953125 239.3125 148.003906 C 239.3125 149.054688 238.460938 149.90625 237.410156 149.90625 Z M 237.410156 149.90625 " fill-opacity="1" fill-rule="nonzero"/><path fill="#002d72" d="M 313.273438 151.515625 C 312.476562 151.515625 311.730469 151.007812 311.46875 150.207031 C 311.140625 149.207031 311.683594 148.132812 312.679688 147.804688 C 316.117188 146.675781 319.699219 146.101562 323.316406 146.101562 L 355.707031 146.101562 C 356.785156 146.101562 357.664062 145.222656 357.664062 144.144531 L 357.664062 63.136719 C 357.664062 62.058594 356.785156 61.179688 355.707031 61.179688 L 323.316406 61.179688 C 317.136719 61.179688 311.183594 63.039062 306.101562 66.558594 L 298.460938 71.847656 L 298.460938 123.570312 C 298.460938 124.621094 297.609375 125.472656 296.558594 125.472656 C 295.507812 125.472656 294.65625 124.621094 294.65625 123.570312 L 294.65625 70.851562 C 294.65625 70.226562 294.964844 69.644531 295.476562 69.289062 L 303.9375 63.433594 C 309.65625 59.472656 316.359375 57.378906 323.316406 57.378906 L 355.707031 57.378906 C 358.882812 57.378906 361.46875 59.960938 361.46875 63.136719 L 361.46875 144.144531 C 361.46875 147.320312 358.882812 149.90625 355.707031 149.90625 L 323.316406 149.90625 C 320.101562 149.90625 316.921875 150.414062 313.867188 151.417969 C 313.671875 151.484375 313.472656 151.515625 313.273438 151.515625 Z M 313.273438 151.515625 " fill-opacity="1" fill-rule="nonzero"/><path fill="#002d72" d="M 275.984375 77.898438 L 245.125 77.898438 C 244.074219 77.898438 243.222656 77.046875 243.222656 75.996094 C 243.222656 74.945312 244.074219 74.09375 245.125 74.09375 L 275.984375 74.09375 C 277.035156 74.09375 277.886719 74.945312 277.886719 75.996094 C 277.886719 77.046875 277.035156 77.898438 275.984375 77.898438 Z M 275.984375 77.898438 " fill-opacity="1" fill-rule="nonzero"/><path fill="#002d72" d="M 346.707031 133.1875 L 315.847656 133.1875 C 314.796875 133.1875 313.945312 132.335938 313.945312 131.285156 C 313.945312 130.238281 314.796875 129.386719 315.847656 129.386719 L 346.707031 129.386719 C 347.757812 129.386719 348.609375 130.238281 348.609375 131.285156 C 348.609375 132.335938 347.757812 133.1875 346.707031 133.1875 Z M 346.707031 133.1875 " fill-opacity="1" fill-rule="nonzero"/><path fill="#002d72" d="M 346.707031 95.898438 L 315.847656 95.898438 C 314.796875 95.898438 313.945312 95.046875 313.945312 93.996094 C 313.945312 92.945312 314.796875 92.09375 315.847656 92.09375 L 346.707031 92.09375 C 347.757812 92.09375 348.609375 92.945312 348.609375 93.996094 C 348.609375 95.046875 347.757812 95.898438 346.707031 95.898438 Z M 346.707031 95.898438 " fill-opacity="1" fill-rule="nonzero"/><path fill="#002d72" d="M 346.707031 77.898438 L 315.847656 77.898438 C 314.796875 77.898438 313.945312 77.046875 313.945312 75.996094 C 313.945312 74.945312 314.796875 74.09375 315.847656 74.09375 L 346.707031 74.09375 C 347.757812 74.09375 348.609375 74.945312 348.609375 75.996094 C 348.609375 77.046875 347.757812 77.898438 346.707031 77.898438 Z M 346.707031 77.898438 " fill-opacity="1" fill-rule="nonzero"/><path fill="#002d72" d="M 346.707031 113.902344 L 315.847656 113.902344 C 314.796875 113.902344 313.945312 113.050781 313.945312 112 C 313.945312 110.949219 314.796875 110.097656 315.847656 110.097656 L 346.707031 110.097656 C 347.757812 110.097656 348.609375 110.949219 348.609375 112 C 348.609375 113.050781 347.757812 113.902344 346.707031 113.902344 Z M 346.707031 113.902344 " fill-opacity="1" fill-rule="nonzero"/><path fill="#002d72" d="M 275.984375 95.898438 L 264.414062 95.898438 C 263.363281 95.898438 262.511719 95.046875 262.511719 93.996094 C 262.511719 92.945312 263.363281 92.09375 264.414062 92.09375 L 275.984375 92.09375 C 277.035156 92.09375 277.886719 92.945312 277.886719 93.996094 C 277.886719 95.046875 277.035156 95.898438 275.984375 95.898438 Z M 275.984375 95.898438 " fill-opacity="1" fill-rule="nonzero"/><path fill="#002d72" d="M 275.984375 113.902344 L 270.84375 113.902344 C 269.792969 113.902344 268.941406 113.050781 268.941406 112 C 268.941406 110.949219 269.792969 110.097656 270.84375 110.097656 L 275.984375 110.097656 C 277.035156 110.097656 277.886719 110.949219 277.886719 112 C 277.886719 113.050781 277.035156 113.902344 275.984375 113.902344 Z M 275.984375 113.902344 " fill-opacity="1" fill-rule="nonzero"/><path fill="#ffffff" d="M 291.417969 195.578125 L 291.417969 191.386719 C 291.417969 190.167969 291.996094 189.019531 292.980469 188.296875 C 299.046875 183.851562 302.988281 176.675781 302.988281 168.578125 L 302.988281 141.222656 C 302.988281 137.53125 300.285156 134.238281 296.609375 133.890625 C 292.390625 133.496094 288.84375 136.800781 288.84375 140.9375 L 288.84375 142.859375 L 288.84375 135.78125 C 288.84375 131.878906 285.683594 128.714844 281.78125 128.714844 L 281.765625 128.714844 C 277.863281 128.714844 274.699219 131.878906 274.699219 135.78125 L 274.699219 141.574219 L 274.699219 130.636719 C 274.699219 126.734375 271.539062 123.570312 267.636719 123.570312 L 267.621094 123.570312 C 263.71875 123.570312 260.554688 126.734375 260.554688 130.636719 L 260.554688 141.574219 L 260.554688 104.925781 C 260.554688 101.019531 257.390625 97.855469 253.484375 97.855469 C 249.578125 97.855469 246.410156 101.019531 246.410156 104.925781 L 246.410156 168.578125 C 246.410156 176.675781 250.351562 183.851562 256.417969 188.296875 C 257.40625 189.019531 257.984375 190.167969 257.984375 191.386719 L 257.984375 195.578125 Z M 291.417969 195.578125 " fill-opacity="1" fill-rule="nonzero"/><path fill="#002d72" d="M 291.417969 197.480469 C 291.414062 197.480469 291.414062 197.480469 291.414062 197.480469 C 290.367188 197.480469 289.515625 196.628906 289.515625 195.578125 L 289.515625 191.386719 C 289.515625 189.566406 290.390625 187.839844 291.855469 186.761719 C 297.636719 182.53125 301.085938 175.730469 301.085938 168.578125 L 301.085938 141.222656 C 301.085938 138.417969 299.042969 136.03125 296.433594 135.785156 C 294.949219 135.644531 293.53125 136.113281 292.441406 137.109375 C 291.363281 138.085938 290.746094 139.484375 290.746094 140.9375 L 290.746094 142.859375 C 290.746094 143.910156 289.894531 144.761719 288.84375 144.761719 C 287.792969 144.761719 286.941406 143.910156 286.941406 142.859375 L 286.941406 135.78125 C 286.941406 132.933594 284.628906 130.617188 281.78125 130.617188 L 281.765625 130.617188 C 278.917969 130.617188 276.601562 132.933594 276.601562 135.78125 L 276.601562 141.574219 C 276.601562 142.625 275.75 143.476562 274.699219 143.476562 C 273.648438 143.476562 272.796875 142.625 272.796875 141.574219 L 272.796875 130.636719 C 272.796875 127.789062 270.484375 125.472656 267.636719 125.472656 L 267.621094 125.472656 C 264.773438 125.472656 262.457031 127.789062 262.457031 130.636719 L 262.457031 141.574219 C 262.457031 142.625 261.605469 143.476562 260.554688 143.476562 C 259.507812 143.476562 258.65625 142.625 258.65625 141.574219 L 258.65625 104.925781 C 258.65625 102.074219 256.335938 99.757812 253.484375 99.757812 C 250.632812 99.757812 248.3125 102.074219 248.3125 104.925781 L 248.3125 168.578125 C 248.3125 175.730469 251.765625 182.53125 257.542969 186.761719 C 259.007812 187.835938 259.886719 189.566406 259.886719 191.386719 L 259.886719 195.578125 C 259.886719 196.628906 259.035156 197.480469 257.984375 197.480469 C 256.933594 197.480469 256.082031 196.628906 256.082031 195.578125 L 256.082031 191.386719 C 256.082031 190.773438 255.789062 190.191406 255.296875 189.832031 C 252.027344 187.4375 249.3125 184.273438 247.453125 180.683594 C 245.527344 176.96875 244.511719 172.785156 244.511719 168.578125 L 244.511719 104.925781 C 244.511719 99.980469 248.535156 95.953125 253.484375 95.953125 C 258.433594 95.953125 262.457031 99.980469 262.457031 104.925781 L 262.457031 123.308594 C 263.917969 122.277344 265.699219 121.671875 267.621094 121.671875 L 267.636719 121.671875 C 271.886719 121.671875 275.457031 124.644531 276.375 128.621094 C 277.875 127.488281 279.742188 126.8125 281.765625 126.8125 L 281.78125 126.8125 C 286.03125 126.8125 289.601562 129.789062 290.519531 133.765625 C 292.300781 132.425781 294.542969 131.785156 296.789062 132 C 301.332031 132.425781 304.890625 136.476562 304.890625 141.222656 L 304.890625 168.578125 C 304.890625 172.785156 303.875 176.972656 301.949219 180.683594 C 300.085938 184.273438 297.375 187.4375 294.105469 189.832031 C 293.613281 190.191406 293.320312 190.773438 293.320312 191.386719 L 293.316406 195.578125 C 293.316406 196.628906 292.464844 197.480469 291.417969 197.480469 Z M 291.417969 197.480469 " fill-opacity="1" fill-rule="nonzero"/><path fill="#ff6929" d="M 247.695312 195.578125 L 301.703125 195.578125 L 301.703125 208.4375 L 247.695312 208.4375 Z M 247.695312 195.578125 " fill-opacity="1" fill-rule="nonzero"/><path fill="#002d72" d="M 301.703125 210.339844 C 300.652344 210.339844 299.800781 209.488281 299.800781 208.4375 L 299.800781 197.480469 L 249.597656 197.480469 L 249.597656 208.4375 C 249.597656 209.488281 248.746094 210.339844 247.699219 210.339844 C 246.648438 210.339844 245.796875 209.488281 245.796875 208.4375 L 245.796875 195.578125 C 245.796875 194.527344 246.648438 193.675781 247.699219 193.675781 L 301.703125 193.675781 C 302.753906 193.675781 303.605469 194.527344 303.605469 195.578125 L 303.605469 208.4375 C 303.605469 209.488281 302.753906 210.339844 301.703125 210.339844 Z M 301.703125 210.339844 " fill-opacity="1" fill-rule="nonzero"/><path fill="#ffffff" d="M 141.175781 341.71875 L 132.023438 341.71875 C 128.234375 341.71875 125.160156 338.644531 125.160156 334.855469 L 125.160156 243.34375 C 125.160156 239.554688 128.234375 236.480469 132.023438 236.480469 L 255.5625 236.480469 C 259.351562 236.480469 262.425781 239.554688 262.425781 243.34375 L 262.425781 334.855469 C 262.425781 338.644531 259.351562 341.71875 255.5625 341.71875 Z M 141.175781 341.71875 " fill-opacity="1" fill-rule="nonzero"/><path fill="#002d72" d="M 255.5625 343.621094 L 180.066406 343.621094 C 179.015625 343.621094 178.164062 342.769531 178.164062 341.71875 C 178.164062 340.667969 179.015625 339.816406 180.066406 339.816406 L 255.5625 339.816406 C 258.300781 339.816406 260.523438 337.589844 260.523438 334.855469 L 260.523438 243.34375 C 260.523438 240.609375 258.300781 238.382812 255.5625 238.382812 L 132.023438 238.382812 C 129.289062 238.382812 127.0625 240.609375 127.0625 243.34375 L 127.0625 334.855469 C 127.0625 337.589844 129.289062 339.816406 132.023438 339.816406 L 141.175781 339.816406 C 142.226562 339.816406 143.078125 340.667969 143.078125 341.71875 C 143.078125 342.769531 142.226562 343.621094 141.175781 343.621094 L 132.023438 343.621094 C 127.191406 343.621094 123.261719 339.6875 123.261719 334.855469 L 123.261719 243.34375 C 123.261719 238.511719 127.191406 234.582031 132.023438 234.582031 L 255.5625 234.582031 C 260.394531 234.582031 264.328125 238.511719 264.328125 243.34375 L 264.328125 334.855469 C 264.328125 339.6875 260.394531 343.621094 255.5625 343.621094 Z M 255.5625 343.621094 " fill-opacity="1" fill-rule="nonzero"/><path fill="#f5f5f5" d="M 150.328125 236.480469 L 173.203125 236.480469 L 173.203125 282.691406 L 150.328125 282.691406 Z M 150.328125 236.480469 " fill-opacity="1" fill-rule="nonzero"/><path fill="#002d72" d="M 173.203125 284.59375 C 172.152344 284.59375 171.300781 283.742188 171.300781 282.695312 L 171.300781 238.382812 L 152.226562 238.382812 L 152.226562 282.691406 C 152.226562 283.742188 151.375 284.59375 150.328125 284.59375 C 149.277344 284.59375 148.425781 283.742188 148.425781 282.691406 L 148.425781 236.480469 C 148.425781 235.433594 149.277344 234.582031 150.328125 234.582031 L 173.203125 234.582031 C 174.253906 234.582031 175.105469 235.433594 175.105469 236.480469 L 175.105469 282.695312 C 175.105469 283.742188 174.253906 284.59375 173.203125 284.59375 Z M 173.203125 284.59375 " fill-opacity="1" fill-rule="nonzero"/><path fill="#f5f5f5" d="M 158.972656 318.394531 L 158.972656 359.574219 L 170.414062 348.136719 L 181.851562 359.574219 L 181.851562 309.203125 Z M 158.972656 318.394531 " fill-opacity="1" fill-rule="nonzero"/><path fill="#002d72" d="M 181.851562 361.476562 C 181.355469 361.476562 180.871094 361.285156 180.507812 360.921875 L 170.414062 350.824219 L 160.320312 360.921875 C 159.773438 361.464844 158.957031 361.625 158.246094 361.332031 C 157.535156 361.039062 157.074219 360.34375 157.074219 359.574219 L 157.074219 318.394531 C 157.074219 317.34375 157.925781 316.492188 158.972656 316.492188 C 160.023438 316.492188 160.875 317.34375 160.875 318.394531 L 160.875 354.984375 L 169.066406 346.792969 C 169.425781 346.433594 169.910156 346.234375 170.414062 346.234375 C 170.917969 346.234375 171.402344 346.433594 171.757812 346.792969 L 179.949219 354.984375 L 179.949219 309.203125 C 179.949219 308.152344 180.800781 307.300781 181.851562 307.300781 C 182.902344 307.300781 183.753906 308.152344 183.753906 309.203125 L 183.753906 359.574219 C 183.753906 360.34375 183.289062 361.039062 182.578125 361.332031 C 182.34375 361.429688 182.097656 361.476562 181.851562 361.476562 Z M 181.851562 361.476562 " fill-opacity="1" fill-rule="nonzero"/><path fill="#f5f5f5" d="M 165.195312 330.28125 L 165.195312 371.460938 L 153.757812 360.019531 L 142.320312 371.460938 L 142.320312 321.085938 Z M 165.195312 330.28125 " fill-opacity="1" fill-rule="nonzero"/><g clip-path="url(#e019f1a9ad)"><path fill="#002d72" d="M 165.199219 373.359375 C 164.703125 373.359375 164.214844 373.167969 163.851562 372.804688 L 153.757812 362.710938 L 143.664062 372.804688 C 143.121094 373.347656 142.300781 373.511719 141.589844 373.214844 C 140.882812 372.921875 140.417969 372.226562 140.417969 371.460938 L 140.417969 321.085938 C 140.417969 320.039062 141.269531 319.1875 142.320312 319.1875 C 143.371094 319.1875 144.222656 320.039062 144.222656 321.085938 L 144.222656 366.867188 L 152.414062 358.675781 C 152.769531 358.320312 153.253906 358.117188 153.757812 358.117188 C 154.261719 358.117188 154.746094 358.320312 155.101562 358.675781 L 163.296875 366.867188 L 163.296875 330.28125 C 163.296875 329.230469 164.148438 328.378906 165.195312 328.378906 C 166.246094 328.378906 167.097656 329.230469 167.097656 330.28125 L 167.097656 371.460938 C 167.097656 372.226562 166.636719 372.921875 165.925781 373.214844 C 165.691406 373.3125 165.441406 373.359375 165.199219 373.359375 Z M 165.199219 373.359375 " fill-opacity="1" fill-rule="nonzero"/></g><path fill="#f5f5f5" d="M 186.925781 305.113281 C 186.925781 305.9375 186.886719 306.757812 186.804688 307.578125 C 186.722656 308.398438 186.601562 309.214844 186.441406 310.023438 C 186.28125 310.832031 186.082031 311.628906 185.84375 312.417969 C 185.601562 313.207031 185.324219 313.980469 185.011719 314.742188 C 184.695312 315.503906 184.34375 316.25 183.953125 316.976562 C 183.566406 317.703125 183.144531 318.410156 182.683594 319.09375 C 182.226562 319.78125 181.738281 320.441406 181.214844 321.078125 C 180.691406 321.714844 180.136719 322.324219 179.554688 322.90625 C 178.972656 323.492188 178.363281 324.042969 177.726562 324.566406 C 177.089844 325.089844 176.425781 325.578125 175.742188 326.039062 C 175.054688 326.496094 174.351562 326.917969 173.625 327.308594 C 172.898438 327.695312 172.152344 328.046875 171.390625 328.363281 C 170.628906 328.679688 169.855469 328.957031 169.066406 329.195312 C 168.277344 329.433594 167.480469 329.632812 166.671875 329.792969 C 165.863281 329.957031 165.046875 330.078125 164.226562 330.15625 C 163.40625 330.238281 162.585938 330.277344 161.761719 330.277344 C 160.9375 330.277344 160.113281 330.238281 159.292969 330.15625 C 158.472656 330.078125 157.660156 329.957031 156.851562 329.792969 C 156.042969 329.632812 155.246094 329.433594 154.457031 329.195312 C 153.667969 328.957031 152.890625 328.679688 152.128906 328.363281 C 151.367188 328.046875 150.625 327.695312 149.898438 327.308594 C 149.171875 326.917969 148.464844 326.496094 147.78125 326.039062 C 147.09375 325.578125 146.433594 325.089844 145.796875 324.566406 C 145.160156 324.042969 144.550781 323.492188 143.964844 322.90625 C 143.382812 322.324219 142.832031 321.714844 142.308594 321.078125 C 141.785156 320.441406 141.292969 319.78125 140.835938 319.09375 C 140.378906 318.410156 139.957031 317.703125 139.566406 316.976562 C 139.179688 316.25 138.828125 315.503906 138.511719 314.742188 C 138.195312 313.980469 137.917969 313.207031 137.679688 312.417969 C 137.441406 311.628906 137.238281 310.832031 137.078125 310.023438 C 136.917969 309.214844 136.796875 308.398438 136.71875 307.578125 C 136.636719 306.757812 136.59375 305.9375 136.59375 305.113281 C 136.59375 304.289062 136.636719 303.46875 136.71875 302.648438 C 136.796875 301.828125 136.917969 301.011719 137.078125 300.203125 C 137.238281 299.394531 137.441406 298.597656 137.679688 297.808594 C 137.917969 297.019531 138.195312 296.246094 138.511719 295.484375 C 138.828125 294.722656 139.179688 293.976562 139.566406 293.25 C 139.957031 292.523438 140.378906 291.816406 140.835938 291.132812 C 141.292969 290.445312 141.785156 289.785156 142.308594 289.148438 C 142.832031 288.511719 143.382812 287.902344 143.964844 287.320312 C 144.550781 286.734375 145.160156 286.183594 145.796875 285.660156 C 146.433594 285.136719 147.09375 284.648438 147.78125 284.1875 C 148.464844 283.730469 149.171875 283.308594 149.898438 282.917969 C 150.625 282.53125 151.367188 282.179688 152.128906 281.863281 C 152.890625 281.546875 153.667969 281.269531 154.457031 281.03125 C 155.246094 280.792969 156.042969 280.59375 156.851562 280.433594 C 157.660156 280.269531 158.472656 280.148438 159.292969 280.070312 C 160.113281 279.988281 160.9375 279.949219 161.761719 279.949219 C 162.585938 279.949219 163.40625 279.988281 164.226562 280.070312 C 165.046875 280.148438 165.863281 280.269531 166.671875 280.433594 C 167.480469 280.59375 168.277344 280.792969 169.066406 281.03125 C 169.855469 281.269531 170.628906 281.546875 171.390625 281.863281 C 172.152344 282.179688 172.898438 282.53125 173.625 282.917969 C 174.351562 283.308594 175.054688 283.730469 175.742188 284.1875 C 176.425781 284.648438 177.089844 285.136719 177.726562 285.660156 C 178.363281 286.183594 178.972656 286.734375 179.554688 287.320312 C 180.136719 287.902344 180.691406 288.511719 181.214844 289.148438 C 181.738281 289.785156 182.226562 290.445312 182.683594 291.132812 C 183.144531 291.816406 183.566406 292.523438 183.953125 293.25 C 184.34375 293.976562 184.695312 294.722656 185.011719 295.484375 C 185.324219 296.246094 185.601562 297.019531 185.84375 297.808594 C 186.082031 298.597656 186.28125 299.394531 186.441406 300.203125 C 186.601562 301.011719 186.722656 301.828125 186.804688 302.648438 C 186.886719 303.46875 186.925781 304.289062 186.925781 305.113281 Z M 186.925781 305.113281 " fill-opacity="1" fill-rule="nonzero"/><path fill="#002d72" d="M 161.765625 332.179688 C 146.839844 332.179688 134.699219 320.039062 134.699219 305.113281 C 134.699219 290.191406 146.839844 278.046875 161.765625 278.046875 C 176.691406 278.046875 188.832031 290.191406 188.832031 305.113281 C 188.832031 320.039062 176.691406 332.179688 161.765625 332.179688 Z M 161.765625 281.851562 C 148.9375 281.851562 138.5 292.285156 138.5 305.113281 C 138.5 317.941406 148.9375 328.378906 161.765625 328.378906 C 174.59375 328.378906 185.027344 317.941406 185.027344 305.113281 C 185.027344 292.285156 174.59375 281.851562 161.765625 281.851562 Z M 161.765625 281.851562 " fill-opacity="1" fill-rule="nonzero"/><path fill="#ffffff" d="M 175.488281 305.113281 C 175.488281 306.015625 175.398438 306.90625 175.222656 307.792969 C 175.046875 308.675781 174.789062 309.535156 174.441406 310.367188 C 174.097656 311.199219 173.675781 311.988281 173.175781 312.738281 C 172.671875 313.488281 172.105469 314.183594 171.46875 314.820312 C 170.828125 315.457031 170.136719 316.027344 169.386719 316.527344 C 168.636719 317.027344 167.847656 317.449219 167.015625 317.796875 C 166.179688 318.140625 165.324219 318.398438 164.4375 318.578125 C 163.554688 318.753906 162.660156 318.839844 161.761719 318.839844 C 160.859375 318.839844 159.964844 318.753906 159.082031 318.578125 C 158.199219 318.398438 157.339844 318.140625 156.507812 317.796875 C 155.675781 317.449219 154.882812 317.027344 154.132812 316.527344 C 153.386719 316.027344 152.691406 315.457031 152.054688 314.820312 C 151.417969 314.183594 150.847656 313.488281 150.347656 312.738281 C 149.847656 311.988281 149.425781 311.199219 149.078125 310.367188 C 148.734375 309.535156 148.472656 308.675781 148.296875 307.792969 C 148.121094 306.90625 148.035156 306.015625 148.035156 305.113281 C 148.035156 304.210938 148.121094 303.320312 148.296875 302.433594 C 148.472656 301.550781 148.734375 300.691406 149.078125 299.859375 C 149.425781 299.027344 149.847656 298.238281 150.347656 297.488281 C 150.847656 296.738281 151.417969 296.042969 152.054688 295.40625 C 152.691406 294.769531 153.386719 294.199219 154.132812 293.699219 C 154.882812 293.199219 155.675781 292.777344 156.507812 292.429688 C 157.339844 292.085938 158.199219 291.824219 159.082031 291.648438 C 159.964844 291.472656 160.859375 291.386719 161.761719 291.386719 C 162.660156 291.386719 163.554688 291.472656 164.4375 291.648438 C 165.324219 291.824219 166.179688 292.085938 167.015625 292.429688 C 167.847656 292.777344 168.636719 293.199219 169.386719 293.699219 C 170.136719 294.199219 170.828125 294.769531 171.46875 295.40625 C 172.105469 296.042969 172.671875 296.738281 173.175781 297.488281 C 173.675781 298.238281 174.097656 299.027344 174.441406 299.859375 C 174.789062 300.691406 175.046875 301.550781 175.222656 302.433594 C 175.398438 303.320312 175.488281 304.210938 175.488281 305.113281 Z M 175.488281 305.113281 " fill-opacity="1" fill-rule="nonzero"/><path fill="#002d72" d="M 161.765625 320.742188 C 153.148438 320.742188 146.136719 313.730469 146.136719 305.113281 C 146.136719 296.496094 153.148438 289.484375 161.765625 289.484375 C 170.382812 289.484375 177.394531 296.496094 177.394531 305.113281 C 177.394531 313.730469 170.382812 320.742188 161.765625 320.742188 Z M 161.765625 293.289062 C 155.246094 293.289062 149.941406 298.59375 149.941406 305.113281 C 149.941406 311.632812 155.246094 316.941406 161.765625 316.941406 C 168.285156 316.941406 173.589844 311.632812 173.589844 305.113281 C 173.589844 298.59375 168.285156 293.289062 161.765625 293.289062 Z M 161.765625 293.289062 " fill-opacity="1" fill-rule="nonzero"/><path fill="#ff6929" d="M 238.40625 273.085938 L 199.511719 273.085938 C 194.460938 273.085938 190.363281 268.988281 190.363281 263.933594 C 190.363281 258.882812 194.460938 254.785156 199.511719 254.785156 L 238.40625 254.785156 C 243.460938 254.785156 247.554688 258.882812 247.554688 263.933594 C 247.554688 268.988281 243.457031 273.085938 238.40625 273.085938 Z M 238.40625 273.085938 " fill-opacity="1" fill-rule="nonzero"/><path fill="#002d72" d="M 238.40625 274.988281 L 199.511719 274.988281 C 193.417969 274.988281 188.460938 270.03125 188.460938 263.933594 C 188.460938 257.839844 193.417969 252.882812 199.511719 252.882812 L 238.40625 252.882812 C 244.5 252.882812 249.457031 257.839844 249.457031 263.933594 C 249.457031 270.03125 244.5 274.988281 238.40625 274.988281 Z M 199.511719 256.6875 C 195.515625 256.6875 192.265625 259.9375 192.265625 263.933594 C 192.265625 267.933594 195.515625 271.183594 199.511719 271.183594 L 238.40625 271.183594 C 242.402344 271.183594 245.65625 267.933594 245.65625 263.933594 C 245.65625 259.9375 242.402344 256.6875 238.40625 256.6875 Z M 199.511719 256.6875 " fill-opacity="1" fill-rule="nonzero"/><path fill="#002d72" d="M 238.40625 291.003906 L 199.511719 291.003906 C 198.460938 291.003906 197.613281 290.152344 197.613281 289.101562 C 197.613281 288.050781 198.464844 287.199219 199.511719 287.199219 L 238.40625 287.199219 C 239.457031 287.199219 240.304688 288.050781 240.304688 289.101562 C 240.308594 290.152344 239.457031 291.003906 238.40625 291.003906 Z M 238.40625 291.003906 " fill-opacity="1" fill-rule="nonzero"/><path fill="#002d72" d="M 238.40625 307.015625 L 199.511719 307.015625 C 198.460938 307.015625 197.613281 306.164062 197.613281 305.113281 C 197.613281 304.0625 198.464844 303.214844 199.511719 303.214844 L 238.40625 303.214844 C 239.457031 303.214844 240.304688 304.0625 240.304688 305.113281 C 240.304688 306.164062 239.457031 307.015625 238.40625 307.015625 Z M 238.40625 307.015625 " fill-opacity="1" fill-rule="nonzero"/><path fill="#002d72" d="M 238.40625 323.03125 L 199.511719 323.03125 C 198.460938 323.03125 197.613281 322.179688 197.613281 321.128906 C 197.613281 320.078125 198.464844 319.226562 199.511719 319.226562 L 238.40625 319.226562 C 239.457031 319.226562 240.304688 320.078125 240.304688 321.128906 C 240.304688 322.179688 239.457031 323.03125 238.40625 323.03125 Z M 238.40625 323.03125 " fill-opacity="1" fill-rule="nonzero"/></svg>