<svg xmlns="http://www.w3.org/2000/svg" xmlns:xlink="http://www.w3.org/1999/xlink" width="200" zoomAndPan="magnify" viewBox="0 0 150 149.999998" height="200" preserveAspectRatio="xMidYMid meet" version="1.0"><defs><clipPath id="daf84915b2"><path d="M 1.597656 24.285156 L 148.597656 24.285156 L 148.597656 125.535156 L 1.597656 125.535156 Z M 1.597656 24.285156 " clip-rule="nonzero"/></clipPath></defs><g clip-path="url(#daf84915b2)"><path fill="#002d72" d="M 146.105469 107.109375 L 139.222656 107.109375 L 139.222656 36.003906 C 139.222656 35.25 139.148438 34.503906 139 33.765625 C 138.851562 33.027344 138.636719 32.3125 138.347656 31.617188 C 138.058594 30.921875 137.703125 30.261719 137.285156 29.632812 C 136.867188 29.007812 136.394531 28.429688 135.859375 27.898438 C 135.328125 27.367188 134.75 26.890625 134.125 26.472656 C 133.496094 26.054688 132.835938 25.699219 132.140625 25.410156 C 131.445312 25.121094 130.730469 24.90625 129.992188 24.757812 C 129.253906 24.609375 128.507812 24.535156 127.753906 24.535156 L 22.242188 24.535156 C 21.488281 24.535156 20.742188 24.609375 20.003906 24.757812 C 19.265625 24.90625 18.550781 25.121094 17.855469 25.410156 C 17.160156 25.699219 16.5 26.054688 15.871094 26.472656 C 15.246094 26.890625 14.667969 27.367188 14.136719 27.898438 C 13.605469 28.429688 13.128906 29.007812 12.710938 29.632812 C 12.292969 30.261719 11.9375 30.921875 11.648438 31.617188 C 11.359375 32.3125 11.144531 33.027344 10.996094 33.765625 C 10.847656 34.503906 10.773438 35.25 10.773438 36.003906 L 10.773438 107.109375 L 3.890625 107.109375 C 3.585938 107.109375 3.292969 107.167969 3.011719 107.285156 C 2.730469 107.402344 2.484375 107.566406 2.269531 107.78125 C 2.054688 107.996094 1.886719 108.246094 1.769531 108.527344 C 1.65625 108.808594 1.597656 109.101562 1.597656 109.40625 L 1.597656 113.988281 C 1.597656 114.742188 1.671875 115.488281 1.820312 116.226562 C 1.964844 116.964844 2.183594 117.683594 2.472656 118.378906 C 2.761719 119.074219 3.113281 119.734375 3.53125 120.359375 C 3.949219 120.984375 4.425781 121.566406 4.957031 122.097656 C 5.492188 122.628906 6.070312 123.105469 6.695312 123.523438 C 7.320312 123.941406 7.980469 124.296875 8.675781 124.582031 C 9.371094 124.871094 10.089844 125.089844 10.828125 125.238281 C 11.566406 125.386719 12.3125 125.460938 13.066406 125.460938 L 136.929688 125.460938 C 137.683594 125.460938 138.425781 125.386719 139.164062 125.238281 C 139.902344 125.089844 140.621094 124.871094 141.316406 124.582031 C 142.011719 124.296875 142.671875 123.941406 143.296875 123.523438 C 143.925781 123.105469 144.503906 122.628906 145.035156 122.097656 C 145.566406 121.566406 146.042969 120.984375 146.460938 120.359375 C 146.878906 119.734375 147.234375 119.074219 147.519531 118.378906 C 147.808594 117.683594 148.027344 116.964844 148.175781 116.226562 C 148.324219 115.488281 148.398438 114.742188 148.398438 113.988281 L 148.398438 109.40625 C 148.398438 109.101562 148.339844 108.808594 148.222656 108.527344 C 148.105469 108.246094 147.941406 108 147.726562 107.785156 C 147.511719 107.566406 147.261719 107.402344 146.984375 107.285156 C 146.703125 107.167969 146.410156 107.109375 146.105469 107.109375 Z M 15.359375 36.003906 C 15.359375 35.550781 15.402344 35.101562 15.492188 34.660156 C 15.578125 34.21875 15.710938 33.785156 15.882812 33.367188 C 16.054688 32.953125 16.265625 32.554688 16.519531 32.179688 C 16.769531 31.804688 17.054688 31.457031 17.375 31.136719 C 17.695312 30.816406 18.042969 30.53125 18.417969 30.28125 C 18.792969 30.027344 19.191406 29.816406 19.605469 29.644531 C 20.023438 29.472656 20.457031 29.339844 20.898438 29.253906 C 21.339844 29.164062 21.789062 29.121094 22.242188 29.121094 L 127.753906 29.121094 C 128.207031 29.121094 128.65625 29.164062 129.097656 29.253906 C 129.542969 29.339844 129.972656 29.472656 130.390625 29.644531 C 130.808594 29.816406 131.203125 30.027344 131.578125 30.28125 C 131.953125 30.53125 132.300781 30.816406 132.621094 31.136719 C 132.941406 31.457031 133.226562 31.804688 133.476562 32.179688 C 133.730469 32.554688 133.941406 32.953125 134.113281 33.367188 C 134.285156 33.785156 134.417969 34.21875 134.503906 34.660156 C 134.59375 35.101562 134.636719 35.550781 134.636719 36.003906 L 134.636719 107.109375 L 15.359375 107.109375 Z M 88.761719 111.699219 C 88.761719 112.003906 88.703125 112.296875 88.585938 112.578125 C 88.46875 112.859375 88.304688 113.105469 88.089844 113.320312 C 87.875 113.535156 87.625 113.703125 87.34375 113.816406 C 87.0625 113.933594 86.769531 113.992188 86.464844 113.992188 L 63.527344 113.992188 C 63.222656 113.992188 62.929688 113.933594 62.648438 113.816406 C 62.367188 113.703125 62.121094 113.535156 61.90625 113.320312 C 61.691406 113.105469 61.523438 112.859375 61.40625 112.578125 C 61.292969 112.296875 61.234375 112.003906 61.234375 111.699219 Z M 143.8125 113.988281 C 143.8125 114.441406 143.765625 114.890625 143.679688 115.332031 C 143.589844 115.777344 143.460938 116.207031 143.289062 116.625 C 143.113281 117.042969 142.902344 117.4375 142.652344 117.8125 C 142.402344 118.191406 142.117188 118.535156 141.796875 118.855469 C 141.476562 119.175781 141.128906 119.460938 140.753906 119.710938 C 140.378906 119.964844 139.980469 120.175781 139.5625 120.347656 C 139.144531 120.523438 138.714844 120.652344 138.273438 120.738281 C 137.828125 120.828125 137.382812 120.871094 136.929688 120.871094 L 13.066406 120.871094 C 12.613281 120.871094 12.164062 120.828125 11.722656 120.738281 C 11.277344 120.652344 10.847656 120.519531 10.429688 120.347656 C 10.015625 120.175781 9.617188 119.960938 9.242188 119.710938 C 8.867188 119.460938 8.519531 119.175781 8.199219 118.855469 C 7.878906 118.535156 7.59375 118.1875 7.34375 117.8125 C 7.09375 117.4375 6.882812 117.039062 6.707031 116.625 C 6.535156 116.207031 6.40625 115.777344 6.316406 115.332031 C 6.230469 114.890625 6.183594 114.441406 6.183594 113.988281 L 6.183594 111.695312 L 56.648438 111.695312 C 56.648438 112.148438 56.691406 112.59375 56.78125 113.039062 C 56.867188 113.480469 57 113.914062 57.171875 114.328125 C 57.34375 114.746094 57.554688 115.144531 57.808594 115.519531 C 58.058594 115.894531 58.34375 116.242188 58.664062 116.5625 C 58.984375 116.882812 59.332031 117.167969 59.707031 117.417969 C 60.082031 117.667969 60.480469 117.882812 60.894531 118.054688 C 61.3125 118.226562 61.746094 118.359375 62.1875 118.445312 C 62.628906 118.535156 63.078125 118.578125 63.53125 118.578125 L 86.46875 118.578125 C 86.921875 118.578125 87.367188 118.535156 87.8125 118.445312 C 88.253906 118.359375 88.683594 118.226562 89.101562 118.054688 C 89.519531 117.882812 89.917969 117.667969 90.292969 117.417969 C 90.667969 117.167969 91.015625 116.882812 91.335938 116.5625 C 91.65625 116.242188 91.941406 115.894531 92.191406 115.519531 C 92.441406 115.144531 92.65625 114.746094 92.828125 114.328125 C 93 113.914062 93.132812 113.480469 93.21875 113.039062 C 93.308594 112.59375 93.351562 112.148438 93.351562 111.695312 L 143.8125 111.695312 Z M 143.8125 113.988281 " fill-opacity="1" fill-rule="nonzero"/></g><path fill="#ff6910" d="M 103.308594 93.207031 C 103.757812 93.042969 104.125 92.765625 104.398438 92.371094 C 104.675781 91.976562 104.816406 91.539062 104.816406 91.058594 L 104.816406 72.703125 C 104.816406 72.398438 104.757812 72.105469 104.640625 71.824219 C 104.527344 71.542969 104.359375 71.296875 104.144531 71.082031 C 103.929688 70.867188 103.679688 70.699219 103.402344 70.585938 C 103.121094 70.46875 102.828125 70.410156 102.523438 70.410156 C 102.21875 70.410156 101.925781 70.46875 101.644531 70.585938 C 101.363281 70.699219 101.117188 70.867188 100.898438 71.082031 C 100.683594 71.296875 100.519531 71.542969 100.402344 71.824219 C 100.285156 72.105469 100.226562 72.398438 100.226562 72.703125 L 100.226562 89.429688 C 96.542969 90.71875 92.773438 91.6875 88.921875 92.34375 C 85.074219 92.996094 81.195312 93.324219 77.292969 93.324219 C 73.386719 93.324219 69.507812 92.996094 65.660156 92.34375 C 61.808594 91.6875 58.039062 90.71875 54.355469 89.429688 L 54.355469 72.703125 C 54.355469 72.398438 54.296875 72.105469 54.179688 71.824219 C 54.0625 71.542969 53.898438 71.296875 53.683594 71.082031 C 53.464844 70.867188 53.21875 70.699219 52.9375 70.585938 C 52.65625 70.46875 52.363281 70.410156 52.058594 70.410156 C 51.753906 70.410156 51.460938 70.46875 51.179688 70.585938 C 50.902344 70.699219 50.652344 70.867188 50.4375 71.082031 C 50.222656 71.296875 50.054688 71.542969 49.941406 71.824219 C 49.824219 72.105469 49.765625 72.398438 49.765625 72.703125 L 49.765625 91.054688 C 49.765625 91.535156 49.90625 91.972656 50.183594 92.367188 C 50.457031 92.757812 50.824219 93.039062 51.273438 93.203125 C 55.433594 94.761719 59.699219 95.933594 64.070312 96.726562 C 68.441406 97.515625 72.847656 97.914062 77.289062 97.914062 C 81.734375 97.914062 86.140625 97.515625 90.511719 96.726562 C 94.882812 95.933594 99.148438 94.761719 103.308594 93.203125 Z M 103.308594 93.207031 " fill-opacity="1" fill-rule="nonzero"/><path fill="#ff6910" d="M 36.003906 66.246094 L 36.003906 59.9375 L 73.324219 73.691406 C 74.605469 74.160156 75.925781 74.394531 77.289062 74.394531 C 78.65625 74.394531 79.976562 74.160156 81.257812 73.691406 L 121.65625 58.800781 C 122.105469 58.632812 122.464844 58.351562 122.738281 57.957031 C 123.011719 57.566406 123.148438 57.128906 123.148438 56.648438 C 123.148438 56.171875 123.011719 55.734375 122.738281 55.34375 C 122.464844 54.949219 122.105469 54.667969 121.65625 54.5 L 81.257812 39.609375 C 79.976562 39.136719 78.65625 38.902344 77.289062 38.902344 C 75.925781 38.902344 74.605469 39.136719 73.324219 39.609375 L 32.917969 54.5 C 32.464844 54.664062 32.105469 54.945312 31.832031 55.335938 C 31.554688 55.730469 31.417969 56.167969 31.417969 56.648438 L 31.417969 66.246094 C 30.75 66.480469 30.132812 66.8125 29.566406 67.242188 C 29 67.667969 28.511719 68.171875 28.101562 68.75 C 27.691406 69.328125 27.375 69.953125 27.160156 70.628906 C 26.941406 71.304688 26.832031 71.996094 26.828125 72.707031 L 26.828125 77.292969 C 26.828125 77.597656 26.886719 77.890625 27.003906 78.171875 C 27.121094 78.453125 27.285156 78.703125 27.5 78.917969 C 27.714844 79.132812 27.964844 79.296875 28.246094 79.414062 C 28.527344 79.53125 28.820312 79.589844 29.125 79.589844 L 38.296875 79.589844 C 38.601562 79.589844 38.894531 79.53125 39.175781 79.414062 C 39.457031 79.296875 39.703125 79.132812 39.917969 78.917969 C 40.132812 78.703125 40.300781 78.453125 40.417969 78.171875 C 40.535156 77.890625 40.589844 77.597656 40.589844 77.292969 L 40.589844 72.707031 C 40.589844 71.996094 40.480469 71.304688 40.261719 70.628906 C 40.042969 69.953125 39.730469 69.328125 39.320312 68.75 C 38.910156 68.171875 38.421875 67.667969 37.855469 67.242188 C 37.289062 66.8125 36.671875 66.480469 36.003906 66.246094 Z M 74.914062 43.914062 C 76.5 43.332031 78.085938 43.332031 79.671875 43.914062 L 114.242188 56.648438 L 79.671875 69.382812 C 78.085938 69.964844 76.5 69.964844 74.914062 69.382812 L 40.347656 56.648438 Z M 36.003906 74.996094 L 31.417969 74.996094 L 31.417969 72.703125 C 31.417969 72.398438 31.476562 72.105469 31.59375 71.824219 C 31.707031 71.542969 31.875 71.296875 32.089844 71.082031 C 32.304688 70.867188 32.554688 70.699219 32.832031 70.585938 C 33.113281 70.46875 33.40625 70.410156 33.710938 70.410156 C 34.015625 70.410156 34.308594 70.46875 34.589844 70.585938 C 34.871094 70.699219 35.117188 70.867188 35.332031 71.082031 C 35.550781 71.296875 35.714844 71.542969 35.832031 71.824219 C 35.949219 72.105469 36.007812 72.398438 36.007812 72.703125 Z M 36.003906 74.996094 " fill-opacity="1" fill-rule="nonzero"/></svg>