<svg xmlns="http://www.w3.org/2000/svg" xmlns:xlink="http://www.w3.org/1999/xlink" width="500" zoomAndPan="magnify" viewBox="0 0 375 374.999991" height="500" preserveAspectRatio="xMidYMid meet" version="1.0"><defs><clipPath id="83cf522849"><path d="M 25 25 L 350 25 L 350 349 L 25 349 Z M 25 25 " clip-rule="nonzero"/></clipPath><clipPath id="d52a93b99c"><path d="M 184.683594 -8.597656 L 383.273438 189.992188 L 190.625 382.640625 L -7.964844 184.050781 Z M 184.683594 -8.597656 " clip-rule="nonzero"/></clipPath><clipPath id="f700cd5017"><path d="M 133.128906 325.144531 C 117.386719 309.402344 108.730469 287.589844 109.363281 265.3125 C 87.085938 265.949219 65.277344 257.292969 49.535156 241.550781 C 17.835938 209.851562 17.835938 158.253906 49.535156 126.554688 C 63.960938 112.128906 83.097656 103.683594 103.46875 102.835938 C 104.316406 82.464844 112.761719 63.328125 127.1875 48.902344 C 158.886719 17.203125 210.484375 17.203125 242.183594 48.902344 C 257.925781 64.644531 266.582031 86.453125 265.945312 108.730469 C 288.222656 108.097656 310.035156 116.753906 325.777344 132.496094 C 357.476562 164.191406 357.476562 215.792969 325.777344 247.492188 C 311.347656 261.917969 292.210938 270.363281 271.84375 271.210938 C 270.953125 291.535156 262.550781 310.714844 248.125 325.144531 C 216.425781 356.84375 164.824219 356.84375 133.128906 325.144531 Z M 133.128906 325.144531 " clip-rule="nonzero"/></clipPath><clipPath id="66a444cb94"><path d="M 0 0 L 325 0 L 325 324 L 0 324 Z M 0 0 " clip-rule="nonzero"/></clipPath><clipPath id="c5d1b26357"><path d="M 159.683594 -33.597656 L 358.273438 164.992188 L 165.625 357.640625 L -32.964844 159.050781 Z M 159.683594 -33.597656 " clip-rule="nonzero"/></clipPath><clipPath id="4ff29252b0"><path d="M 108.128906 300.144531 C 92.386719 284.402344 83.730469 262.589844 84.363281 240.3125 C 62.085938 240.949219 40.277344 232.292969 24.535156 216.550781 C -7.164062 184.851562 -7.164062 133.253906 24.535156 101.554688 C 38.960938 87.128906 58.097656 78.683594 78.46875 77.835938 C 79.316406 57.464844 87.761719 38.328125 102.1875 23.902344 C 133.886719 -7.796875 185.484375 -7.796875 217.183594 23.902344 C 232.925781 39.644531 241.582031 61.453125 240.945312 83.730469 C 263.222656 83.097656 285.035156 91.753906 300.777344 107.496094 C 332.476562 139.191406 332.476562 190.792969 300.777344 222.492188 C 286.347656 236.917969 267.210938 245.363281 246.84375 246.210938 C 245.953125 266.535156 237.550781 285.714844 223.125 300.144531 C 191.425781 331.84375 139.824219 331.84375 108.128906 300.144531 Z M 108.128906 300.144531 " clip-rule="nonzero"/></clipPath><clipPath id="4bf859e75b"><rect x="0" width="325" y="0" height="324"/></clipPath><clipPath id="291eed22c4"><path d="M 184.175781 -42.175781 L 416.855469 190.503906 L 191.136719 416.21875 L -41.539062 183.542969 Z M 184.175781 -42.175781 " clip-rule="nonzero"/></clipPath><clipPath id="9d0546fc85"><path d="M 123.769531 348.851562 C 105.324219 330.40625 95.183594 304.851562 95.929688 278.75 C 69.828125 279.496094 44.273438 269.355469 25.828125 250.910156 C -11.3125 213.769531 -11.3125 153.3125 25.828125 116.175781 C 42.730469 99.269531 65.152344 89.375 89.019531 88.382812 C 90.011719 64.519531 99.90625 42.09375 116.808594 25.191406 C 153.949219 -11.949219 214.40625 -11.949219 251.542969 25.191406 C 269.988281 43.636719 280.132812 69.191406 279.386719 95.292969 C 305.488281 94.546875 331.042969 104.691406 349.488281 123.136719 C 386.625 160.273438 386.625 220.730469 349.488281 257.871094 C 332.582031 274.773438 310.160156 284.667969 286.296875 285.660156 C 285.253906 309.476562 275.410156 331.949219 258.503906 348.851562 C 221.367188 385.992188 160.910156 385.992188 123.769531 348.851562 Z M 123.769531 348.851562 " clip-rule="nonzero"/></clipPath><clipPath id="a6cfa6f597"><path d="M 0 0 L 375 0 L 375 375 L 0 375 Z M 0 0 " clip-rule="nonzero"/></clipPath><clipPath id="0a554f6a4c"><path d="M 184.175781 -42.175781 L 416.855469 190.503906 L 191.136719 416.21875 L -41.539062 183.542969 Z M 184.175781 -42.175781 " clip-rule="nonzero"/></clipPath><clipPath id="950d330bbe"><path d="M 123.769531 348.851562 C 105.324219 330.40625 95.183594 304.851562 95.929688 278.75 C 69.828125 279.496094 44.273438 269.355469 25.828125 250.910156 C -11.3125 213.769531 -11.3125 153.3125 25.828125 116.175781 C 42.730469 99.269531 65.152344 89.375 89.019531 88.382812 C 90.011719 64.519531 99.90625 42.09375 116.808594 25.191406 C 153.949219 -11.949219 214.40625 -11.949219 251.542969 25.191406 C 269.988281 43.636719 280.132812 69.191406 279.386719 95.292969 C 305.488281 94.546875 331.042969 104.691406 349.488281 123.136719 C 386.625 160.273438 386.625 220.730469 349.488281 257.871094 C 332.582031 274.773438 310.160156 284.667969 286.296875 285.660156 C 285.253906 309.476562 275.410156 331.949219 258.503906 348.851562 C 221.367188 385.992188 160.910156 385.992188 123.769531 348.851562 Z M 123.769531 348.851562 " clip-rule="nonzero"/></clipPath><clipPath id="517183df83"><rect x="0" width="375" y="0" height="375"/></clipPath><clipPath id="69d137d819"><path d="M 184.175781 -42.175781 L 416.992188 190.640625 L 191.070312 416.558594 L -41.742188 183.746094 Z M 184.175781 -42.175781 " clip-rule="nonzero"/></clipPath><clipPath id="30f5b63144"><path d="M 184.175781 -42.175781 L 416.851562 190.5 L 191.136719 416.210938 L -41.535156 183.539062 Z M 184.175781 -42.175781 " clip-rule="nonzero"/></clipPath><clipPath id="825e6b8ded"><path d="M 123.769531 348.847656 C 105.328125 330.402344 95.183594 304.847656 95.929688 278.746094 C 69.828125 279.492188 44.273438 269.347656 25.828125 250.902344 C -11.308594 213.765625 -11.308594 153.308594 25.828125 116.171875 C 42.734375 99.269531 65.15625 89.375 89.019531 88.378906 C 90.015625 64.515625 99.90625 42.09375 116.8125 25.191406 C 153.949219 -11.949219 214.40625 -11.949219 251.542969 25.191406 C 269.988281 43.636719 280.128906 69.191406 279.382812 95.292969 C 305.484375 94.546875 331.039062 104.6875 349.484375 123.132812 C 386.625 160.269531 386.625 220.726562 349.484375 257.863281 C 332.582031 274.769531 310.160156 284.660156 286.296875 285.65625 C 285.25 309.46875 275.40625 331.941406 258.503906 348.847656 C 221.363281 385.984375 160.910156 385.984375 123.769531 348.847656 Z M 123.769531 348.847656 " clip-rule="nonzero"/></clipPath><clipPath id="aff8164644"><path d="M 120.136719 119.496094 L 255 119.496094 L 255 254.546875 L 120.136719 254.546875 Z M 120.136719 119.496094 " clip-rule="nonzero"/></clipPath><clipPath id="87a3b29f54"><path d="M 222.976562 189.472656 C 222.832031 191.570312 222.507812 193.621094 222.015625 195.601562 L 252.425781 205.480469 L 250.90625 210.148438 L 220.5 200.269531 C 219.71875 202.199219 218.773438 204.050781 217.679688 205.792969 L 243.550781 224.589844 L 240.664062 228.5625 L 214.789062 209.761719 C 213.460938 211.351562 211.992188 212.816406 210.40625 214.148438 L 229.203125 240.023438 L 225.234375 242.90625 L 206.4375 217.035156 C 204.691406 218.128906 202.84375 219.078125 200.910156 219.855469 L 210.792969 250.265625 L 206.121094 251.78125 L 196.242188 221.375 C 194.257812 221.867188 192.214844 222.195312 190.117188 222.335938 L 190.117188 254.316406 L 185.207031 254.316406 L 185.207031 222.339844 C 183.109375 222.195312 181.0625 221.871094 179.082031 221.375 L 169.199219 251.785156 L 164.53125 250.269531 L 174.410156 219.859375 C 172.476562 219.078125 170.628906 218.132812 168.882812 217.039062 L 150.085938 242.910156 L 146.117188 240.023438 L 164.914062 214.152344 C 163.328125 212.820312 161.859375 211.351562 160.53125 209.765625 L 134.65625 228.566406 L 131.769531 224.59375 L 157.640625 205.796875 C 156.546875 204.050781 155.601562 202.207031 154.820312 200.273438 L 124.414062 210.152344 L 122.898438 205.484375 L 153.308594 195.601562 C 152.8125 193.621094 152.488281 191.574219 152.34375 189.476562 L 120.359375 189.476562 L 120.359375 184.566406 L 152.34375 184.566406 C 152.488281 182.46875 152.8125 180.421875 153.304688 178.441406 L 122.894531 168.558594 L 124.410156 163.890625 L 154.820312 173.769531 C 155.601562 171.839844 156.546875 169.988281 157.640625 168.246094 L 131.769531 149.449219 L 134.65625 145.476562 L 160.53125 164.277344 C 161.859375 162.6875 163.328125 161.222656 164.914062 159.890625 L 146.117188 134.015625 L 150.085938 131.128906 L 168.882812 157.003906 C 170.628906 155.910156 172.476562 154.960938 174.410156 154.183594 L 164.527344 123.773438 L 169.195312 122.257812 L 179.078125 152.664062 C 181.0625 152.171875 183.105469 151.84375 185.203125 151.703125 L 185.203125 119.722656 L 190.113281 119.722656 L 190.113281 151.703125 C 192.210938 151.847656 194.257812 152.171875 196.238281 152.664062 L 206.121094 122.257812 L 210.789062 123.773438 L 200.90625 154.183594 C 202.839844 154.960938 204.6875 155.910156 206.433594 157.003906 L 225.230469 131.128906 L 229.203125 134.015625 L 210.402344 159.890625 C 211.988281 161.222656 213.457031 162.6875 214.789062 164.277344 L 240.660156 145.476562 L 243.546875 149.449219 L 217.675781 168.246094 C 218.769531 169.988281 219.714844 171.835938 220.496094 173.769531 L 250.90625 163.890625 L 252.421875 168.558594 L 222.011719 178.4375 C 222.503906 180.421875 222.832031 182.46875 222.976562 184.566406 L 254.957031 184.566406 L 254.957031 189.472656 Z M 222.976562 189.472656 " clip-rule="nonzero"/></clipPath><clipPath id="025f81365b"><path d="M 0.238281 0.761719 L 135 0.761719 L 135 135.398438 L 0.238281 135.398438 Z M 0.238281 0.761719 " clip-rule="nonzero"/></clipPath><clipPath id="7c3d46c356"><path d="M 102.976562 70.472656 C 102.832031 72.570312 102.507812 74.621094 102.015625 76.601562 L 132.425781 86.480469 L 130.90625 91.148438 L 100.5 81.269531 C 99.71875 83.199219 98.773438 85.050781 97.679688 86.792969 L 123.550781 105.589844 L 120.664062 109.5625 L 94.789062 90.761719 C 93.460938 92.351562 91.992188 93.816406 90.40625 95.148438 L 109.203125 121.023438 L 105.234375 123.90625 L 86.4375 98.035156 C 84.691406 99.128906 82.84375 100.078125 80.910156 100.855469 L 90.792969 131.265625 L 86.121094 132.78125 L 76.242188 102.375 C 74.257812 102.867188 72.214844 103.195312 70.117188 103.335938 L 70.117188 135.316406 L 65.207031 135.316406 L 65.207031 103.339844 C 63.109375 103.195312 61.0625 102.871094 59.082031 102.375 L 49.199219 132.785156 L 44.53125 131.269531 L 54.410156 100.859375 C 52.476562 100.078125 50.628906 99.132812 48.882812 98.039062 L 30.085938 123.910156 L 26.117188 121.023438 L 44.914062 95.152344 C 43.328125 93.820312 41.859375 92.351562 40.53125 90.765625 L 14.65625 109.566406 L 11.769531 105.59375 L 37.640625 86.796875 C 36.546875 85.050781 35.601562 83.207031 34.820312 81.273438 L 4.414062 91.152344 L 2.898438 86.484375 L 33.308594 76.601562 C 32.8125 74.621094 32.488281 72.574219 32.34375 70.476562 L 0.359375 70.476562 L 0.359375 65.566406 L 32.34375 65.566406 C 32.488281 63.46875 32.8125 61.421875 33.304688 59.441406 L 2.894531 49.558594 L 4.410156 44.890625 L 34.820312 54.769531 C 35.601562 52.839844 36.546875 50.988281 37.640625 49.246094 L 11.769531 30.449219 L 14.65625 26.476562 L 40.53125 45.277344 C 41.859375 43.6875 43.328125 42.222656 44.914062 40.890625 L 26.117188 15.015625 L 30.085938 12.128906 L 48.882812 38.003906 C 50.628906 36.910156 52.476562 35.960938 54.410156 35.183594 L 44.527344 4.773438 L 49.195312 3.257812 L 59.078125 33.664062 C 61.0625 33.171875 63.105469 32.84375 65.203125 32.703125 L 65.203125 0.722656 L 70.113281 0.722656 L 70.113281 32.703125 C 72.210938 32.847656 74.257812 33.171875 76.238281 33.664062 L 86.121094 3.257812 L 90.789062 4.773438 L 80.90625 35.183594 C 82.839844 35.960938 84.6875 36.910156 86.433594 38.003906 L 105.230469 12.128906 L 109.203125 15.015625 L 90.402344 40.890625 C 91.988281 42.222656 93.457031 43.6875 94.789062 45.277344 L 120.660156 26.476562 L 123.546875 30.449219 L 97.675781 49.246094 C 98.769531 50.988281 99.714844 52.835938 100.496094 54.769531 L 130.90625 44.890625 L 132.421875 49.558594 L 102.011719 59.4375 C 102.503906 61.421875 102.832031 63.46875 102.976562 65.566406 L 134.957031 65.566406 L 134.957031 70.472656 Z M 102.976562 70.472656 " clip-rule="nonzero"/></clipPath><clipPath id="5e5cadf07c"><rect x="0" width="135" y="0" height="136"/></clipPath></defs><g clip-path="url(#83cf522849)"><g clip-path="url(#d52a93b99c)"><g clip-path="url(#f700cd5017)"><g transform="matrix(1, 0, 0, 1, 25, 25)"><g clip-path="url(#4bf859e75b)"><g clip-path="url(#66a444cb94)"><g clip-path="url(#c5d1b26357)"><g clip-path="url(#4ff29252b0)"><path fill="#ffffff" d="M 159.683594 -33.597656 L 358.273438 164.992188 L 165.625 357.640625 L -32.964844 159.050781 Z M 159.683594 -33.597656 " fill-opacity="1" fill-rule="nonzero"/></g></g></g></g></g></g></g></g><g clip-path="url(#291eed22c4)"><g clip-path="url(#9d0546fc85)"><g transform="matrix(1, 0, 0, 1, 0, 0)"><g clip-path="url(#517183df83)"><g clip-path="url(#a6cfa6f597)"><g clip-path="url(#0a554f6a4c)"><g clip-path="url(#950d330bbe)"><path fill="#ffd967" d="M 184.175781 -42.175781 L 416.855469 190.503906 L 191.136719 416.21875 L -41.539062 183.542969 Z M 184.175781 -42.175781 " fill-opacity="1" fill-rule="nonzero"/></g></g></g></g></g></g></g><g clip-path="url(#69d137d819)"><g clip-path="url(#30f5b63144)"><g clip-path="url(#825e6b8ded)"><path stroke-linecap="butt" transform="matrix(0.53033, 0.53033, -0.53033, 0.53033, 184.177024, -42.175368)" fill="none" stroke-linejoin="miter" d="M 311.707331 425.612799 C 276.930197 425.609117 243.272648 411.080281 219.367282 385.768066 C 195.461915 411.080281 161.804367 425.609117 127.02355 425.609117 C 56.997877 425.609117 -0.00156202 368.609677 -0.00156202 298.584005 C 0.00212083 266.708955 11.813015 236.240753 33.372407 212.803108 C 11.813015 189.365463 -0.00156202 158.900944 0.00212083 127.025894 C -0.00156202 56.996538 56.997877 -0.00290075 127.027233 0.000782094 C 161.80805 0.000782094 195.461915 14.5333 219.367282 39.845515 C 243.272648 14.5333 276.926514 0.000782094 311.707331 0.000782094 C 381.736686 -0.00290075 438.736126 56.996538 438.732443 127.025894 C 438.736126 158.900944 426.921549 189.365463 405.362157 212.803108 C 426.825795 236.240753 438.732443 266.708955 438.736126 298.584005 C 438.732443 368.61336 381.736686 425.609117 311.707331 425.612799 Z M 311.707331 425.612799 " stroke="#ffffff" stroke-width="8" stroke-opacity="1" stroke-miterlimit="4"/></g></g></g><g clip-path="url(#aff8164644)"><g clip-path="url(#87a3b29f54)"><g transform="matrix(1, 0, 0, 1, 120, 119)"><g clip-path="url(#5e5cadf07c)"><g clip-path="url(#025f81365b)"><g clip-path="url(#7c3d46c356)"><path fill="#ffffff" d="M 0.40625 0.769531 L 134.910156 0.769531 L 134.910156 135.273438 L 0.40625 135.273438 Z M 0.40625 0.769531 " fill-opacity="1" fill-rule="nonzero"/></g></g></g></g></g></g></svg>