<svg xmlns="http://www.w3.org/2000/svg" xmlns:xlink="http://www.w3.org/1999/xlink" width="500" zoomAndPan="magnify" viewBox="0 0 375 374.999991" height="500" preserveAspectRatio="xMidYMid meet" version="1.0"><defs><g/><clipPath id="951e8bcdec"><path d="M 7.527344 11.941406 L 363.777344 11.941406 L 363.777344 368.191406 L 7.527344 368.191406 Z M 7.527344 11.941406 " clip-rule="nonzero"/></clipPath></defs><path fill="#000000" d="M 187.476562 374.953125 C 84.101562 374.953125 0 290.851562 0 187.476562 C 0 84.101562 84.101562 0 187.476562 0 C 290.851562 0 374.953125 84.101562 374.953125 187.476562 C 374.953125 290.851562 290.851562 374.953125 187.476562 374.953125 Z M 187.476562 18.335938 C 94.210938 18.335938 18.335938 94.210938 18.335938 187.476562 C 18.335938 280.742188 94.210938 356.617188 187.476562 356.617188 C 280.742188 356.617188 356.617188 280.742188 356.617188 187.476562 C 356.617188 94.210938 280.742188 18.335938 187.476562 18.335938 Z M 187.476562 18.335938 " fill-opacity="1" fill-rule="nonzero"/><g clip-path="url(#951e8bcdec)"><path fill="#000000" d="M 363.65625 190.003906 C 363.65625 192.917969 363.585938 195.832031 363.441406 198.742188 C 363.296875 201.652344 363.085938 204.558594 362.796875 207.457031 C 362.511719 210.355469 362.15625 213.25 361.730469 216.132812 C 361.300781 219.015625 360.804688 221.882812 360.234375 224.742188 C 359.667969 227.601562 359.027344 230.441406 358.320312 233.269531 C 357.613281 236.097656 356.835938 238.90625 355.988281 241.691406 C 355.144531 244.480469 354.230469 247.246094 353.246094 249.992188 C 352.265625 252.734375 351.21875 255.453125 350.101562 258.144531 C 348.988281 260.839844 347.804688 263.5 346.558594 266.136719 C 345.3125 268.769531 344.003906 271.371094 342.628906 273.941406 C 341.257812 276.511719 339.820312 279.046875 338.324219 281.546875 C 336.824219 284.046875 335.265625 286.507812 333.648438 288.929688 C 332.027344 291.355469 330.351562 293.734375 328.613281 296.078125 C 326.878906 298.417969 325.085938 300.714844 323.238281 302.964844 C 321.390625 305.21875 319.484375 307.425781 317.527344 309.585938 C 315.570312 311.742188 313.5625 313.851562 311.503906 315.914062 C 309.441406 317.972656 307.332031 319.984375 305.171875 321.941406 C 303.011719 323.898438 300.808594 325.800781 298.554688 327.648438 C 296.300781 329.496094 294.003906 331.289062 291.664062 333.027344 C 289.324219 334.761719 286.941406 336.4375 284.519531 338.058594 C 282.097656 339.675781 279.636719 341.234375 277.136719 342.734375 C 274.636719 344.230469 272.101562 345.667969 269.53125 347.042969 C 266.960938 348.414062 264.359375 349.726562 261.722656 350.972656 C 259.089844 352.21875 256.425781 353.398438 253.734375 354.511719 C 251.042969 355.628906 248.324219 356.675781 245.582031 357.660156 C 242.835938 358.640625 240.070312 359.554688 237.28125 360.398438 C 234.492188 361.246094 231.683594 362.023438 228.859375 362.730469 C 226.03125 363.4375 223.1875 364.078125 220.332031 364.644531 C 217.472656 365.214844 214.601562 365.710938 211.71875 366.140625 C 208.835938 366.566406 205.945312 366.925781 203.046875 367.210938 C 200.144531 367.496094 197.238281 367.710938 194.328125 367.851562 C 191.417969 367.996094 188.507812 368.066406 185.59375 368.066406 C 182.679688 368.066406 179.765625 367.996094 176.855469 367.851562 C 173.945312 367.710938 171.039062 367.496094 168.140625 367.210938 C 165.238281 366.925781 162.347656 366.566406 159.464844 366.140625 C 156.582031 365.710938 153.710938 365.214844 150.855469 364.644531 C 147.996094 364.078125 145.152344 363.4375 142.328125 362.730469 C 139.5 362.023438 136.691406 361.246094 133.902344 360.398438 C 131.113281 359.554688 128.347656 358.640625 125.605469 357.660156 C 122.859375 356.675781 120.144531 355.628906 117.449219 354.511719 C 114.757812 353.398438 112.09375 352.21875 109.460938 350.972656 C 106.824219 349.726562 104.222656 348.414062 101.652344 347.042969 C 99.082031 345.667969 96.550781 344.230469 94.050781 342.734375 C 91.550781 341.234375 89.089844 339.675781 86.664062 338.058594 C 84.242188 336.441406 81.859375 334.761719 79.519531 333.027344 C 77.179688 331.289062 74.882812 329.496094 72.628906 327.648438 C 70.378906 325.800781 68.171875 323.898438 66.011719 321.941406 C 63.851562 319.984375 61.742188 317.972656 59.683594 315.914062 C 57.621094 313.851562 55.613281 311.742188 53.65625 309.585938 C 51.699219 307.425781 49.796875 305.21875 47.945312 302.964844 C 46.097656 300.714844 44.304688 298.417969 42.570312 296.078125 C 40.835938 293.734375 39.15625 291.355469 37.539062 288.929688 C 35.917969 286.507812 34.359375 284.046875 32.863281 281.546875 C 31.363281 279.046875 29.929688 276.511719 28.554688 273.941406 C 27.179688 271.371094 25.871094 268.769531 24.625 266.136719 C 23.378906 263.5 22.199219 260.839844 21.082031 258.144531 C 19.96875 255.453125 18.917969 252.734375 17.9375 249.992188 C 16.957031 247.246094 16.042969 244.480469 15.195312 241.691406 C 14.351562 238.90625 13.574219 236.097656 12.863281 233.269531 C 12.15625 230.441406 11.519531 227.601562 10.949219 224.742188 C 10.382812 221.882812 9.882812 219.015625 9.457031 216.132812 C 9.027344 213.25 8.671875 210.355469 8.386719 207.457031 C 8.101562 204.558594 7.886719 201.652344 7.742188 198.742188 C 7.601562 195.832031 7.527344 192.917969 7.527344 190.003906 C 7.527344 187.089844 7.601562 184.175781 7.742188 181.265625 C 7.886719 178.355469 8.101562 175.449219 8.386719 172.550781 C 8.671875 169.652344 9.027344 166.757812 9.457031 163.875 C 9.882812 160.992188 10.382812 158.125 10.949219 155.265625 C 11.519531 152.40625 12.15625 149.566406 12.863281 146.738281 C 13.574219 143.910156 14.351562 141.101562 15.195312 138.316406 C 16.042969 135.527344 16.957031 132.761719 17.9375 130.015625 C 18.917969 127.273438 19.96875 124.554688 21.082031 121.863281 C 22.199219 119.167969 23.378906 116.507812 24.625 113.871094 C 25.871094 111.238281 27.179688 108.636719 28.554688 106.066406 C 29.929688 103.496094 31.363281 100.960938 32.863281 98.460938 C 34.359375 95.960938 35.917969 93.5 37.539062 91.078125 C 39.15625 88.652344 40.835938 86.273438 42.570312 83.929688 C 44.304688 81.589844 46.097656 79.292969 47.945312 77.042969 C 49.796875 74.789062 51.699219 72.582031 53.65625 70.421875 C 55.613281 68.265625 57.621094 66.15625 59.683594 64.09375 C 61.742188 62.035156 63.851562 60.023438 66.011719 58.066406 C 68.171875 56.109375 70.378906 54.207031 72.628906 52.359375 C 74.882812 50.511719 77.179688 48.71875 79.519531 46.980469 C 81.859375 45.246094 84.242188 43.570312 86.664062 41.949219 C 89.089844 40.332031 91.550781 38.773438 94.050781 37.273438 C 96.550781 35.777344 99.082031 34.339844 101.652344 32.964844 C 104.222656 31.59375 106.824219 30.28125 109.460938 29.035156 C 112.09375 27.789062 114.757812 26.609375 117.449219 25.496094 C 120.144531 24.378906 122.859375 23.332031 125.605469 22.347656 C 128.347656 21.367188 131.113281 20.453125 133.902344 19.609375 C 136.691406 18.761719 139.5 17.984375 142.328125 17.277344 C 145.152344 16.570312 147.996094 15.929688 150.855469 15.363281 C 153.710938 14.792969 156.582031 14.296875 159.464844 13.867188 C 162.347656 13.441406 165.238281 13.082031 168.140625 12.796875 C 171.039062 12.511719 173.945312 12.296875 176.855469 12.15625 C 179.765625 12.011719 182.679688 11.941406 185.59375 11.941406 C 188.507812 11.941406 191.417969 12.011719 194.328125 12.15625 C 197.238281 12.296875 200.144531 12.511719 203.046875 12.796875 C 205.945312 13.082031 208.835938 13.441406 211.71875 13.867188 C 214.601562 14.296875 217.472656 14.792969 220.332031 15.363281 C 223.1875 15.929688 226.03125 16.570312 228.859375 17.277344 C 231.683594 17.984375 234.492188 18.761719 237.28125 19.609375 C 240.070312 20.453125 242.835938 21.367188 245.582031 22.347656 C 248.324219 23.332031 251.042969 24.378906 253.734375 25.496094 C 256.425781 26.609375 259.089844 27.789062 261.722656 29.035156 C 264.359375 30.28125 266.960938 31.59375 269.53125 32.964844 C 272.101562 34.339844 274.636719 35.777344 277.136719 37.273438 C 279.636719 38.773438 282.097656 40.332031 284.519531 41.949219 C 286.941406 43.570312 289.324219 45.246094 291.664062 46.980469 C 294.003906 48.71875 296.300781 50.511719 298.554688 52.359375 C 300.808594 54.207031 303.011719 56.109375 305.171875 58.066406 C 307.332031 60.023438 309.441406 62.035156 311.503906 64.09375 C 313.5625 66.15625 315.570312 68.265625 317.527344 70.421875 C 319.484375 72.582031 321.390625 74.789062 323.238281 77.042969 C 325.085938 79.292969 326.878906 81.589844 328.613281 83.929688 C 330.351562 86.273438 332.027344 88.652344 333.648438 91.078125 C 335.265625 93.5 336.824219 95.960938 338.324219 98.460938 C 339.820312 100.960938 341.257812 103.496094 342.628906 106.066406 C 344.003906 108.636719 345.3125 111.238281 346.558594 113.871094 C 347.804688 116.507812 348.988281 119.167969 350.101562 121.863281 C 351.21875 124.554688 352.265625 127.273438 353.246094 130.015625 C 354.230469 132.761719 355.144531 135.527344 355.988281 138.316406 C 356.835938 141.101562 357.613281 143.910156 358.320312 146.738281 C 359.027344 149.566406 359.667969 152.40625 360.234375 155.265625 C 360.804688 158.125 361.300781 160.992188 361.730469 163.875 C 362.15625 166.757812 362.511719 169.652344 362.796875 172.550781 C 363.085938 175.449219 363.296875 178.355469 363.441406 181.265625 C 363.585938 184.175781 363.65625 187.089844 363.65625 190.003906 Z M 363.65625 190.003906 " fill-opacity="1" fill-rule="nonzero"/></g><g fill="#ffffff" fill-opacity="1"><g transform="translate(43.069338, 239.624984)"><g><path d="M 42.6875 -126.578125 C 37.78125 -115.347656 34.316406 -103.328125 32.296875 -90.515625 C 30.273438 -77.703125 29.265625 -65.191406 29.265625 -52.984375 C 29.265625 -39.242188 30.488281 -25.695312 32.9375 -12.34375 C 35.394531 1.007812 38.644531 11.9375 42.6875 20.4375 L 28.625 30.09375 C 23.382812 19.945312 19.316406 7.65625 16.421875 -6.78125 C 13.535156 -21.226562 12.09375 -36.957031 12.09375 -53.96875 C 12.09375 -70.101562 13.617188 -85.445312 16.671875 -100 C 19.734375 -114.550781 23.71875 -126.570312 28.625 -136.0625 Z M 42.6875 -126.578125 "/></g></g></g><g fill="#ffffff" fill-opacity="1"><g transform="translate(87.387371, 239.624984)"><g/></g></g><g fill="#ffffff" fill-opacity="1"><g transform="translate(134.64903, 239.624984)"><g><path d="M 33.359375 -123.296875 L 52.984375 -85.03125 L 70.96875 -123.296875 L 99.421875 -123.296875 L 65.25 -65.25 L 103.1875 0 L 75.21875 0 L 50.375 -45.140625 L 26.8125 0 L -1.3125 0 L 38.109375 -65.25 L 4.90625 -123.296875 Z M 33.359375 -123.296875 "/></g></g></g><g fill="#ffffff" fill-opacity="1"><g transform="translate(236.531424, 239.624984)"><g/></g></g><g fill="#ffffff" fill-opacity="1"><g transform="translate(283.793094, 239.624984)"><g><path d="M 15.703125 -136.0625 C 21.046875 -125.050781 25.132812 -112.238281 27.96875 -97.625 C 30.800781 -83.019531 32.21875 -68.46875 32.21875 -53.96875 C 32.21875 -36.957031 30.769531 -21.226562 27.875 -6.78125 C 24.988281 7.65625 20.929688 19.945312 15.703125 30.09375 L 1.640625 20.4375 C 6.429688 9.863281 9.863281 -1.820312 11.9375 -14.625 C 14.007812 -27.4375 15.046875 -40.222656 15.046875 -52.984375 C 15.046875 -65.191406 14.035156 -77.644531 12.015625 -90.34375 C 10.003906 -103.050781 6.546875 -115.128906 1.640625 -126.578125 Z M 15.703125 -136.0625 "/></g></g></g></svg>