<svg xmlns="http://www.w3.org/2000/svg" xmlns:xlink="http://www.w3.org/1999/xlink" width="500" zoomAndPan="magnify" viewBox="0 0 375 374.999991" height="500" preserveAspectRatio="xMidYMid meet" version="1.0"><defs><clipPath id="e30fef8a84"><path d="M 72.300781 86.125 L 302.550781 86.125 L 302.550781 119 L 72.300781 119 Z M 72.300781 86.125 " clip-rule="nonzero"/></clipPath><clipPath id="03041d2d13"><path d="M 72.300781 127 L 302.550781 127 L 302.550781 288.625 L 72.300781 288.625 Z M 72.300781 127 " clip-rule="nonzero"/></clipPath></defs><g clip-path="url(#e30fef8a84)"><path fill="#000000" d="M 302.550781 118.339844 L 302.550781 99.222656 C 302.550781 92 296.671875 86.125 289.445312 86.125 L 85.40625 86.125 C 78.179688 86.125 72.300781 92 72.300781 99.222656 L 72.300781 118.339844 Z M 302.550781 118.339844 " fill-opacity="1" fill-rule="nonzero"/></g><g clip-path="url(#03041d2d13)"><path fill="#000000" d="M 72.300781 127.542969 L 72.300781 284.019531 C 72.300781 286.566406 74.363281 288.621094 76.90625 288.621094 L 297.945312 288.621094 C 300.492188 288.621094 302.550781 286.566406 302.550781 284.019531 L 302.550781 127.542969 Z M 142.929688 228.679688 C 144.648438 232.148438 147.359375 234.179688 151.214844 234.894531 C 151.527344 234.953125 151.796875 235.128906 151.96875 235.394531 C 152.144531 235.65625 152.199219 235.976562 152.132812 236.277344 L 151.367188 239.609375 C 151.242188 240.132812 150.773438 240.496094 150.242188 240.496094 C 150.199219 240.496094 150.152344 240.492188 150.101562 240.488281 C 143.59375 239.671875 138.46875 236.699219 134.871094 231.65625 C 131.328125 226.679688 129.53125 219.941406 129.53125 211.617188 C 129.53125 196.542969 133.09375 183.511719 140.132812 172.894531 C 147.230469 162.183594 156.148438 156.03125 166.636719 154.609375 C 167 154.570312 167.375 154.6875 167.632812 154.964844 C 167.886719 155.234375 167.996094 155.613281 167.921875 155.976562 L 167.203125 159.617188 C 167.113281 160.078125 166.746094 160.441406 166.277344 160.523438 C 162.664062 161.167969 159.195312 163.09375 155.976562 166.257812 C 152.6875 169.480469 149.769531 173.921875 147.292969 179.453125 C 145.085938 184.332031 143.34375 190.023438 142.109375 196.375 C 140.867188 202.746094 140.242188 208.902344 140.242188 214.671875 C 140.242188 220.367188 141.144531 225.078125 142.929688 228.679688 Z M 209.929688 222.777344 C 209.832031 223.117188 209.589844 223.402344 209.257812 223.542969 C 206.355469 224.757812 204.117188 225.566406 202.59375 225.945312 C 201.058594 226.332031 199.386719 226.523438 197.613281 226.523438 C 195.289062 226.523438 193.3125 225.976562 191.761719 224.882812 C 190.15625 223.757812 188.933594 221.609375 188.015625 218.320312 C 187.410156 216.113281 186.921875 214.273438 186.542969 212.78125 C 186.382812 212.152344 186.226562 211.53125 186.070312 210.90625 C 185.328125 212.035156 184.675781 213.0625 184.117188 213.960938 C 183.191406 215.453125 181.648438 217.507812 179.53125 220.089844 C 177.628906 222.390625 175.839844 224.0625 174.203125 225.0625 C 172.5 226.097656 170.726562 226.617188 168.929688 226.617188 C 167.234375 226.617188 165.804688 226.105469 164.675781 225.089844 C 163.515625 224.039062 162.925781 222.597656 162.925781 220.789062 C 162.925781 219.054688 163.59375 217.554688 164.910156 216.332031 C 166.210938 215.125 167.96875 214.511719 170.144531 214.511719 C 171.246094 214.511719 172.328125 214.710938 173.367188 215.105469 C 174.054688 215.363281 174.765625 215.609375 175.496094 215.84375 C 176.539062 214.792969 177.859375 213.296875 179.433594 211.378906 C 181.171875 209.261719 182.816406 206.84375 184.328125 204.175781 L 182.589844 197.613281 C 181.921875 195.085938 181.289062 192.878906 180.695312 190.972656 C 179.835938 188.3125 179.007812 187.3125 178.457031 186.949219 C 177.171875 186.085938 175.144531 185.839844 172.699219 186.449219 C 171.738281 186.679688 170.839844 186.917969 170.015625 187.152344 C 169.621094 187.277344 169.183594 187.160156 168.890625 186.863281 C 168.59375 186.566406 168.484375 186.136719 168.597656 185.734375 L 169.457031 182.75 C 169.550781 182.414062 169.796875 182.136719 170.117188 182.003906 C 172.445312 181.03125 174.566406 180.222656 176.425781 179.601562 C 179.066406 178.710938 180.042969 178.609375 180.550781 178.609375 C 182.855469 178.609375 184.816406 179.191406 186.378906 180.339844 C 187.972656 181.503906 189.179688 183.613281 190.066406 186.773438 C 190.996094 190.132812 191.554688 192.1875 191.714844 192.921875 L 192.085938 194.558594 C 192.847656 193.335938 193.515625 192.257812 194.074219 191.304688 C 195 189.730469 196.519531 187.644531 198.582031 185.09375 C 200.582031 182.597656 202.398438 180.90625 204.160156 179.9375 C 207.648438 178.011719 211.164062 177.910156 213.464844 180.054688 C 214.625 181.136719 215.191406 182.542969 215.15625 184.226562 C 215.117188 186.351562 214.304688 187.957031 212.734375 188.996094 C 210.453125 190.511719 207.992188 190.835938 204.664062 189.917969 C 203.839844 189.683594 203.140625 189.484375 202.566406 189.3125 C 201.378906 190.449219 200.011719 192.023438 198.488281 194.015625 C 196.824219 196.191406 195.226562 198.617188 193.746094 201.207031 C 194.417969 203.847656 195.019531 206.121094 195.5625 208.03125 C 196.128906 210.039062 196.730469 212.054688 197.386719 214.074219 C 197.894531 215.710938 198.679688 217.015625 199.738281 217.960938 C 200.75 218.867188 202.058594 219.308594 203.757812 219.308594 C 204.402344 219.308594 205.347656 219.210938 206.539062 219.019531 C 207.71875 218.828125 208.625 218.617188 209.257812 218.390625 C 209.660156 218.246094 210.113281 218.328125 210.40625 218.636719 C 210.722656 218.925781 210.851562 219.371094 210.738281 219.785156 Z M 240.171875 222.203125 C 233.070312 232.90625 224.152344 239.066406 213.664062 240.488281 C 213.605469 240.492188 213.558594 240.496094 213.507812 240.496094 C 213.195312 240.496094 212.886719 240.371094 212.667969 240.132812 C 212.410156 239.855469 212.300781 239.484375 212.378906 239.121094 L 213.097656 235.480469 C 213.195312 235.019531 213.554688 234.652344 214.019531 234.574219 C 217.632812 233.929688 221.105469 232.003906 224.324219 228.839844 C 227.609375 225.621094 230.53125 221.179688 233.003906 215.644531 C 235.183594 210.777344 236.917969 205.082031 238.167969 198.722656 C 239.417969 192.351562 240.054688 186.199219 240.054688 180.425781 C 240.054688 174.730469 239.15625 170.015625 237.367188 166.417969 C 235.648438 162.953125 232.9375 160.917969 229.082031 160.207031 C 228.769531 160.152344 228.5 159.972656 228.324219 159.703125 C 228.15625 159.445312 228.09375 159.125 228.164062 158.820312 L 228.929688 155.492188 C 229.058594 154.914062 229.601562 154.554688 230.195312 154.609375 C 236.703125 155.425781 241.824219 158.398438 245.425781 163.441406 C 248.96875 168.417969 250.761719 175.160156 250.765625 183.480469 C 250.769531 198.566406 247.207031 211.589844 240.171875 222.203125 Z M 240.171875 222.203125 " fill-opacity="1" fill-rule="nonzero"/></g><path fill="#000000" d="M 187.476562 374.953125 C 84.101562 374.953125 0 290.851562 0 187.476562 C 0 84.101562 84.101562 0 187.476562 0 C 290.851562 0 374.953125 84.101562 374.953125 187.476562 C 374.953125 290.851562 290.851562 374.953125 187.476562 374.953125 Z M 187.476562 18.335938 C 94.210938 18.335938 18.335938 94.210938 18.335938 187.476562 C 18.335938 280.742188 94.210938 356.617188 187.476562 356.617188 C 280.742188 356.617188 356.617188 280.742188 356.617188 187.476562 C 356.617188 94.210938 280.742188 18.335938 187.476562 18.335938 Z M 187.476562 18.335938 " fill-opacity="1" fill-rule="nonzero"/></svg>