<svg xmlns="http://www.w3.org/2000/svg" xmlns:xlink="http://www.w3.org/1999/xlink" width="500" zoomAndPan="magnify" viewBox="0 0 375 374.999991" height="500" preserveAspectRatio="xMidYMid meet" version="1.0"><defs><clipPath id="b37d09870b"><path d="M 57 13.425781 L 318 13.425781 L 318 230 L 57 230 Z M 57 13.425781 " clip-rule="nonzero"/></clipPath><clipPath id="7022ec293a"><path d="M 3.292969 59 L 371.542969 59 L 371.542969 291 L 3.292969 291 Z M 3.292969 59 " clip-rule="nonzero"/></clipPath><clipPath id="e9c9fe8405"><path d="M 71 326 L 304 326 L 304 361.425781 L 71 361.425781 Z M 71 326 " clip-rule="nonzero"/></clipPath></defs><path fill="#ff6929" d="M 231.621094 159.824219 C 210.144531 159.824219 192.664062 142.34375 192.664062 120.859375 C 192.664062 99.378906 210.144531 81.902344 231.621094 81.902344 C 253.105469 81.902344 270.585938 99.378906 270.585938 120.859375 C 270.585938 142.34375 253.105469 159.824219 231.621094 159.824219 Z M 231.621094 90.375 C 214.8125 90.375 201.136719 104.046875 201.136719 120.859375 C 201.136719 137.675781 214.8125 151.351562 231.621094 151.351562 C 248.4375 151.351562 262.113281 137.675781 262.113281 120.859375 C 262.113281 104.046875 248.4375 90.375 231.621094 90.375 Z M 231.621094 90.375 " fill-opacity="1" fill-rule="evenodd"/><path fill="#ff6929" d="M 231.628906 143.019531 C 223.03125 143.019531 216.046875 137.101562 216.046875 129.820312 C 216.046875 127.484375 217.949219 125.585938 220.285156 125.585938 C 222.625 125.585938 224.523438 127.484375 224.523438 129.820312 C 224.523438 132.339844 227.839844 134.546875 231.628906 134.546875 C 235.414062 134.546875 238.726562 132.339844 238.726562 129.820312 C 238.726562 127.304688 235.414062 125.09375 231.628906 125.09375 C 223.03125 125.09375 216.046875 119.175781 216.046875 111.894531 C 216.046875 104.617188 223.03125 98.695312 231.628906 98.695312 C 240.21875 98.695312 247.203125 104.617188 247.203125 111.894531 C 247.203125 114.242188 245.300781 116.132812 242.964844 116.132812 C 240.628906 116.132812 238.726562 114.242188 238.726562 111.894531 C 238.726562 109.378906 235.414062 107.171875 231.628906 107.171875 C 227.839844 107.171875 224.523438 109.378906 224.523438 111.894531 C 224.523438 114.414062 227.839844 116.621094 231.628906 116.621094 C 240.21875 116.621094 247.203125 122.542969 247.203125 129.820312 C 247.203125 137.101562 240.21875 143.019531 231.628906 143.019531 Z M 231.628906 143.019531 " fill-opacity="1" fill-rule="evenodd"/><path fill="#ff6929" d="M 231.628906 147.242188 C 229.285156 147.242188 227.390625 145.351562 227.390625 143.003906 L 227.390625 98.710938 C 227.390625 96.375 229.285156 94.476562 231.628906 94.476562 C 233.964844 94.476562 235.867188 96.375 235.867188 98.710938 L 235.867188 143.003906 C 235.867188 145.351562 233.964844 147.242188 231.628906 147.242188 Z M 231.628906 147.242188 " fill-opacity="1" fill-rule="evenodd"/><path fill="#ff6929" d="M 222.730469 195.175781 L 117.648438 195.175781 C 110.347656 195.175781 104.414062 189.234375 104.414062 181.933594 L 104.414062 121.628906 C 104.414062 114.328125 110.347656 108.386719 117.648438 108.386719 L 197.886719 108.386719 C 199.1875 108.386719 200.410156 108.984375 201.214844 110.003906 C 202.023438 111.027344 202.308594 112.363281 202 113.621094 C 201.425781 115.988281 201.136719 118.421875 201.136719 120.859375 C 201.136719 137.667969 214.8125 151.351562 231.621094 151.351562 L 231.664062 151.351562 C 232.800781 151.335938 233.894531 151.765625 234.699219 152.566406 C 235.511719 153.363281 235.964844 154.449219 235.964844 155.585938 L 235.964844 181.933594 C 235.964844 189.234375 230.023438 195.175781 222.730469 195.175781 Z M 117.648438 116.859375 C 115.023438 116.859375 112.886719 118.996094 112.886719 121.628906 L 112.886719 181.933594 C 112.886719 184.566406 115.023438 186.703125 117.648438 186.703125 L 222.730469 186.703125 C 225.355469 186.703125 227.492188 184.566406 227.492188 181.933594 L 227.492188 159.601562 C 207.921875 157.507812 192.664062 140.925781 192.664062 120.859375 C 192.664062 119.519531 192.730469 118.191406 192.867188 116.859375 Z M 117.648438 116.859375 " fill-opacity="1" fill-rule="evenodd"/><path fill="#ff6929" d="M 159.425781 174.007812 C 156.785156 174.007812 154.332031 172.980469 152.511719 171.117188 C 150.613281 169.175781 149.601562 166.476562 149.65625 163.527344 L 149.65625 140.191406 C 149.449219 137.46875 150.339844 134.871094 152.167969 132.847656 C 154.066406 130.757812 156.757812 129.554688 159.554688 129.554688 C 161.265625 129.554688 162.972656 130.015625 164.480469 130.886719 L 185.808594 143.199219 C 188.902344 144.984375 190.75 148.199219 190.75 151.789062 C 190.75 155.378906 188.902344 158.585938 185.808594 160.371094 L 164.777344 172.511719 C 163.160156 173.484375 161.289062 174.007812 159.433594 174.007812 C 159.425781 174.007812 159.425781 174.007812 159.425781 174.007812 Z M 159.554688 138.027344 C 159.152344 138.027344 158.734375 138.214844 158.445312 138.539062 C 158.179688 138.832031 158.074219 139.179688 158.109375 139.589844 C 158.125 139.734375 158.128906 139.871094 158.128906 140.011719 L 158.128906 163.570312 C 158.128906 163.605469 158.128906 163.640625 158.128906 163.679688 C 158.117188 164.347656 158.273438 164.886719 158.578125 165.195312 C 158.851562 165.476562 159.1875 165.535156 159.425781 165.535156 C 159.761719 165.535156 160.128906 165.425781 160.484375 165.210938 L 181.574219 153.03125 C 182.183594 152.679688 182.277344 152.105469 182.277344 151.789062 C 182.277344 151.480469 182.183594 150.898438 181.574219 150.535156 L 160.246094 138.230469 C 160.015625 138.09375 159.785156 138.027344 159.554688 138.027344 Z M 159.554688 138.027344 " fill-opacity="1" fill-rule="evenodd"/><path fill="#ff6929" d="M 84.566406 163.46875 C 82.230469 163.46875 80.332031 161.570312 80.332031 159.234375 L 80.332031 77.886719 C 80.332031 75.550781 82.230469 73.660156 84.566406 73.660156 C 86.90625 73.660156 88.804688 75.550781 88.804688 77.886719 L 88.804688 159.234375 C 88.804688 161.570312 86.90625 163.46875 84.566406 163.46875 Z M 84.566406 163.46875 " fill-opacity="1" fill-rule="evenodd"/><path fill="#ff6929" d="M 84.566406 203.417969 C 82.230469 203.417969 80.332031 201.519531 80.332031 199.183594 L 80.332031 183.011719 C 80.332031 180.667969 82.230469 178.777344 84.566406 178.777344 C 86.90625 178.777344 88.804688 180.667969 88.804688 183.011719 L 88.804688 199.183594 C 88.804688 201.519531 86.90625 203.417969 84.566406 203.417969 Z M 84.566406 203.417969 " fill-opacity="1" fill-rule="evenodd"/><path fill="#ff6929" d="M 290.429688 163.46875 C 288.09375 163.46875 286.195312 161.570312 286.195312 159.234375 L 286.195312 77.886719 C 286.195312 75.550781 288.09375 73.660156 290.429688 73.660156 C 292.769531 73.660156 294.667969 75.550781 294.667969 77.886719 L 294.667969 159.234375 C 294.667969 161.570312 292.769531 163.46875 290.429688 163.46875 Z M 290.429688 163.46875 " fill-opacity="1" fill-rule="evenodd"/><path fill="#ff6929" d="M 290.429688 203.417969 C 288.09375 203.417969 286.195312 201.519531 286.195312 199.183594 L 286.195312 183.011719 C 286.195312 180.667969 288.09375 178.777344 290.429688 178.777344 C 292.769531 178.777344 294.667969 180.667969 294.667969 183.011719 L 294.667969 199.183594 C 294.667969 201.519531 292.769531 203.417969 290.429688 203.417969 Z M 290.429688 203.417969 " fill-opacity="1" fill-rule="evenodd"/><g clip-path="url(#b37d09870b)"><path fill="#ff6929" d="M 301.394531 229.996094 L 73.605469 229.996094 C 64.644531 229.996094 57.351562 222.703125 57.351562 213.75 L 57.351562 29.6875 C 57.351562 20.726562 64.644531 13.4375 73.605469 13.4375 L 301.394531 13.4375 C 310.355469 13.4375 317.640625 20.726562 317.640625 29.6875 L 317.640625 213.75 C 317.640625 222.703125 310.355469 229.996094 301.394531 229.996094 Z M 73.605469 21.910156 C 69.3125 21.910156 65.824219 25.402344 65.824219 29.6875 L 65.824219 213.75 C 65.824219 218.035156 69.3125 221.523438 73.605469 221.523438 L 301.394531 221.523438 C 305.679688 221.523438 309.175781 218.035156 309.175781 213.75 L 309.175781 29.6875 C 309.175781 25.402344 305.679688 21.910156 301.394531 21.910156 Z M 73.605469 21.910156 " fill-opacity="1" fill-rule="evenodd"/></g><path fill="#ff6929" d="M 313.40625 55.546875 L 61.585938 55.546875 C 59.25 55.546875 57.351562 53.65625 57.351562 51.308594 C 57.351562 48.972656 59.25 47.074219 61.585938 47.074219 L 313.40625 47.074219 C 315.75 47.074219 317.640625 48.972656 317.640625 51.308594 C 317.640625 53.65625 315.75 55.546875 313.40625 55.546875 Z M 313.40625 55.546875 " fill-opacity="1" fill-rule="evenodd"/><path fill="#ff6929" d="M 87.539062 38.730469 L 78.886719 38.730469 C 76.546875 38.730469 74.648438 36.832031 74.648438 34.492188 C 74.648438 32.15625 76.546875 30.253906 78.886719 30.253906 L 87.539062 30.253906 C 89.875 30.253906 91.777344 32.15625 91.777344 34.492188 C 91.777344 36.832031 89.875 38.730469 87.539062 38.730469 Z M 87.539062 38.730469 " fill-opacity="1" fill-rule="evenodd"/><path fill="#ff6929" d="M 107.722656 38.730469 L 99.070312 38.730469 C 96.730469 38.730469 94.832031 36.832031 94.832031 34.492188 C 94.832031 32.15625 96.730469 30.253906 99.070312 30.253906 L 107.722656 30.253906 C 110.058594 30.253906 111.957031 32.15625 111.957031 34.492188 C 111.957031 36.832031 110.058594 38.730469 107.722656 38.730469 Z M 107.722656 38.730469 " fill-opacity="1" fill-rule="evenodd"/><path fill="#ff6929" d="M 127.90625 38.730469 L 119.253906 38.730469 C 116.914062 38.730469 115.023438 36.832031 115.023438 34.492188 C 115.023438 32.15625 116.914062 30.253906 119.253906 30.253906 L 127.90625 30.253906 C 130.242188 30.253906 132.140625 32.15625 132.140625 34.492188 C 132.140625 36.832031 130.242188 38.730469 127.90625 38.730469 Z M 127.90625 38.730469 " fill-opacity="1" fill-rule="evenodd"/><path fill="#ff6929" d="M 296.105469 38.730469 L 215.371094 38.730469 C 213.035156 38.730469 211.136719 36.832031 211.136719 34.492188 C 211.136719 32.15625 213.035156 30.253906 215.371094 30.253906 L 296.105469 30.253906 C 298.453125 30.253906 300.34375 32.15625 300.34375 34.492188 C 300.34375 36.832031 298.453125 38.730469 296.105469 38.730469 Z M 296.105469 38.730469 " fill-opacity="1" fill-rule="evenodd"/><g clip-path="url(#7022ec293a)"><path fill="#ff6929" d="M 367.394531 290.535156 L 7.601562 290.535156 C 5.265625 290.535156 3.367188 288.640625 3.367188 286.296875 L 3.367188 63.414062 C 3.367188 61.078125 5.265625 59.179688 7.601562 59.179688 L 61.585938 59.179688 C 63.925781 59.179688 65.824219 61.078125 65.824219 63.414062 L 65.824219 213.75 C 65.824219 218.035156 69.3125 221.523438 73.605469 221.523438 L 301.394531 221.523438 C 305.679688 221.523438 309.175781 218.035156 309.175781 213.75 L 309.175781 63.414062 C 309.175781 61.078125 311.066406 59.179688 313.414062 59.179688 L 367.394531 59.179688 C 369.734375 59.179688 371.632812 61.078125 371.632812 63.414062 L 371.632812 286.296875 C 371.632812 288.640625 369.734375 290.535156 367.394531 290.535156 Z M 11.839844 282.0625 L 363.160156 282.0625 L 363.160156 67.652344 L 317.640625 67.652344 L 317.640625 213.75 C 317.640625 222.703125 310.355469 229.996094 301.394531 229.996094 L 73.605469 229.996094 C 64.644531 229.996094 57.351562 222.710938 57.351562 213.75 L 57.351562 67.652344 L 11.839844 67.652344 Z M 11.839844 282.0625 " fill-opacity="1" fill-rule="evenodd"/></g><path fill="#ff6929" d="M 342.515625 265.652344 L 32.484375 265.652344 C 30.144531 265.652344 28.246094 263.761719 28.246094 261.417969 L 28.246094 88.296875 C 28.246094 85.957031 30.144531 84.058594 32.484375 84.058594 L 61.585938 84.058594 C 63.925781 84.058594 65.824219 85.957031 65.824219 88.296875 L 65.824219 213.75 C 65.824219 218.035156 69.3125 221.523438 73.605469 221.523438 L 301.394531 221.523438 C 305.679688 221.523438 309.175781 218.035156 309.175781 213.75 L 309.175781 88.296875 C 309.175781 85.957031 311.066406 84.058594 313.414062 84.058594 L 342.515625 84.058594 C 344.855469 84.058594 346.753906 85.957031 346.753906 88.296875 L 346.753906 261.425781 C 346.753906 263.761719 344.855469 265.652344 342.515625 265.652344 Z M 36.71875 257.179688 L 338.277344 257.179688 L 338.277344 92.53125 L 317.640625 92.53125 L 317.640625 213.75 C 317.640625 222.710938 310.355469 229.996094 301.394531 229.996094 L 73.605469 229.996094 C 64.644531 229.996094 57.351562 222.710938 57.351562 213.75 L 57.351562 92.53125 L 36.71875 92.53125 Z M 36.71875 257.179688 " fill-opacity="1" fill-rule="evenodd"/><path fill="#ff6929" d="M 250.710938 335.117188 C 250.078125 335.117188 249.429688 334.972656 248.820312 334.671875 C 230.3125 325.414062 223.328125 312.628906 220.730469 303.53125 C 217.875 293.539062 219.558594 285.707031 219.628906 285.382812 C 220.132812 283.097656 222.398438 281.65625 224.679688 282.160156 C 226.960938 282.671875 228.398438 284.921875 227.902344 287.203125 C 227.679688 288.273438 223.019531 312.292969 252.609375 327.089844 C 254.703125 328.140625 255.550781 330.683594 254.507812 332.777344 C 253.769531 334.261719 252.265625 335.117188 250.710938 335.117188 Z M 250.710938 335.117188 " fill-opacity="1" fill-rule="evenodd"/><path fill="#ff6929" d="M 124.289062 335.117188 C 122.734375 335.117188 121.238281 334.261719 120.488281 332.777344 C 119.445312 330.683594 120.296875 328.140625 122.390625 327.089844 C 152.015625 312.269531 147.3125 288.21875 147.097656 287.195312 C 146.613281 284.917969 148.058594 282.664062 150.339844 282.167969 C 152.613281 281.679688 154.863281 283.105469 155.367188 285.382812 C 155.441406 285.714844 157.125 293.546875 154.269531 303.53125 C 151.671875 312.628906 144.6875 325.414062 126.179688 334.671875 C 125.566406 334.972656 124.921875 335.117188 124.289062 335.117188 Z M 124.289062 335.117188 " fill-opacity="1" fill-rule="evenodd"/><g clip-path="url(#e9c9fe8405)"><path fill="#ff6929" d="M 299.507812 361.550781 C 299.507812 361.550781 299.5 361.550781 299.496094 361.550781 L 75.496094 361.550781 C 74.152344 361.550781 72.886719 360.910156 72.089844 359.824219 C 71.289062 358.738281 71.050781 357.335938 71.457031 356.046875 L 79.75 329.613281 C 80.308594 327.84375 81.941406 326.644531 83.792969 326.644531 L 291.199219 326.644531 C 293.058594 326.644531 294.691406 327.84375 295.242188 329.613281 L 303.4375 355.71875 C 303.636719 356.214844 303.746094 356.753906 303.746094 357.3125 C 303.746094 359.660156 301.855469 361.550781 299.507812 361.550781 Z M 81.265625 353.078125 L 293.726562 353.078125 L 288.09375 335.117188 L 86.90625 335.117188 Z M 81.265625 353.078125 " fill-opacity="1" fill-rule="evenodd"/></g></svg>