<svg xmlns="http://www.w3.org/2000/svg" xmlns:xlink="http://www.w3.org/1999/xlink" width="500" zoomAndPan="magnify" viewBox="0 0 375 374.999991" height="500" preserveAspectRatio="xMidYMid meet" version="1.0"><defs><clipPath id="238a221966"><path d="M 4.554688 3.769531 L 370.554688 3.769531 L 370.554688 371.269531 L 4.554688 371.269531 Z M 4.554688 3.769531 " clip-rule="nonzero"/></clipPath></defs><g clip-path="url(#238a221966)"><path fill="#002d72" d="M 316.933594 57.160156 C 282.566406 22.746094 236.855469 3.785156 188.152344 3.769531 C 87.796875 3.769531 6.121094 85.433594 6.085938 185.820312 C 6.066406 217.910156 14.457031 249.230469 30.386719 276.835938 L 4.554688 371.1875 L 101.074219 345.871094 C 127.664062 360.378906 157.605469 368.019531 188.074219 368.027344 L 188.152344 368.027344 C 288.492188 368.027344 370.179688 286.351562 370.210938 185.96875 C 370.230469 137.316406 351.3125 91.582031 316.933594 57.167969 Z M 188.152344 337.28125 L 188.089844 337.28125 C 160.941406 337.273438 134.308594 329.972656 111.070312 316.191406 L 105.542969 312.90625 L 48.265625 327.929688 L 63.550781 272.085938 L 59.957031 266.359375 C 44.808594 242.265625 36.804688 214.417969 36.820312 185.828125 C 36.855469 102.398438 104.738281 34.515625 188.214844 34.515625 C 228.632812 34.53125 266.625 50.289062 295.199219 78.898438 C 323.769531 107.496094 339.492188 145.523438 339.476562 185.949219 C 339.441406 269.390625 271.558594 337.273438 188.152344 337.273438 Z M 271.15625 223.949219 C 266.605469 221.671875 244.242188 210.671875 240.070312 209.152344 C 235.894531 207.632812 232.867188 206.875 229.835938 211.433594 C 226.808594 215.988281 218.085938 226.238281 215.433594 229.265625 C 212.78125 232.304688 210.125 232.679688 205.578125 230.402344 C 201.03125 228.125 186.371094 223.324219 168.992188 207.828125 C 155.46875 195.761719 146.335938 180.871094 143.683594 176.3125 C 141.03125 171.753906 143.40625 169.292969 145.671875 167.03125 C 147.714844 164.988281 150.222656 161.714844 152.5 159.0625 C 154.78125 156.410156 155.53125 154.507812 157.046875 151.476562 C 158.566406 148.4375 157.808594 145.785156 156.671875 143.503906 C 155.539062 141.226562 146.441406 118.835938 142.644531 109.730469 C 138.953125 100.859375 135.199219 102.066406 132.414062 101.917969 C 129.757812 101.785156 126.730469 101.761719 123.691406 101.761719 C 120.65625 101.761719 115.730469 102.894531 111.558594 107.453125 C 107.386719 112.007812 95.632812 123.015625 95.632812 145.398438 C 95.632812 167.785156 111.933594 189.425781 114.210938 192.464844 C 116.488281 195.5 146.292969 241.445312 191.925781 261.15625 C 202.777344 265.84375 211.25 268.648438 217.859375 270.742188 C 228.753906 274.207031 238.671875 273.71875 246.511719 272.550781 C 255.25 271.242188 273.425781 261.542969 277.214844 250.917969 C 281.003906 240.292969 281.003906 231.179688 279.867188 229.285156 C 278.734375 227.390625 275.695312 226.246094 271.148438 223.96875 Z M 271.15625 223.949219 " fill-opacity="1" fill-rule="evenodd"/></g></svg>